%TF.GenerationSoftware,KiCad,Pcbnew,10.0.1*%
%TF.CreationDate,2026-07-08T14:20:03+02:00*%
%TF.ProjectId,aurabip_routed,61757261-6269-4705-9f72-6f757465642e,rev?*%
%TF.SameCoordinates,Original*%
%TF.FileFunction,Copper,L2,Inr*%
%TF.FilePolarity,Positive*%
%FSLAX46Y46*%
G04 Gerber Fmt 4.6, Leading zero omitted, Abs format (unit mm)*
G04 Created by KiCad (PCBNEW 10.0.1) date 2026-07-08 14:20:03*
%MOMM*%
%LPD*%
G01*
G04 APERTURE LIST*
G04 Aperture macros list*
%AMRoundRect*
0 Rectangle with rounded corners*
0 $1 Rounding radius*
0 $2 $3 $4 $5 $6 $7 $8 $9 X,Y pos of 4 corners*
0 Add a 4 corners polygon primitive as box body*
4,1,4,$2,$3,$4,$5,$6,$7,$8,$9,$2,$3,0*
0 Add four circle primitives for the rounded corners*
1,1,$1+$1,$2,$3*
1,1,$1+$1,$4,$5*
1,1,$1+$1,$6,$7*
1,1,$1+$1,$8,$9*
0 Add four rect primitives between the rounded corners*
20,1,$1+$1,$2,$3,$4,$5,0*
20,1,$1+$1,$4,$5,$6,$7,0*
20,1,$1+$1,$6,$7,$8,$9,0*
20,1,$1+$1,$8,$9,$2,$3,0*%
G04 Aperture macros list end*
%TA.AperFunction,ComponentPad*%
%ADD10O,1.000000X2.100000*%
%TD*%
%TA.AperFunction,ComponentPad*%
%ADD11O,1.000000X1.600000*%
%TD*%
%TA.AperFunction,ComponentPad*%
%ADD12RoundRect,0.250000X-0.625000X0.350000X-0.625000X-0.350000X0.625000X-0.350000X0.625000X0.350000X0*%
%TD*%
%TA.AperFunction,ComponentPad*%
%ADD13O,1.750000X1.200000*%
%TD*%
%TA.AperFunction,ComponentPad*%
%ADD14RoundRect,0.250000X0.350000X0.625000X-0.350000X0.625000X-0.350000X-0.625000X0.350000X-0.625000X0*%
%TD*%
%TA.AperFunction,ComponentPad*%
%ADD15O,1.200000X1.750000*%
%TD*%
%TA.AperFunction,ComponentPad*%
%ADD16RoundRect,0.250000X0.625000X-0.350000X0.625000X0.350000X-0.625000X0.350000X-0.625000X-0.350000X0*%
%TD*%
%TA.AperFunction,ViaPad*%
%ADD17C,0.500000*%
%TD*%
G04 APERTURE END LIST*
D10*
%TO.N,GND*%
%TO.C,J1*%
X7680000Y-45870000D03*
D11*
X7680000Y-50050000D03*
D10*
X16320000Y-45870000D03*
D11*
X16320000Y-50050000D03*
%TD*%
D12*
%TO.N,SPK_P*%
%TO.C,J3*%
X46500000Y-43500000D03*
D13*
%TO.N,SPK_N*%
X46500000Y-45500000D03*
%TD*%
D14*
%TO.N,VBAT*%
%TO.C,J2*%
X47000000Y-10500000D03*
D15*
%TO.N,GND*%
X45000000Y-10500000D03*
%TD*%
D16*
%TO.N,+3V3*%
%TO.C,J4*%
X38000000Y-17500000D03*
D13*
%TO.N,GND*%
X38000000Y-15500000D03*
%TO.N,SPI2_MOSI*%
X38000000Y-13500000D03*
%TO.N,SPI2_SCK*%
X38000000Y-11500000D03*
%TO.N,OLED_CS*%
X38000000Y-9500000D03*
%TO.N,OLED_DC*%
X38000000Y-7500000D03*
%TO.N,OLED_RST*%
X38000000Y-5500000D03*
%TO.N,N/C*%
X38000000Y-3500000D03*
%TD*%
D17*
%TO.N,+3V3*%
X26500000Y-7280000D03*
X46887101Y-22802409D03*
X27288320Y-26061314D03*
X6021264Y-35229493D03*
X23000000Y-24510000D03*
X31500000Y-27010000D03*
X45500000Y-22480000D03*
X45500000Y-25980000D03*
X17500000Y-37510000D03*
X23000000Y-20980000D03*
X46163291Y-21814519D03*
X48634121Y-25648069D03*
X28082648Y-28521063D03*
X26500000Y-10775000D03*
X31500000Y-30510000D03*
X13000000Y-47275000D03*
X10500000Y-46980000D03*
X8000000Y-37775000D03*
X9182001Y-33485876D03*
X29000000Y-28480000D03*
X49128733Y-21116768D03*
%TO.N,I2C_SCL*%
X23700000Y-36000000D03*
X35100000Y-29300000D03*
X32200000Y-32100000D03*
X47200000Y-25400000D03*
X30900000Y-29000000D03*
%TO.N,GND*%
X9182001Y-18514123D03*
X20953269Y-33295590D03*
X23015788Y-50481771D03*
X48634121Y-24351930D03*
X12139426Y-28088947D03*
X7381548Y-33449754D03*
X26500000Y-5320000D03*
X23000000Y-26020000D03*
X24137500Y-37750000D03*
X44900000Y-23400000D03*
X15665375Y-24167173D03*
X47900000Y-24100000D03*
X25500000Y-43225000D03*
X10089728Y-18503645D03*
X12139426Y-23911052D03*
X37590359Y-27602767D03*
X45500000Y-20520000D03*
X26500000Y-34550000D03*
X49515788Y-34981771D03*
X7000000Y-40490000D03*
X14298138Y-20259904D03*
X30500000Y-12550000D03*
X18500000Y-40020000D03*
X26123901Y-4034843D03*
X13969785Y-24078374D03*
X8278859Y-33469798D03*
X28118727Y-36193275D03*
X20953269Y-18704409D03*
X26500000Y-8225000D03*
X26703852Y-38376638D03*
X24917351Y-26478936D03*
X17510000Y-17200000D03*
X13969785Y-27921625D03*
X24058885Y-22618748D03*
X21809904Y-25408296D03*
X4898194Y-48171985D03*
X24000000Y-43490000D03*
X9500000Y-35520000D03*
X12569030Y-29675500D03*
X26057209Y-1800141D03*
X17984211Y-50481771D03*
X12098822Y-20586709D03*
X24006984Y-21118638D03*
X15901438Y-44165232D03*
X21750000Y-37162500D03*
X22212500Y-32000000D03*
X13192790Y-1800140D03*
X28763631Y-42475500D03*
X9000000Y-40490000D03*
X24067414Y-23713932D03*
X48836708Y-21814519D03*
X15665375Y-27832826D03*
X19000000Y-35920000D03*
X29000000Y-26520000D03*
X14050000Y-26000000D03*
X26500000Y-29012500D03*
X27288320Y-28938685D03*
X44484211Y-34981771D03*
X5775000Y-40000000D03*
X26765182Y-29578733D03*
X20249667Y-44695789D03*
X26092317Y-2990020D03*
X46800000Y-23900000D03*
X8000000Y-35225000D03*
X1905133Y-37357366D03*
X12400000Y-26000000D03*
X15700000Y-26000000D03*
X7975500Y-42851621D03*
X45500000Y-24020000D03*
X12325500Y-34270530D03*
X48112898Y-22802409D03*
X11772433Y-41539157D03*
X23000000Y-19020000D03*
X49500000Y-22500000D03*
%TO.N,I2C_SDA*%
X30716653Y-26323378D03*
X47234666Y-24483531D03*
X46450000Y-20953589D03*
X22300000Y-30700000D03*
%TO.N,USB_DP*%
X20100000Y-25400000D03*
X17000000Y-26800000D03*
X7400000Y-31500000D03*
X12700000Y-43050000D03*
%TO.N,USB_DN*%
X7700000Y-32200000D03*
X19900000Y-26100000D03*
X17900000Y-28400000D03*
X11800000Y-40500000D03*
%TO.N,AMP_SD*%
X14000000Y-35000000D03*
X15100000Y-34200000D03*
%TO.N,TP_IO41*%
X32175020Y-48053617D03*
X14600000Y-18600000D03*
%TO.N,I2S_DOUT*%
X7000000Y-37400000D03*
X19000000Y-21200000D03*
X9500000Y-28500000D03*
X20200000Y-36800000D03*
X12100000Y-46400000D03*
X17000000Y-42800000D03*
X10500000Y-27500000D03*
X8000000Y-34300000D03*
%TO.N,SPK_P*%
X37500000Y-40900000D03*
X45700000Y-43000000D03*
%TO.N,TP_IO38*%
X26200000Y-25200000D03*
X25800000Y-47400000D03*
X32800000Y-29700000D03*
X22300000Y-24800000D03*
%TO.N,ESP_EN*%
X37200000Y-29600000D03*
X22296224Y-23532934D03*
%TO.N,BTN_BOOT*%
X19150000Y-48500000D03*
X9500000Y-32200000D03*
%TO.N,LORA_DIO1*%
X12300000Y-38000000D03*
X8500000Y-39000000D03*
X7400000Y-29100000D03*
X17300000Y-27500000D03*
X14000000Y-31100000D03*
%TO.N,SPI2_MOSI*%
X18972208Y-32210103D03*
%TO.N,SPI2_MISO*%
X13900000Y-32100000D03*
%TO.N,LORA_BUSY*%
X21463614Y-30656582D03*
%TO.N,LORA_RST*%
X12750000Y-33800000D03*
%TO.N,LORA_TXEN*%
X29700000Y-27500000D03*
X28700000Y-25900000D03*
X19400000Y-28200000D03*
%TO.N,LORA_NSS*%
X17100000Y-23100000D03*
%TO.N,LORA_RXEN*%
X31500000Y-24600000D03*
X32500000Y-26800000D03*
X24500000Y-19500000D03*
%TO.N,TP_IO40*%
X29900000Y-11000000D03*
X29475020Y-48053617D03*
X32100000Y-23600000D03*
X33300000Y-29000000D03*
X21600000Y-17500000D03*
X30600000Y-14000000D03*
%TO.N,TP_IO42*%
X13800000Y-18600000D03*
X34900000Y-47800000D03*
%TD*%
%TA.AperFunction,Conductor*%
%TO.N,GND*%
G36*
X15578326Y-321674D02*
G01*
X15600000Y-374000D01*
X15600000Y-8400000D01*
X20400000Y-8400000D01*
X20400000Y-7206083D01*
X25749500Y-7206083D01*
X25749500Y-7353916D01*
X25778340Y-7498907D01*
X25778343Y-7498917D01*
X25834915Y-7635494D01*
X25834916Y-7635495D01*
X25917049Y-7758416D01*
X26021584Y-7862951D01*
X26144505Y-7945084D01*
X26281087Y-8001658D01*
X26426082Y-8030500D01*
X26426084Y-8030500D01*
X26573916Y-8030500D01*
X26573918Y-8030500D01*
X26718913Y-8001658D01*
X26855495Y-7945084D01*
X26978416Y-7862951D01*
X27082951Y-7758416D01*
X27165084Y-7635495D01*
X27221658Y-7498913D01*
X27250500Y-7353918D01*
X27250500Y-7206082D01*
X27221658Y-7061087D01*
X27165084Y-6924505D01*
X27082951Y-6801584D01*
X26978416Y-6697049D01*
X26923846Y-6660586D01*
X26855494Y-6614915D01*
X26718917Y-6558343D01*
X26718907Y-6558340D01*
X26621811Y-6539026D01*
X26573918Y-6529500D01*
X26426082Y-6529500D01*
X26384977Y-6537676D01*
X26281092Y-6558340D01*
X26281082Y-6558343D01*
X26144505Y-6614915D01*
X26021584Y-6697048D01*
X26021583Y-6697050D01*
X25917050Y-6801583D01*
X25917048Y-6801584D01*
X25834915Y-6924505D01*
X25778343Y-7061082D01*
X25778340Y-7061092D01*
X25749500Y-7206083D01*
X20400000Y-7206083D01*
X20400000Y-3413388D01*
X36624500Y-3413388D01*
X36624500Y-3586611D01*
X36651597Y-3757698D01*
X36651600Y-3757711D01*
X36705125Y-3922442D01*
X36705127Y-3922446D01*
X36783767Y-4076787D01*
X36783768Y-4076788D01*
X36885586Y-4216928D01*
X37008072Y-4339414D01*
X37008075Y-4339416D01*
X37008076Y-4339417D01*
X37146699Y-4440133D01*
X37176292Y-4488424D01*
X37163070Y-4543496D01*
X37146699Y-4559867D01*
X37008076Y-4660582D01*
X36885582Y-4783076D01*
X36783767Y-4923212D01*
X36705127Y-5077553D01*
X36705125Y-5077557D01*
X36651600Y-5242288D01*
X36651597Y-5242301D01*
X36624500Y-5413388D01*
X36624500Y-5586611D01*
X36651597Y-5757698D01*
X36651600Y-5757711D01*
X36705125Y-5922442D01*
X36705127Y-5922446D01*
X36783767Y-6076787D01*
X36783768Y-6076788D01*
X36885586Y-6216928D01*
X37008072Y-6339414D01*
X37008075Y-6339416D01*
X37008076Y-6339417D01*
X37146699Y-6440133D01*
X37176292Y-6488424D01*
X37163070Y-6543496D01*
X37146699Y-6559867D01*
X37008076Y-6660582D01*
X36885582Y-6783076D01*
X36783767Y-6923212D01*
X36705127Y-7077553D01*
X36705125Y-7077557D01*
X36651600Y-7242288D01*
X36651597Y-7242301D01*
X36624500Y-7413388D01*
X36624500Y-7586611D01*
X36651597Y-7757698D01*
X36651600Y-7757711D01*
X36705125Y-7922442D01*
X36705127Y-7922446D01*
X36745488Y-8001659D01*
X36783768Y-8076788D01*
X36885586Y-8216928D01*
X37008072Y-8339414D01*
X37008075Y-8339416D01*
X37008076Y-8339417D01*
X37146699Y-8440133D01*
X37176292Y-8488424D01*
X37163070Y-8543496D01*
X37146699Y-8559867D01*
X37008076Y-8660582D01*
X36885582Y-8783076D01*
X36783767Y-8923212D01*
X36705127Y-9077553D01*
X36705125Y-9077557D01*
X36651600Y-9242288D01*
X36651597Y-9242301D01*
X36624500Y-9413388D01*
X36624500Y-9586611D01*
X36651597Y-9757698D01*
X36651600Y-9757711D01*
X36705125Y-9922442D01*
X36705127Y-9922446D01*
X36783767Y-10076787D01*
X36867509Y-10192048D01*
X36885586Y-10216928D01*
X37008072Y-10339414D01*
X37008075Y-10339416D01*
X37008076Y-10339417D01*
X37146699Y-10440133D01*
X37176292Y-10488424D01*
X37163070Y-10543496D01*
X37146699Y-10559867D01*
X37008076Y-10660582D01*
X36885582Y-10783076D01*
X36783767Y-10923212D01*
X36705127Y-11077553D01*
X36705125Y-11077557D01*
X36651600Y-11242288D01*
X36651597Y-11242301D01*
X36624500Y-11413388D01*
X36624500Y-11586611D01*
X36651597Y-11757698D01*
X36651600Y-11757711D01*
X36705125Y-11922442D01*
X36705127Y-11922446D01*
X36783767Y-12076787D01*
X36783768Y-12076788D01*
X36885586Y-12216928D01*
X37008072Y-12339414D01*
X37008075Y-12339416D01*
X37008076Y-12339417D01*
X37146699Y-12440133D01*
X37176292Y-12488424D01*
X37163070Y-12543496D01*
X37146699Y-12559867D01*
X37008076Y-12660582D01*
X36885582Y-12783076D01*
X36783767Y-12923212D01*
X36705127Y-13077553D01*
X36705125Y-13077557D01*
X36651600Y-13242288D01*
X36651597Y-13242301D01*
X36624500Y-13413388D01*
X36624500Y-13586611D01*
X36651597Y-13757698D01*
X36651600Y-13757711D01*
X36705125Y-13922442D01*
X36705127Y-13922446D01*
X36783767Y-14076787D01*
X36783768Y-14076788D01*
X36885586Y-14216928D01*
X37008072Y-14339414D01*
X37008075Y-14339416D01*
X37008076Y-14339417D01*
X37148212Y-14441232D01*
X37302553Y-14519872D01*
X37302557Y-14519874D01*
X37467288Y-14573399D01*
X37467294Y-14573400D01*
X37467299Y-14573402D01*
X37581359Y-14591467D01*
X37638388Y-14600500D01*
X37638389Y-14600500D01*
X38361612Y-14600500D01*
X38404383Y-14593725D01*
X38532701Y-14573402D01*
X38532708Y-14573399D01*
X38532711Y-14573399D01*
X38697442Y-14519874D01*
X38697442Y-14519873D01*
X38697445Y-14519873D01*
X38851788Y-14441232D01*
X38991928Y-14339414D01*
X39114414Y-14216928D01*
X39216232Y-14076788D01*
X39294873Y-13922445D01*
X39340802Y-13781092D01*
X39348399Y-13757711D01*
X39348399Y-13757708D01*
X39348402Y-13757701D01*
X39375500Y-13586611D01*
X39375500Y-13413389D01*
X39348402Y-13242299D01*
X39348400Y-13242294D01*
X39348399Y-13242288D01*
X39294874Y-13077557D01*
X39294872Y-13077553D01*
X39216232Y-12923212D01*
X39114417Y-12783076D01*
X39114416Y-12783075D01*
X39114414Y-12783072D01*
X38991928Y-12660586D01*
X38991925Y-12660583D01*
X38991923Y-12660582D01*
X38930686Y-12616091D01*
X38853299Y-12559866D01*
X38823707Y-12511576D01*
X38836929Y-12456504D01*
X38853298Y-12440134D01*
X38991928Y-12339414D01*
X39114414Y-12216928D01*
X39216232Y-12076788D01*
X39294873Y-11922445D01*
X39294874Y-11922442D01*
X39348399Y-11757711D01*
X39348399Y-11757708D01*
X39348402Y-11757701D01*
X39375500Y-11586611D01*
X39375500Y-11413389D01*
X39348402Y-11242299D01*
X39348400Y-11242294D01*
X39348399Y-11242288D01*
X39294874Y-11077557D01*
X39294872Y-11077553D01*
X39216232Y-10923212D01*
X39114417Y-10783076D01*
X39114416Y-10783075D01*
X39114414Y-10783072D01*
X38991928Y-10660586D01*
X38991925Y-10660583D01*
X38991923Y-10660582D01*
X38930686Y-10616091D01*
X38853299Y-10559866D01*
X38823707Y-10511576D01*
X38836929Y-10456504D01*
X38853298Y-10440134D01*
X38991928Y-10339414D01*
X39114414Y-10216928D01*
X39216232Y-10076788D01*
X39294873Y-9922445D01*
X39316844Y-9854825D01*
X39326537Y-9824994D01*
X45899500Y-9824994D01*
X45899500Y-11175000D01*
X45899500Y-11175005D01*
X45899501Y-11175008D01*
X45910001Y-11277797D01*
X45965186Y-11444334D01*
X46057288Y-11593656D01*
X46181344Y-11717712D01*
X46330666Y-11809814D01*
X46497203Y-11864999D01*
X46599991Y-11875500D01*
X47400008Y-11875499D01*
X47502797Y-11864999D01*
X47669334Y-11809814D01*
X47818656Y-11717712D01*
X47942712Y-11593656D01*
X48034814Y-11444334D01*
X48089999Y-11277797D01*
X48100500Y-11175009D01*
X48100499Y-9824992D01*
X48089999Y-9722203D01*
X48034814Y-9555666D01*
X47942712Y-9406344D01*
X47818656Y-9282288D01*
X47669334Y-9190186D01*
X47586065Y-9162593D01*
X47502798Y-9135001D01*
X47485665Y-9133250D01*
X47400009Y-9124500D01*
X47400004Y-9124500D01*
X46599999Y-9124500D01*
X46599993Y-9124500D01*
X46599992Y-9124501D01*
X46548597Y-9129751D01*
X46497202Y-9135001D01*
X46330666Y-9190186D01*
X46181344Y-9282288D01*
X46057288Y-9406344D01*
X45965186Y-9555666D01*
X45910001Y-9722201D01*
X45899500Y-9824994D01*
X39326537Y-9824994D01*
X39334581Y-9800239D01*
X39334581Y-9800238D01*
X39348399Y-9757711D01*
X39348399Y-9757708D01*
X39348402Y-9757701D01*
X39375500Y-9586611D01*
X39375500Y-9413389D01*
X39348402Y-9242299D01*
X39348400Y-9242294D01*
X39348399Y-9242288D01*
X39294874Y-9077557D01*
X39294872Y-9077553D01*
X39216232Y-8923212D01*
X39114417Y-8783076D01*
X39114416Y-8783075D01*
X39114414Y-8783072D01*
X38991928Y-8660586D01*
X38991925Y-8660583D01*
X38991923Y-8660582D01*
X38930686Y-8616091D01*
X38853299Y-8559866D01*
X38823707Y-8511576D01*
X38836929Y-8456504D01*
X38853298Y-8440134D01*
X38991928Y-8339414D01*
X39114414Y-8216928D01*
X39216232Y-8076788D01*
X39294873Y-7922445D01*
X39314204Y-7862950D01*
X39348399Y-7757711D01*
X39348399Y-7757708D01*
X39348402Y-7757701D01*
X39375500Y-7586611D01*
X39375500Y-7413389D01*
X39348402Y-7242299D01*
X39348400Y-7242294D01*
X39348399Y-7242288D01*
X39294874Y-7077557D01*
X39294872Y-7077553D01*
X39216232Y-6923212D01*
X39114417Y-6783076D01*
X39114416Y-6783075D01*
X39114414Y-6783072D01*
X38991928Y-6660586D01*
X38991925Y-6660583D01*
X38991923Y-6660582D01*
X38929067Y-6614915D01*
X38853299Y-6559866D01*
X38823707Y-6511576D01*
X38836929Y-6456504D01*
X38853298Y-6440134D01*
X38991928Y-6339414D01*
X39114414Y-6216928D01*
X39216232Y-6076788D01*
X39294873Y-5922445D01*
X39348402Y-5757701D01*
X39375500Y-5586611D01*
X39375500Y-5413389D01*
X39348402Y-5242299D01*
X39348400Y-5242294D01*
X39348399Y-5242288D01*
X39294874Y-5077557D01*
X39294872Y-5077553D01*
X39216232Y-4923212D01*
X39114417Y-4783076D01*
X39114416Y-4783075D01*
X39114414Y-4783072D01*
X38991928Y-4660586D01*
X38991925Y-4660583D01*
X38991923Y-4660582D01*
X38930686Y-4616091D01*
X38853299Y-4559866D01*
X38823707Y-4511576D01*
X38836929Y-4456504D01*
X38853298Y-4440134D01*
X38991928Y-4339414D01*
X39114414Y-4216928D01*
X39216232Y-4076788D01*
X39294873Y-3922445D01*
X39348402Y-3757701D01*
X39375500Y-3586611D01*
X39375500Y-3413389D01*
X39348402Y-3242299D01*
X39348400Y-3242294D01*
X39348399Y-3242288D01*
X39294874Y-3077557D01*
X39294872Y-3077553D01*
X39216232Y-2923212D01*
X39114417Y-2783076D01*
X39114416Y-2783075D01*
X39114414Y-2783072D01*
X38991928Y-2660586D01*
X38991925Y-2660583D01*
X38991923Y-2660582D01*
X38851787Y-2558767D01*
X38697446Y-2480127D01*
X38697442Y-2480125D01*
X38532711Y-2426600D01*
X38532698Y-2426597D01*
X38361612Y-2399500D01*
X38361611Y-2399500D01*
X37638389Y-2399500D01*
X37638388Y-2399500D01*
X37467301Y-2426597D01*
X37467288Y-2426600D01*
X37302557Y-2480125D01*
X37302553Y-2480127D01*
X37148212Y-2558767D01*
X37008076Y-2660582D01*
X36885582Y-2783076D01*
X36783767Y-2923212D01*
X36705127Y-3077553D01*
X36705125Y-3077557D01*
X36651600Y-3242288D01*
X36651597Y-3242301D01*
X36624500Y-3413388D01*
X20400000Y-3413388D01*
X20400000Y-374000D01*
X20421674Y-321674D01*
X20474000Y-300000D01*
X51191127Y-300000D01*
X51229792Y-310905D01*
X51317638Y-364737D01*
X51327032Y-371562D01*
X51485167Y-506621D01*
X51493378Y-514832D01*
X51628437Y-672967D01*
X51635262Y-682361D01*
X51689095Y-770209D01*
X51700000Y-808872D01*
X51700000Y-51191126D01*
X51689095Y-51229791D01*
X51635262Y-51317638D01*
X51628437Y-51327032D01*
X51493378Y-51485167D01*
X51485167Y-51493378D01*
X51327032Y-51628437D01*
X51317638Y-51635262D01*
X51229792Y-51689095D01*
X51191127Y-51700000D01*
X808873Y-51700000D01*
X770208Y-51689095D01*
X682361Y-51635262D01*
X672967Y-51628437D01*
X514832Y-51493378D01*
X506621Y-51485167D01*
X371562Y-51327032D01*
X364743Y-51317648D01*
X310903Y-51229789D01*
X300000Y-51191126D01*
X300000Y-48426083D01*
X18399500Y-48426083D01*
X18399500Y-48573916D01*
X18428340Y-48718907D01*
X18428343Y-48718917D01*
X18484915Y-48855494D01*
X18484916Y-48855495D01*
X18567049Y-48978416D01*
X18671584Y-49082951D01*
X18794505Y-49165084D01*
X18931087Y-49221658D01*
X19076082Y-49250500D01*
X19076084Y-49250500D01*
X19223916Y-49250500D01*
X19223918Y-49250500D01*
X19368913Y-49221658D01*
X19505495Y-49165084D01*
X19628416Y-49082951D01*
X19732951Y-48978416D01*
X19815084Y-48855495D01*
X19871658Y-48718913D01*
X19900500Y-48573918D01*
X19900500Y-48426082D01*
X19871658Y-48281087D01*
X19815084Y-48144505D01*
X19732951Y-48021584D01*
X19628416Y-47917049D01*
X19570598Y-47878416D01*
X19505494Y-47834915D01*
X19368917Y-47778343D01*
X19368907Y-47778340D01*
X19271811Y-47759026D01*
X19223918Y-47749500D01*
X19076082Y-47749500D01*
X19045949Y-47755494D01*
X18931092Y-47778340D01*
X18931082Y-47778343D01*
X18794505Y-47834915D01*
X18671584Y-47917048D01*
X18671583Y-47917050D01*
X18567050Y-48021583D01*
X18567048Y-48021584D01*
X18484915Y-48144505D01*
X18428343Y-48281082D01*
X18428340Y-48281092D01*
X18399500Y-48426083D01*
X300000Y-48426083D01*
X300000Y-46935931D01*
X2219500Y-46935931D01*
X2219500Y-47064069D01*
X2226586Y-47099696D01*
X2244497Y-47189739D01*
X2244498Y-47189742D01*
X2291459Y-47303117D01*
X2293535Y-47308127D01*
X2320791Y-47348918D01*
X2347260Y-47388533D01*
X2364724Y-47414669D01*
X2455331Y-47505276D01*
X2561873Y-47576465D01*
X2680256Y-47625501D01*
X2680258Y-47625501D01*
X2680260Y-47625502D01*
X2722903Y-47633984D01*
X2805931Y-47650500D01*
X2805933Y-47650500D01*
X2934067Y-47650500D01*
X2934069Y-47650500D01*
X3059744Y-47625501D01*
X3178127Y-47576465D01*
X3284669Y-47505276D01*
X3375276Y-47414669D01*
X3446465Y-47308127D01*
X3495501Y-47189744D01*
X3520500Y-47064069D01*
X3520500Y-46935931D01*
X3497540Y-46820504D01*
X3495502Y-46810260D01*
X3495501Y-46810257D01*
X3489837Y-46796584D01*
X3446465Y-46691873D01*
X3375276Y-46585331D01*
X3284669Y-46494724D01*
X3178127Y-46423535D01*
X3178123Y-46423533D01*
X3178121Y-46423532D01*
X3178122Y-46423532D01*
X3107630Y-46394334D01*
X3059744Y-46374499D01*
X3059742Y-46374498D01*
X3059739Y-46374497D01*
X2969696Y-46356586D01*
X2934069Y-46349500D01*
X2805931Y-46349500D01*
X2774726Y-46355707D01*
X2680260Y-46374497D01*
X2680257Y-46374498D01*
X2561876Y-46423533D01*
X2455331Y-46494723D01*
X2455330Y-46494725D01*
X2364725Y-46585330D01*
X2364723Y-46585331D01*
X2293533Y-46691876D01*
X2244498Y-46810257D01*
X2244497Y-46810260D01*
X2228698Y-46889689D01*
X2219500Y-46935931D01*
X300000Y-46935931D01*
X300000Y-46330814D01*
X8584500Y-46330814D01*
X8584500Y-46469185D01*
X8620310Y-46602831D01*
X8620312Y-46602836D01*
X8689495Y-46722665D01*
X8787335Y-46820505D01*
X8907164Y-46889688D01*
X9040814Y-46925499D01*
X9040815Y-46925500D01*
X9040817Y-46925500D01*
X9179185Y-46925500D01*
X9179185Y-46925499D01*
X9251652Y-46906082D01*
X9749500Y-46906082D01*
X9749500Y-47053918D01*
X9754359Y-47078343D01*
X9778340Y-47198907D01*
X9778343Y-47198917D01*
X9834915Y-47335494D01*
X9887818Y-47414668D01*
X9917049Y-47458416D01*
X10021584Y-47562951D01*
X10144505Y-47645084D01*
X10281087Y-47701658D01*
X10426082Y-47730500D01*
X10426084Y-47730500D01*
X10573916Y-47730500D01*
X10573918Y-47730500D01*
X10718913Y-47701658D01*
X10855495Y-47645084D01*
X10978416Y-47562951D01*
X11082951Y-47458416D01*
X11165084Y-47335495D01*
X11221658Y-47198913D01*
X11250500Y-47053918D01*
X11250500Y-46906082D01*
X11221658Y-46761087D01*
X11165084Y-46624505D01*
X11082951Y-46501584D01*
X10978416Y-46397049D01*
X10958849Y-46383975D01*
X10958849Y-46383974D01*
X10872207Y-46326082D01*
X11349500Y-46326082D01*
X11349500Y-46473918D01*
X11353639Y-46494724D01*
X11378340Y-46618907D01*
X11378343Y-46618917D01*
X11434915Y-46755494D01*
X11478354Y-46820504D01*
X11517049Y-46878416D01*
X11621584Y-46982951D01*
X11744505Y-47065084D01*
X11881087Y-47121658D01*
X12026082Y-47150500D01*
X12026084Y-47150500D01*
X12175500Y-47150500D01*
X12227826Y-47172174D01*
X12249500Y-47224500D01*
X12249500Y-47348916D01*
X12278340Y-47493907D01*
X12278343Y-47493917D01*
X12334915Y-47630494D01*
X12415278Y-47750765D01*
X12417049Y-47753416D01*
X12521584Y-47857951D01*
X12644505Y-47940084D01*
X12781087Y-47996658D01*
X12926082Y-48025500D01*
X12926084Y-48025500D01*
X13073916Y-48025500D01*
X13073918Y-48025500D01*
X13218913Y-47996658D01*
X13355495Y-47940084D01*
X13478416Y-47857951D01*
X13582951Y-47753416D01*
X13665084Y-47630495D01*
X13721658Y-47493913D01*
X13750500Y-47348918D01*
X13750500Y-47326082D01*
X25049500Y-47326082D01*
X25049500Y-47473918D01*
X25055738Y-47505276D01*
X25078340Y-47618907D01*
X25078343Y-47618917D01*
X25134915Y-47755494D01*
X25214044Y-47873918D01*
X25217049Y-47878416D01*
X25321584Y-47982951D01*
X25444505Y-48065084D01*
X25581087Y-48121658D01*
X25726082Y-48150500D01*
X25726084Y-48150500D01*
X25873916Y-48150500D01*
X25873918Y-48150500D01*
X26018913Y-48121658D01*
X26155495Y-48065084D01*
X26278416Y-47982951D01*
X26281667Y-47979700D01*
X28724520Y-47979700D01*
X28724520Y-48127533D01*
X28753360Y-48272524D01*
X28753363Y-48272534D01*
X28809935Y-48409111D01*
X28885137Y-48521658D01*
X28892069Y-48532033D01*
X28996604Y-48636568D01*
X29119525Y-48718701D01*
X29256107Y-48775275D01*
X29401102Y-48804117D01*
X29401104Y-48804117D01*
X29548936Y-48804117D01*
X29548938Y-48804117D01*
X29693933Y-48775275D01*
X29830515Y-48718701D01*
X29953436Y-48636568D01*
X30057971Y-48532033D01*
X30140104Y-48409112D01*
X30196678Y-48272530D01*
X30225520Y-48127535D01*
X30225520Y-47979700D01*
X31424520Y-47979700D01*
X31424520Y-48127533D01*
X31453360Y-48272524D01*
X31453363Y-48272534D01*
X31509935Y-48409111D01*
X31585137Y-48521658D01*
X31592069Y-48532033D01*
X31696604Y-48636568D01*
X31819525Y-48718701D01*
X31956107Y-48775275D01*
X32101102Y-48804117D01*
X32101104Y-48804117D01*
X32248936Y-48804117D01*
X32248938Y-48804117D01*
X32393933Y-48775275D01*
X32530515Y-48718701D01*
X32653436Y-48636568D01*
X32757971Y-48532033D01*
X32840104Y-48409112D01*
X32896678Y-48272530D01*
X32925520Y-48127535D01*
X32925520Y-47979699D01*
X32896678Y-47834704D01*
X32873333Y-47778343D01*
X32861910Y-47750765D01*
X32851686Y-47726082D01*
X34149500Y-47726082D01*
X34149500Y-47873918D01*
X34158080Y-47917050D01*
X34178340Y-48018907D01*
X34178343Y-48018917D01*
X34234915Y-48155494D01*
X34313119Y-48272534D01*
X34317049Y-48278416D01*
X34421584Y-48382951D01*
X34544505Y-48465084D01*
X34681087Y-48521658D01*
X34826082Y-48550500D01*
X34826084Y-48550500D01*
X34973916Y-48550500D01*
X34973918Y-48550500D01*
X35118913Y-48521658D01*
X35255495Y-48465084D01*
X35378416Y-48382951D01*
X35482951Y-48278416D01*
X35565084Y-48155495D01*
X35621658Y-48018913D01*
X35650500Y-47873918D01*
X35650500Y-47726082D01*
X35621658Y-47581087D01*
X35565084Y-47444505D01*
X35482951Y-47321584D01*
X35378416Y-47217049D01*
X35354522Y-47201083D01*
X35255494Y-47134915D01*
X35118917Y-47078343D01*
X35118907Y-47078340D01*
X35007007Y-47056082D01*
X34973918Y-47049500D01*
X34826082Y-47049500D01*
X34792993Y-47056082D01*
X34681092Y-47078340D01*
X34681082Y-47078343D01*
X34544505Y-47134915D01*
X34421584Y-47217048D01*
X34421583Y-47217050D01*
X34317050Y-47321583D01*
X34317048Y-47321584D01*
X34234915Y-47444505D01*
X34178343Y-47581082D01*
X34178340Y-47581092D01*
X34155062Y-47698121D01*
X34149500Y-47726082D01*
X32851686Y-47726082D01*
X32841569Y-47701659D01*
X32840104Y-47698122D01*
X32757971Y-47575201D01*
X32653436Y-47470666D01*
X32635105Y-47458417D01*
X32530514Y-47388532D01*
X32393937Y-47331960D01*
X32393927Y-47331957D01*
X32296831Y-47312643D01*
X32248938Y-47303117D01*
X32101102Y-47303117D01*
X32075916Y-47308127D01*
X31956112Y-47331957D01*
X31956102Y-47331960D01*
X31819525Y-47388532D01*
X31696604Y-47470665D01*
X31696603Y-47470667D01*
X31592070Y-47575200D01*
X31592068Y-47575201D01*
X31509935Y-47698122D01*
X31453363Y-47834699D01*
X31453360Y-47834709D01*
X31424520Y-47979700D01*
X30225520Y-47979700D01*
X30225520Y-47979699D01*
X30196678Y-47834704D01*
X30163007Y-47753416D01*
X30140104Y-47698122D01*
X30057971Y-47575201D01*
X29953435Y-47470665D01*
X29830514Y-47388532D01*
X29693937Y-47331960D01*
X29693927Y-47331957D01*
X29596831Y-47312643D01*
X29548938Y-47303117D01*
X29401102Y-47303117D01*
X29375916Y-47308127D01*
X29256112Y-47331957D01*
X29256102Y-47331960D01*
X29119525Y-47388532D01*
X28996604Y-47470665D01*
X28996603Y-47470667D01*
X28892070Y-47575200D01*
X28892068Y-47575201D01*
X28809935Y-47698122D01*
X28753363Y-47834699D01*
X28753360Y-47834709D01*
X28724520Y-47979700D01*
X26281667Y-47979700D01*
X26382951Y-47878416D01*
X26465084Y-47755495D01*
X26521658Y-47618913D01*
X26550500Y-47473918D01*
X26550500Y-47326082D01*
X26521658Y-47181087D01*
X26508988Y-47150500D01*
X26465084Y-47044505D01*
X26382951Y-46921584D01*
X26278415Y-46817048D01*
X26155494Y-46734915D01*
X26018917Y-46678343D01*
X26018907Y-46678340D01*
X25921811Y-46659026D01*
X25873918Y-46649500D01*
X25726082Y-46649500D01*
X25684977Y-46657676D01*
X25581092Y-46678340D01*
X25581082Y-46678343D01*
X25444505Y-46734915D01*
X25321584Y-46817048D01*
X25321583Y-46817050D01*
X25217050Y-46921583D01*
X25217048Y-46921584D01*
X25134915Y-47044505D01*
X25078343Y-47181082D01*
X25078340Y-47181092D01*
X25071188Y-47217050D01*
X25049500Y-47326082D01*
X13750500Y-47326082D01*
X13750500Y-47201082D01*
X13721658Y-47056087D01*
X13665084Y-46919505D01*
X13582951Y-46796584D01*
X13478416Y-46692049D01*
X13478158Y-46691876D01*
X13355494Y-46609915D01*
X13218917Y-46553343D01*
X13218907Y-46553340D01*
X13121811Y-46534026D01*
X13073918Y-46524500D01*
X12926082Y-46524500D01*
X12924500Y-46524500D01*
X12872174Y-46502826D01*
X12850500Y-46450500D01*
X12850500Y-46330814D01*
X14364500Y-46330814D01*
X14364500Y-46469185D01*
X14400310Y-46602831D01*
X14400312Y-46602836D01*
X14469495Y-46722665D01*
X14567335Y-46820505D01*
X14687164Y-46889688D01*
X14820814Y-46925499D01*
X14820815Y-46925500D01*
X14820817Y-46925500D01*
X14959185Y-46925500D01*
X14959185Y-46925499D01*
X15092836Y-46889688D01*
X15212665Y-46820505D01*
X15310505Y-46722665D01*
X15379688Y-46602836D01*
X15415499Y-46469185D01*
X15415500Y-46469185D01*
X15415500Y-46330815D01*
X15415499Y-46330814D01*
X15414231Y-46326083D01*
X15379688Y-46197164D01*
X15310505Y-46077335D01*
X15212665Y-45979495D01*
X15092836Y-45910312D01*
X15092831Y-45910310D01*
X14959185Y-45874500D01*
X14959183Y-45874500D01*
X14820817Y-45874500D01*
X14820815Y-45874500D01*
X14687168Y-45910310D01*
X14687163Y-45910312D01*
X14567334Y-45979495D01*
X14469495Y-46077334D01*
X14400312Y-46197163D01*
X14400310Y-46197168D01*
X14364500Y-46330814D01*
X12850500Y-46330814D01*
X12850500Y-46326083D01*
X12837025Y-46258343D01*
X12821658Y-46181087D01*
X12765084Y-46044505D01*
X12682951Y-45921584D01*
X12578416Y-45817049D01*
X12489611Y-45757711D01*
X12455494Y-45734915D01*
X12318917Y-45678343D01*
X12318907Y-45678340D01*
X12221811Y-45659026D01*
X12173918Y-45649500D01*
X12026082Y-45649500D01*
X11984977Y-45657676D01*
X11881092Y-45678340D01*
X11881082Y-45678343D01*
X11744505Y-45734915D01*
X11621584Y-45817048D01*
X11621583Y-45817050D01*
X11517050Y-45921583D01*
X11517048Y-45921584D01*
X11434915Y-46044505D01*
X11378343Y-46181082D01*
X11378340Y-46181092D01*
X11362974Y-46258343D01*
X11349500Y-46326082D01*
X10872207Y-46326082D01*
X10855494Y-46314915D01*
X10718917Y-46258343D01*
X10718907Y-46258340D01*
X10621811Y-46239026D01*
X10573918Y-46229500D01*
X10426082Y-46229500D01*
X10384977Y-46237676D01*
X10281092Y-46258340D01*
X10281082Y-46258343D01*
X10144505Y-46314915D01*
X10021584Y-46397048D01*
X10021583Y-46397050D01*
X9917050Y-46501583D01*
X9917048Y-46501584D01*
X9834915Y-46624505D01*
X9778343Y-46761082D01*
X9778340Y-46761092D01*
X9762971Y-46838361D01*
X9749500Y-46906082D01*
X9251652Y-46906082D01*
X9312836Y-46889688D01*
X9432665Y-46820505D01*
X9530505Y-46722665D01*
X9599688Y-46602836D01*
X9635499Y-46469185D01*
X9635500Y-46469185D01*
X9635500Y-46330815D01*
X9635499Y-46330814D01*
X9634231Y-46326083D01*
X9599688Y-46197164D01*
X9530505Y-46077335D01*
X9432665Y-45979495D01*
X9312836Y-45910312D01*
X9312831Y-45910310D01*
X9179185Y-45874500D01*
X9179183Y-45874500D01*
X9040817Y-45874500D01*
X9040815Y-45874500D01*
X8907168Y-45910310D01*
X8907163Y-45910312D01*
X8787334Y-45979495D01*
X8689495Y-46077334D01*
X8620312Y-46197163D01*
X8620310Y-46197168D01*
X8584500Y-46330814D01*
X300000Y-46330814D01*
X300000Y-43935932D01*
X2219500Y-43935932D01*
X2219500Y-44064067D01*
X2244497Y-44189739D01*
X2244498Y-44189742D01*
X2244499Y-44189744D01*
X2293535Y-44308127D01*
X2364724Y-44414669D01*
X2455331Y-44505276D01*
X2561873Y-44576465D01*
X2680256Y-44625501D01*
X2680258Y-44625501D01*
X2680260Y-44625502D01*
X2722903Y-44633984D01*
X2805931Y-44650500D01*
X2805933Y-44650500D01*
X2934067Y-44650500D01*
X2934069Y-44650500D01*
X3059744Y-44625501D01*
X3178127Y-44576465D01*
X3284669Y-44505276D01*
X3375276Y-44414669D01*
X3446465Y-44308127D01*
X3495501Y-44189744D01*
X3520500Y-44064069D01*
X3520500Y-43935931D01*
X3495501Y-43810256D01*
X3446465Y-43691873D01*
X3375276Y-43585331D01*
X3284669Y-43494724D01*
X3178127Y-43423535D01*
X3178124Y-43423533D01*
X3178123Y-43423533D01*
X3059742Y-43374498D01*
X3059739Y-43374497D01*
X2964202Y-43355494D01*
X2934069Y-43349500D01*
X2805931Y-43349500D01*
X2775798Y-43355494D01*
X2680260Y-43374497D01*
X2680257Y-43374498D01*
X2561876Y-43423533D01*
X2455331Y-43494723D01*
X2455330Y-43494725D01*
X2364725Y-43585330D01*
X2364723Y-43585331D01*
X2293533Y-43691876D01*
X2244498Y-43810257D01*
X2244497Y-43810260D01*
X2219500Y-43935932D01*
X300000Y-43935932D01*
X300000Y-42976083D01*
X11949500Y-42976083D01*
X11949500Y-43123916D01*
X11978340Y-43268907D01*
X11978343Y-43268917D01*
X12034915Y-43405494D01*
X12106090Y-43512014D01*
X12117049Y-43528416D01*
X12221584Y-43632951D01*
X12344505Y-43715084D01*
X12481087Y-43771658D01*
X12626082Y-43800500D01*
X12626084Y-43800500D01*
X12773916Y-43800500D01*
X12773918Y-43800500D01*
X12918913Y-43771658D01*
X13055495Y-43715084D01*
X13178416Y-43632951D01*
X13282951Y-43528416D01*
X13365084Y-43405495D01*
X13421658Y-43268913D01*
X13450500Y-43123918D01*
X13450500Y-42976082D01*
X13421658Y-42831087D01*
X13421484Y-42830666D01*
X13388388Y-42750765D01*
X13378164Y-42726082D01*
X16249500Y-42726082D01*
X16249500Y-42873918D01*
X16259026Y-42921811D01*
X16278340Y-43018907D01*
X16278343Y-43018917D01*
X16334915Y-43155494D01*
X16334916Y-43155495D01*
X16417049Y-43278416D01*
X16521584Y-43382951D01*
X16644505Y-43465084D01*
X16781087Y-43521658D01*
X16926082Y-43550500D01*
X16926084Y-43550500D01*
X17073916Y-43550500D01*
X17073918Y-43550500D01*
X17218913Y-43521658D01*
X17355495Y-43465084D01*
X17478416Y-43382951D01*
X17582951Y-43278416D01*
X17665084Y-43155495D01*
X17721658Y-43018913D01*
X17740123Y-42926083D01*
X44949500Y-42926083D01*
X44949500Y-43073916D01*
X44978340Y-43218907D01*
X44978343Y-43218917D01*
X45034915Y-43355494D01*
X45034916Y-43355495D01*
X45112029Y-43470903D01*
X45124500Y-43512014D01*
X45124500Y-43900000D01*
X45124500Y-43900005D01*
X45124501Y-43900008D01*
X45135001Y-44002797D01*
X45190186Y-44169334D01*
X45282288Y-44318656D01*
X45406344Y-44442712D01*
X45529587Y-44518728D01*
X45562743Y-44564644D01*
X45553721Y-44620558D01*
X45534235Y-44641577D01*
X45508071Y-44660586D01*
X45385591Y-44783067D01*
X45385582Y-44783076D01*
X45283767Y-44923212D01*
X45205127Y-45077553D01*
X45205125Y-45077557D01*
X45151600Y-45242288D01*
X45151597Y-45242301D01*
X45124500Y-45413388D01*
X45124500Y-45586611D01*
X45151597Y-45757698D01*
X45151600Y-45757711D01*
X45205125Y-45922442D01*
X45205127Y-45922446D01*
X45283767Y-46076787D01*
X45371226Y-46197164D01*
X45385586Y-46216928D01*
X45508072Y-46339414D01*
X45508075Y-46339416D01*
X45508076Y-46339417D01*
X45648212Y-46441232D01*
X45802553Y-46519872D01*
X45802557Y-46519874D01*
X45967288Y-46573399D01*
X45967294Y-46573400D01*
X45967299Y-46573402D01*
X46042616Y-46585331D01*
X46138388Y-46600500D01*
X46138389Y-46600500D01*
X46861612Y-46600500D01*
X46904383Y-46593725D01*
X47032701Y-46573402D01*
X47032708Y-46573399D01*
X47032711Y-46573399D01*
X47197442Y-46519874D01*
X47197442Y-46519873D01*
X47197445Y-46519873D01*
X47351788Y-46441232D01*
X47491928Y-46339414D01*
X47614414Y-46216928D01*
X47716232Y-46076788D01*
X47794873Y-45922445D01*
X47848402Y-45757701D01*
X47875500Y-45586611D01*
X47875500Y-45413389D01*
X47848402Y-45242299D01*
X47848400Y-45242294D01*
X47848399Y-45242288D01*
X47794874Y-45077557D01*
X47794872Y-45077553D01*
X47716232Y-44923212D01*
X47614417Y-44783076D01*
X47614416Y-44783075D01*
X47614414Y-44783072D01*
X47491928Y-44660586D01*
X47465763Y-44641576D01*
X47436172Y-44593285D01*
X47449394Y-44538213D01*
X47470408Y-44518731D01*
X47593656Y-44442712D01*
X47717712Y-44318656D01*
X47809814Y-44169334D01*
X47864999Y-44002797D01*
X47875500Y-43900009D01*
X47875499Y-43099992D01*
X47864999Y-42997203D01*
X47809814Y-42830666D01*
X47717712Y-42681344D01*
X47593656Y-42557288D01*
X47444334Y-42465186D01*
X47361065Y-42437593D01*
X47277798Y-42410001D01*
X47257239Y-42407900D01*
X47175009Y-42399500D01*
X47175005Y-42399500D01*
X46174601Y-42399500D01*
X46133489Y-42387029D01*
X46055494Y-42334915D01*
X45918917Y-42278343D01*
X45918907Y-42278340D01*
X45821811Y-42259026D01*
X45773918Y-42249500D01*
X45626082Y-42249500D01*
X45584977Y-42257676D01*
X45481092Y-42278340D01*
X45481082Y-42278343D01*
X45344505Y-42334915D01*
X45221584Y-42417048D01*
X45221583Y-42417050D01*
X45117050Y-42521583D01*
X45117048Y-42521584D01*
X45034915Y-42644505D01*
X44978343Y-42781082D01*
X44978340Y-42781092D01*
X44949500Y-42926083D01*
X17740123Y-42926083D01*
X17750500Y-42873918D01*
X17750500Y-42726082D01*
X17721658Y-42581087D01*
X17665084Y-42444505D01*
X17582951Y-42321584D01*
X17478416Y-42217049D01*
X17355495Y-42134916D01*
X17355496Y-42134916D01*
X17355494Y-42134915D01*
X17218917Y-42078343D01*
X17218907Y-42078340D01*
X17121811Y-42059026D01*
X17073918Y-42049500D01*
X16926082Y-42049500D01*
X16884977Y-42057676D01*
X16781092Y-42078340D01*
X16781082Y-42078343D01*
X16644505Y-42134915D01*
X16521584Y-42217048D01*
X16521583Y-42217050D01*
X16417050Y-42321583D01*
X16417048Y-42321584D01*
X16334915Y-42444505D01*
X16278343Y-42581082D01*
X16278340Y-42581092D01*
X16265727Y-42644505D01*
X16249500Y-42726082D01*
X13378164Y-42726082D01*
X13365084Y-42694505D01*
X13282951Y-42571584D01*
X13178416Y-42467049D01*
X13144677Y-42444505D01*
X13055494Y-42384915D01*
X12918917Y-42328343D01*
X12918907Y-42328340D01*
X12821811Y-42309026D01*
X12773918Y-42299500D01*
X12626082Y-42299500D01*
X12584977Y-42307676D01*
X12481092Y-42328340D01*
X12481082Y-42328343D01*
X12344505Y-42384915D01*
X12221584Y-42467048D01*
X12221583Y-42467050D01*
X12117050Y-42571583D01*
X12117048Y-42571584D01*
X12034915Y-42694505D01*
X11978343Y-42831082D01*
X11978340Y-42831092D01*
X11949500Y-42976083D01*
X300000Y-42976083D01*
X300000Y-40426083D01*
X11049500Y-40426083D01*
X11049500Y-40573916D01*
X11078340Y-40718907D01*
X11078343Y-40718917D01*
X11134915Y-40855494D01*
X11214044Y-40973918D01*
X11217049Y-40978416D01*
X11321584Y-41082951D01*
X11444505Y-41165084D01*
X11581087Y-41221658D01*
X11726082Y-41250500D01*
X11726084Y-41250500D01*
X11873916Y-41250500D01*
X11873918Y-41250500D01*
X12018913Y-41221658D01*
X12155495Y-41165084D01*
X12278416Y-41082951D01*
X12382951Y-40978416D01*
X12465084Y-40855495D01*
X12477267Y-40826083D01*
X36749500Y-40826083D01*
X36749500Y-40973916D01*
X36778340Y-41118907D01*
X36778343Y-41118917D01*
X36834915Y-41255494D01*
X36834916Y-41255495D01*
X36917049Y-41378416D01*
X37021584Y-41482951D01*
X37144505Y-41565084D01*
X37281087Y-41621658D01*
X37426082Y-41650500D01*
X37426084Y-41650500D01*
X37573916Y-41650500D01*
X37573918Y-41650500D01*
X37718913Y-41621658D01*
X37855495Y-41565084D01*
X37978416Y-41482951D01*
X38082951Y-41378416D01*
X38165084Y-41255495D01*
X38221658Y-41118913D01*
X38250500Y-40973918D01*
X38250500Y-40826082D01*
X38221658Y-40681087D01*
X38165084Y-40544505D01*
X38082951Y-40421584D01*
X37978416Y-40317049D01*
X37924603Y-40281092D01*
X37855494Y-40234915D01*
X37718917Y-40178343D01*
X37718907Y-40178340D01*
X37621811Y-40159026D01*
X37573918Y-40149500D01*
X37426082Y-40149500D01*
X37384977Y-40157676D01*
X37281092Y-40178340D01*
X37281082Y-40178343D01*
X37144505Y-40234915D01*
X37021584Y-40317048D01*
X37021583Y-40317050D01*
X36917050Y-40421583D01*
X36917048Y-40421584D01*
X36834915Y-40544505D01*
X36778343Y-40681082D01*
X36778340Y-40681092D01*
X36749500Y-40826083D01*
X12477267Y-40826083D01*
X12521658Y-40718913D01*
X12550500Y-40573918D01*
X12550500Y-40426082D01*
X12521658Y-40281087D01*
X12465084Y-40144505D01*
X12382951Y-40021584D01*
X12278416Y-39917049D01*
X12155495Y-39834916D01*
X12155496Y-39834916D01*
X12155494Y-39834915D01*
X12018917Y-39778343D01*
X12018907Y-39778340D01*
X11921811Y-39759026D01*
X11873918Y-39749500D01*
X11726082Y-39749500D01*
X11684977Y-39757676D01*
X11581092Y-39778340D01*
X11581082Y-39778343D01*
X11444505Y-39834915D01*
X11321584Y-39917048D01*
X11321583Y-39917050D01*
X11217050Y-40021583D01*
X11217048Y-40021584D01*
X11134915Y-40144505D01*
X11078343Y-40281082D01*
X11078340Y-40281092D01*
X11049500Y-40426083D01*
X300000Y-40426083D01*
X300000Y-37326083D01*
X6249500Y-37326083D01*
X6249500Y-37473916D01*
X6278340Y-37618907D01*
X6278343Y-37618917D01*
X6334915Y-37755494D01*
X6417048Y-37878415D01*
X6521584Y-37982951D01*
X6644505Y-38065084D01*
X6750957Y-38109178D01*
X6781087Y-38121658D01*
X6926082Y-38150500D01*
X6926084Y-38150500D01*
X7073916Y-38150500D01*
X7073918Y-38150500D01*
X7218913Y-38121658D01*
X7249036Y-38109179D01*
X7305673Y-38109178D01*
X7338883Y-38136432D01*
X7417049Y-38253416D01*
X7521584Y-38357951D01*
X7644505Y-38440084D01*
X7781087Y-38496658D01*
X7781091Y-38496658D01*
X7781092Y-38496659D01*
X7807178Y-38501848D01*
X7854270Y-38533314D01*
X7865319Y-38588863D01*
X7854271Y-38615537D01*
X7834914Y-38644506D01*
X7778343Y-38781082D01*
X7778340Y-38781092D01*
X7749500Y-38926083D01*
X7749500Y-39073916D01*
X7778340Y-39218907D01*
X7778343Y-39218917D01*
X7834915Y-39355494D01*
X7834916Y-39355495D01*
X7917049Y-39478416D01*
X8021584Y-39582951D01*
X8144505Y-39665084D01*
X8281087Y-39721658D01*
X8426082Y-39750500D01*
X8426084Y-39750500D01*
X8573916Y-39750500D01*
X8573918Y-39750500D01*
X8718913Y-39721658D01*
X8855495Y-39665084D01*
X8978416Y-39582951D01*
X9082951Y-39478416D01*
X9165084Y-39355495D01*
X9221658Y-39218913D01*
X9250500Y-39073918D01*
X9250500Y-38926082D01*
X9221658Y-38781087D01*
X9208988Y-38750500D01*
X9165084Y-38644505D01*
X9082951Y-38521584D01*
X8978415Y-38417048D01*
X8855494Y-38334915D01*
X8718915Y-38278342D01*
X8718909Y-38278341D01*
X8692819Y-38273151D01*
X8645728Y-38241684D01*
X8634679Y-38186135D01*
X8645726Y-38159465D01*
X8665084Y-38130495D01*
X8721658Y-37993913D01*
X8735151Y-37926082D01*
X11549500Y-37926082D01*
X11549500Y-38073918D01*
X11553286Y-38092950D01*
X11578340Y-38218907D01*
X11578343Y-38218917D01*
X11634915Y-38355494D01*
X11634916Y-38355495D01*
X11717049Y-38478416D01*
X11821584Y-38582951D01*
X11944505Y-38665084D01*
X12081087Y-38721658D01*
X12226082Y-38750500D01*
X12226084Y-38750500D01*
X12373916Y-38750500D01*
X12373918Y-38750500D01*
X12518913Y-38721658D01*
X12655495Y-38665084D01*
X12778416Y-38582951D01*
X12882951Y-38478416D01*
X12965084Y-38355495D01*
X13021658Y-38218913D01*
X13050500Y-38073918D01*
X13050500Y-37926082D01*
X13021658Y-37781087D01*
X13011057Y-37755495D01*
X12965084Y-37644505D01*
X12882951Y-37521584D01*
X12797450Y-37436083D01*
X16749500Y-37436083D01*
X16749500Y-37583916D01*
X16778340Y-37728907D01*
X16778343Y-37728917D01*
X16834915Y-37865494D01*
X16917048Y-37988415D01*
X17021584Y-38092951D01*
X17144505Y-38175084D01*
X17171184Y-38186135D01*
X17281087Y-38231658D01*
X17426082Y-38260500D01*
X17426084Y-38260500D01*
X17573916Y-38260500D01*
X17573918Y-38260500D01*
X17718913Y-38231658D01*
X17855495Y-38175084D01*
X17978416Y-38092951D01*
X18082951Y-37988416D01*
X18165084Y-37865495D01*
X18221658Y-37728913D01*
X18250500Y-37583918D01*
X18250500Y-37436082D01*
X18221658Y-37291087D01*
X18165084Y-37154505D01*
X18082951Y-37031584D01*
X17978416Y-36927049D01*
X17970238Y-36921584D01*
X17855494Y-36844915D01*
X17724881Y-36790814D01*
X17718913Y-36788342D01*
X17718907Y-36788340D01*
X17621811Y-36769026D01*
X17573918Y-36759500D01*
X17426082Y-36759500D01*
X17384977Y-36767676D01*
X17281092Y-36788340D01*
X17281082Y-36788343D01*
X17144505Y-36844915D01*
X17021584Y-36927048D01*
X17021583Y-36927050D01*
X16917050Y-37031583D01*
X16917048Y-37031584D01*
X16834915Y-37154505D01*
X16778343Y-37291082D01*
X16778340Y-37291092D01*
X16754263Y-37412135D01*
X16752798Y-37419505D01*
X16749500Y-37436083D01*
X12797450Y-37436083D01*
X12778415Y-37417048D01*
X12655494Y-37334915D01*
X12518917Y-37278343D01*
X12518907Y-37278340D01*
X12421811Y-37259026D01*
X12373918Y-37249500D01*
X12226082Y-37249500D01*
X12184977Y-37257676D01*
X12081092Y-37278340D01*
X12081082Y-37278343D01*
X11944505Y-37334915D01*
X11821584Y-37417048D01*
X11821583Y-37417050D01*
X11717050Y-37521583D01*
X11717048Y-37521584D01*
X11634915Y-37644505D01*
X11578343Y-37781082D01*
X11578340Y-37781092D01*
X11554263Y-37902135D01*
X11549500Y-37926082D01*
X8735151Y-37926082D01*
X8750500Y-37848918D01*
X8750500Y-37701082D01*
X8721658Y-37556087D01*
X8707397Y-37521659D01*
X8665084Y-37419505D01*
X8582951Y-37296584D01*
X8478415Y-37192048D01*
X8355494Y-37109915D01*
X8218917Y-37053343D01*
X8218907Y-37053340D01*
X8121811Y-37034026D01*
X8073918Y-37024500D01*
X7926082Y-37024500D01*
X7890474Y-37031583D01*
X7781092Y-37053340D01*
X7781086Y-37053342D01*
X7750961Y-37065820D01*
X7694323Y-37065818D01*
X7661115Y-37038564D01*
X7582951Y-36921584D01*
X7478415Y-36817048D01*
X7355494Y-36734915D01*
X7334172Y-36726083D01*
X19449500Y-36726083D01*
X19449500Y-36873916D01*
X19478340Y-37018907D01*
X19478343Y-37018917D01*
X19534915Y-37155494D01*
X19617000Y-37278342D01*
X19617049Y-37278416D01*
X19721584Y-37382951D01*
X19844505Y-37465084D01*
X19981087Y-37521658D01*
X20126082Y-37550500D01*
X20126084Y-37550500D01*
X20273916Y-37550500D01*
X20273918Y-37550500D01*
X20418913Y-37521658D01*
X20555495Y-37465084D01*
X20678416Y-37382951D01*
X20782951Y-37278416D01*
X20865084Y-37155495D01*
X20921658Y-37018913D01*
X20950500Y-36873918D01*
X20950500Y-36726082D01*
X20921658Y-36581087D01*
X20865084Y-36444505D01*
X20782951Y-36321584D01*
X20678416Y-36217049D01*
X20555495Y-36134916D01*
X20555496Y-36134916D01*
X20555494Y-36134915D01*
X20418917Y-36078343D01*
X20418907Y-36078340D01*
X20321811Y-36059026D01*
X20273918Y-36049500D01*
X20126082Y-36049500D01*
X20084977Y-36057676D01*
X19981092Y-36078340D01*
X19981082Y-36078343D01*
X19844505Y-36134915D01*
X19721584Y-36217048D01*
X19721583Y-36217050D01*
X19617050Y-36321583D01*
X19617048Y-36321584D01*
X19534915Y-36444505D01*
X19478343Y-36581082D01*
X19478340Y-36581092D01*
X19458997Y-36678340D01*
X19450381Y-36721656D01*
X19449500Y-36726083D01*
X7334172Y-36726083D01*
X7218917Y-36678343D01*
X7218907Y-36678340D01*
X7121811Y-36659026D01*
X7073918Y-36649500D01*
X6926082Y-36649500D01*
X6884977Y-36657676D01*
X6781092Y-36678340D01*
X6781082Y-36678343D01*
X6644505Y-36734915D01*
X6521584Y-36817048D01*
X6521583Y-36817050D01*
X6417050Y-36921583D01*
X6417048Y-36921584D01*
X6334915Y-37044505D01*
X6278343Y-37181082D01*
X6278340Y-37181092D01*
X6249500Y-37326083D01*
X300000Y-37326083D01*
X300000Y-35155576D01*
X5270764Y-35155576D01*
X5270764Y-35303409D01*
X5299604Y-35448400D01*
X5299607Y-35448410D01*
X5356179Y-35584987D01*
X5356180Y-35584988D01*
X5438313Y-35707909D01*
X5542848Y-35812444D01*
X5665769Y-35894577D01*
X5802351Y-35951151D01*
X5947346Y-35979993D01*
X5947348Y-35979993D01*
X6095180Y-35979993D01*
X6095182Y-35979993D01*
X6240177Y-35951151D01*
X6300699Y-35926082D01*
X22949500Y-35926082D01*
X22949500Y-36073918D01*
X22959026Y-36121811D01*
X22978340Y-36218907D01*
X22978343Y-36218917D01*
X23034915Y-36355494D01*
X23034916Y-36355495D01*
X23117049Y-36478416D01*
X23221584Y-36582951D01*
X23344505Y-36665084D01*
X23481087Y-36721658D01*
X23626082Y-36750500D01*
X23626084Y-36750500D01*
X23773916Y-36750500D01*
X23773918Y-36750500D01*
X23918913Y-36721658D01*
X24055495Y-36665084D01*
X24178416Y-36582951D01*
X24282951Y-36478416D01*
X24365084Y-36355495D01*
X24421658Y-36218913D01*
X24450500Y-36073918D01*
X24450500Y-35926082D01*
X24421658Y-35781087D01*
X24408988Y-35750500D01*
X24365084Y-35644505D01*
X24282951Y-35521584D01*
X24178415Y-35417048D01*
X24055494Y-35334915D01*
X23918917Y-35278343D01*
X23918907Y-35278340D01*
X23821811Y-35259026D01*
X23773918Y-35249500D01*
X23626082Y-35249500D01*
X23584977Y-35257676D01*
X23481092Y-35278340D01*
X23481082Y-35278343D01*
X23344505Y-35334915D01*
X23221584Y-35417048D01*
X23221583Y-35417050D01*
X23117050Y-35521583D01*
X23117048Y-35521584D01*
X23034915Y-35644505D01*
X22978343Y-35781082D01*
X22978340Y-35781092D01*
X22962462Y-35860918D01*
X22949500Y-35926082D01*
X6300699Y-35926082D01*
X6376759Y-35894577D01*
X6499680Y-35812444D01*
X6604215Y-35707909D01*
X6686348Y-35584988D01*
X6742922Y-35448406D01*
X6771764Y-35303411D01*
X6771764Y-35155575D01*
X6742922Y-35010580D01*
X6686348Y-34873998D01*
X6604215Y-34751077D01*
X6499680Y-34646542D01*
X6496632Y-34644505D01*
X6376758Y-34564408D01*
X6240181Y-34507836D01*
X6240171Y-34507833D01*
X6143075Y-34488519D01*
X6095182Y-34478993D01*
X5947346Y-34478993D01*
X5906241Y-34487169D01*
X5802356Y-34507833D01*
X5802346Y-34507836D01*
X5665769Y-34564408D01*
X5542848Y-34646541D01*
X5542847Y-34646543D01*
X5438314Y-34751076D01*
X5438312Y-34751077D01*
X5356179Y-34873998D01*
X5299607Y-35010575D01*
X5299604Y-35010585D01*
X5270764Y-35155576D01*
X300000Y-35155576D01*
X300000Y-34374000D01*
X321674Y-34321674D01*
X374000Y-34300000D01*
X6000000Y-34300000D01*
X6000000Y-34226082D01*
X7249500Y-34226082D01*
X7249500Y-34373918D01*
X7258080Y-34417050D01*
X7278340Y-34518907D01*
X7278343Y-34518917D01*
X7334915Y-34655494D01*
X7417048Y-34778415D01*
X7521584Y-34882951D01*
X7644505Y-34965084D01*
X7676447Y-34978315D01*
X7781087Y-35021658D01*
X7926082Y-35050500D01*
X7926084Y-35050500D01*
X8073916Y-35050500D01*
X8073918Y-35050500D01*
X8218913Y-35021658D01*
X8355495Y-34965084D01*
X8413864Y-34926083D01*
X13249500Y-34926083D01*
X13249500Y-35073916D01*
X13278340Y-35218907D01*
X13278343Y-35218917D01*
X13334915Y-35355494D01*
X13397000Y-35448410D01*
X13417049Y-35478416D01*
X13521584Y-35582951D01*
X13644505Y-35665084D01*
X13781087Y-35721658D01*
X13926082Y-35750500D01*
X13926084Y-35750500D01*
X14073916Y-35750500D01*
X14073918Y-35750500D01*
X14218913Y-35721658D01*
X14355495Y-35665084D01*
X14478416Y-35582951D01*
X14582951Y-35478416D01*
X14665084Y-35355495D01*
X14721658Y-35218913D01*
X14750500Y-35073918D01*
X14750500Y-34978315D01*
X14772174Y-34925989D01*
X14824500Y-34904315D01*
X14852813Y-34909946D01*
X14881087Y-34921658D01*
X15026082Y-34950500D01*
X15026084Y-34950500D01*
X15173916Y-34950500D01*
X15173918Y-34950500D01*
X15318913Y-34921658D01*
X15455495Y-34865084D01*
X15578416Y-34782951D01*
X15682951Y-34678416D01*
X15765084Y-34555495D01*
X15821658Y-34418913D01*
X15850500Y-34273918D01*
X15850500Y-34126082D01*
X15821658Y-33981087D01*
X15765084Y-33844505D01*
X15682951Y-33721584D01*
X15578416Y-33617049D01*
X15524603Y-33581092D01*
X15455494Y-33534915D01*
X15318917Y-33478343D01*
X15318907Y-33478340D01*
X15221811Y-33459026D01*
X15173918Y-33449500D01*
X15026082Y-33449500D01*
X14984977Y-33457676D01*
X14881092Y-33478340D01*
X14881082Y-33478343D01*
X14744505Y-33534915D01*
X14621584Y-33617048D01*
X14621583Y-33617050D01*
X14517050Y-33721583D01*
X14517048Y-33721584D01*
X14434915Y-33844505D01*
X14378343Y-33981082D01*
X14378340Y-33981092D01*
X14349500Y-34126083D01*
X14349500Y-34221684D01*
X14327826Y-34274010D01*
X14275500Y-34295684D01*
X14247182Y-34290051D01*
X14218917Y-34278343D01*
X14218907Y-34278340D01*
X14121811Y-34259026D01*
X14073918Y-34249500D01*
X13926082Y-34249500D01*
X13884977Y-34257676D01*
X13781092Y-34278340D01*
X13781082Y-34278343D01*
X13644505Y-34334915D01*
X13521584Y-34417048D01*
X13521583Y-34417050D01*
X13417050Y-34521583D01*
X13417048Y-34521584D01*
X13334915Y-34644505D01*
X13278343Y-34781082D01*
X13278340Y-34781092D01*
X13259860Y-34873998D01*
X13249519Y-34925989D01*
X13249500Y-34926083D01*
X8413864Y-34926083D01*
X8478416Y-34882951D01*
X8582951Y-34778416D01*
X8665084Y-34655495D01*
X8721658Y-34518913D01*
X8750500Y-34373918D01*
X8750500Y-34230226D01*
X8772174Y-34177900D01*
X8824500Y-34156226D01*
X8852818Y-34161859D01*
X8891545Y-34177900D01*
X8963088Y-34207534D01*
X9108083Y-34236376D01*
X9108085Y-34236376D01*
X9255917Y-34236376D01*
X9255919Y-34236376D01*
X9400914Y-34207534D01*
X9537496Y-34150960D01*
X9660417Y-34068827D01*
X9764952Y-33964292D01*
X9847085Y-33841371D01*
X9894839Y-33726083D01*
X11999500Y-33726083D01*
X11999500Y-33873916D01*
X12028340Y-34018907D01*
X12028343Y-34018917D01*
X12084915Y-34155494D01*
X12167048Y-34278415D01*
X12271584Y-34382951D01*
X12394505Y-34465084D01*
X12524469Y-34518917D01*
X12531087Y-34521658D01*
X12676082Y-34550500D01*
X12676084Y-34550500D01*
X12823916Y-34550500D01*
X12823918Y-34550500D01*
X12968913Y-34521658D01*
X13105495Y-34465084D01*
X13228416Y-34382951D01*
X13332951Y-34278416D01*
X13415084Y-34155495D01*
X13471658Y-34018913D01*
X13500500Y-33873918D01*
X13500500Y-33726082D01*
X13471658Y-33581087D01*
X13415084Y-33444505D01*
X13332951Y-33321584D01*
X13228416Y-33217049D01*
X13105495Y-33134916D01*
X13105496Y-33134916D01*
X13105494Y-33134915D01*
X12968917Y-33078343D01*
X12968907Y-33078340D01*
X12871811Y-33059026D01*
X12823918Y-33049500D01*
X12676082Y-33049500D01*
X12634977Y-33057676D01*
X12531092Y-33078340D01*
X12531082Y-33078343D01*
X12394505Y-33134915D01*
X12271584Y-33217048D01*
X12271583Y-33217050D01*
X12167050Y-33321583D01*
X12167048Y-33321584D01*
X12084915Y-33444505D01*
X12028343Y-33581082D01*
X12028340Y-33581092D01*
X11999500Y-33726083D01*
X9894839Y-33726083D01*
X9903659Y-33704789D01*
X9932501Y-33559794D01*
X9932501Y-33411958D01*
X9903659Y-33266963D01*
X9847085Y-33130381D01*
X9764952Y-33007460D01*
X9764951Y-33007459D01*
X9764018Y-33006322D01*
X9763873Y-33005846D01*
X9762932Y-33004437D01*
X9763359Y-33004151D01*
X9747577Y-32952123D01*
X9774276Y-32902174D01*
X9792900Y-32891011D01*
X9855495Y-32865084D01*
X9978416Y-32782951D01*
X10082951Y-32678416D01*
X10165084Y-32555495D01*
X10221658Y-32418913D01*
X10250500Y-32273918D01*
X10250500Y-32126082D01*
X10230608Y-32026083D01*
X13149500Y-32026083D01*
X13149500Y-32173916D01*
X13178340Y-32318907D01*
X13178343Y-32318917D01*
X13234915Y-32455494D01*
X13308484Y-32565597D01*
X13317049Y-32578416D01*
X13421584Y-32682951D01*
X13544505Y-32765084D01*
X13681087Y-32821658D01*
X13826082Y-32850500D01*
X13826084Y-32850500D01*
X13973916Y-32850500D01*
X13973918Y-32850500D01*
X14118913Y-32821658D01*
X14255495Y-32765084D01*
X14378416Y-32682951D01*
X14482951Y-32578416D01*
X14565084Y-32455495D01*
X14621658Y-32318913D01*
X14650500Y-32173918D01*
X14650500Y-32136185D01*
X18221708Y-32136185D01*
X18221708Y-32284021D01*
X18231234Y-32331914D01*
X18250548Y-32429010D01*
X18250551Y-32429020D01*
X18307123Y-32565597D01*
X18389256Y-32688518D01*
X18493792Y-32793054D01*
X18616713Y-32875187D01*
X18728906Y-32921659D01*
X18753295Y-32931761D01*
X18898290Y-32960603D01*
X18898292Y-32960603D01*
X19046124Y-32960603D01*
X19046126Y-32960603D01*
X19191121Y-32931761D01*
X19327703Y-32875187D01*
X19450624Y-32793054D01*
X19555159Y-32688519D01*
X19637292Y-32565598D01*
X19693866Y-32429016D01*
X19722708Y-32284021D01*
X19722708Y-32136185D01*
X19700807Y-32026083D01*
X31449500Y-32026083D01*
X31449500Y-32173916D01*
X31478340Y-32318907D01*
X31478343Y-32318917D01*
X31534915Y-32455494D01*
X31608484Y-32565597D01*
X31617049Y-32578416D01*
X31721584Y-32682951D01*
X31844505Y-32765084D01*
X31981087Y-32821658D01*
X32126082Y-32850500D01*
X32126084Y-32850500D01*
X32273916Y-32850500D01*
X32273918Y-32850500D01*
X32418913Y-32821658D01*
X32555495Y-32765084D01*
X32678416Y-32682951D01*
X32782951Y-32578416D01*
X32865084Y-32455495D01*
X32921658Y-32318913D01*
X32950500Y-32173918D01*
X32950500Y-32026082D01*
X32921658Y-31881087D01*
X32911057Y-31855495D01*
X32865084Y-31744505D01*
X32782951Y-31621584D01*
X32678415Y-31517048D01*
X32555494Y-31434915D01*
X32418917Y-31378343D01*
X32418907Y-31378340D01*
X32321811Y-31359026D01*
X32273918Y-31349500D01*
X32126082Y-31349500D01*
X32084977Y-31357676D01*
X31981092Y-31378340D01*
X31981082Y-31378343D01*
X31844505Y-31434915D01*
X31721584Y-31517048D01*
X31721583Y-31517050D01*
X31617050Y-31621583D01*
X31617048Y-31621584D01*
X31534915Y-31744505D01*
X31478343Y-31881082D01*
X31478340Y-31881092D01*
X31449500Y-32026083D01*
X19700807Y-32026083D01*
X19693866Y-31991190D01*
X19637292Y-31854608D01*
X19555159Y-31731687D01*
X19450624Y-31627152D01*
X19442290Y-31621583D01*
X19327702Y-31545018D01*
X19191125Y-31488446D01*
X19191115Y-31488443D01*
X19094019Y-31469129D01*
X19046126Y-31459603D01*
X18898290Y-31459603D01*
X18857185Y-31467779D01*
X18753300Y-31488443D01*
X18753290Y-31488446D01*
X18616713Y-31545018D01*
X18493792Y-31627151D01*
X18493791Y-31627153D01*
X18389258Y-31731686D01*
X18389256Y-31731687D01*
X18307123Y-31854608D01*
X18250551Y-31991185D01*
X18250548Y-31991195D01*
X18232092Y-32083980D01*
X18221708Y-32136185D01*
X14650500Y-32136185D01*
X14650500Y-32026082D01*
X14621658Y-31881087D01*
X14621656Y-31881082D01*
X14565085Y-31744507D01*
X14556518Y-31731686D01*
X14539454Y-31706147D01*
X14528405Y-31650598D01*
X14548657Y-31612709D01*
X14582951Y-31578416D01*
X14665084Y-31455495D01*
X14721658Y-31318913D01*
X14750500Y-31173918D01*
X14750500Y-31026082D01*
X14721658Y-30881087D01*
X14665084Y-30744505D01*
X14582951Y-30621584D01*
X14544031Y-30582664D01*
X20713114Y-30582664D01*
X20713114Y-30730500D01*
X20721750Y-30773916D01*
X20741954Y-30875489D01*
X20741957Y-30875499D01*
X20798529Y-31012076D01*
X20880662Y-31134997D01*
X20985198Y-31239533D01*
X21108119Y-31321666D01*
X21212939Y-31365084D01*
X21244701Y-31378240D01*
X21389696Y-31407082D01*
X21389698Y-31407082D01*
X21537530Y-31407082D01*
X21537532Y-31407082D01*
X21682527Y-31378240D01*
X21819109Y-31321666D01*
X21819111Y-31321664D01*
X21819861Y-31321354D01*
X21876499Y-31321354D01*
X21889292Y-31328192D01*
X21918796Y-31347906D01*
X21944505Y-31365084D01*
X21944506Y-31365084D01*
X21944507Y-31365085D01*
X21976515Y-31378343D01*
X22081087Y-31421658D01*
X22226082Y-31450500D01*
X22226084Y-31450500D01*
X22373916Y-31450500D01*
X22373918Y-31450500D01*
X22518913Y-31421658D01*
X22655495Y-31365084D01*
X22778416Y-31282951D01*
X22882951Y-31178416D01*
X22965084Y-31055495D01*
X23021658Y-30918913D01*
X23050500Y-30773918D01*
X23050500Y-30626082D01*
X23021658Y-30481087D01*
X23008988Y-30450500D01*
X22965084Y-30344505D01*
X22882951Y-30221584D01*
X22778415Y-30117048D01*
X22655494Y-30034915D01*
X22518917Y-29978343D01*
X22518907Y-29978340D01*
X22421811Y-29959026D01*
X22373918Y-29949500D01*
X22226082Y-29949500D01*
X22195949Y-29955494D01*
X22081092Y-29978340D01*
X22081082Y-29978343D01*
X21943751Y-30035227D01*
X21887114Y-30035227D01*
X21874321Y-30028389D01*
X21819106Y-29991496D01*
X21682531Y-29934925D01*
X21682521Y-29934922D01*
X21585425Y-29915608D01*
X21537532Y-29906082D01*
X21389696Y-29906082D01*
X21348591Y-29914258D01*
X21244706Y-29934922D01*
X21244696Y-29934925D01*
X21108119Y-29991497D01*
X20985198Y-30073630D01*
X20985197Y-30073632D01*
X20880664Y-30178165D01*
X20880662Y-30178166D01*
X20798529Y-30301087D01*
X20741957Y-30437664D01*
X20741954Y-30437674D01*
X20717877Y-30558717D01*
X20713114Y-30582664D01*
X14544031Y-30582664D01*
X14478416Y-30517049D01*
X14424603Y-30481092D01*
X14355494Y-30434915D01*
X14218917Y-30378343D01*
X14218907Y-30378340D01*
X14121811Y-30359026D01*
X14073918Y-30349500D01*
X13926082Y-30349500D01*
X13884977Y-30357676D01*
X13781092Y-30378340D01*
X13781082Y-30378343D01*
X13644505Y-30434915D01*
X13521584Y-30517048D01*
X13521583Y-30517050D01*
X13417050Y-30621583D01*
X13417048Y-30621584D01*
X13334915Y-30744505D01*
X13278343Y-30881082D01*
X13278340Y-30881092D01*
X13249500Y-31026083D01*
X13249500Y-31173916D01*
X13278340Y-31318907D01*
X13278343Y-31318917D01*
X13334913Y-31455490D01*
X13334915Y-31455493D01*
X13334916Y-31455495D01*
X13356932Y-31488445D01*
X13360545Y-31493851D01*
X13371594Y-31549400D01*
X13351343Y-31587287D01*
X13317055Y-31621576D01*
X13317048Y-31621584D01*
X13234915Y-31744505D01*
X13178343Y-31881082D01*
X13178340Y-31881092D01*
X13149500Y-32026083D01*
X10230608Y-32026083D01*
X10221659Y-31981092D01*
X10221658Y-31981091D01*
X10221658Y-31981087D01*
X10165084Y-31844505D01*
X10082951Y-31721584D01*
X9978416Y-31617049D01*
X9978408Y-31617043D01*
X9855494Y-31534915D01*
X9718917Y-31478343D01*
X9718907Y-31478340D01*
X9621811Y-31459026D01*
X9573918Y-31449500D01*
X9426082Y-31449500D01*
X9395949Y-31455494D01*
X9281092Y-31478340D01*
X9281082Y-31478343D01*
X9144505Y-31534915D01*
X9021584Y-31617048D01*
X9021583Y-31617050D01*
X8917050Y-31721583D01*
X8917048Y-31721584D01*
X8834915Y-31844505D01*
X8778343Y-31981082D01*
X8778340Y-31981092D01*
X8758079Y-32082951D01*
X8749500Y-32126082D01*
X8749500Y-32273918D01*
X8751510Y-32284021D01*
X8778340Y-32418907D01*
X8778343Y-32418917D01*
X8834915Y-32555494D01*
X8917052Y-32678421D01*
X8917983Y-32679555D01*
X8918126Y-32680028D01*
X8919069Y-32681439D01*
X8918641Y-32681724D01*
X8934422Y-32733754D01*
X8907722Y-32783702D01*
X8889098Y-32794865D01*
X8826505Y-32820792D01*
X8703585Y-32902924D01*
X8703584Y-32902926D01*
X8599051Y-33007459D01*
X8599049Y-33007460D01*
X8516916Y-33130381D01*
X8460344Y-33266958D01*
X8460341Y-33266968D01*
X8431501Y-33411959D01*
X8431501Y-33555649D01*
X8409827Y-33607975D01*
X8357501Y-33629649D01*
X8329183Y-33624016D01*
X8218917Y-33578343D01*
X8218907Y-33578340D01*
X8104830Y-33555649D01*
X8073918Y-33549500D01*
X7926082Y-33549500D01*
X7895170Y-33555649D01*
X7781092Y-33578340D01*
X7781082Y-33578343D01*
X7644505Y-33634915D01*
X7521584Y-33717048D01*
X7521583Y-33717050D01*
X7417050Y-33821583D01*
X7417048Y-33821584D01*
X7334915Y-33944505D01*
X7278343Y-34081082D01*
X7278340Y-34081092D01*
X7262275Y-34161859D01*
X7249500Y-34226082D01*
X6000000Y-34226082D01*
X6000000Y-31426082D01*
X6649500Y-31426082D01*
X6649500Y-31573918D01*
X6658080Y-31617050D01*
X6678340Y-31718907D01*
X6678343Y-31718917D01*
X6734915Y-31855494D01*
X6817048Y-31978415D01*
X6921585Y-32082952D01*
X6922438Y-32083652D01*
X6922613Y-32083980D01*
X6924155Y-32085522D01*
X6923687Y-32085989D01*
X6949143Y-32133598D01*
X6949500Y-32140860D01*
X6949500Y-32273918D01*
X6951510Y-32284021D01*
X6978340Y-32418907D01*
X6978343Y-32418917D01*
X7034915Y-32555494D01*
X7050231Y-32578415D01*
X7117049Y-32678416D01*
X7221584Y-32782951D01*
X7344505Y-32865084D01*
X7481087Y-32921658D01*
X7626082Y-32950500D01*
X7626084Y-32950500D01*
X7773916Y-32950500D01*
X7773918Y-32950500D01*
X7918913Y-32921658D01*
X8055495Y-32865084D01*
X8178416Y-32782951D01*
X8282951Y-32678416D01*
X8365084Y-32555495D01*
X8421658Y-32418913D01*
X8450500Y-32273918D01*
X8450500Y-32126082D01*
X8421658Y-31981087D01*
X8365084Y-31844505D01*
X8282951Y-31721584D01*
X8178416Y-31617049D01*
X8178412Y-31617046D01*
X8178409Y-31617043D01*
X8177543Y-31616332D01*
X8177365Y-31615999D01*
X8175845Y-31614479D01*
X8176306Y-31614017D01*
X8150855Y-31566377D01*
X8150500Y-31559139D01*
X8150500Y-31426083D01*
X8149619Y-31421656D01*
X8121658Y-31281087D01*
X8065084Y-31144505D01*
X7982951Y-31021584D01*
X7878416Y-30917049D01*
X7824603Y-30881092D01*
X7755494Y-30834915D01*
X7618917Y-30778343D01*
X7618907Y-30778340D01*
X7521811Y-30759026D01*
X7473918Y-30749500D01*
X7326082Y-30749500D01*
X7284977Y-30757676D01*
X7181092Y-30778340D01*
X7181082Y-30778343D01*
X7044505Y-30834915D01*
X6921584Y-30917048D01*
X6921583Y-30917050D01*
X6817050Y-31021583D01*
X6817048Y-31021584D01*
X6734915Y-31144505D01*
X6678343Y-31281082D01*
X6678340Y-31281092D01*
X6659016Y-31378241D01*
X6649500Y-31426082D01*
X6000000Y-31426082D01*
X6000000Y-29026082D01*
X6649500Y-29026082D01*
X6649500Y-29173918D01*
X6658449Y-29218907D01*
X6678340Y-29318907D01*
X6678343Y-29318917D01*
X6734915Y-29455494D01*
X6817048Y-29578415D01*
X6921584Y-29682951D01*
X7044505Y-29765084D01*
X7174469Y-29818917D01*
X7181087Y-29821658D01*
X7326082Y-29850500D01*
X7326084Y-29850500D01*
X7473916Y-29850500D01*
X7473918Y-29850500D01*
X7618913Y-29821658D01*
X7755495Y-29765084D01*
X7878416Y-29682951D01*
X7982951Y-29578416D01*
X8065084Y-29455495D01*
X8121658Y-29318913D01*
X8150500Y-29173918D01*
X8150500Y-29026082D01*
X8121658Y-28881087D01*
X8111057Y-28855495D01*
X8065084Y-28744505D01*
X7982951Y-28621584D01*
X7878415Y-28517048D01*
X7828919Y-28483976D01*
X7755494Y-28434915D01*
X7734169Y-28426082D01*
X8749500Y-28426082D01*
X8749500Y-28573918D01*
X8753690Y-28594981D01*
X8778340Y-28718907D01*
X8778343Y-28718917D01*
X8834915Y-28855494D01*
X8917048Y-28978415D01*
X9021584Y-29082951D01*
X9144505Y-29165084D01*
X9274469Y-29218917D01*
X9281087Y-29221658D01*
X9426082Y-29250500D01*
X9426084Y-29250500D01*
X9573916Y-29250500D01*
X9573918Y-29250500D01*
X9718913Y-29221658D01*
X9855495Y-29165084D01*
X9978416Y-29082951D01*
X10082951Y-28978416D01*
X10165084Y-28855495D01*
X10221658Y-28718913D01*
X10250500Y-28573918D01*
X10250500Y-28426082D01*
X10228507Y-28315520D01*
X10239556Y-28259973D01*
X10286648Y-28228507D01*
X10315518Y-28228507D01*
X10426082Y-28250500D01*
X10426084Y-28250500D01*
X10573916Y-28250500D01*
X10573918Y-28250500D01*
X10718913Y-28221658D01*
X10855495Y-28165084D01*
X10978416Y-28082951D01*
X11082951Y-27978416D01*
X11165084Y-27855495D01*
X11221658Y-27718913D01*
X11250500Y-27573918D01*
X11250500Y-27426082D01*
X11221658Y-27281087D01*
X11165084Y-27144505D01*
X11082951Y-27021584D01*
X10978416Y-26917049D01*
X10978408Y-26917043D01*
X10855494Y-26834915D01*
X10758219Y-26794623D01*
X10718913Y-26778342D01*
X10718907Y-26778340D01*
X10621811Y-26759026D01*
X10573918Y-26749500D01*
X10426082Y-26749500D01*
X10384977Y-26757676D01*
X10281092Y-26778340D01*
X10281082Y-26778343D01*
X10144505Y-26834915D01*
X10021584Y-26917048D01*
X10021583Y-26917050D01*
X9917050Y-27021583D01*
X9917048Y-27021584D01*
X9834915Y-27144505D01*
X9778343Y-27281082D01*
X9778340Y-27281092D01*
X9758080Y-27382950D01*
X9749500Y-27426082D01*
X9749500Y-27573918D01*
X9763942Y-27646520D01*
X9771492Y-27684477D01*
X9760443Y-27740026D01*
X9713351Y-27771492D01*
X9684477Y-27771492D01*
X9679806Y-27770563D01*
X9629217Y-27760500D01*
X9573918Y-27749500D01*
X9426082Y-27749500D01*
X9384977Y-27757676D01*
X9281092Y-27778340D01*
X9281082Y-27778343D01*
X9144505Y-27834915D01*
X9021584Y-27917048D01*
X9021583Y-27917050D01*
X8917050Y-28021583D01*
X8917048Y-28021584D01*
X8834915Y-28144505D01*
X8778343Y-28281082D01*
X8778340Y-28281092D01*
X8767634Y-28334916D01*
X8749500Y-28426082D01*
X7734169Y-28426082D01*
X7618917Y-28378343D01*
X7618907Y-28378340D01*
X7521811Y-28359026D01*
X7473918Y-28349500D01*
X7326082Y-28349500D01*
X7284977Y-28357676D01*
X7181092Y-28378340D01*
X7181082Y-28378343D01*
X7044505Y-28434915D01*
X6921584Y-28517048D01*
X6921583Y-28517050D01*
X6817050Y-28621583D01*
X6817048Y-28621584D01*
X6734915Y-28744505D01*
X6678343Y-28881082D01*
X6678340Y-28881092D01*
X6658981Y-28978417D01*
X6649500Y-29026082D01*
X6000000Y-29026082D01*
X6000000Y-26726082D01*
X16249500Y-26726082D01*
X16249500Y-26873918D01*
X16258080Y-26917050D01*
X16278340Y-27018907D01*
X16278343Y-27018917D01*
X16334915Y-27155494D01*
X16417048Y-27278415D01*
X16521585Y-27382952D01*
X16522438Y-27383652D01*
X16522613Y-27383980D01*
X16524155Y-27385522D01*
X16523687Y-27385989D01*
X16549143Y-27433598D01*
X16549500Y-27440860D01*
X16549500Y-27573918D01*
X16558080Y-27617050D01*
X16578340Y-27718907D01*
X16578343Y-27718917D01*
X16634915Y-27855494D01*
X16690119Y-27938112D01*
X16717049Y-27978416D01*
X16821584Y-28082951D01*
X16944505Y-28165084D01*
X17081087Y-28221658D01*
X17089210Y-28223273D01*
X17094298Y-28224286D01*
X17141390Y-28255751D01*
X17152440Y-28311299D01*
X17149500Y-28326081D01*
X17149500Y-28326082D01*
X17149500Y-28473918D01*
X17158080Y-28517050D01*
X17178340Y-28618907D01*
X17178343Y-28618917D01*
X17234915Y-28755494D01*
X17317048Y-28878415D01*
X17421584Y-28982951D01*
X17544505Y-29065084D01*
X17638490Y-29104014D01*
X17681087Y-29121658D01*
X17826082Y-29150500D01*
X17826084Y-29150500D01*
X17973916Y-29150500D01*
X17973918Y-29150500D01*
X18118913Y-29121658D01*
X18255495Y-29065084D01*
X18378416Y-28982951D01*
X18482951Y-28878416D01*
X18565084Y-28755495D01*
X18621658Y-28618913D01*
X18622506Y-28614647D01*
X18653969Y-28567554D01*
X18709517Y-28556501D01*
X18756611Y-28587964D01*
X18817049Y-28678416D01*
X18921584Y-28782951D01*
X19044505Y-28865084D01*
X19181087Y-28921658D01*
X19326082Y-28950500D01*
X19326084Y-28950500D01*
X19473916Y-28950500D01*
X19473918Y-28950500D01*
X19618913Y-28921658D01*
X19755495Y-28865084D01*
X19878416Y-28782951D01*
X19982951Y-28678416D01*
X20065084Y-28555495D01*
X20109964Y-28447145D01*
X27332148Y-28447145D01*
X27332148Y-28594981D01*
X27336909Y-28618917D01*
X27360988Y-28739970D01*
X27360991Y-28739980D01*
X27417563Y-28876557D01*
X27494316Y-28991425D01*
X27499697Y-28999479D01*
X27604232Y-29104014D01*
X27727153Y-29186147D01*
X27863735Y-29242721D01*
X28008730Y-29271563D01*
X28008732Y-29271563D01*
X28156564Y-29271563D01*
X28156566Y-29271563D01*
X28301561Y-29242721D01*
X28438143Y-29186147D01*
X28530941Y-29124141D01*
X28586487Y-29113092D01*
X28613162Y-29124141D01*
X28644505Y-29145084D01*
X28781087Y-29201658D01*
X28926082Y-29230500D01*
X28926084Y-29230500D01*
X29073916Y-29230500D01*
X29073918Y-29230500D01*
X29218913Y-29201658D01*
X29355495Y-29145084D01*
X29478416Y-29062951D01*
X29582951Y-28958416D01*
X29604556Y-28926082D01*
X30149500Y-28926082D01*
X30149500Y-29073918D01*
X30158080Y-29117050D01*
X30178340Y-29218907D01*
X30178343Y-29218917D01*
X30234915Y-29355494D01*
X30317048Y-29478415D01*
X30421584Y-29582951D01*
X30544505Y-29665084D01*
X30670121Y-29717116D01*
X30681087Y-29721658D01*
X30826082Y-29750500D01*
X30826084Y-29750500D01*
X30973916Y-29750500D01*
X30973918Y-29750500D01*
X31053139Y-29734741D01*
X31108687Y-29745790D01*
X31140153Y-29792882D01*
X31129104Y-29848431D01*
X31108688Y-29868848D01*
X31021581Y-29927051D01*
X30917050Y-30031583D01*
X30917048Y-30031584D01*
X30834915Y-30154505D01*
X30778343Y-30291082D01*
X30778340Y-30291092D01*
X30754263Y-30412135D01*
X30749500Y-30436082D01*
X30749500Y-30583918D01*
X30756993Y-30621586D01*
X30778340Y-30728907D01*
X30778343Y-30728917D01*
X30834915Y-30865494D01*
X30870609Y-30918913D01*
X30917049Y-30988416D01*
X31021584Y-31092951D01*
X31144505Y-31175084D01*
X31281087Y-31231658D01*
X31426082Y-31260500D01*
X31426084Y-31260500D01*
X31573916Y-31260500D01*
X31573918Y-31260500D01*
X31718913Y-31231658D01*
X31855495Y-31175084D01*
X31978416Y-31092951D01*
X32082951Y-30988416D01*
X32165084Y-30865495D01*
X32221658Y-30728913D01*
X32250500Y-30583918D01*
X32250500Y-30436082D01*
X32239328Y-30379918D01*
X32250377Y-30324371D01*
X32297469Y-30292905D01*
X32353016Y-30303953D01*
X32444505Y-30365084D01*
X32581087Y-30421658D01*
X32726082Y-30450500D01*
X32726084Y-30450500D01*
X32873916Y-30450500D01*
X32873918Y-30450500D01*
X33018913Y-30421658D01*
X33155495Y-30365084D01*
X33278416Y-30282951D01*
X33382951Y-30178416D01*
X33465084Y-30055495D01*
X33521658Y-29918913D01*
X33550500Y-29773918D01*
X33550500Y-29758019D01*
X33572174Y-29705693D01*
X33596182Y-29689652D01*
X33612362Y-29682950D01*
X33655495Y-29665084D01*
X33778416Y-29582951D01*
X33882951Y-29478416D01*
X33965084Y-29355495D01*
X34018688Y-29226083D01*
X34349500Y-29226083D01*
X34349500Y-29373916D01*
X34378340Y-29518907D01*
X34378343Y-29518917D01*
X34434915Y-29655494D01*
X34514044Y-29773918D01*
X34517049Y-29778416D01*
X34621584Y-29882951D01*
X34744505Y-29965084D01*
X34881087Y-30021658D01*
X35026082Y-30050500D01*
X35026084Y-30050500D01*
X35173916Y-30050500D01*
X35173918Y-30050500D01*
X35318913Y-30021658D01*
X35455495Y-29965084D01*
X35578416Y-29882951D01*
X35682951Y-29778416D01*
X35765084Y-29655495D01*
X35818688Y-29526083D01*
X36449500Y-29526083D01*
X36449500Y-29673916D01*
X36478340Y-29818907D01*
X36478343Y-29818917D01*
X36534915Y-29955494D01*
X36613852Y-30073631D01*
X36617049Y-30078416D01*
X36721584Y-30182951D01*
X36844505Y-30265084D01*
X36981087Y-30321658D01*
X37126082Y-30350500D01*
X37126084Y-30350500D01*
X37273916Y-30350500D01*
X37273918Y-30350500D01*
X37418913Y-30321658D01*
X37555495Y-30265084D01*
X37678416Y-30182951D01*
X37782951Y-30078416D01*
X37865084Y-29955495D01*
X37921658Y-29818913D01*
X37950500Y-29673918D01*
X37950500Y-29526082D01*
X37921658Y-29381087D01*
X37911057Y-29355495D01*
X37865084Y-29244505D01*
X37782951Y-29121584D01*
X37678415Y-29017048D01*
X37555494Y-28934915D01*
X37418917Y-28878343D01*
X37418907Y-28878340D01*
X37321811Y-28859026D01*
X37273918Y-28849500D01*
X37126082Y-28849500D01*
X37095949Y-28855494D01*
X36981092Y-28878340D01*
X36981082Y-28878343D01*
X36844505Y-28934915D01*
X36721584Y-29017048D01*
X36721583Y-29017050D01*
X36617050Y-29121583D01*
X36617048Y-29121584D01*
X36534915Y-29244505D01*
X36478343Y-29381082D01*
X36478340Y-29381092D01*
X36449500Y-29526083D01*
X35818688Y-29526083D01*
X35821658Y-29518913D01*
X35850500Y-29373918D01*
X35850500Y-29226082D01*
X35821658Y-29081087D01*
X35765084Y-28944505D01*
X35682951Y-28821584D01*
X35578416Y-28717049D01*
X35551280Y-28698917D01*
X35455494Y-28634915D01*
X35318917Y-28578343D01*
X35318907Y-28578340D01*
X35221811Y-28559026D01*
X35173918Y-28549500D01*
X35026082Y-28549500D01*
X34984977Y-28557676D01*
X34881092Y-28578340D01*
X34881082Y-28578343D01*
X34744505Y-28634915D01*
X34621584Y-28717048D01*
X34621583Y-28717050D01*
X34517050Y-28821583D01*
X34517048Y-28821584D01*
X34434915Y-28944505D01*
X34378343Y-29081082D01*
X34378340Y-29081092D01*
X34359876Y-29173918D01*
X34350381Y-29221656D01*
X34349500Y-29226083D01*
X34018688Y-29226083D01*
X34021658Y-29218913D01*
X34050500Y-29073918D01*
X34050500Y-28926082D01*
X34021658Y-28781087D01*
X34011057Y-28755495D01*
X33965084Y-28644505D01*
X33882951Y-28521584D01*
X33778415Y-28417048D01*
X33655494Y-28334915D01*
X33518917Y-28278343D01*
X33518907Y-28278340D01*
X33421811Y-28259026D01*
X33373918Y-28249500D01*
X33226082Y-28249500D01*
X33194657Y-28255751D01*
X33081092Y-28278340D01*
X33081082Y-28278343D01*
X32944505Y-28334915D01*
X32821584Y-28417048D01*
X32821583Y-28417050D01*
X32717050Y-28521583D01*
X32717048Y-28521584D01*
X32634915Y-28644505D01*
X32578343Y-28781082D01*
X32578340Y-28781092D01*
X32558981Y-28878417D01*
X32550381Y-28921656D01*
X32549500Y-28926083D01*
X32549500Y-28941979D01*
X32527826Y-28994305D01*
X32503820Y-29010346D01*
X32444504Y-29034916D01*
X32321584Y-29117048D01*
X32321583Y-29117050D01*
X32217050Y-29221583D01*
X32217048Y-29221584D01*
X32134915Y-29344505D01*
X32078343Y-29481082D01*
X32078340Y-29481092D01*
X32049500Y-29626083D01*
X32049500Y-29773917D01*
X32060671Y-29830080D01*
X32049621Y-29885629D01*
X32002529Y-29917094D01*
X31946981Y-29906045D01*
X31855494Y-29844915D01*
X31718917Y-29788343D01*
X31718907Y-29788340D01*
X31621811Y-29769026D01*
X31573918Y-29759500D01*
X31426082Y-29759500D01*
X31406809Y-29763333D01*
X31346860Y-29775258D01*
X31291312Y-29764209D01*
X31259846Y-29717116D01*
X31270895Y-29661568D01*
X31291309Y-29641153D01*
X31378416Y-29582951D01*
X31482951Y-29478416D01*
X31565084Y-29355495D01*
X31621658Y-29218913D01*
X31650500Y-29073918D01*
X31650500Y-28926082D01*
X31621658Y-28781087D01*
X31611057Y-28755495D01*
X31565084Y-28644505D01*
X31482951Y-28521584D01*
X31378415Y-28417048D01*
X31255494Y-28334915D01*
X31118917Y-28278343D01*
X31118907Y-28278340D01*
X31021811Y-28259026D01*
X30973918Y-28249500D01*
X30826082Y-28249500D01*
X30794657Y-28255751D01*
X30681092Y-28278340D01*
X30681082Y-28278343D01*
X30544505Y-28334915D01*
X30421584Y-28417048D01*
X30421583Y-28417050D01*
X30317050Y-28521583D01*
X30317048Y-28521584D01*
X30234915Y-28644505D01*
X30178343Y-28781082D01*
X30178340Y-28781092D01*
X30158981Y-28878417D01*
X30149500Y-28926082D01*
X29604556Y-28926082D01*
X29634621Y-28881087D01*
X29655726Y-28849500D01*
X29665084Y-28835495D01*
X29721658Y-28698913D01*
X29750500Y-28553918D01*
X29750500Y-28406082D01*
X29736058Y-28333479D01*
X29747107Y-28277931D01*
X29794197Y-28246466D01*
X29918913Y-28221658D01*
X30055495Y-28165084D01*
X30178416Y-28082951D01*
X30282951Y-27978416D01*
X30365084Y-27855495D01*
X30421658Y-27718913D01*
X30450500Y-27573918D01*
X30450500Y-27426082D01*
X30421658Y-27281087D01*
X30365084Y-27144505D01*
X30357950Y-27133828D01*
X30346901Y-27078279D01*
X30378367Y-27031187D01*
X30433916Y-27020138D01*
X30447794Y-27024347D01*
X30497740Y-27045036D01*
X30642735Y-27073878D01*
X30686773Y-27073878D01*
X30739099Y-27095552D01*
X30759351Y-27133441D01*
X30778340Y-27228907D01*
X30778343Y-27228917D01*
X30834915Y-27365494D01*
X30910318Y-27478342D01*
X30917049Y-27488416D01*
X31021584Y-27592951D01*
X31144505Y-27675084D01*
X31281087Y-27731658D01*
X31426082Y-27760500D01*
X31426084Y-27760500D01*
X31573916Y-27760500D01*
X31573918Y-27760500D01*
X31718913Y-27731658D01*
X31855495Y-27675084D01*
X31978416Y-27592951D01*
X32082515Y-27488851D01*
X32134840Y-27467178D01*
X32163158Y-27472811D01*
X32281082Y-27521656D01*
X32281087Y-27521658D01*
X32426082Y-27550500D01*
X32426084Y-27550500D01*
X32573916Y-27550500D01*
X32573918Y-27550500D01*
X32718913Y-27521658D01*
X32855495Y-27465084D01*
X32978416Y-27382951D01*
X33082951Y-27278416D01*
X33165084Y-27155495D01*
X33221658Y-27018913D01*
X33250500Y-26873918D01*
X33250500Y-26726082D01*
X33221658Y-26581087D01*
X33165084Y-26444505D01*
X33082951Y-26321584D01*
X32978416Y-26217049D01*
X32952807Y-26199937D01*
X32855494Y-26134915D01*
X32718917Y-26078343D01*
X32718907Y-26078340D01*
X32621811Y-26059026D01*
X32573918Y-26049500D01*
X32426082Y-26049500D01*
X32384977Y-26057676D01*
X32281092Y-26078340D01*
X32281082Y-26078343D01*
X32144505Y-26134915D01*
X32021584Y-26217048D01*
X31917485Y-26321147D01*
X31865159Y-26342821D01*
X31836841Y-26337188D01*
X31718917Y-26288343D01*
X31718907Y-26288340D01*
X31621811Y-26269026D01*
X31573918Y-26259500D01*
X31573916Y-26259500D01*
X31529880Y-26259500D01*
X31477554Y-26237826D01*
X31457302Y-26199937D01*
X31438312Y-26104470D01*
X31438311Y-26104469D01*
X31438311Y-26104465D01*
X31381737Y-25967883D01*
X31299604Y-25844962D01*
X31195069Y-25740427D01*
X31192138Y-25738468D01*
X31072147Y-25658293D01*
X30935570Y-25601721D01*
X30935560Y-25601718D01*
X30838464Y-25582404D01*
X30790571Y-25572878D01*
X30642735Y-25572878D01*
X30601630Y-25581054D01*
X30497745Y-25601718D01*
X30497735Y-25601721D01*
X30361158Y-25658293D01*
X30238237Y-25740426D01*
X30238236Y-25740428D01*
X30133703Y-25844961D01*
X30133701Y-25844962D01*
X30051568Y-25967883D01*
X29994996Y-26104460D01*
X29994993Y-26104470D01*
X29976207Y-26198917D01*
X29966153Y-26249460D01*
X29966153Y-26397296D01*
X29975544Y-26444505D01*
X29994993Y-26542285D01*
X29994996Y-26542295D01*
X30051567Y-26678871D01*
X30058703Y-26689550D01*
X30069751Y-26745099D01*
X30038284Y-26792191D01*
X29982735Y-26803239D01*
X29968855Y-26799028D01*
X29918917Y-26778343D01*
X29918907Y-26778340D01*
X29821811Y-26759026D01*
X29773918Y-26749500D01*
X29626082Y-26749500D01*
X29584977Y-26757676D01*
X29481092Y-26778340D01*
X29481082Y-26778343D01*
X29344505Y-26834915D01*
X29221584Y-26917048D01*
X29221583Y-26917050D01*
X29117050Y-27021583D01*
X29117048Y-27021584D01*
X29034915Y-27144505D01*
X28978343Y-27281082D01*
X28978340Y-27281092D01*
X28949500Y-27426083D01*
X28949500Y-27573917D01*
X28963941Y-27646520D01*
X28952891Y-27702069D01*
X28905800Y-27733534D01*
X28781092Y-27758340D01*
X28781082Y-27758343D01*
X28644505Y-27814915D01*
X28551707Y-27876920D01*
X28496158Y-27887969D01*
X28469483Y-27876920D01*
X28438140Y-27855977D01*
X28301565Y-27799406D01*
X28301555Y-27799403D01*
X28204459Y-27780089D01*
X28156566Y-27770563D01*
X28008730Y-27770563D01*
X27969633Y-27778340D01*
X27863740Y-27799403D01*
X27863730Y-27799406D01*
X27727153Y-27855978D01*
X27604232Y-27938111D01*
X27604231Y-27938113D01*
X27499698Y-28042646D01*
X27499696Y-28042647D01*
X27417563Y-28165568D01*
X27360991Y-28302145D01*
X27360988Y-28302155D01*
X27354472Y-28334915D01*
X27332148Y-28447145D01*
X20109964Y-28447145D01*
X20121658Y-28418913D01*
X20150500Y-28273918D01*
X20150500Y-28126082D01*
X20121658Y-27981087D01*
X20121211Y-27980009D01*
X20065084Y-27844505D01*
X19982951Y-27721584D01*
X19878415Y-27617048D01*
X19755494Y-27534915D01*
X19618917Y-27478343D01*
X19618907Y-27478340D01*
X19521811Y-27459026D01*
X19473918Y-27449500D01*
X19326082Y-27449500D01*
X19284977Y-27457676D01*
X19181092Y-27478340D01*
X19181082Y-27478343D01*
X19044505Y-27534915D01*
X18921584Y-27617048D01*
X18921583Y-27617050D01*
X18817050Y-27721583D01*
X18817048Y-27721584D01*
X18734915Y-27844505D01*
X18678343Y-27981082D01*
X18678340Y-27981093D01*
X18677491Y-27985362D01*
X18646021Y-28032451D01*
X18590471Y-28043496D01*
X18543386Y-28012031D01*
X18482951Y-27921584D01*
X18378416Y-27817049D01*
X18375223Y-27814915D01*
X18255494Y-27734915D01*
X18118915Y-27678342D01*
X18118911Y-27678341D01*
X18105698Y-27675713D01*
X18058607Y-27644246D01*
X18047559Y-27588699D01*
X18050500Y-27573918D01*
X18050500Y-27426082D01*
X18021658Y-27281087D01*
X17965084Y-27144505D01*
X17882951Y-27021584D01*
X17778416Y-26917049D01*
X17778412Y-26917046D01*
X17778409Y-26917043D01*
X17777543Y-26916332D01*
X17777365Y-26915999D01*
X17775845Y-26914479D01*
X17776306Y-26914017D01*
X17750855Y-26866377D01*
X17750500Y-26859139D01*
X17750500Y-26726083D01*
X17745641Y-26701658D01*
X17721658Y-26581087D01*
X17665084Y-26444505D01*
X17582951Y-26321584D01*
X17478416Y-26217049D01*
X17452807Y-26199937D01*
X17355494Y-26134915D01*
X17249023Y-26090814D01*
X17218913Y-26078342D01*
X17218907Y-26078340D01*
X17121811Y-26059026D01*
X17073918Y-26049500D01*
X16926082Y-26049500D01*
X16884977Y-26057676D01*
X16781092Y-26078340D01*
X16781082Y-26078343D01*
X16644505Y-26134915D01*
X16521584Y-26217048D01*
X16521583Y-26217050D01*
X16417050Y-26321583D01*
X16417048Y-26321584D01*
X16334915Y-26444505D01*
X16278343Y-26581082D01*
X16278340Y-26581092D01*
X16258080Y-26682950D01*
X16249500Y-26726082D01*
X6000000Y-26726082D01*
X6000000Y-26026082D01*
X19149500Y-26026082D01*
X19149500Y-26173918D01*
X19158080Y-26217050D01*
X19178340Y-26318907D01*
X19178343Y-26318917D01*
X19234915Y-26455494D01*
X19317048Y-26578415D01*
X19421584Y-26682951D01*
X19544505Y-26765084D01*
X19636619Y-26803239D01*
X19681087Y-26821658D01*
X19826082Y-26850500D01*
X19826084Y-26850500D01*
X19973916Y-26850500D01*
X19973918Y-26850500D01*
X20118913Y-26821658D01*
X20255495Y-26765084D01*
X20378416Y-26682951D01*
X20482951Y-26578416D01*
X20565084Y-26455495D01*
X20621658Y-26318913D01*
X20650500Y-26173918D01*
X20650500Y-26026082D01*
X20639100Y-25968774D01*
X20650149Y-25913228D01*
X20659346Y-25902019D01*
X20682951Y-25878416D01*
X20765084Y-25755495D01*
X20821658Y-25618913D01*
X20850500Y-25473918D01*
X20850500Y-25326082D01*
X20821658Y-25181087D01*
X20819171Y-25175084D01*
X20765084Y-25044505D01*
X20682951Y-24921584D01*
X20578415Y-24817048D01*
X20455494Y-24734915D01*
X20318917Y-24678343D01*
X20318907Y-24678340D01*
X20221811Y-24659026D01*
X20173918Y-24649500D01*
X20026082Y-24649500D01*
X19984977Y-24657676D01*
X19881092Y-24678340D01*
X19881082Y-24678343D01*
X19744505Y-24734915D01*
X19621584Y-24817048D01*
X19621583Y-24817050D01*
X19517050Y-24921583D01*
X19517048Y-24921584D01*
X19434915Y-25044505D01*
X19378343Y-25181082D01*
X19378340Y-25181092D01*
X19358234Y-25282174D01*
X19350381Y-25321656D01*
X19349500Y-25326083D01*
X19349500Y-25473917D01*
X19360898Y-25531224D01*
X19349848Y-25586773D01*
X19340647Y-25597985D01*
X19317048Y-25621584D01*
X19234915Y-25744505D01*
X19178343Y-25881082D01*
X19178340Y-25881092D01*
X19159876Y-25973918D01*
X19149500Y-26026082D01*
X6000000Y-26026082D01*
X6000000Y-23026082D01*
X16349500Y-23026082D01*
X16349500Y-23173918D01*
X16355018Y-23201656D01*
X16378340Y-23318907D01*
X16378343Y-23318917D01*
X16434915Y-23455494D01*
X16517048Y-23578415D01*
X16621584Y-23682951D01*
X16744505Y-23765084D01*
X16874469Y-23818917D01*
X16881087Y-23821658D01*
X17026082Y-23850500D01*
X17026084Y-23850500D01*
X17173916Y-23850500D01*
X17173918Y-23850500D01*
X17318913Y-23821658D01*
X17455495Y-23765084D01*
X17578416Y-23682951D01*
X17682951Y-23578416D01*
X17762731Y-23459017D01*
X21545724Y-23459017D01*
X21545724Y-23606850D01*
X21574564Y-23751841D01*
X21574567Y-23751851D01*
X21631139Y-23888428D01*
X21713272Y-24011349D01*
X21817952Y-24116029D01*
X21839626Y-24168355D01*
X21817952Y-24220681D01*
X21717050Y-24321583D01*
X21717048Y-24321584D01*
X21634915Y-24444505D01*
X21578343Y-24581082D01*
X21578340Y-24581092D01*
X21559876Y-24673918D01*
X21549500Y-24726082D01*
X21549500Y-24873918D01*
X21554205Y-24897569D01*
X21578340Y-25018907D01*
X21578343Y-25018917D01*
X21634915Y-25155494D01*
X21717048Y-25278415D01*
X21821584Y-25382951D01*
X21944505Y-25465084D01*
X22032621Y-25501583D01*
X22081087Y-25521658D01*
X22226082Y-25550500D01*
X22226084Y-25550500D01*
X22373916Y-25550500D01*
X22373918Y-25550500D01*
X22518913Y-25521658D01*
X22655495Y-25465084D01*
X22778416Y-25382951D01*
X22879193Y-25282174D01*
X22931519Y-25260500D01*
X23073916Y-25260500D01*
X23073918Y-25260500D01*
X23218913Y-25231658D01*
X23355495Y-25175084D01*
X23428832Y-25126082D01*
X25449500Y-25126082D01*
X25449500Y-25273918D01*
X25458080Y-25317050D01*
X25478340Y-25418907D01*
X25478343Y-25418917D01*
X25534915Y-25555494D01*
X25617048Y-25678415D01*
X25721584Y-25782951D01*
X25844505Y-25865084D01*
X25943485Y-25906083D01*
X25981087Y-25921658D01*
X26126082Y-25950500D01*
X26126084Y-25950500D01*
X26273916Y-25950500D01*
X26273918Y-25950500D01*
X26418913Y-25921658D01*
X26435563Y-25914760D01*
X26492198Y-25914759D01*
X26532248Y-25954806D01*
X26536554Y-25983761D01*
X26537820Y-25983761D01*
X26537820Y-26135230D01*
X26566660Y-26280221D01*
X26566663Y-26280231D01*
X26623235Y-26416808D01*
X26705368Y-26539729D01*
X26809904Y-26644265D01*
X26932825Y-26726398D01*
X27058231Y-26778343D01*
X27069407Y-26782972D01*
X27214402Y-26811814D01*
X27214404Y-26811814D01*
X27362236Y-26811814D01*
X27362238Y-26811814D01*
X27507233Y-26782972D01*
X27643815Y-26726398D01*
X27766736Y-26644265D01*
X27871271Y-26539730D01*
X27953404Y-26416809D01*
X27972865Y-26369826D01*
X28012913Y-26329777D01*
X28069550Y-26329777D01*
X28102760Y-26357031D01*
X28117049Y-26378416D01*
X28221584Y-26482951D01*
X28344505Y-26565084D01*
X28481087Y-26621658D01*
X28626082Y-26650500D01*
X28626084Y-26650500D01*
X28773916Y-26650500D01*
X28773918Y-26650500D01*
X28918913Y-26621658D01*
X29055495Y-26565084D01*
X29178416Y-26482951D01*
X29282951Y-26378416D01*
X29365084Y-26255495D01*
X29421658Y-26118913D01*
X29450500Y-25973918D01*
X29450500Y-25826082D01*
X29421658Y-25681087D01*
X29365084Y-25544505D01*
X29282951Y-25421584D01*
X29178416Y-25317049D01*
X29175223Y-25314915D01*
X29055494Y-25234915D01*
X28918917Y-25178343D01*
X28918907Y-25178340D01*
X28821811Y-25159026D01*
X28773918Y-25149500D01*
X28626082Y-25149500D01*
X28595949Y-25155494D01*
X28481092Y-25178340D01*
X28481082Y-25178343D01*
X28344505Y-25234915D01*
X28221584Y-25317048D01*
X28221583Y-25317050D01*
X28117050Y-25421583D01*
X28117048Y-25421584D01*
X28034917Y-25544502D01*
X28015454Y-25591489D01*
X27975404Y-25631537D01*
X27918767Y-25631536D01*
X27885558Y-25604280D01*
X27871274Y-25582902D01*
X27871270Y-25582897D01*
X27766735Y-25478362D01*
X27643814Y-25396229D01*
X27507237Y-25339657D01*
X27507227Y-25339654D01*
X27410131Y-25320340D01*
X27362238Y-25310814D01*
X27214402Y-25310814D01*
X27173297Y-25318990D01*
X27069412Y-25339654D01*
X27069403Y-25339657D01*
X27052751Y-25346554D01*
X26996114Y-25346550D01*
X26956068Y-25306499D01*
X26951795Y-25277554D01*
X26950500Y-25277554D01*
X26950500Y-25126083D01*
X26941018Y-25078417D01*
X26921658Y-24981087D01*
X26911057Y-24955495D01*
X26865084Y-24844505D01*
X26782951Y-24721584D01*
X26678415Y-24617048D01*
X26628919Y-24583976D01*
X26555494Y-24534915D01*
X26534169Y-24526082D01*
X30749500Y-24526082D01*
X30749500Y-24673918D01*
X30755173Y-24702438D01*
X30778340Y-24818907D01*
X30778343Y-24818917D01*
X30834915Y-24955494D01*
X30908164Y-25065118D01*
X30917049Y-25078416D01*
X31021584Y-25182951D01*
X31144505Y-25265084D01*
X31281087Y-25321658D01*
X31426082Y-25350500D01*
X31426084Y-25350500D01*
X31573916Y-25350500D01*
X31573918Y-25350500D01*
X31718913Y-25321658D01*
X31855495Y-25265084D01*
X31978416Y-25182951D01*
X32082951Y-25078416D01*
X32165084Y-24955495D01*
X32221658Y-24818913D01*
X32250500Y-24673918D01*
X32250500Y-24526082D01*
X32228425Y-24415106D01*
X32239474Y-24359558D01*
X32286566Y-24328092D01*
X32286567Y-24328092D01*
X32294851Y-24326444D01*
X32318913Y-24321658D01*
X32455495Y-24265084D01*
X32578416Y-24182951D01*
X32682951Y-24078416D01*
X32765084Y-23955495D01*
X32821658Y-23818913D01*
X32850500Y-23673918D01*
X32850500Y-23526082D01*
X32821658Y-23381087D01*
X32793880Y-23314026D01*
X32765084Y-23244505D01*
X32682951Y-23121584D01*
X32578415Y-23017048D01*
X32455494Y-22934915D01*
X32318917Y-22878343D01*
X32318907Y-22878340D01*
X32221811Y-22859026D01*
X32173918Y-22849500D01*
X32026082Y-22849500D01*
X31984977Y-22857676D01*
X31881092Y-22878340D01*
X31881082Y-22878343D01*
X31744505Y-22934915D01*
X31621584Y-23017048D01*
X31621583Y-23017050D01*
X31517050Y-23121583D01*
X31517048Y-23121584D01*
X31434915Y-23244505D01*
X31378343Y-23381082D01*
X31378340Y-23381092D01*
X31349500Y-23526083D01*
X31349500Y-23673917D01*
X31371574Y-23784893D01*
X31360525Y-23840441D01*
X31313434Y-23871907D01*
X31281090Y-23878341D01*
X31281084Y-23878342D01*
X31144505Y-23934915D01*
X31021584Y-24017048D01*
X31021583Y-24017050D01*
X30917050Y-24121583D01*
X30917048Y-24121584D01*
X30834915Y-24244505D01*
X30778343Y-24381082D01*
X30778340Y-24381092D01*
X30767402Y-24436083D01*
X30749500Y-24526082D01*
X26534169Y-24526082D01*
X26418917Y-24478343D01*
X26418907Y-24478340D01*
X26321811Y-24459026D01*
X26273918Y-24449500D01*
X26126082Y-24449500D01*
X26084977Y-24457676D01*
X25981092Y-24478340D01*
X25981082Y-24478343D01*
X25844505Y-24534915D01*
X25721584Y-24617048D01*
X25721583Y-24617050D01*
X25617050Y-24721583D01*
X25617048Y-24721584D01*
X25534915Y-24844505D01*
X25478343Y-24981082D01*
X25478340Y-24981092D01*
X25456090Y-25092951D01*
X25449500Y-25126082D01*
X23428832Y-25126082D01*
X23478416Y-25092951D01*
X23582951Y-24988416D01*
X23665084Y-24865495D01*
X23721658Y-24728913D01*
X23750500Y-24583918D01*
X23750500Y-24436082D01*
X23721658Y-24291087D01*
X23665084Y-24154505D01*
X23582951Y-24031584D01*
X23478416Y-23927049D01*
X23438803Y-23900580D01*
X23355494Y-23844915D01*
X23218917Y-23788343D01*
X23218907Y-23788340D01*
X23091128Y-23762923D01*
X23044036Y-23731457D01*
X23032987Y-23675909D01*
X23046724Y-23606852D01*
X23046724Y-23459016D01*
X23017882Y-23314021D01*
X22961308Y-23177439D01*
X22879175Y-23054518D01*
X22774640Y-22949983D01*
X22752090Y-22934915D01*
X22651718Y-22867849D01*
X22515141Y-22811277D01*
X22515131Y-22811274D01*
X22418035Y-22791960D01*
X22370142Y-22782434D01*
X22222306Y-22782434D01*
X22181201Y-22790610D01*
X22077316Y-22811274D01*
X22077306Y-22811277D01*
X21940729Y-22867849D01*
X21817808Y-22949982D01*
X21817807Y-22949984D01*
X21713274Y-23054517D01*
X21713272Y-23054518D01*
X21631139Y-23177439D01*
X21574567Y-23314016D01*
X21574564Y-23314026D01*
X21560375Y-23385360D01*
X21546425Y-23455495D01*
X21545724Y-23459017D01*
X17762731Y-23459017D01*
X17765084Y-23455495D01*
X17821658Y-23318913D01*
X17850500Y-23173918D01*
X17850500Y-23026082D01*
X17821658Y-22881087D01*
X17765084Y-22744505D01*
X17682951Y-22621584D01*
X17578416Y-22517049D01*
X17473452Y-22446914D01*
X17455494Y-22434915D01*
X17318917Y-22378343D01*
X17318907Y-22378340D01*
X17221811Y-22359026D01*
X17173918Y-22349500D01*
X17026082Y-22349500D01*
X16984977Y-22357676D01*
X16881092Y-22378340D01*
X16881082Y-22378343D01*
X16744505Y-22434915D01*
X16621584Y-22517048D01*
X16621583Y-22517050D01*
X16517050Y-22621583D01*
X16517048Y-22621584D01*
X16434915Y-22744505D01*
X16378343Y-22881082D01*
X16378340Y-22881092D01*
X16354263Y-23002135D01*
X16349500Y-23026082D01*
X6000000Y-23026082D01*
X6000000Y-21126083D01*
X18249500Y-21126083D01*
X18249500Y-21273916D01*
X18278340Y-21418907D01*
X18278343Y-21418917D01*
X18334915Y-21555494D01*
X18361435Y-21595183D01*
X18417049Y-21678416D01*
X18521584Y-21782951D01*
X18644505Y-21865084D01*
X18781087Y-21921658D01*
X18926082Y-21950500D01*
X18926084Y-21950500D01*
X19073916Y-21950500D01*
X19073918Y-21950500D01*
X19218913Y-21921658D01*
X19355495Y-21865084D01*
X19478416Y-21782951D01*
X19582951Y-21678416D01*
X19665084Y-21555495D01*
X19721658Y-21418913D01*
X19750500Y-21273918D01*
X19750500Y-21126082D01*
X19721658Y-20981087D01*
X19690590Y-20906083D01*
X22249500Y-20906083D01*
X22249500Y-21053916D01*
X22278340Y-21198907D01*
X22278343Y-21198917D01*
X22334915Y-21335494D01*
X22399402Y-21432005D01*
X22417049Y-21458416D01*
X22521584Y-21562951D01*
X22644505Y-21645084D01*
X22781087Y-21701658D01*
X22926082Y-21730500D01*
X22926084Y-21730500D01*
X23073916Y-21730500D01*
X23073918Y-21730500D01*
X23218913Y-21701658D01*
X23355495Y-21645084D01*
X23478416Y-21562951D01*
X23582951Y-21458416D01*
X23665084Y-21335495D01*
X23721658Y-21198913D01*
X23750500Y-21053918D01*
X23750500Y-20906082D01*
X23721658Y-20761087D01*
X23665084Y-20624505D01*
X23582951Y-20501584D01*
X23478416Y-20397049D01*
X23475515Y-20395110D01*
X23355494Y-20314915D01*
X23218917Y-20258343D01*
X23218907Y-20258340D01*
X23121811Y-20239026D01*
X23073918Y-20229500D01*
X22926082Y-20229500D01*
X22884977Y-20237676D01*
X22781092Y-20258340D01*
X22781082Y-20258343D01*
X22644505Y-20314915D01*
X22521584Y-20397048D01*
X22521583Y-20397050D01*
X22417050Y-20501583D01*
X22417048Y-20501584D01*
X22334915Y-20624505D01*
X22278343Y-20761082D01*
X22278340Y-20761092D01*
X22254754Y-20879671D01*
X22251136Y-20897860D01*
X22249500Y-20906083D01*
X19690590Y-20906083D01*
X19665084Y-20844505D01*
X19582951Y-20721584D01*
X19478416Y-20617049D01*
X19355495Y-20534916D01*
X19355496Y-20534916D01*
X19355494Y-20534915D01*
X19218917Y-20478343D01*
X19218907Y-20478340D01*
X19121811Y-20459026D01*
X19073918Y-20449500D01*
X18926082Y-20449500D01*
X18884977Y-20457676D01*
X18781092Y-20478340D01*
X18781082Y-20478343D01*
X18644505Y-20534915D01*
X18521584Y-20617048D01*
X18521583Y-20617050D01*
X18417050Y-20721583D01*
X18417048Y-20721584D01*
X18334915Y-20844505D01*
X18278343Y-20981082D01*
X18278340Y-20981092D01*
X18249500Y-21126083D01*
X6000000Y-21126083D01*
X6000000Y-19426083D01*
X23749500Y-19426083D01*
X23749500Y-19573916D01*
X23778340Y-19718907D01*
X23778343Y-19718917D01*
X23834915Y-19855494D01*
X23834916Y-19855495D01*
X23917049Y-19978416D01*
X24021584Y-20082951D01*
X24144505Y-20165084D01*
X24281087Y-20221658D01*
X24426082Y-20250500D01*
X24426084Y-20250500D01*
X24573916Y-20250500D01*
X24573918Y-20250500D01*
X24718913Y-20221658D01*
X24855495Y-20165084D01*
X24978416Y-20082951D01*
X25082951Y-19978416D01*
X25165084Y-19855495D01*
X25221658Y-19718913D01*
X25250500Y-19573918D01*
X25250500Y-19426082D01*
X25221658Y-19281087D01*
X25202711Y-19235346D01*
X25165084Y-19144505D01*
X25082951Y-19021584D01*
X24978415Y-18917048D01*
X24855494Y-18834915D01*
X24718917Y-18778343D01*
X24718907Y-18778340D01*
X24621811Y-18759026D01*
X24573918Y-18749500D01*
X24426082Y-18749500D01*
X24384977Y-18757676D01*
X24281092Y-18778340D01*
X24281082Y-18778343D01*
X24144505Y-18834915D01*
X24021584Y-18917048D01*
X24021583Y-18917050D01*
X23917050Y-19021583D01*
X23917048Y-19021584D01*
X23834915Y-19144505D01*
X23778343Y-19281082D01*
X23778340Y-19281092D01*
X23749500Y-19426083D01*
X6000000Y-19426083D01*
X6000000Y-18526083D01*
X13049500Y-18526083D01*
X13049500Y-18673916D01*
X13078340Y-18818907D01*
X13078343Y-18818917D01*
X13134915Y-18955494D01*
X13134916Y-18955495D01*
X13217049Y-19078416D01*
X13321584Y-19182951D01*
X13444505Y-19265084D01*
X13581087Y-19321658D01*
X13726082Y-19350500D01*
X13726084Y-19350500D01*
X13873916Y-19350500D01*
X13873918Y-19350500D01*
X14018913Y-19321658D01*
X14155495Y-19265084D01*
X14158885Y-19262818D01*
X14214432Y-19251766D01*
X14241114Y-19262818D01*
X14244505Y-19265084D01*
X14244506Y-19265084D01*
X14244507Y-19265085D01*
X14381082Y-19321656D01*
X14381087Y-19321658D01*
X14526082Y-19350500D01*
X14526084Y-19350500D01*
X14673918Y-19350500D01*
X14818913Y-19321658D01*
X14955495Y-19265084D01*
X15078416Y-19182951D01*
X15182951Y-19078416D01*
X15265084Y-18955495D01*
X15321658Y-18818913D01*
X15350500Y-18673918D01*
X15350500Y-18526082D01*
X15321658Y-18381087D01*
X15265084Y-18244505D01*
X15182951Y-18121584D01*
X15078416Y-18017049D01*
X15057087Y-18002797D01*
X14955494Y-17934915D01*
X14818917Y-17878343D01*
X14818907Y-17878340D01*
X14721811Y-17859026D01*
X14673918Y-17849500D01*
X14526082Y-17849500D01*
X14495949Y-17855494D01*
X14381092Y-17878340D01*
X14381082Y-17878343D01*
X14244505Y-17934915D01*
X14241112Y-17937183D01*
X14185563Y-17948232D01*
X14158888Y-17937183D01*
X14155494Y-17934915D01*
X14018917Y-17878343D01*
X14018907Y-17878340D01*
X13921811Y-17859026D01*
X13873918Y-17849500D01*
X13726082Y-17849500D01*
X13695949Y-17855494D01*
X13581092Y-17878340D01*
X13581082Y-17878343D01*
X13444505Y-17934915D01*
X13321584Y-18017048D01*
X13321583Y-18017050D01*
X13217050Y-18121583D01*
X13217048Y-18121584D01*
X13134915Y-18244505D01*
X13078343Y-18381082D01*
X13078340Y-18381092D01*
X13049500Y-18526083D01*
X6000000Y-18526083D01*
X6000000Y-17700000D01*
X374000Y-17700000D01*
X321674Y-17678326D01*
X300000Y-17626000D01*
X300000Y-17426083D01*
X20849500Y-17426083D01*
X20849500Y-17573916D01*
X20878340Y-17718907D01*
X20878343Y-17718917D01*
X20934915Y-17855494D01*
X20996881Y-17948232D01*
X21017049Y-17978416D01*
X21121584Y-18082951D01*
X21244505Y-18165084D01*
X21381087Y-18221658D01*
X21526082Y-18250500D01*
X21526084Y-18250500D01*
X21673916Y-18250500D01*
X21673918Y-18250500D01*
X21818913Y-18221658D01*
X21955495Y-18165084D01*
X22078416Y-18082951D01*
X22182951Y-17978416D01*
X22265084Y-17855495D01*
X22321658Y-17718913D01*
X22350500Y-17573918D01*
X22350500Y-17426082D01*
X22321658Y-17281087D01*
X22265084Y-17144505D01*
X22265084Y-17144504D01*
X22261553Y-17139220D01*
X22261552Y-17139219D01*
X22235343Y-17099994D01*
X36624500Y-17099994D01*
X36624500Y-17900000D01*
X36624500Y-17900005D01*
X36624501Y-17900008D01*
X36635001Y-18002797D01*
X36690186Y-18169334D01*
X36782288Y-18318656D01*
X36906344Y-18442712D01*
X37055666Y-18534814D01*
X37222203Y-18589999D01*
X37324991Y-18600500D01*
X38675008Y-18600499D01*
X38777797Y-18589999D01*
X38807951Y-18580007D01*
X43399500Y-18580007D01*
X43399500Y-28019992D01*
X43414798Y-28056926D01*
X43414799Y-28056928D01*
X43414800Y-28056929D01*
X43443071Y-28085200D01*
X43480009Y-28100500D01*
X43480010Y-28100500D01*
X50019990Y-28100500D01*
X50019991Y-28100500D01*
X50056929Y-28085200D01*
X50085200Y-28056929D01*
X50100500Y-28019991D01*
X50100500Y-26980009D01*
X50085200Y-26943071D01*
X50056929Y-26914800D01*
X50056928Y-26914799D01*
X50056926Y-26914798D01*
X50019991Y-26899500D01*
X44674500Y-26899500D01*
X44622174Y-26877826D01*
X44600500Y-26825500D01*
X44600500Y-25906082D01*
X44749500Y-25906082D01*
X44749500Y-26053918D01*
X44754359Y-26078343D01*
X44778340Y-26198907D01*
X44778343Y-26198917D01*
X44834915Y-26335494D01*
X44915097Y-26455494D01*
X44917049Y-26458416D01*
X45021584Y-26562951D01*
X45144505Y-26645084D01*
X45281087Y-26701658D01*
X45426082Y-26730500D01*
X45426084Y-26730500D01*
X45573916Y-26730500D01*
X45573918Y-26730500D01*
X45718913Y-26701658D01*
X45855495Y-26645084D01*
X45978416Y-26562951D01*
X46082951Y-26458416D01*
X46165084Y-26335495D01*
X46221658Y-26198913D01*
X46250500Y-26053918D01*
X46250500Y-25906082D01*
X46221658Y-25761087D01*
X46205461Y-25721985D01*
X46165084Y-25624505D01*
X46082951Y-25501584D01*
X45978418Y-25397051D01*
X45978417Y-25397050D01*
X45978416Y-25397049D01*
X45958849Y-25383975D01*
X45958849Y-25383974D01*
X45872207Y-25326082D01*
X46449500Y-25326082D01*
X46449500Y-25473918D01*
X46455003Y-25501583D01*
X46478340Y-25618907D01*
X46478343Y-25618917D01*
X46534915Y-25755494D01*
X46617048Y-25878415D01*
X46721584Y-25982951D01*
X46844505Y-26065084D01*
X46974469Y-26118917D01*
X46981087Y-26121658D01*
X47126082Y-26150500D01*
X47126084Y-26150500D01*
X47273916Y-26150500D01*
X47273918Y-26150500D01*
X47418913Y-26121658D01*
X47555495Y-26065084D01*
X47678416Y-25982951D01*
X47782951Y-25878416D01*
X47788906Y-25869502D01*
X47835996Y-25838034D01*
X47891545Y-25849080D01*
X47918804Y-25882292D01*
X47969037Y-26003564D01*
X48051169Y-26126484D01*
X48155705Y-26231020D01*
X48278626Y-26313153D01*
X48406567Y-26366148D01*
X48415208Y-26369727D01*
X48560203Y-26398569D01*
X48560205Y-26398569D01*
X48708037Y-26398569D01*
X48708039Y-26398569D01*
X48853034Y-26369727D01*
X48989616Y-26313153D01*
X49112537Y-26231020D01*
X49217072Y-26126485D01*
X49299205Y-26003564D01*
X49355779Y-25866982D01*
X49384621Y-25721987D01*
X49384621Y-25574151D01*
X49355779Y-25429156D01*
X49342479Y-25397048D01*
X49299205Y-25292574D01*
X49217072Y-25169653D01*
X49112536Y-25065117D01*
X48989615Y-24982984D01*
X48853038Y-24926412D01*
X48853028Y-24926409D01*
X48755932Y-24907095D01*
X48708039Y-24897569D01*
X48560203Y-24897569D01*
X48519098Y-24905745D01*
X48415213Y-24926409D01*
X48415203Y-24926412D01*
X48278626Y-24982984D01*
X48155705Y-25065117D01*
X48155704Y-25065119D01*
X48051165Y-25169658D01*
X48045210Y-25178571D01*
X47998117Y-25210036D01*
X47942569Y-25198984D01*
X47915316Y-25165776D01*
X47908574Y-25149500D01*
X47865084Y-25044505D01*
X47841239Y-25008818D01*
X47830190Y-24953269D01*
X47841239Y-24926594D01*
X47844587Y-24921583D01*
X47899750Y-24839026D01*
X47956324Y-24702444D01*
X47985166Y-24557449D01*
X47985166Y-24409613D01*
X47956324Y-24264618D01*
X47922496Y-24182951D01*
X47899750Y-24128036D01*
X47817617Y-24005115D01*
X47713081Y-23900579D01*
X47590160Y-23818446D01*
X47453583Y-23761874D01*
X47453573Y-23761871D01*
X47356477Y-23742557D01*
X47308584Y-23733031D01*
X47160748Y-23733031D01*
X47119643Y-23741207D01*
X47015758Y-23761871D01*
X47015748Y-23761874D01*
X46879171Y-23818446D01*
X46756250Y-23900579D01*
X46756249Y-23900581D01*
X46651716Y-24005114D01*
X46651714Y-24005115D01*
X46569581Y-24128036D01*
X46513009Y-24264613D01*
X46513006Y-24264623D01*
X46484166Y-24409614D01*
X46484166Y-24557447D01*
X46513006Y-24702438D01*
X46513009Y-24702448D01*
X46569581Y-24839025D01*
X46593427Y-24874713D01*
X46604476Y-24930262D01*
X46593427Y-24956937D01*
X46534915Y-25044505D01*
X46478343Y-25181082D01*
X46478340Y-25181092D01*
X46458234Y-25282174D01*
X46449500Y-25326082D01*
X45872207Y-25326082D01*
X45855494Y-25314915D01*
X45718917Y-25258343D01*
X45718907Y-25258340D01*
X45601140Y-25234915D01*
X45573918Y-25229500D01*
X45426082Y-25229500D01*
X45398860Y-25234915D01*
X45281092Y-25258340D01*
X45281082Y-25258343D01*
X45144505Y-25314915D01*
X45021584Y-25397048D01*
X45021583Y-25397050D01*
X44917050Y-25501583D01*
X44917048Y-25501584D01*
X44834915Y-25624505D01*
X44778343Y-25761082D01*
X44778340Y-25761092D01*
X44758675Y-25859955D01*
X44749500Y-25906082D01*
X44600500Y-25906082D01*
X44600500Y-22406083D01*
X44749500Y-22406083D01*
X44749500Y-22553916D01*
X44778340Y-22698907D01*
X44778343Y-22698917D01*
X44834915Y-22835494D01*
X44917048Y-22958415D01*
X45021584Y-23062951D01*
X45144505Y-23145084D01*
X45214116Y-23173918D01*
X45281087Y-23201658D01*
X45426082Y-23230500D01*
X45426084Y-23230500D01*
X45573916Y-23230500D01*
X45573918Y-23230500D01*
X45718913Y-23201658D01*
X45855495Y-23145084D01*
X45978416Y-23062951D01*
X46044546Y-22996820D01*
X46096870Y-22975147D01*
X46149197Y-22996821D01*
X46165238Y-23020828D01*
X46167415Y-23026083D01*
X46222017Y-23157904D01*
X46304150Y-23280825D01*
X46408685Y-23385360D01*
X46531606Y-23467493D01*
X46668188Y-23524067D01*
X46813183Y-23552909D01*
X46813185Y-23552909D01*
X46961017Y-23552909D01*
X46961019Y-23552909D01*
X47106014Y-23524067D01*
X47242596Y-23467493D01*
X47365517Y-23385360D01*
X47470052Y-23280825D01*
X47552185Y-23157904D01*
X47608759Y-23021322D01*
X47637601Y-22876327D01*
X47637601Y-22728491D01*
X47608759Y-22583496D01*
X47552185Y-22446914D01*
X47470052Y-22323993D01*
X47365517Y-22219458D01*
X47242596Y-22137325D01*
X47242597Y-22137325D01*
X47242595Y-22137324D01*
X47106018Y-22080752D01*
X47106008Y-22080749D01*
X47001393Y-22059940D01*
X46961019Y-22051909D01*
X46961017Y-22051909D01*
X46957453Y-22051200D01*
X46957905Y-22048922D01*
X46914103Y-22025503D01*
X46897669Y-21971303D01*
X46898731Y-21964143D01*
X46913791Y-21888437D01*
X46913791Y-21740601D01*
X46889324Y-21617600D01*
X46900373Y-21562051D01*
X46920788Y-21541636D01*
X46928416Y-21536540D01*
X47032951Y-21432005D01*
X47115084Y-21309084D01*
X47171658Y-21172502D01*
X47197448Y-21042850D01*
X48378233Y-21042850D01*
X48378233Y-21190686D01*
X48381290Y-21206055D01*
X48407073Y-21335675D01*
X48407076Y-21335685D01*
X48463648Y-21472262D01*
X48530352Y-21572091D01*
X48545782Y-21595184D01*
X48650317Y-21699719D01*
X48773238Y-21781852D01*
X48909820Y-21838426D01*
X49054815Y-21867268D01*
X49054817Y-21867268D01*
X49202649Y-21867268D01*
X49202651Y-21867268D01*
X49347646Y-21838426D01*
X49484228Y-21781852D01*
X49607149Y-21699719D01*
X49711684Y-21595184D01*
X49793817Y-21472263D01*
X49850391Y-21335681D01*
X49879233Y-21190686D01*
X49879233Y-21042850D01*
X49850391Y-20897855D01*
X49793817Y-20761273D01*
X49711684Y-20638352D01*
X49607149Y-20533817D01*
X49558908Y-20501583D01*
X49484227Y-20451683D01*
X49347650Y-20395111D01*
X49347640Y-20395108D01*
X49250544Y-20375794D01*
X49202651Y-20366268D01*
X49054815Y-20366268D01*
X49013710Y-20374444D01*
X48909825Y-20395108D01*
X48909815Y-20395111D01*
X48773238Y-20451683D01*
X48650317Y-20533816D01*
X48650316Y-20533818D01*
X48545783Y-20638351D01*
X48545781Y-20638352D01*
X48463648Y-20761273D01*
X48407076Y-20897850D01*
X48407073Y-20897860D01*
X48382996Y-21018903D01*
X48378233Y-21042850D01*
X47197448Y-21042850D01*
X47200500Y-21027507D01*
X47200500Y-20879671D01*
X47171658Y-20734676D01*
X47115084Y-20598094D01*
X47032951Y-20475173D01*
X46928416Y-20370638D01*
X46845021Y-20314915D01*
X46805494Y-20288504D01*
X46668917Y-20231932D01*
X46668907Y-20231929D01*
X46571811Y-20212615D01*
X46523918Y-20203089D01*
X46376082Y-20203089D01*
X46334977Y-20211265D01*
X46231092Y-20231929D01*
X46231082Y-20231932D01*
X46094505Y-20288504D01*
X45971584Y-20370637D01*
X45971583Y-20370639D01*
X45867050Y-20475172D01*
X45867048Y-20475173D01*
X45784915Y-20598094D01*
X45728343Y-20734671D01*
X45728340Y-20734681D01*
X45699500Y-20879672D01*
X45699500Y-21027506D01*
X45723966Y-21150507D01*
X45712917Y-21206055D01*
X45692505Y-21226468D01*
X45684884Y-21231560D01*
X45684877Y-21231566D01*
X45580340Y-21336102D01*
X45580339Y-21336103D01*
X45498206Y-21459024D01*
X45441633Y-21595603D01*
X45441632Y-21595609D01*
X45424188Y-21683301D01*
X45392721Y-21730392D01*
X45366048Y-21741441D01*
X45281090Y-21758341D01*
X45281084Y-21758342D01*
X45144505Y-21814915D01*
X45021584Y-21897048D01*
X45021583Y-21897050D01*
X44917050Y-22001583D01*
X44917048Y-22001584D01*
X44834915Y-22124505D01*
X44778343Y-22261082D01*
X44778340Y-22261092D01*
X44749500Y-22406083D01*
X44600500Y-22406083D01*
X44600500Y-19774500D01*
X44622174Y-19722174D01*
X44674500Y-19700500D01*
X50019990Y-19700500D01*
X50019991Y-19700500D01*
X50056929Y-19685200D01*
X50085200Y-19656929D01*
X50100500Y-19619991D01*
X50100500Y-18580009D01*
X50085200Y-18543071D01*
X50056929Y-18514800D01*
X50056928Y-18514799D01*
X50056926Y-18514798D01*
X50019991Y-18499500D01*
X43519991Y-18499500D01*
X43480009Y-18499500D01*
X43443073Y-18514798D01*
X43414798Y-18543073D01*
X43399500Y-18580007D01*
X38807951Y-18580007D01*
X38944334Y-18534814D01*
X39093656Y-18442712D01*
X39217712Y-18318656D01*
X39309814Y-18169334D01*
X39364999Y-18002797D01*
X39375500Y-17900009D01*
X39375499Y-17099992D01*
X39364999Y-16997203D01*
X39309814Y-16830666D01*
X39217712Y-16681344D01*
X39093656Y-16557288D01*
X38944334Y-16465186D01*
X38861065Y-16437593D01*
X38777798Y-16410001D01*
X38760665Y-16408250D01*
X38675009Y-16399500D01*
X38675004Y-16399500D01*
X37324999Y-16399500D01*
X37324993Y-16399500D01*
X37324992Y-16399501D01*
X37273597Y-16404751D01*
X37222202Y-16410001D01*
X37055666Y-16465186D01*
X36906344Y-16557288D01*
X36782288Y-16681344D01*
X36690186Y-16830666D01*
X36635001Y-16997201D01*
X36624500Y-17099994D01*
X22235343Y-17099994D01*
X22182951Y-17021584D01*
X22078415Y-16917048D01*
X21955494Y-16834915D01*
X21818917Y-16778343D01*
X21818907Y-16778340D01*
X21721811Y-16759026D01*
X21673918Y-16749500D01*
X21526082Y-16749500D01*
X21484977Y-16757676D01*
X21381092Y-16778340D01*
X21381082Y-16778343D01*
X21244505Y-16834915D01*
X21121584Y-16917048D01*
X21121583Y-16917050D01*
X21017050Y-17021583D01*
X21017048Y-17021584D01*
X20934915Y-17144505D01*
X20878343Y-17281082D01*
X20878340Y-17281092D01*
X20849500Y-17426083D01*
X300000Y-17426083D01*
X300000Y-13926083D01*
X29849500Y-13926083D01*
X29849500Y-14073916D01*
X29878340Y-14218907D01*
X29878343Y-14218917D01*
X29934915Y-14355494D01*
X29992204Y-14441232D01*
X30017049Y-14478416D01*
X30121584Y-14582951D01*
X30244505Y-14665084D01*
X30381087Y-14721658D01*
X30526082Y-14750500D01*
X30526084Y-14750500D01*
X30673916Y-14750500D01*
X30673918Y-14750500D01*
X30818913Y-14721658D01*
X30955495Y-14665084D01*
X31078416Y-14582951D01*
X31182951Y-14478416D01*
X31265084Y-14355495D01*
X31321658Y-14218913D01*
X31350500Y-14073918D01*
X31350500Y-13926082D01*
X31321658Y-13781087D01*
X31265084Y-13644505D01*
X31182951Y-13521584D01*
X31078416Y-13417049D01*
X31072939Y-13413389D01*
X30955494Y-13334915D01*
X30818917Y-13278343D01*
X30818907Y-13278340D01*
X30721811Y-13259026D01*
X30673918Y-13249500D01*
X30526082Y-13249500D01*
X30484977Y-13257676D01*
X30381092Y-13278340D01*
X30381082Y-13278343D01*
X30244505Y-13334915D01*
X30121584Y-13417048D01*
X30121583Y-13417050D01*
X30017050Y-13521583D01*
X30017048Y-13521584D01*
X29934915Y-13644505D01*
X29878343Y-13781082D01*
X29878340Y-13781092D01*
X29854263Y-13902135D01*
X29850224Y-13922445D01*
X29849500Y-13926083D01*
X300000Y-13926083D01*
X300000Y-10701083D01*
X25749500Y-10701083D01*
X25749500Y-10848916D01*
X25778340Y-10993907D01*
X25778343Y-10993917D01*
X25834915Y-11130494D01*
X25909614Y-11242288D01*
X25917049Y-11253416D01*
X26021584Y-11357951D01*
X26144505Y-11440084D01*
X26281087Y-11496658D01*
X26426082Y-11525500D01*
X26426084Y-11525500D01*
X26573916Y-11525500D01*
X26573918Y-11525500D01*
X26718913Y-11496658D01*
X26855495Y-11440084D01*
X26978416Y-11357951D01*
X27082951Y-11253416D01*
X27165084Y-11130495D01*
X27221658Y-10993913D01*
X27235151Y-10926082D01*
X29149500Y-10926082D01*
X29149500Y-11073918D01*
X29150224Y-11077557D01*
X29178340Y-11218907D01*
X29178343Y-11218917D01*
X29234915Y-11355494D01*
X29294276Y-11444333D01*
X29317049Y-11478416D01*
X29421584Y-11582951D01*
X29544505Y-11665084D01*
X29681087Y-11721658D01*
X29826082Y-11750500D01*
X29826084Y-11750500D01*
X29973916Y-11750500D01*
X29973918Y-11750500D01*
X30118913Y-11721658D01*
X30255495Y-11665084D01*
X30378416Y-11582951D01*
X30482951Y-11478416D01*
X30565084Y-11355495D01*
X30621658Y-11218913D01*
X30650500Y-11073918D01*
X30650500Y-10926082D01*
X30621658Y-10781087D01*
X30565084Y-10644505D01*
X30482951Y-10521584D01*
X30378416Y-10417049D01*
X30262232Y-10339417D01*
X30255494Y-10334915D01*
X30118917Y-10278343D01*
X30118907Y-10278340D01*
X30021811Y-10259026D01*
X29973918Y-10249500D01*
X29826082Y-10249500D01*
X29784977Y-10257676D01*
X29681092Y-10278340D01*
X29681082Y-10278343D01*
X29544505Y-10334915D01*
X29421584Y-10417048D01*
X29421583Y-10417050D01*
X29317050Y-10521583D01*
X29317048Y-10521584D01*
X29234915Y-10644505D01*
X29178343Y-10781082D01*
X29178340Y-10781092D01*
X29164849Y-10848918D01*
X29149500Y-10926082D01*
X27235151Y-10926082D01*
X27250500Y-10848918D01*
X27250500Y-10701082D01*
X27221658Y-10556087D01*
X27165084Y-10419505D01*
X27082951Y-10296584D01*
X26978416Y-10192049D01*
X26855495Y-10109916D01*
X26855496Y-10109916D01*
X26855494Y-10109915D01*
X26718917Y-10053343D01*
X26718907Y-10053340D01*
X26621811Y-10034026D01*
X26573918Y-10024500D01*
X26426082Y-10024500D01*
X26384977Y-10032676D01*
X26281092Y-10053340D01*
X26281082Y-10053343D01*
X26144505Y-10109915D01*
X26021584Y-10192048D01*
X26021583Y-10192050D01*
X25917050Y-10296583D01*
X25917048Y-10296584D01*
X25834915Y-10419505D01*
X25778343Y-10556082D01*
X25778340Y-10556092D01*
X25749500Y-10701083D01*
X300000Y-10701083D01*
X300000Y-808872D01*
X310904Y-770209D01*
X364742Y-682353D01*
X371557Y-672973D01*
X506628Y-514824D01*
X514824Y-506628D01*
X672973Y-371557D01*
X682344Y-364747D01*
X770211Y-310903D01*
X808873Y-300000D01*
X15526000Y-300000D01*
X15578326Y-321674D01*
G37*
%TD.AperFunction*%
%TD*%
M02*
