%TF.GenerationSoftware,KiCad,Pcbnew,10.0.1*%
%TF.CreationDate,2026-07-08T14:20:03+02:00*%
%TF.ProjectId,aurabip_routed,61757261-6269-4705-9f72-6f757465642e,rev?*%
%TF.SameCoordinates,Original*%
%TF.FileFunction,Copper,L1,Top*%
%TF.FilePolarity,Positive*%
%FSLAX46Y46*%
G04 Gerber Fmt 4.6, Leading zero omitted, Abs format (unit mm)*
G04 Created by KiCad (PCBNEW 10.0.1) date 2026-07-08 14:20:03*
%MOMM*%
%LPD*%
G01*
G04 APERTURE LIST*
G04 Aperture macros list*
%AMRoundRect*
0 Rectangle with rounded corners*
0 $1 Rounding radius*
0 $2 $3 $4 $5 $6 $7 $8 $9 X,Y pos of 4 corners*
0 Add a 4 corners polygon primitive as box body*
4,1,4,$2,$3,$4,$5,$6,$7,$8,$9,$2,$3,0*
0 Add four circle primitives for the rounded corners*
1,1,$1+$1,$2,$3*
1,1,$1+$1,$4,$5*
1,1,$1+$1,$6,$7*
1,1,$1+$1,$8,$9*
0 Add four rect primitives between the rounded corners*
20,1,$1+$1,$2,$3,$4,$5,0*
20,1,$1+$1,$4,$5,$6,$7,0*
20,1,$1+$1,$6,$7,$8,$9,0*
20,1,$1+$1,$8,$9,$2,$3,0*%
%AMOutline5P*
0 Free polygon, 5 corners , with rotation*
0 The origin of the aperture is its center*
0 number of corners: always 5*
0 $1 to $10 corner X, Y*
0 $11 Rotation angle, in degrees counterclockwise*
0 create outline with 5 corners*
4,1,5,$1,$2,$3,$4,$5,$6,$7,$8,$9,$10,$1,$2,$11*%
%AMOutline6P*
0 Free polygon, 6 corners , with rotation*
0 The origin of the aperture is its center*
0 number of corners: always 6*
0 $1 to $12 corner X, Y*
0 $13 Rotation angle, in degrees counterclockwise*
0 create outline with 6 corners*
4,1,6,$1,$2,$3,$4,$5,$6,$7,$8,$9,$10,$11,$12,$1,$2,$13*%
%AMOutline7P*
0 Free polygon, 7 corners , with rotation*
0 The origin of the aperture is its center*
0 number of corners: always 7*
0 $1 to $14 corner X, Y*
0 $15 Rotation angle, in degrees counterclockwise*
0 create outline with 7 corners*
4,1,7,$1,$2,$3,$4,$5,$6,$7,$8,$9,$10,$11,$12,$13,$14,$1,$2,$15*%
%AMOutline8P*
0 Free polygon, 8 corners , with rotation*
0 The origin of the aperture is its center*
0 number of corners: always 8*
0 $1 to $16 corner X, Y*
0 $17 Rotation angle, in degrees counterclockwise*
0 create outline with 8 corners*
4,1,8,$1,$2,$3,$4,$5,$6,$7,$8,$9,$10,$11,$12,$13,$14,$15,$16,$1,$2,$17*%
G04 Aperture macros list end*
%TA.AperFunction,SMDPad,CuDef*%
%ADD10RoundRect,0.062500X-0.062500X-0.137500X0.062500X-0.137500X0.062500X0.137500X-0.062500X0.137500X0*%
%TD*%
%TA.AperFunction,SMDPad,CuDef*%
%ADD11RoundRect,0.062500X-0.137500X-0.062500X0.137500X-0.062500X0.137500X0.062500X-0.137500X0.062500X0*%
%TD*%
%TA.AperFunction,SMDPad,CuDef*%
%ADD12RoundRect,0.150000X-0.150000X-0.575000X0.150000X-0.575000X0.150000X0.575000X-0.150000X0.575000X0*%
%TD*%
%TA.AperFunction,SMDPad,CuDef*%
%ADD13RoundRect,0.075000X-0.075000X-0.650000X0.075000X-0.650000X0.075000X0.650000X-0.075000X0.650000X0*%
%TD*%
%TA.AperFunction,ComponentPad*%
%ADD14O,1.000000X2.100000*%
%TD*%
%TA.AperFunction,ComponentPad*%
%ADD15O,1.000000X1.600000*%
%TD*%
%TA.AperFunction,SMDPad,CuDef*%
%ADD16RoundRect,0.135000X0.185000X-0.135000X0.185000X0.135000X-0.185000X0.135000X-0.185000X-0.135000X0*%
%TD*%
%TA.AperFunction,SMDPad,CuDef*%
%ADD17RoundRect,0.135000X-0.135000X-0.185000X0.135000X-0.185000X0.135000X0.185000X-0.135000X0.185000X0*%
%TD*%
%TA.AperFunction,SMDPad,CuDef*%
%ADD18R,1.500000X1.500000*%
%TD*%
%TA.AperFunction,SMDPad,CuDef*%
%ADD19RoundRect,0.062500X-0.350000X-0.062500X0.350000X-0.062500X0.350000X0.062500X-0.350000X0.062500X0*%
%TD*%
%TA.AperFunction,SMDPad,CuDef*%
%ADD20RoundRect,0.062500X-0.062500X-0.350000X0.062500X-0.350000X0.062500X0.350000X-0.062500X0.350000X0*%
%TD*%
%TA.AperFunction,HeatsinkPad*%
%ADD21R,1.230000X1.230000*%
%TD*%
%TA.AperFunction,SMDPad,CuDef*%
%ADD22RoundRect,0.140000X0.170000X-0.140000X0.170000X0.140000X-0.170000X0.140000X-0.170000X-0.140000X0*%
%TD*%
%TA.AperFunction,SMDPad,CuDef*%
%ADD23RoundRect,0.150000X-0.512500X-0.150000X0.512500X-0.150000X0.512500X0.150000X-0.512500X0.150000X0*%
%TD*%
%TA.AperFunction,SMDPad,CuDef*%
%ADD24RoundRect,0.225000X-0.225000X-0.250000X0.225000X-0.250000X0.225000X0.250000X-0.225000X0.250000X0*%
%TD*%
%TA.AperFunction,ComponentPad*%
%ADD25RoundRect,0.250000X-0.625000X0.350000X-0.625000X-0.350000X0.625000X-0.350000X0.625000X0.350000X0*%
%TD*%
%TA.AperFunction,ComponentPad*%
%ADD26O,1.750000X1.200000*%
%TD*%
%TA.AperFunction,SMDPad,CuDef*%
%ADD27RoundRect,0.225000X0.250000X-0.225000X0.250000X0.225000X-0.250000X0.225000X-0.250000X-0.225000X0*%
%TD*%
%TA.AperFunction,SMDPad,CuDef*%
%ADD28RoundRect,0.218750X-0.218750X-0.256250X0.218750X-0.256250X0.218750X0.256250X-0.218750X0.256250X0*%
%TD*%
%TA.AperFunction,SMDPad,CuDef*%
%ADD29R,0.400000X0.800000*%
%TD*%
%TA.AperFunction,SMDPad,CuDef*%
%ADD30R,0.800000X0.400000*%
%TD*%
%TA.AperFunction,HeatsinkPad*%
%ADD31Outline5P,-0.600000X0.204000X-0.204000X0.600000X0.600000X0.600000X0.600000X-0.600000X-0.600000X-0.600000X90.000000*%
%TD*%
%TA.AperFunction,HeatsinkPad*%
%ADD32R,1.200000X1.200000*%
%TD*%
%TA.AperFunction,SMDPad,CuDef*%
%ADD33R,0.800000X0.800000*%
%TD*%
%TA.AperFunction,ComponentPad*%
%ADD34RoundRect,0.250000X0.350000X0.625000X-0.350000X0.625000X-0.350000X-0.625000X0.350000X-0.625000X0*%
%TD*%
%TA.AperFunction,ComponentPad*%
%ADD35O,1.200000X1.750000*%
%TD*%
%TA.AperFunction,SMDPad,CuDef*%
%ADD36RoundRect,0.087500X-0.225000X-0.087500X0.225000X-0.087500X0.225000X0.087500X-0.225000X0.087500X0*%
%TD*%
%TA.AperFunction,SMDPad,CuDef*%
%ADD37RoundRect,0.087500X-0.087500X-0.225000X0.087500X-0.225000X0.087500X0.225000X-0.087500X0.225000X0*%
%TD*%
%TA.AperFunction,SMDPad,CuDef*%
%ADD38R,0.800000X1.000000*%
%TD*%
%TA.AperFunction,SMDPad,CuDef*%
%ADD39R,1.500000X0.700000*%
%TD*%
%TA.AperFunction,SMDPad,CuDef*%
%ADD40RoundRect,0.250000X0.475000X-0.250000X0.475000X0.250000X-0.475000X0.250000X-0.475000X-0.250000X0*%
%TD*%
%TA.AperFunction,ComponentPad*%
%ADD41RoundRect,0.250000X0.625000X-0.350000X0.625000X0.350000X-0.625000X0.350000X-0.625000X-0.350000X0*%
%TD*%
%TA.AperFunction,SMDPad,CuDef*%
%ADD42R,0.900000X1.000000*%
%TD*%
%TA.AperFunction,SMDPad,CuDef*%
%ADD43R,0.500000X0.300000*%
%TD*%
%TA.AperFunction,SMDPad,CuDef*%
%ADD44RoundRect,0.140000X-0.935000X-0.210000X0.935000X-0.210000X0.935000X0.210000X-0.935000X0.210000X0*%
%TD*%
%TA.AperFunction,SMDPad,CuDef*%
%ADD45RoundRect,0.140000X-0.210000X-0.935000X0.210000X-0.935000X0.210000X0.935000X-0.210000X0.935000X0*%
%TD*%
%TA.AperFunction,ViaPad*%
%ADD46C,0.500000*%
%TD*%
%TA.AperFunction,Conductor*%
%ADD47C,0.200000*%
%TD*%
%TA.AperFunction,Conductor*%
%ADD48C,0.150000*%
%TD*%
%TA.AperFunction,Conductor*%
%ADD49C,0.127000*%
%TD*%
G04 APERTURE END LIST*
D10*
%TO.P,U2,1*%
%TO.N,+3V3*%
X47900000Y-20650000D03*
%TO.P,U2,2*%
%TO.N,I2C_SCL*%
X47500000Y-20650000D03*
%TO.P,U2,3*%
%TO.N,GND*%
X47100000Y-20650000D03*
D11*
%TO.P,U2,4*%
%TO.N,I2C_SDA*%
X46650000Y-21300000D03*
%TO.P,U2,5*%
%TO.N,+3V3*%
X46650000Y-21700000D03*
D10*
%TO.P,U2,6*%
X47100000Y-22350000D03*
%TO.P,U2,7*%
%TO.N,N/C*%
X47500000Y-22350000D03*
%TO.P,U2,8*%
%TO.N,GND*%
X47900000Y-22350000D03*
D11*
%TO.P,U2,9*%
X48350000Y-21700000D03*
%TO.P,U2,10*%
%TO.N,+3V3*%
X48350000Y-21300000D03*
%TD*%
D12*
%TO.P,J1,A1*%
%TO.N,GND*%
X8750000Y-44955000D03*
%TO.P,J1,A4*%
%TO.N,VBUS*%
X9550000Y-44955000D03*
D13*
%TO.P,J1,A5*%
%TO.N,CC1*%
X10750000Y-44955000D03*
%TO.P,J1,A6*%
%TO.N,USB_DP*%
X11750000Y-44955000D03*
%TO.P,J1,A7*%
%TO.N,USB_DN*%
X12250000Y-44955000D03*
%TO.P,J1,A8*%
%TO.N,N/C*%
X13250000Y-44955000D03*
D12*
%TO.P,J1,A9*%
%TO.N,VBUS*%
X14450000Y-44955000D03*
%TO.P,J1,A12*%
%TO.N,GND*%
X15250000Y-44955000D03*
%TO.P,J1,B1*%
X15250000Y-44955000D03*
%TO.P,J1,B4*%
%TO.N,VBUS*%
X14450000Y-44955000D03*
D13*
%TO.P,J1,B5*%
%TO.N,CC2*%
X13750000Y-44955000D03*
%TO.P,J1,B6*%
%TO.N,USB_DP*%
X12750000Y-44955000D03*
%TO.P,J1,B7*%
%TO.N,USB_DN*%
X11250000Y-44955000D03*
%TO.P,J1,B8*%
%TO.N,N/C*%
X10250000Y-44955000D03*
D12*
%TO.P,J1,B9*%
%TO.N,VBUS*%
X9550000Y-44955000D03*
%TO.P,J1,B12*%
%TO.N,GND*%
X8750000Y-44955000D03*
D14*
%TO.P,J1,SH*%
X7680000Y-45870000D03*
D15*
X7680000Y-50050000D03*
D14*
X16320000Y-45870000D03*
D15*
X16320000Y-50050000D03*
%TD*%
D16*
%TO.P,R8,1*%
%TO.N,+3V3*%
X17500000Y-37010000D03*
%TO.P,R8,2*%
%TO.N,AMP_SD*%
X17500000Y-35990000D03*
%TD*%
%TO.P,R12,1*%
%TO.N,L96_RFOUT*%
X10000000Y-5310000D03*
%TO.P,R12,2*%
%TO.N,L96_RFIN*%
X10000000Y-4290000D03*
%TD*%
%TO.P,R10,1*%
%TO.N,VBAT_SENSE*%
X12000000Y-37010000D03*
%TO.P,R10,2*%
%TO.N,GND*%
X12000000Y-35990000D03*
%TD*%
D17*
%TO.P,R13,1*%
%TO.N,GNSS_RXD*%
X12990000Y-17200000D03*
%TO.P,R13,2*%
%TO.N,GNSS_RXD_DIV*%
X14010000Y-17200000D03*
%TD*%
D16*
%TO.P,R3,1*%
%TO.N,+3V3*%
X31500000Y-26510000D03*
%TO.P,R3,2*%
%TO.N,I2C_SDA*%
X31500000Y-25490000D03*
%TD*%
D18*
%TO.P,TP3,1*%
%TO.N,TP_IO41*%
X30600000Y-48500000D03*
%TD*%
D19*
%TO.P,U6,1*%
%TO.N,I2S_DOUT*%
X20562500Y-37250000D03*
%TO.P,U6,2*%
%TO.N,N/C*%
X20562500Y-37750000D03*
%TO.P,U6,3*%
%TO.N,GND*%
X20562500Y-38250000D03*
%TO.P,U6,4*%
%TO.N,AMP_SD*%
X20562500Y-38750000D03*
D20*
%TO.P,U6,5*%
%TO.N,N/C*%
X21250000Y-39437500D03*
%TO.P,U6,6*%
X21750000Y-39437500D03*
%TO.P,U6,7*%
%TO.N,VBAT*%
X22250000Y-39437500D03*
%TO.P,U6,8*%
X22750000Y-39437500D03*
D19*
%TO.P,U6,9*%
%TO.N,SPK_P*%
X23437500Y-38750000D03*
%TO.P,U6,10*%
%TO.N,SPK_N*%
X23437500Y-38250000D03*
%TO.P,U6,11*%
%TO.N,GND*%
X23437500Y-37750000D03*
%TO.P,U6,12*%
%TO.N,N/C*%
X23437500Y-37250000D03*
D20*
%TO.P,U6,13*%
X22750000Y-36562500D03*
%TO.P,U6,14*%
%TO.N,I2S_LRCK*%
X22250000Y-36562500D03*
%TO.P,U6,15*%
%TO.N,GND*%
X21750000Y-36562500D03*
%TO.P,U6,16*%
%TO.N,I2S_BCLK*%
X21250000Y-36562500D03*
D21*
%TO.P,U6,17*%
%TO.N,GND*%
X22000000Y-38000000D03*
%TD*%
D22*
%TO.P,C1,1*%
%TO.N,+3V3*%
X23000000Y-20480000D03*
%TO.P,C1,2*%
%TO.N,GND*%
X23000000Y-19520000D03*
%TD*%
%TO.P,C6,1*%
%TO.N,+3V3*%
X45500000Y-25480000D03*
%TO.P,C6,2*%
%TO.N,GND*%
X45500000Y-24520000D03*
%TD*%
D16*
%TO.P,R11,1*%
%TO.N,PROG*%
X24000000Y-45010000D03*
%TO.P,R11,2*%
%TO.N,GND*%
X24000000Y-43990000D03*
%TD*%
D23*
%TO.P,U7,1*%
%TO.N,CHG_STAT*%
X19362500Y-43550000D03*
%TO.P,U7,2*%
%TO.N,GND*%
X19362500Y-44500000D03*
%TO.P,U7,3*%
%TO.N,VBAT*%
X19362500Y-45450000D03*
%TO.P,U7,4*%
%TO.N,VBUS*%
X21637500Y-45450000D03*
%TO.P,U7,5*%
%TO.N,PROG*%
X21637500Y-43550000D03*
%TD*%
D16*
%TO.P,R9,1*%
%TO.N,VBAT*%
X14500000Y-37010000D03*
%TO.P,R9,2*%
%TO.N,VBAT_SENSE*%
X14500000Y-35990000D03*
%TD*%
D18*
%TO.P,TP1,1*%
%TO.N,TP_IO38*%
X25200000Y-48500000D03*
%TD*%
D22*
%TO.P,C10,1*%
%TO.N,ESP_EN*%
X23000000Y-27480000D03*
%TO.P,C10,2*%
%TO.N,GND*%
X23000000Y-26520000D03*
%TD*%
D24*
%TO.P,C2,1*%
%TO.N,VBAT*%
X3725000Y-40000000D03*
%TO.P,C2,2*%
%TO.N,GND*%
X5275000Y-40000000D03*
%TD*%
D22*
%TO.P,C7,1*%
%TO.N,+3V3*%
X26500000Y-6780000D03*
%TO.P,C7,2*%
%TO.N,GND*%
X26500000Y-5820000D03*
%TD*%
D25*
%TO.P,J3,1*%
%TO.N,SPK_P*%
X46500000Y-43500000D03*
D26*
%TO.P,J3,2*%
%TO.N,SPK_N*%
X46500000Y-45500000D03*
%TD*%
D27*
%TO.P,C16,1*%
%TO.N,+3V3*%
X26500000Y-10275000D03*
%TO.P,C16,2*%
%TO.N,GND*%
X26500000Y-8725000D03*
%TD*%
D28*
%TO.P,D2,1*%
%TO.N,GND*%
X22712500Y-32000000D03*
%TO.P,D2,2*%
%TO.N,LED2_A*%
X24287500Y-32000000D03*
%TD*%
D29*
%TO.P,U1,1*%
%TO.N,GND*%
X7600000Y-33000000D03*
%TO.P,U1,2*%
X8450000Y-33000000D03*
%TO.P,U1,3*%
%TO.N,+3V3*%
X9300000Y-33000000D03*
%TO.P,U1,4*%
%TO.N,BTN_BOOT*%
X10150000Y-33000000D03*
%TO.P,U1,5*%
%TO.N,VBAT_SENSE*%
X11000000Y-33000000D03*
%TO.P,U1,6*%
%TO.N,LED_STATUS*%
X11850000Y-33000000D03*
%TO.P,U1,7*%
%TO.N,LORA_DIO1*%
X12700000Y-33000000D03*
%TO.P,U1,8*%
%TO.N,I2S_BCLK*%
X13550000Y-33000000D03*
%TO.P,U1,9*%
%TO.N,I2S_LRCK*%
X14400000Y-33000000D03*
%TO.P,U1,10*%
%TO.N,N/C*%
X15250000Y-33000000D03*
%TO.P,U1,11*%
%TO.N,AMP_SD*%
X16100000Y-33000000D03*
%TO.P,U1,12*%
%TO.N,I2C_SDA*%
X16950000Y-33000000D03*
%TO.P,U1,13*%
%TO.N,I2C_SCL*%
X17800000Y-33000000D03*
%TO.P,U1,14*%
%TO.N,IMU_INT1*%
X18650000Y-33000000D03*
%TO.P,U1,15*%
%TO.N,SPI2_MOSI*%
X19500000Y-33000000D03*
D30*
%TO.P,U1,16*%
%TO.N,SPI2_SCK*%
X20550000Y-31950000D03*
%TO.P,U1,17*%
%TO.N,SPI2_MISO*%
X20550000Y-31100000D03*
%TO.P,U1,18*%
%TO.N,LORA_BUSY*%
X20550000Y-30250000D03*
%TO.P,U1,19*%
%TO.N,LORA_RST*%
X20550000Y-29400000D03*
%TO.P,U1,20*%
%TO.N,LORA_TXEN*%
X20550000Y-28550000D03*
%TO.P,U1,21*%
%TO.N,GNSS_TXD*%
X20550000Y-27700000D03*
%TO.P,U1,22*%
%TO.N,GNSS_RXD*%
X20550000Y-26850000D03*
%TO.P,U1,23*%
%TO.N,USB_DN*%
X20550000Y-26000000D03*
%TO.P,U1,24*%
%TO.N,USB_DP*%
X20550000Y-25150000D03*
%TO.P,U1,25*%
%TO.N,LORA_NSS*%
X20550000Y-24300000D03*
%TO.P,U1,26*%
%TO.N,N/C*%
X20550000Y-23450000D03*
%TO.P,U1,27*%
%TO.N,I2S_DOUT*%
X20550000Y-22600000D03*
%TO.P,U1,28*%
%TO.N,OLED_CS*%
X20550000Y-21750000D03*
%TO.P,U1,29*%
%TO.N,OLED_DC*%
X20550000Y-20900000D03*
%TO.P,U1,30*%
%TO.N,N/C*%
X20550000Y-20050000D03*
D29*
%TO.P,U1,31*%
%TO.N,OLED_RST*%
X19500000Y-19000000D03*
%TO.P,U1,32*%
%TO.N,N/C*%
X18650000Y-19000000D03*
%TO.P,U1,33*%
%TO.N,LORA_RXEN*%
X17800000Y-19000000D03*
%TO.P,U1,34*%
%TO.N,TP_IO38*%
X16950000Y-19000000D03*
%TO.P,U1,35*%
%TO.N,N/C*%
X16100000Y-19000000D03*
%TO.P,U1,36*%
%TO.N,TP_IO40*%
X15250000Y-19000000D03*
%TO.P,U1,37*%
%TO.N,TP_IO41*%
X14400000Y-19000000D03*
%TO.P,U1,38*%
%TO.N,TP_IO42*%
X13550000Y-19000000D03*
%TO.P,U1,39*%
%TO.N,N/C*%
X12700000Y-19000000D03*
%TO.P,U1,40*%
X11850000Y-19000000D03*
%TO.P,U1,41*%
X11000000Y-19000000D03*
%TO.P,U1,42*%
%TO.N,GND*%
X10150000Y-19000000D03*
%TO.P,U1,43*%
X9300000Y-19000000D03*
%TO.P,U1,44*%
%TO.N,N/C*%
X8450000Y-19000000D03*
%TO.P,U1,45*%
%TO.N,ESP_EN*%
X7600000Y-19000000D03*
D30*
%TO.P,U1,46*%
%TO.N,GND*%
X6550000Y-20050000D03*
%TO.P,U1,47*%
X6550000Y-20900000D03*
%TO.P,U1,48*%
X6550000Y-21750000D03*
%TO.P,U1,49*%
X6550000Y-22600000D03*
%TO.P,U1,50*%
X6550000Y-23450000D03*
%TO.P,U1,51*%
X6550000Y-24300000D03*
%TO.P,U1,52*%
X6550000Y-25150000D03*
%TO.P,U1,53*%
X6550000Y-26000000D03*
%TO.P,U1,54*%
X6550000Y-26850000D03*
%TO.P,U1,55*%
X6550000Y-27700000D03*
%TO.P,U1,56*%
X6550000Y-28550000D03*
%TO.P,U1,57*%
X6550000Y-29400000D03*
%TO.P,U1,58*%
X6550000Y-30250000D03*
%TO.P,U1,59*%
X6550000Y-31100000D03*
%TO.P,U1,60*%
X6550000Y-31950000D03*
D31*
%TO.P,U1,61*%
X11900000Y-27650000D03*
D32*
X13550000Y-27650000D03*
X15200000Y-27650000D03*
X11900000Y-26000000D03*
X13550000Y-26000000D03*
X15200000Y-26000000D03*
X11900000Y-24350000D03*
X13550000Y-24350000D03*
X15200000Y-24350000D03*
D33*
%TO.P,U1,62*%
X6550000Y-33000000D03*
%TO.P,U1,63*%
X20550000Y-33000000D03*
%TO.P,U1,64*%
X20550000Y-19000000D03*
%TO.P,U1,65*%
X6550000Y-19000000D03*
%TD*%
D28*
%TO.P,D1,1*%
%TO.N,CHG_STAT*%
X23712500Y-41000000D03*
%TO.P,D1,2*%
%TO.N,CHG_LED_A*%
X25287500Y-41000000D03*
%TD*%
D17*
%TO.P,R7,1*%
%TO.N,LED_STATUS*%
X22990000Y-30000000D03*
%TO.P,R7,2*%
%TO.N,LED2_A*%
X24010000Y-30000000D03*
%TD*%
D18*
%TO.P,TP4,1*%
%TO.N,TP_IO42*%
X33300000Y-48500000D03*
%TD*%
D22*
%TO.P,C12,1*%
%TO.N,VBUS*%
X18500000Y-41480000D03*
%TO.P,C12,2*%
%TO.N,GND*%
X18500000Y-40520000D03*
%TD*%
D34*
%TO.P,J2,1*%
%TO.N,VBAT*%
X47000000Y-10500000D03*
D35*
%TO.P,J2,2*%
%TO.N,GND*%
X45000000Y-10500000D03*
%TD*%
D16*
%TO.P,R5,1*%
%TO.N,+3V3*%
X23000000Y-24010000D03*
%TO.P,R5,2*%
%TO.N,ESP_EN*%
X23000000Y-22990000D03*
%TD*%
D22*
%TO.P,C9,1*%
%TO.N,VBAT*%
X19000000Y-37380000D03*
%TO.P,C9,2*%
%TO.N,GND*%
X19000000Y-36420000D03*
%TD*%
D36*
%TO.P,U3,1*%
%TO.N,GND*%
X25337500Y-26750000D03*
%TO.P,U3,2*%
%TO.N,N/C*%
X25337500Y-27250000D03*
%TO.P,U3,3*%
X25337500Y-27750000D03*
%TO.P,U3,4*%
%TO.N,IMU_INT1*%
X25337500Y-28250000D03*
D37*
%TO.P,U3,5*%
%TO.N,+3V3*%
X26000000Y-28412500D03*
%TO.P,U3,6*%
%TO.N,GND*%
X26500000Y-28412500D03*
%TO.P,U3,7*%
X27000000Y-28412500D03*
D36*
%TO.P,U3,8*%
%TO.N,+3V3*%
X27662500Y-28250000D03*
%TO.P,U3,9*%
%TO.N,N/C*%
X27662500Y-27750000D03*
%TO.P,U3,10*%
X27662500Y-27250000D03*
%TO.P,U3,11*%
X27662500Y-26750000D03*
D37*
%TO.P,U3,12*%
%TO.N,+3V3*%
X27000000Y-26587500D03*
%TO.P,U3,13*%
%TO.N,I2C_SCL*%
X26500000Y-26587500D03*
%TO.P,U3,14*%
%TO.N,I2C_SDA*%
X26000000Y-26587500D03*
%TD*%
D22*
%TO.P,C11,1*%
%TO.N,VBAT_SENSE*%
X9500000Y-36980000D03*
%TO.P,C11,2*%
%TO.N,GND*%
X9500000Y-36020000D03*
%TD*%
D38*
%TO.P,SW1,*%
%TO.N,*%
X3980000Y-41850000D03*
X1770000Y-41850000D03*
X3980000Y-49150000D03*
X1770000Y-49150000D03*
D39*
%TO.P,SW1,1*%
%TO.N,VBAT*%
X4630000Y-43250000D03*
%TO.P,SW1,2*%
%TO.N,LDO_EN*%
X4630000Y-46250000D03*
%TO.P,SW1,3*%
%TO.N,GND*%
X4630000Y-47750000D03*
%TD*%
D16*
%TO.P,R1,1*%
%TO.N,CC1*%
X7000000Y-42010000D03*
%TO.P,R1,2*%
%TO.N,GND*%
X7000000Y-40990000D03*
%TD*%
D40*
%TO.P,C8,1*%
%TO.N,VBAT*%
X26500000Y-36950000D03*
%TO.P,C8,2*%
%TO.N,GND*%
X26500000Y-35050000D03*
%TD*%
D16*
%TO.P,R4,1*%
%TO.N,+3V3*%
X31500000Y-30010000D03*
%TO.P,R4,2*%
%TO.N,I2C_SCL*%
X31500000Y-28990000D03*
%TD*%
D22*
%TO.P,C5,1*%
%TO.N,+3V3*%
X29000000Y-27980000D03*
%TO.P,C5,2*%
%TO.N,GND*%
X29000000Y-27020000D03*
%TD*%
%TO.P,C4,1*%
%TO.N,+3V3*%
X45500000Y-21980000D03*
%TO.P,C4,2*%
%TO.N,GND*%
X45500000Y-21020000D03*
%TD*%
D41*
%TO.P,J4,1*%
%TO.N,+3V3*%
X38000000Y-17500000D03*
D26*
%TO.P,J4,2*%
%TO.N,GND*%
X38000000Y-15500000D03*
%TO.P,J4,3*%
%TO.N,SPI2_MOSI*%
X38000000Y-13500000D03*
%TO.P,J4,4*%
%TO.N,SPI2_SCK*%
X38000000Y-11500000D03*
%TO.P,J4,5*%
%TO.N,OLED_CS*%
X38000000Y-9500000D03*
%TO.P,J4,6*%
%TO.N,OLED_DC*%
X38000000Y-7500000D03*
%TO.P,J4,7*%
%TO.N,OLED_RST*%
X38000000Y-5500000D03*
%TO.P,J4,8*%
%TO.N,N/C*%
X38000000Y-3500000D03*
%TD*%
D17*
%TO.P,R14,1*%
%TO.N,GNSS_RXD_DIV*%
X15990000Y-17200000D03*
%TO.P,R14,2*%
%TO.N,GND*%
X17010000Y-17200000D03*
%TD*%
D42*
%TO.P,SW2,1*%
%TO.N,ESP_EN*%
X44950000Y-33200000D03*
X49050000Y-33200000D03*
%TO.P,SW2,2*%
%TO.N,GND*%
X44950000Y-34800000D03*
X49050000Y-34800000D03*
%TD*%
D43*
%TO.P,U4,1*%
%TO.N,I2C_SDA*%
X46800000Y-24600000D03*
%TO.P,U4,2*%
%TO.N,I2C_SCL*%
X46800000Y-25400000D03*
%TO.P,U4,3*%
%TO.N,+3V3*%
X48200000Y-25400000D03*
%TO.P,U4,4*%
%TO.N,GND*%
X48200000Y-24600000D03*
%TD*%
D18*
%TO.P,TP2,1*%
%TO.N,TP_IO40*%
X27900000Y-48500000D03*
%TD*%
D27*
%TO.P,C13,1*%
%TO.N,VBAT*%
X25500000Y-45275000D03*
%TO.P,C13,2*%
%TO.N,GND*%
X25500000Y-43725000D03*
%TD*%
D17*
%TO.P,R6,1*%
%TO.N,VBUS*%
X20490000Y-41000000D03*
%TO.P,R6,2*%
%TO.N,CHG_LED_A*%
X21510000Y-41000000D03*
%TD*%
D23*
%TO.P,U8,1*%
%TO.N,VBAT*%
X3362500Y-35550000D03*
%TO.P,U8,2*%
%TO.N,GND*%
X3362500Y-36500000D03*
%TO.P,U8,3*%
%TO.N,LDO_EN*%
X3362500Y-37450000D03*
%TO.P,U8,4*%
%TO.N,N/C*%
X5637500Y-37450000D03*
%TO.P,U8,5*%
%TO.N,+3V3*%
X5637500Y-35550000D03*
%TD*%
D44*
%TO.P,U5,1*%
%TO.N,N/C*%
X24075000Y-14300000D03*
%TO.P,U5,2*%
X24075000Y-13300000D03*
%TO.P,U5,3*%
X24075000Y-12300000D03*
%TO.P,U5,4*%
%TO.N,GND*%
X24075000Y-11300000D03*
%TO.P,U5,5*%
X24075000Y-10300000D03*
%TO.P,U5,6*%
%TO.N,N/C*%
X24075000Y-9300000D03*
%TO.P,U5,7*%
X24075000Y-8300000D03*
%TO.P,U5,8*%
%TO.N,+3V3*%
X24075000Y-7300001D03*
%TO.P,U5,9*%
X24075000Y-6300001D03*
%TO.P,U5,10*%
%TO.N,GND*%
X24075000Y-5300000D03*
%TO.P,U5,11*%
X24075000Y-4300000D03*
%TO.P,U5,12*%
X24075000Y-3300000D03*
%TO.P,U5,13*%
X24075000Y-2150001D03*
%TO.P,U5,14*%
X11925000Y-2150000D03*
%TO.P,U5,15*%
X11925000Y-3300000D03*
%TO.P,U5,16*%
%TO.N,L96_RFOUT*%
X11925000Y-4300000D03*
%TO.P,U5,17*%
%TO.N,L96_RFIN*%
X11925000Y-5300000D03*
%TO.P,U5,18*%
%TO.N,GND*%
X11925000Y-6300001D03*
%TO.P,U5,19*%
X11925000Y-7300001D03*
%TO.P,U5,20*%
%TO.N,N/C*%
X11925000Y-8300000D03*
%TO.P,U5,21*%
%TO.N,GND*%
X11925000Y-9300000D03*
%TO.P,U5,22*%
X11925000Y-10300000D03*
%TO.P,U5,23*%
%TO.N,N/C*%
X11925000Y-11300000D03*
%TO.P,U5,24*%
X11925000Y-12300000D03*
%TO.P,U5,25*%
%TO.N,GNSS_TXD*%
X11925000Y-13300000D03*
%TO.P,U5,26*%
%TO.N,GNSS_RXD_DIV*%
X11925000Y-14300000D03*
D45*
%TO.P,U5,27*%
%TO.N,GND*%
X20000000Y-15025000D03*
%TO.P,U5,28*%
%TO.N,N/C*%
X19000000Y-15025000D03*
%TO.P,U5,29*%
X18000000Y-15025000D03*
%TO.P,U5,30*%
X17000000Y-15025000D03*
%TO.P,U5,31*%
%TO.N,GND*%
X16000000Y-15025000D03*
%TD*%
D16*
%TO.P,R2,1*%
%TO.N,CC2*%
X9000000Y-42010000D03*
%TO.P,R2,2*%
%TO.N,GND*%
X9000000Y-40990000D03*
%TD*%
D27*
%TO.P,C3,1*%
%TO.N,+3V3*%
X8000000Y-37275000D03*
%TO.P,C3,2*%
%TO.N,GND*%
X8000000Y-35725000D03*
%TD*%
D42*
%TO.P,SW3,1*%
%TO.N,BTN_BOOT*%
X18450000Y-48700000D03*
X22550000Y-48700000D03*
%TO.P,SW3,2*%
%TO.N,GND*%
X18450000Y-50300000D03*
X22550000Y-50300000D03*
%TD*%
D23*
%TO.P,U9,1*%
%TO.N,USB_DN*%
X10862500Y-40550000D03*
%TO.P,U9,2*%
%TO.N,GND*%
X10862500Y-41500000D03*
%TO.P,U9,3*%
%TO.N,USB_DP*%
X10862500Y-42450000D03*
%TO.P,U9,4*%
X13137500Y-42450000D03*
%TO.P,U9,5*%
%TO.N,VBUS*%
X13137500Y-41500000D03*
%TO.P,U9,6*%
%TO.N,USB_DN*%
X13137500Y-40550000D03*
%TD*%
D46*
%TO.N,+3V3*%
X26500000Y-7280000D03*
X46887101Y-22802409D03*
X27288320Y-26061314D03*
X6021264Y-35229493D03*
X23000000Y-24510000D03*
X31500000Y-27010000D03*
X45500000Y-22480000D03*
X45500000Y-25980000D03*
X17500000Y-37510000D03*
X23000000Y-20980000D03*
X46163291Y-21814519D03*
X48634121Y-25648069D03*
X28082648Y-28521063D03*
X26500000Y-10775000D03*
X31500000Y-30510000D03*
X13000000Y-47275000D03*
X10500000Y-46980000D03*
X8000000Y-37775000D03*
X9182001Y-33485876D03*
X29000000Y-28480000D03*
X49128733Y-21116768D03*
%TO.N,I2C_SCL*%
X23700000Y-36000000D03*
X35100000Y-29300000D03*
X32200000Y-32100000D03*
X47200000Y-25400000D03*
X30900000Y-29000000D03*
%TO.N,GND*%
X9182001Y-18514123D03*
X20953269Y-33295590D03*
X23015788Y-50481771D03*
X48634121Y-24351930D03*
X12139426Y-28088947D03*
X7381548Y-33449754D03*
X26500000Y-5320000D03*
X23000000Y-26020000D03*
X24137500Y-37750000D03*
X44900000Y-23400000D03*
X15665375Y-24167173D03*
X47900000Y-24100000D03*
X25500000Y-43225000D03*
X10089728Y-18503645D03*
X12139426Y-23911052D03*
X37590359Y-27602767D03*
X45500000Y-20520000D03*
X26500000Y-34550000D03*
X49515788Y-34981771D03*
X7000000Y-40490000D03*
X14298138Y-20259904D03*
X30500000Y-12550000D03*
X18500000Y-40020000D03*
X26123901Y-4034843D03*
X13969785Y-24078374D03*
X8278859Y-33469798D03*
X28118727Y-36193275D03*
X20953269Y-18704409D03*
X26500000Y-8225000D03*
X26703852Y-38376638D03*
X24917351Y-26478936D03*
X17510000Y-17200000D03*
X13969785Y-27921625D03*
X24058885Y-22618748D03*
X21809904Y-25408296D03*
X4898194Y-48171985D03*
X24000000Y-43490000D03*
X9500000Y-35520000D03*
X12569030Y-29675500D03*
X26057209Y-1800141D03*
X17984211Y-50481771D03*
X12098822Y-20586709D03*
X24006984Y-21118638D03*
X15901438Y-44165232D03*
X21750000Y-37162500D03*
X22212500Y-32000000D03*
X13192790Y-1800140D03*
X28763631Y-42475500D03*
X9000000Y-40490000D03*
X24067414Y-23713932D03*
X48836708Y-21814519D03*
X15665375Y-27832826D03*
X19000000Y-35920000D03*
X29000000Y-26520000D03*
X14050000Y-26000000D03*
X26500000Y-29012500D03*
X27288320Y-28938685D03*
X44484211Y-34981771D03*
X5775000Y-40000000D03*
X26765182Y-29578733D03*
X20249667Y-44695789D03*
X26092317Y-2990020D03*
X46800000Y-23900000D03*
X8000000Y-35225000D03*
X1905133Y-37357366D03*
X12400000Y-26000000D03*
X15700000Y-26000000D03*
X7975500Y-42851621D03*
X45500000Y-24020000D03*
X12325500Y-34270530D03*
X48112898Y-22802409D03*
X11772433Y-41539157D03*
X23000000Y-19020000D03*
X49500000Y-22500000D03*
%TO.N,I2C_SDA*%
X30716653Y-26323378D03*
X47234666Y-24483531D03*
X46450000Y-20953589D03*
X22300000Y-30700000D03*
%TO.N,USB_DP*%
X20100000Y-25400000D03*
X17000000Y-26800000D03*
X7400000Y-31500000D03*
X12700000Y-43050000D03*
%TO.N,USB_DN*%
X7700000Y-32200000D03*
X19900000Y-26100000D03*
X17900000Y-28400000D03*
X11800000Y-40500000D03*
%TO.N,AMP_SD*%
X14000000Y-35000000D03*
X15100000Y-34200000D03*
%TO.N,TP_IO41*%
X32175020Y-48053617D03*
X14600000Y-18600000D03*
%TO.N,I2S_DOUT*%
X7000000Y-37400000D03*
X19000000Y-21200000D03*
X9500000Y-28500000D03*
X20200000Y-36800000D03*
X12100000Y-46400000D03*
X17000000Y-42800000D03*
X10500000Y-27500000D03*
X8000000Y-34300000D03*
%TO.N,SPK_P*%
X37500000Y-40900000D03*
X45700000Y-43000000D03*
%TO.N,TP_IO38*%
X26200000Y-25200000D03*
X25800000Y-47400000D03*
X32800000Y-29700000D03*
X22300000Y-24800000D03*
%TO.N,ESP_EN*%
X37200000Y-29600000D03*
X22296224Y-23532934D03*
%TO.N,BTN_BOOT*%
X19150000Y-48500000D03*
X9500000Y-32200000D03*
%TO.N,LORA_DIO1*%
X12300000Y-38000000D03*
X8500000Y-39000000D03*
X7400000Y-29100000D03*
X17300000Y-27500000D03*
X14000000Y-31100000D03*
%TO.N,SPI2_MOSI*%
X18972208Y-32210103D03*
%TO.N,SPI2_MISO*%
X13900000Y-32100000D03*
%TO.N,LORA_BUSY*%
X21463614Y-30656582D03*
%TO.N,LORA_RST*%
X12750000Y-33800000D03*
%TO.N,LORA_TXEN*%
X29700000Y-27500000D03*
X28700000Y-25900000D03*
X19400000Y-28200000D03*
%TO.N,LORA_NSS*%
X17100000Y-23100000D03*
%TO.N,LORA_RXEN*%
X31500000Y-24600000D03*
X32500000Y-26800000D03*
X24500000Y-19500000D03*
%TO.N,TP_IO40*%
X29900000Y-11000000D03*
X29475020Y-48053617D03*
X32100000Y-23600000D03*
X33300000Y-29000000D03*
X21600000Y-17500000D03*
X30600000Y-14000000D03*
%TO.N,TP_IO42*%
X13800000Y-18600000D03*
X34900000Y-47800000D03*
%TD*%
%TO.N,+3V3*%
D47*
X48200000Y-25400000D02*
X48634121Y-25648069D01*
X26500000Y-6780000D02*
X26500000Y-7280000D01*
D48*
X26000000Y-27829200D02*
X26000000Y-28412500D01*
X24075000Y-7300000D02*
X24075000Y-6300000D01*
X24095000Y-7280000D02*
X24075000Y-7300000D01*
X27000000Y-26587500D02*
X27000000Y-26829200D01*
D47*
X8000000Y-37275000D02*
X8000000Y-37775000D01*
X45500000Y-21980000D02*
X45500000Y-22480000D01*
X31500000Y-30010000D02*
X31500000Y-30510000D01*
X31500000Y-26510000D02*
X31500000Y-27010000D01*
X5637500Y-35550000D02*
X6021264Y-35229493D01*
X27000000Y-26587500D02*
X27288320Y-26061314D01*
D48*
X48739400Y-21208400D02*
X48458400Y-21208400D01*
D47*
X46650000Y-21700000D02*
X46163291Y-21814519D01*
X47100000Y-22350000D02*
X46887101Y-22802409D01*
X9300000Y-33000000D02*
X9182001Y-33485876D01*
X45500000Y-25480000D02*
X45500000Y-25980000D01*
D48*
X26500000Y-7280000D02*
X24095000Y-7280000D01*
X48458400Y-21208400D02*
X47900000Y-20650000D01*
D47*
X17500000Y-37010000D02*
X17500000Y-37510000D01*
X27662500Y-28250000D02*
X28082648Y-28521063D01*
X48350000Y-21300000D02*
X49128733Y-21116768D01*
X23000000Y-20480000D02*
X23000000Y-20980000D01*
X26500000Y-10275000D02*
X26500000Y-10775000D01*
D48*
X27000000Y-26829200D02*
X26000000Y-27829200D01*
D47*
X23000000Y-24010000D02*
X23000000Y-24510000D01*
X29000000Y-27980000D02*
X29000000Y-28480000D01*
%TO.N,I2C_SCL*%
D49*
X47600000Y-20200000D02*
X48700000Y-20200000D01*
D48*
X31100000Y-29200000D02*
X31000000Y-29200000D01*
D49*
X45000000Y-22900000D02*
X45000000Y-20100000D01*
X32700000Y-31400000D02*
X32700000Y-31600000D01*
X43200000Y-18300000D02*
X43200000Y-19200000D01*
X48700000Y-20200000D02*
X48900000Y-20000000D01*
D48*
X31000000Y-29100000D02*
X31100000Y-29200000D01*
X28463000Y-28249900D02*
X28463000Y-26563500D01*
D49*
X48900000Y-20000000D02*
X50200000Y-20000000D01*
D48*
X28520800Y-28858900D02*
X28520800Y-28307700D01*
X26500000Y-26217900D02*
X26500000Y-26587500D01*
D49*
X46300000Y-23900000D02*
X45300000Y-22900000D01*
D48*
X31400000Y-29100000D02*
X31200000Y-29100000D01*
D49*
X43000000Y-21100000D02*
X32700000Y-31400000D01*
D48*
X30900000Y-29000000D02*
X31100000Y-29200000D01*
X24291600Y-33974400D02*
X18197700Y-33974400D01*
D49*
X43000000Y-19400000D02*
X43000000Y-21100000D01*
D48*
X31500000Y-28990000D02*
X31400000Y-29100000D01*
D49*
X50200000Y-20000000D02*
X50300000Y-19900000D01*
X46300000Y-25100000D02*
X46300000Y-23900000D01*
D48*
X27102900Y-25615000D02*
X26500000Y-26217900D01*
D49*
X24600000Y-35000000D02*
X30400000Y-29200000D01*
X47600000Y-20200000D02*
X48700000Y-20200000D01*
D48*
X18197700Y-33974400D02*
X17800000Y-33576700D01*
D49*
X50300000Y-19900000D02*
X50300000Y-18300000D01*
X45300000Y-22900000D02*
X45000000Y-22900000D01*
D48*
X38904700Y-37929500D02*
X25200300Y-37929500D01*
X28651900Y-28990000D02*
X30957413Y-28990000D01*
D49*
X47600000Y-20200000D02*
X47600000Y-20500000D01*
D48*
X28463000Y-26563500D02*
X27514500Y-25615000D01*
X28651900Y-28990000D02*
X28651900Y-29614100D01*
D49*
X43200000Y-19200000D02*
X43000000Y-19400000D01*
X24600000Y-35100000D02*
X24600000Y-35000000D01*
X50300000Y-19900000D02*
X50300000Y-18300000D01*
D48*
X31200000Y-29100000D02*
X31100000Y-29200000D01*
X28520800Y-28307700D02*
X28463000Y-28249900D01*
X28651900Y-28990000D02*
X28520800Y-28858900D01*
D49*
X46800000Y-25400000D02*
X46400000Y-25100000D01*
X43000000Y-19400000D02*
X43000000Y-21100000D01*
X32700000Y-31600000D02*
X32200000Y-32100000D01*
X23700000Y-36000000D02*
X24600000Y-35100000D01*
X50200000Y-20000000D02*
X50300000Y-19900000D01*
X43200000Y-18300000D02*
X43200000Y-19200000D01*
D48*
X17800000Y-33576700D02*
X17800000Y-33000000D01*
D49*
X43200000Y-19200000D02*
X43000000Y-19400000D01*
D48*
X31000000Y-29200000D02*
X31039022Y-29200000D01*
D49*
X48900000Y-20000000D02*
X50200000Y-20000000D01*
X48700000Y-20200000D02*
X48900000Y-20000000D01*
X50300000Y-18300000D02*
X43200000Y-18300000D01*
X45000000Y-20100000D02*
X46400000Y-20100000D01*
D48*
X28651900Y-29614100D02*
X24291600Y-33974400D01*
X25200300Y-37929500D02*
X24291600Y-37020800D01*
D49*
X30400000Y-29200000D02*
X31039022Y-29200000D01*
X35100000Y-29000000D02*
X35100000Y-29300000D01*
D48*
X24291600Y-37020800D02*
X24291600Y-33974400D01*
D49*
X46400000Y-25100000D02*
X46300000Y-25100000D01*
X46500000Y-20200000D02*
X47600000Y-20200000D01*
X50300000Y-18300000D02*
X43200000Y-18300000D01*
D48*
X27514500Y-25615000D02*
X27102900Y-25615000D01*
D49*
X43000000Y-21100000D02*
X35100000Y-29000000D01*
X46400000Y-20100000D02*
X46500000Y-20200000D01*
D48*
X30957413Y-28990000D02*
X31000000Y-29100000D01*
%TO.N,GND*%
D47*
X20550000Y-33000000D02*
X20953269Y-33295590D01*
X13550000Y-26000000D02*
X14050000Y-26000000D01*
X11925000Y-2150000D02*
X13192790Y-1800140D01*
D49*
X48000000Y-22900000D02*
X47100000Y-23800000D01*
X47700000Y-24300000D02*
X47700000Y-25900000D01*
D47*
X25500000Y-43725000D02*
X25500000Y-43225000D01*
X26500000Y-35050000D02*
X26500000Y-34550000D01*
D49*
X47100000Y-23800000D02*
X47000000Y-23800000D01*
X46000000Y-20600000D02*
X46000000Y-20700000D01*
D47*
X19975000Y-44500000D02*
X20249667Y-44695789D01*
X19362500Y-44500000D02*
X20249667Y-44695789D01*
X22550000Y-50300000D02*
X23015788Y-50481771D01*
D49*
X45700000Y-24600000D02*
X45500000Y-24520000D01*
X46000000Y-20480000D02*
X46000000Y-20600000D01*
D47*
X26500000Y-5820000D02*
X26500000Y-5320000D01*
X23000000Y-26520000D02*
X23000000Y-26020000D01*
X24075000Y-3300000D02*
X26092317Y-2990020D01*
X15200000Y-26000000D02*
X15700000Y-26000000D01*
X10262500Y-41500000D02*
X11772433Y-41539157D01*
X11900000Y-27650000D02*
X12139426Y-28088947D01*
X25291177Y-20586709D02*
X24006984Y-21118638D01*
D49*
X46000000Y-25500000D02*
X46000000Y-25000000D01*
D47*
X44950000Y-34800000D02*
X44484211Y-34981771D01*
X18500000Y-40520000D02*
X18500000Y-40020000D01*
X15200000Y-27650000D02*
X15665375Y-27832826D01*
X24498901Y-4034843D02*
X26123901Y-4034843D01*
X9500000Y-36020000D02*
X9500000Y-35520000D01*
D49*
X45700000Y-24700000D02*
X45500000Y-24520000D01*
D47*
X49050000Y-34800000D02*
X49515788Y-34981771D01*
X24467317Y-2990020D02*
X26092317Y-2990020D01*
D48*
X21750000Y-36562500D02*
X21750000Y-37162500D01*
D47*
X15200000Y-24350000D02*
X15665375Y-24167173D01*
X8000000Y-35725000D02*
X8000000Y-35225000D01*
D49*
X46000000Y-25000000D02*
X45700000Y-24700000D01*
D47*
X9300000Y-19000000D02*
X9182001Y-18514123D01*
X11567790Y-1800140D02*
X13192790Y-1800140D01*
X25313852Y-38376638D02*
X26703852Y-38376638D01*
X25351607Y-23182003D02*
X24067414Y-23713932D01*
D49*
X46600000Y-25800000D02*
X46300000Y-25800000D01*
D47*
X27000000Y-28412500D02*
X27288320Y-28938685D01*
X11012361Y-41506448D02*
X11772433Y-41539157D01*
D49*
X44900000Y-23400000D02*
X45100000Y-23600000D01*
D47*
X29000000Y-27020000D02*
X29000000Y-26520000D01*
D49*
X46300000Y-25800000D02*
X46000000Y-25500000D01*
D47*
X25337500Y-26750000D02*
X24917351Y-26478936D01*
X24000000Y-43990000D02*
X24000000Y-43490000D01*
D49*
X45800000Y-20800000D02*
X45700000Y-20800000D01*
D47*
X8450000Y-33000000D02*
X8278859Y-33469798D01*
D49*
X47900000Y-24100000D02*
X47700000Y-24300000D01*
X47100000Y-20650000D02*
X47100000Y-20480000D01*
D47*
X26500000Y-28412500D02*
X26500000Y-29012500D01*
X19508975Y-44532325D02*
X20249667Y-44695789D01*
D49*
X47700000Y-25900000D02*
X46700000Y-25900000D01*
D47*
X23000000Y-19520000D02*
X23000000Y-19020000D01*
X10708822Y-20586709D02*
X12098822Y-20586709D01*
X11900000Y-24350000D02*
X12139426Y-23911052D01*
X24432209Y-1800141D02*
X26057209Y-1800141D01*
X20560000Y-38250000D02*
X21550000Y-38250000D01*
X10862500Y-41500000D02*
X11772433Y-41539157D01*
D49*
X47900000Y-22350000D02*
X48000000Y-22900000D01*
X47100000Y-20480000D02*
X46000000Y-20480000D01*
X48350000Y-21700000D02*
X49200000Y-22500000D01*
D47*
X3362500Y-36500000D02*
X1905133Y-37357366D01*
D49*
X45900000Y-20700000D02*
X45800000Y-20700000D01*
X46000000Y-20700000D02*
X45900000Y-20700000D01*
D47*
X7000000Y-40990000D02*
X7000000Y-40490000D01*
X2762500Y-36500000D02*
X1905133Y-37357366D01*
X22712500Y-32000000D02*
X22212500Y-32000000D01*
X20249667Y-44695789D02*
X18762500Y-44500000D01*
D49*
X47000000Y-23800000D02*
X46900000Y-23900000D01*
X49200000Y-22500000D02*
X49500000Y-22500000D01*
X46700000Y-25900000D02*
X46600000Y-25800000D01*
D47*
X19000000Y-36420000D02*
X19000000Y-35920000D01*
X24075000Y-2150001D02*
X26057209Y-1800141D01*
X17010000Y-17200000D02*
X17510000Y-17200000D01*
X18450000Y-50300000D02*
X17984211Y-50481771D01*
X13550000Y-24350000D02*
X13969785Y-24078374D01*
X4630000Y-47750000D02*
X4898194Y-48171985D01*
X7600000Y-33000000D02*
X7381548Y-33449754D01*
X13550000Y-27650000D02*
X13969785Y-27921625D01*
X20550000Y-19000000D02*
X20953269Y-18704409D01*
X10150000Y-19000000D02*
X10089728Y-18503645D01*
X9000000Y-40990000D02*
X9000000Y-40490000D01*
X25319794Y-21880635D02*
X25048618Y-23243926D01*
D49*
X46900000Y-23900000D02*
X46800000Y-23900000D01*
D47*
X26500000Y-8725000D02*
X26500000Y-8225000D01*
X24985000Y-23522001D02*
X24067414Y-23713932D01*
D48*
X23437500Y-37750000D02*
X24137500Y-37750000D01*
D47*
X11900000Y-26000000D02*
X12400000Y-26000000D01*
X45500000Y-21020000D02*
X45800000Y-20700000D01*
X24075000Y-4300000D02*
X26123901Y-4034843D01*
D49*
X45800000Y-20700000D02*
X45800000Y-20800000D01*
D47*
X5275000Y-40000000D02*
X5775000Y-40000000D01*
X25480990Y-29046804D02*
X26765182Y-29578733D01*
X45500000Y-24520000D02*
X45500000Y-24020000D01*
%TO.N,I2C_SDA*%
D48*
X21200000Y-31500000D02*
X21600000Y-31100000D01*
D47*
X46872444Y-24580588D02*
X47234666Y-24483531D01*
X31200000Y-25600000D02*
X30716653Y-26323378D01*
D48*
X18500000Y-31600000D02*
X18600000Y-31500000D01*
X26000000Y-26318400D02*
X26991900Y-25326500D01*
X32004500Y-25994500D02*
X31500000Y-25490000D01*
X26991900Y-25326500D02*
X31336500Y-25326500D01*
X18300000Y-31700000D02*
X18400000Y-31600000D01*
X46450000Y-20953589D02*
X46650000Y-21300000D01*
X46650000Y-21300000D02*
X47400000Y-21300000D01*
X18000000Y-31800000D02*
X18100000Y-31800000D01*
X18600000Y-31500000D02*
X21200000Y-31500000D01*
X31336500Y-25326500D02*
X31500000Y-25490000D01*
X50195900Y-24095900D02*
X50195900Y-28075300D01*
X31795200Y-29500000D02*
X32004500Y-29290700D01*
X26000000Y-26587500D02*
X26000000Y-26318400D01*
X28223400Y-37657400D02*
X25284200Y-37657400D01*
X30720400Y-29500000D02*
X31795200Y-29500000D01*
X25284200Y-37657400D02*
X24885600Y-37258800D01*
X18100000Y-31800000D02*
X18200000Y-31700000D01*
X24885600Y-37258800D02*
X24885600Y-35334800D01*
X37566000Y-28314800D02*
X28223400Y-37657400D01*
X16950000Y-33000000D02*
X18000000Y-31800000D01*
X32004500Y-29290700D02*
X32004500Y-25994500D01*
X49956400Y-28314800D02*
X37566000Y-28314800D01*
X21900000Y-31100000D02*
X22300000Y-30700000D01*
X21600000Y-31100000D02*
X21900000Y-31100000D01*
X50195900Y-28075300D02*
X49956400Y-28314800D01*
X24885600Y-35334800D02*
X30720400Y-29500000D01*
X47400000Y-21300000D02*
X50195900Y-24095900D01*
X18200000Y-31700000D02*
X18300000Y-31700000D01*
X30716653Y-26323378D02*
X31500000Y-25490000D01*
X18400000Y-31600000D02*
X18500000Y-31600000D01*
%TO.N,VBUS*%
X13790700Y-40022300D02*
X14012900Y-40244500D01*
X14012900Y-40849700D02*
X13362600Y-41500000D01*
X9550000Y-40729300D02*
X10257000Y-40022300D01*
X14037200Y-39447800D02*
X16761100Y-42171600D01*
X13362600Y-41500000D02*
X13137500Y-41500000D01*
X9550000Y-42503800D02*
X8684600Y-42503800D01*
X8990900Y-39447800D02*
X14037200Y-39447800D01*
X16761100Y-42171600D02*
X14450000Y-44482700D01*
X9550000Y-44955000D02*
X9550000Y-42503800D01*
X8227300Y-40211400D02*
X8990900Y-39447800D01*
X18500000Y-41480000D02*
X17452700Y-41480000D01*
X20202300Y-41672300D02*
X20010000Y-41480000D01*
X8684600Y-42503800D02*
X8227300Y-42046500D01*
X20010000Y-41480000D02*
X18500000Y-41480000D01*
X20202300Y-44014800D02*
X20202300Y-41672300D01*
X21637500Y-45450000D02*
X20202300Y-44014800D01*
X8227300Y-42046500D02*
X8227300Y-40211400D01*
X20010000Y-41480000D02*
X20490000Y-41000000D01*
X14012900Y-40244500D02*
X14012900Y-40849700D01*
X17452700Y-41480000D02*
X16761100Y-42171600D01*
X10257000Y-40022300D02*
X13790700Y-40022300D01*
X9550000Y-42503800D02*
X9550000Y-40729300D01*
X14450000Y-44482700D02*
X14450000Y-44955000D01*
%TO.N,CC1*%
X7419300Y-47136600D02*
X7000000Y-46717300D01*
X10750000Y-45843800D02*
X9457200Y-47136600D01*
X10750000Y-44955000D02*
X10750000Y-45843800D01*
X9457200Y-47136600D02*
X7419300Y-47136600D01*
X7000000Y-46717300D02*
X7000000Y-42010000D01*
%TO.N,USB_DP*%
X12054600Y-45892900D02*
X11750000Y-45588300D01*
X11750000Y-44955000D02*
X11750000Y-43337500D01*
X17000000Y-26800000D02*
X11100000Y-26800000D01*
D47*
X13049124Y-42571201D02*
X12700000Y-43050000D01*
D48*
X11750000Y-45588300D02*
X11750000Y-44955000D01*
X20550000Y-25150000D02*
X20100000Y-25400000D01*
X12750000Y-42837500D02*
X12750000Y-44955000D01*
X11100000Y-27800000D02*
X7400000Y-31500000D01*
X11750000Y-43337500D02*
X10862500Y-42450000D01*
X12750000Y-44955000D02*
X12750000Y-45536300D01*
X11100000Y-26800000D02*
X11100000Y-27800000D01*
X12700000Y-43050000D02*
X13137500Y-42450000D01*
X13137500Y-42450000D02*
X12750000Y-42837500D01*
X12750000Y-45536300D02*
X12393400Y-45892900D01*
X12393400Y-45892900D02*
X12054600Y-45892900D01*
%TO.N,USB_DN*%
X10500000Y-40800000D02*
X10300000Y-40800000D01*
X11250000Y-44026400D02*
X11250000Y-44955000D01*
X13900000Y-28600000D02*
X13800000Y-28700000D01*
X9821800Y-41273800D02*
X9821800Y-42598200D01*
D47*
X20451162Y-26015205D02*
X19900000Y-26100000D01*
D48*
X11150000Y-40600000D02*
X12500000Y-40600000D01*
X11800000Y-40500000D02*
X10900000Y-40500000D01*
X10200000Y-40900000D02*
X10162410Y-40933189D01*
X10600000Y-40700000D02*
X10500000Y-40800000D01*
X11200000Y-28700000D02*
X7700000Y-32200000D01*
X17700000Y-28600000D02*
X13900000Y-28600000D01*
X17900000Y-28400000D02*
X17700000Y-28600000D01*
X9821800Y-42598200D02*
X11250000Y-44026400D01*
X12250000Y-40550000D02*
X12250000Y-44955000D01*
X13800000Y-28700000D02*
X11200000Y-28700000D01*
X10162410Y-40933189D02*
X9821800Y-41273800D01*
X12500000Y-40600000D02*
X13137500Y-40550000D01*
X10862500Y-40550000D02*
X10700000Y-40700000D01*
X10300000Y-40800000D02*
X10200000Y-40900000D01*
X10700000Y-40700000D02*
X10600000Y-40700000D01*
X13137500Y-40550000D02*
X12250000Y-40550000D01*
X20550000Y-26000000D02*
X19900000Y-26100000D01*
X10900000Y-40500000D02*
X10862500Y-40550000D01*
X12250000Y-40550000D02*
X11147722Y-40550000D01*
%TO.N,CC2*%
X8497500Y-41507500D02*
X8497500Y-40337700D01*
X9091600Y-39743600D02*
X13916900Y-39743600D01*
X8497500Y-40337700D02*
X9091600Y-39743600D01*
X13750000Y-43183600D02*
X13750000Y-44955000D01*
X14272300Y-42661300D02*
X13750000Y-43183600D01*
X9000000Y-42010000D02*
X8497500Y-41507500D01*
X14272300Y-40099000D02*
X14272300Y-42661300D01*
X13916900Y-39743600D02*
X14272300Y-40099000D01*
%TO.N,AMP_SD*%
D49*
X19500000Y-38000000D02*
X19500000Y-36900000D01*
X14000000Y-35000000D02*
X14500000Y-35500000D01*
X20100000Y-38600000D02*
X19900000Y-38600000D01*
X18500000Y-36900000D02*
X17800000Y-36200000D01*
X17800000Y-36200000D02*
X17500000Y-35990000D01*
X19500000Y-36900000D02*
X19700000Y-37100000D01*
X19700000Y-37900000D02*
X19900000Y-38100000D01*
X16100000Y-33000000D02*
X15100000Y-34200000D01*
X18400000Y-36900000D02*
X19500000Y-36900000D01*
X19900000Y-38600000D02*
X19900000Y-38400000D01*
X20100000Y-38600000D02*
X20100000Y-38700000D01*
X19900000Y-38400000D02*
X19500000Y-38000000D01*
X15000000Y-35500000D02*
X16000000Y-36500000D01*
X19700000Y-37100000D02*
X19700000Y-37900000D01*
X20100000Y-38700000D02*
X20200000Y-38700000D01*
X19500000Y-36900000D02*
X18500000Y-36900000D01*
X20200000Y-38700000D02*
X20562500Y-38750000D01*
X18000000Y-36500000D02*
X18400000Y-36900000D01*
X20100000Y-38700000D02*
X20100000Y-38600000D01*
X19900000Y-38600000D02*
X20100000Y-38600000D01*
X16000000Y-36500000D02*
X18000000Y-36500000D01*
X19900000Y-38100000D02*
X19900000Y-38600000D01*
X20562500Y-38750000D02*
X20100000Y-38700000D01*
X14500000Y-35500000D02*
X15000000Y-35500000D01*
%TO.N,L96_RFOUT*%
D48*
X9655300Y-3827400D02*
X11452400Y-3827400D01*
X9502300Y-3980400D02*
X9655300Y-3827400D01*
X9502300Y-4812300D02*
X9502300Y-3980400D01*
X11452400Y-3827400D02*
X11925000Y-4300000D01*
X10000000Y-5310000D02*
X9502300Y-4812300D01*
%TO.N,L96_RFIN*%
X11010000Y-5300000D02*
X10000000Y-4290000D01*
X11925000Y-5300000D02*
X11010000Y-5300000D01*
%TO.N,VBAT_SENSE*%
X13020000Y-35990000D02*
X12000000Y-37010000D01*
X9500000Y-36980000D02*
X10700200Y-36980000D01*
X11670200Y-36680200D02*
X11000000Y-36680200D01*
X10700200Y-36980000D02*
X11000000Y-36680200D01*
X14500000Y-35990000D02*
X13020000Y-35990000D01*
X11000000Y-33000000D02*
X11000000Y-36680200D01*
X12000000Y-37010000D02*
X11670200Y-36680200D01*
%TO.N,GNSS_RXD*%
X13173300Y-20050000D02*
X13173300Y-17383300D01*
X13173300Y-17383300D02*
X12990000Y-17200000D01*
X20550000Y-26850000D02*
X19973300Y-26850000D01*
X19973300Y-26850000D02*
X13173300Y-20050000D01*
%TO.N,GNSS_RXD_DIV*%
X14010000Y-16385000D02*
X14010000Y-17200000D01*
X11925000Y-14300000D02*
X14010000Y-16385000D01*
X15990000Y-17200000D02*
X14010000Y-17200000D01*
%TO.N,TP_IO41*%
X32175020Y-48053617D02*
X30600000Y-48500000D01*
D47*
X30900000Y-47800000D02*
X32175020Y-48053617D01*
D48*
X14400000Y-19000000D02*
X14600000Y-18600000D01*
%TO.N,I2S_DOUT*%
D49*
X13500000Y-46400000D02*
X14200000Y-47100000D01*
X7500000Y-34800000D02*
X7500000Y-34900000D01*
X10500000Y-27500000D02*
X9500000Y-28500000D01*
X20500000Y-37200000D02*
X20562500Y-37250000D01*
X8000000Y-34300000D02*
X7500000Y-34800000D01*
X7300000Y-37100000D02*
X7000000Y-37400000D01*
X12100000Y-46400000D02*
X13500000Y-46400000D01*
X20200000Y-36800000D02*
X20500000Y-37100000D01*
X20550000Y-22600000D02*
X19900000Y-22200000D01*
X19900000Y-22100000D02*
X19000000Y-21200000D01*
X7500000Y-34900000D02*
X7300000Y-35100000D01*
X14200000Y-47100000D02*
X17000000Y-47100000D01*
X7300000Y-35100000D02*
X7300000Y-37100000D01*
X19900000Y-22200000D02*
X19900000Y-22100000D01*
X17000000Y-47100000D02*
X17000000Y-42800000D01*
X20500000Y-37100000D02*
X20500000Y-37200000D01*
%TO.N,VBAT*%
D48*
X21062300Y-42094800D02*
X20793900Y-42363200D01*
X5171200Y-41446100D02*
X9153700Y-37463600D01*
X19891500Y-45979000D02*
X19362500Y-45450000D01*
X3725000Y-40000000D02*
X4258200Y-39466800D01*
X10623300Y-33469900D02*
X10623300Y-32495200D01*
X22250000Y-39723500D02*
X21555800Y-40417700D01*
X5555200Y-41830200D02*
X5555200Y-43250000D01*
X21373600Y-44411400D02*
X21757600Y-44411400D01*
X8973500Y-37283400D02*
X8973500Y-35119700D01*
X8973500Y-35119700D02*
X10623300Y-33469900D01*
X23835300Y-27408400D02*
X23835300Y-25301700D01*
X4258200Y-36251400D02*
X3556800Y-35550000D01*
X23835300Y-25301700D02*
X25778300Y-23358700D01*
X22250000Y-39437500D02*
X22250000Y-39723500D01*
X25778300Y-23358700D02*
X25778300Y-22298300D01*
X22317000Y-28926700D02*
X23835300Y-27408400D01*
X5171200Y-41446100D02*
X5555200Y-41830200D01*
X14191800Y-28926700D02*
X22317000Y-28926700D01*
X9153700Y-37463600D02*
X14046400Y-37463600D01*
X4258200Y-39466800D02*
X4258200Y-36251400D01*
X5555200Y-43250000D02*
X4630000Y-43250000D01*
X21757600Y-44411400D02*
X22755100Y-45408900D01*
X19000000Y-37380000D02*
X19000000Y-37943200D01*
X20793900Y-42363200D02*
X20793900Y-43831700D01*
X10623300Y-32495200D02*
X14191800Y-28926700D01*
X19000000Y-38130900D02*
X21286800Y-40417700D01*
X25778300Y-22298300D02*
X37380900Y-10695700D01*
X22755100Y-45490300D02*
X22266400Y-45979000D01*
X21062300Y-40642200D02*
X21062300Y-42094800D01*
X37380900Y-10695700D02*
X38706100Y-10695700D01*
X22755100Y-45408900D02*
X22755100Y-45490300D01*
X42685700Y-14675300D02*
X42824700Y-14675300D01*
X21555800Y-40417700D02*
X21286800Y-40417700D01*
X22266400Y-45979000D02*
X19891500Y-45979000D01*
X26500000Y-36950000D02*
X42685700Y-20764300D01*
X15433200Y-37943200D02*
X19000000Y-37943200D01*
X22250000Y-39437500D02*
X22750000Y-39437500D01*
X21286800Y-40417700D02*
X21062300Y-40642200D01*
X20793900Y-43831700D02*
X21373600Y-44411400D01*
X3556800Y-35550000D02*
X3362500Y-35550000D01*
X22755100Y-45490300D02*
X25284700Y-45490300D01*
X42685700Y-20764300D02*
X42685700Y-14675300D01*
X3725000Y-40000000D02*
X5171200Y-41446100D01*
X9153700Y-37463600D02*
X8973500Y-37283400D01*
X14500000Y-37010000D02*
X15433200Y-37943200D01*
X25284700Y-45490300D02*
X25500000Y-45275000D01*
X14046400Y-37463600D02*
X14500000Y-37010000D01*
X38706100Y-10695700D02*
X42685700Y-14675300D01*
X42824700Y-14675300D02*
X47000000Y-10500000D01*
X19000000Y-37943200D02*
X19000000Y-38130900D01*
%TO.N,SPK_P*%
D49*
X23437500Y-38750000D02*
X24200000Y-38800000D01*
X24400000Y-39000000D02*
X24400000Y-39100000D01*
X37400000Y-40400000D02*
X37400000Y-40500000D01*
X37400000Y-40500000D02*
X37500000Y-40500000D01*
X36700000Y-39700000D02*
X36700000Y-39800000D01*
X37100000Y-40200000D02*
X37200000Y-40200000D01*
X36800000Y-39900000D02*
X36900000Y-39900000D01*
X36600000Y-39500000D02*
X36600000Y-39700000D01*
X24500000Y-39200000D02*
X36300000Y-39200000D01*
X24500000Y-39100000D02*
X24500000Y-39200000D01*
X24200000Y-38800000D02*
X24200000Y-38900000D01*
X36300000Y-39400000D02*
X36400000Y-39400000D01*
X37200000Y-40200000D02*
X37200000Y-40300000D01*
X36400000Y-39500000D02*
X36600000Y-39500000D01*
X37500000Y-40500000D02*
X37500000Y-40900000D01*
X24300000Y-39000000D02*
X24400000Y-39000000D01*
X36400000Y-39400000D02*
X36400000Y-39500000D01*
X36900000Y-39900000D02*
X36900000Y-40000000D01*
X36900000Y-40000000D02*
X37100000Y-40000000D01*
X36300000Y-39200000D02*
X36300000Y-39400000D01*
X37200000Y-40300000D02*
X37300000Y-40300000D01*
X36700000Y-39800000D02*
X36800000Y-39800000D01*
X37300000Y-40400000D02*
X37400000Y-40400000D01*
X24400000Y-39100000D02*
X24500000Y-39100000D01*
X37300000Y-40300000D02*
X37300000Y-40400000D01*
X36600000Y-39700000D02*
X36700000Y-39700000D01*
X24300000Y-38900000D02*
X24300000Y-39000000D01*
X36800000Y-39800000D02*
X36800000Y-39900000D01*
X45700000Y-43000000D02*
X46500000Y-43500000D01*
X37100000Y-40000000D02*
X37100000Y-40200000D01*
X24200000Y-38900000D02*
X24300000Y-38900000D01*
%TO.N,SPK_N*%
X43700000Y-44200000D02*
X43800000Y-44200000D01*
X40500000Y-42700000D02*
X40600000Y-42700000D01*
X43100000Y-43900000D02*
X43200000Y-44000000D01*
X43600000Y-44100000D02*
X43700000Y-44200000D01*
X42200000Y-43500000D02*
X42300000Y-43500000D01*
X36400000Y-38900000D02*
X40000000Y-42500000D01*
X40200000Y-42500000D02*
X40300000Y-42600000D01*
X24200000Y-38300000D02*
X24800000Y-38900000D01*
X45400000Y-45000000D02*
X45500000Y-45000000D01*
X45100000Y-44800000D02*
X45200000Y-44900000D01*
X43000000Y-43900000D02*
X43100000Y-43900000D01*
X24800000Y-38900000D02*
X36400000Y-38900000D01*
X42000000Y-43400000D02*
X42100000Y-43400000D01*
X41900000Y-43300000D02*
X42000000Y-43400000D01*
X23437500Y-38250000D02*
X24200000Y-38300000D01*
X42300000Y-43500000D02*
X42400000Y-43600000D01*
X41200000Y-43000000D02*
X41300000Y-43100000D01*
X42800000Y-43800000D02*
X42900000Y-43800000D01*
X40900000Y-42900000D02*
X41000000Y-42900000D01*
X41300000Y-43100000D02*
X41400000Y-43100000D01*
X44600000Y-44600000D02*
X44700000Y-44700000D01*
X42100000Y-43400000D02*
X42200000Y-43500000D01*
X43800000Y-44200000D02*
X43900000Y-44300000D01*
X45600000Y-45100000D02*
X45700000Y-45100000D01*
X45300000Y-44900000D02*
X45400000Y-45000000D01*
X40600000Y-42700000D02*
X40700000Y-42800000D01*
X44500000Y-44600000D02*
X44600000Y-44600000D01*
X43400000Y-44000000D02*
X43500000Y-44100000D01*
X44300000Y-44500000D02*
X44400000Y-44500000D01*
X41500000Y-43200000D02*
X41600000Y-43200000D01*
X42900000Y-43800000D02*
X43000000Y-43900000D01*
X41600000Y-43200000D02*
X41700000Y-43300000D01*
X43500000Y-44100000D02*
X43600000Y-44100000D01*
X42500000Y-43600000D02*
X42600000Y-43700000D01*
X44000000Y-44300000D02*
X44100000Y-44400000D01*
X40000000Y-42500000D02*
X40200000Y-42500000D01*
X44400000Y-44500000D02*
X44500000Y-44600000D01*
X42600000Y-43700000D02*
X42700000Y-43700000D01*
X45700000Y-45100000D02*
X46500000Y-45500000D01*
X44900000Y-44800000D02*
X45100000Y-44800000D01*
X44700000Y-44700000D02*
X44800000Y-44700000D01*
X41100000Y-43000000D02*
X41200000Y-43000000D01*
X40300000Y-42600000D02*
X40400000Y-42600000D01*
X40800000Y-42800000D02*
X40900000Y-42900000D01*
X43200000Y-44000000D02*
X43400000Y-44000000D01*
X43900000Y-44300000D02*
X44000000Y-44300000D01*
X41700000Y-43300000D02*
X41900000Y-43300000D01*
X44100000Y-44400000D02*
X44200000Y-44400000D01*
X44800000Y-44700000D02*
X44900000Y-44800000D01*
X42400000Y-43600000D02*
X42500000Y-43600000D01*
X45200000Y-44900000D02*
X45300000Y-44900000D01*
X41000000Y-42900000D02*
X41100000Y-43000000D01*
X42700000Y-43700000D02*
X42800000Y-43800000D01*
X45500000Y-45000000D02*
X45600000Y-45100000D01*
X41400000Y-43100000D02*
X41500000Y-43200000D01*
X40400000Y-42600000D02*
X40500000Y-42700000D01*
X44200000Y-44400000D02*
X44300000Y-44500000D01*
X40700000Y-42800000D02*
X40800000Y-42800000D01*
%TO.N,I2S_LRCK*%
D48*
X22250000Y-36300600D02*
X22250000Y-36562500D01*
X14400000Y-32423300D02*
X16383200Y-32423300D01*
X20825700Y-34876300D02*
X22250000Y-36300600D01*
X17956400Y-34876300D02*
X20825700Y-34876300D01*
X16550000Y-33469900D02*
X17956400Y-34876300D01*
X14400000Y-33000000D02*
X14400000Y-32423300D01*
X16383200Y-32423300D02*
X16550000Y-32590100D01*
X16550000Y-32590100D02*
X16550000Y-33469900D01*
%TO.N,I2S_BCLK*%
X13550000Y-33000000D02*
X13550000Y-33576700D01*
X19825800Y-35138300D02*
X21250000Y-36562500D01*
X13550000Y-33576700D02*
X15111600Y-35138300D01*
X15111600Y-35138300D02*
X19825800Y-35138300D01*
%TO.N,PROG*%
X21637500Y-43550000D02*
X23097500Y-45010000D01*
X23097500Y-45010000D02*
X24000000Y-45010000D01*
%TO.N,CHG_STAT*%
X19082700Y-43550000D02*
X19362500Y-43550000D01*
X26177400Y-45641800D02*
X25524800Y-46294400D01*
X18300000Y-45526200D02*
X18300000Y-44332700D01*
X19068200Y-46294400D02*
X18300000Y-45526200D01*
X23712500Y-41000000D02*
X23948200Y-41000000D01*
X18300000Y-44332700D02*
X19082700Y-43550000D01*
X25524800Y-46294400D02*
X19068200Y-46294400D01*
X23948200Y-41000000D02*
X26177400Y-43229200D01*
X26177400Y-43229200D02*
X26177400Y-45641800D01*
%TO.N,TP_IO38*%
X31000000Y-24100000D02*
X32000000Y-24100000D01*
X19900000Y-23000000D02*
X21200000Y-23000000D01*
X32000000Y-24400000D02*
X32300000Y-24700000D01*
X32000000Y-24100000D02*
X32000000Y-24400000D01*
X21200000Y-23700000D02*
X22300000Y-24800000D01*
X32500000Y-25200000D02*
X32500000Y-25300000D01*
X18100000Y-20600000D02*
X18100000Y-21200000D01*
X32300000Y-24700000D02*
X32300000Y-25000000D01*
X25800000Y-47400000D02*
X25600000Y-47600000D01*
X32300000Y-25000000D02*
X32500000Y-25200000D01*
X26500000Y-25200000D02*
X26700000Y-25000000D01*
X33000000Y-26300000D02*
X33000000Y-27400000D01*
X16950000Y-19000000D02*
X17100000Y-19600000D01*
X25500000Y-47800000D02*
X25200000Y-48500000D01*
X30100000Y-25000000D02*
X31000000Y-24100000D01*
X32500000Y-25300000D02*
X32600000Y-25400000D01*
X26200000Y-25200000D02*
X26500000Y-25200000D01*
X18100000Y-21200000D02*
X19900000Y-23000000D01*
X21200000Y-23000000D02*
X21200000Y-23700000D01*
X33000000Y-27400000D02*
X32800000Y-27600000D01*
X25600000Y-47600000D02*
X25600000Y-47700000D01*
X32800000Y-27600000D02*
X32800000Y-29700000D01*
X26700000Y-25000000D02*
X30100000Y-25000000D01*
X25600000Y-47700000D02*
X25500000Y-47800000D01*
X17100000Y-19600000D02*
X18100000Y-20600000D01*
X32600000Y-25900000D02*
X33000000Y-26300000D01*
X32600000Y-25400000D02*
X32600000Y-25900000D01*
%TO.N,ESP_EN*%
X40500000Y-31200000D02*
X40400000Y-31100000D01*
X44950000Y-33200000D02*
X44300000Y-32800000D01*
X37800000Y-29900000D02*
X37700000Y-29900000D01*
X39000000Y-30500000D02*
X38900000Y-30400000D01*
X39300000Y-30600000D02*
X39200000Y-30600000D01*
X39200000Y-30600000D02*
X39100000Y-30500000D01*
X22296224Y-23532934D02*
X23000000Y-22990000D01*
X7600000Y-19000000D02*
X7600000Y-19576700D01*
X43300000Y-31800000D02*
X41900000Y-31800000D01*
X39600000Y-30800000D02*
X39500000Y-30700000D01*
X40000000Y-31000000D02*
X39900000Y-30900000D01*
X38000000Y-30000000D02*
X37900000Y-30000000D01*
X19908300Y-27568000D02*
X19908300Y-27973900D01*
X39800000Y-30900000D02*
X39700000Y-30800000D01*
X39900000Y-30900000D02*
X39800000Y-30900000D01*
D47*
X23100000Y-23200000D02*
X22296224Y-23532934D01*
D48*
X40700000Y-31300000D02*
X40600000Y-31200000D01*
X39400000Y-30700000D02*
X39300000Y-30600000D01*
X39500000Y-30700000D02*
X39400000Y-30700000D01*
X23000000Y-27480000D02*
X23502500Y-26977500D01*
X11917000Y-19576700D02*
X19908300Y-27568000D01*
X38300000Y-30200000D02*
X38200000Y-30100000D01*
X37400000Y-29700000D02*
X37300000Y-29700000D01*
X37300000Y-29700000D02*
X37200000Y-29600000D01*
X40900000Y-31400000D02*
X40800000Y-31300000D01*
X41200000Y-31500000D02*
X41100000Y-31500000D01*
X41100000Y-31500000D02*
X41000000Y-31400000D01*
X41800000Y-31700000D02*
X41500000Y-31700000D01*
X19908300Y-27973900D02*
X20043600Y-28109200D01*
X41900000Y-31800000D02*
X41800000Y-31700000D01*
X40600000Y-31200000D02*
X40500000Y-31200000D01*
X38400000Y-30200000D02*
X38300000Y-30200000D01*
X23502500Y-23492500D02*
X23000000Y-22990000D01*
X40300000Y-31100000D02*
X40200000Y-31000000D01*
X39100000Y-30500000D02*
X39000000Y-30500000D01*
X41000000Y-31400000D02*
X40900000Y-31400000D01*
X38900000Y-30400000D02*
X38800000Y-30400000D01*
X38200000Y-30100000D02*
X38100000Y-30100000D01*
X23502500Y-26977500D02*
X23502500Y-23492500D01*
X41300000Y-31600000D02*
X41200000Y-31500000D01*
X37600000Y-29800000D02*
X37500000Y-29800000D01*
X41400000Y-31600000D02*
X41300000Y-31600000D01*
X40200000Y-31000000D02*
X40000000Y-31000000D01*
X7600000Y-19576700D02*
X11917000Y-19576700D01*
X20043600Y-28109200D02*
X22370800Y-28109200D01*
X38800000Y-30400000D02*
X38700000Y-30300000D01*
X38500000Y-30300000D02*
X38400000Y-30200000D01*
X38100000Y-30100000D02*
X38000000Y-30000000D01*
X40400000Y-31100000D02*
X40300000Y-31100000D01*
X49050000Y-33200000D02*
X44950000Y-33200000D01*
X41500000Y-31700000D02*
X41400000Y-31600000D01*
X40800000Y-31300000D02*
X40700000Y-31300000D01*
X38700000Y-30300000D02*
X38500000Y-30300000D01*
X37500000Y-29800000D02*
X37400000Y-29700000D01*
X22370800Y-28109200D02*
X23000000Y-27480000D01*
X37900000Y-30000000D02*
X37800000Y-29900000D01*
X37700000Y-29900000D02*
X37600000Y-29800000D01*
X39700000Y-30800000D02*
X39600000Y-30800000D01*
X44300000Y-32800000D02*
X43300000Y-31800000D01*
%TO.N,LED2_A*%
X24010000Y-30000000D02*
X24287500Y-30277500D01*
X24287500Y-30277500D02*
X24287500Y-32000000D01*
%TO.N,BTN_BOOT*%
X20500000Y-48700000D02*
X19614700Y-48700000D01*
X22550000Y-48700000D02*
X20500000Y-48700000D01*
X20500000Y-48700000D02*
X19614700Y-48700000D01*
X19150000Y-48500000D02*
X18450000Y-48700000D01*
D47*
X18100000Y-48500000D02*
X19150000Y-48500000D01*
D48*
X10150000Y-33000000D02*
X9500000Y-32200000D01*
X19614700Y-48700000D02*
X18450000Y-48700000D01*
%TO.N,LED_STATUS*%
X22863300Y-29873300D02*
X22990000Y-30000000D01*
X14400000Y-29873300D02*
X22863300Y-29873300D01*
X11850000Y-33000000D02*
X11850000Y-32423300D01*
X11850000Y-32423300D02*
X14400000Y-29873300D01*
%TO.N,LORA_DIO1*%
X11100000Y-25400000D02*
X7400000Y-29100000D01*
X17100000Y-26300000D02*
X16000000Y-25200000D01*
X8500000Y-39000000D02*
X8600000Y-38900000D01*
X17300000Y-27500000D02*
X17500000Y-27300000D01*
X12700000Y-33000000D02*
X12800000Y-32100000D01*
X17500000Y-27300000D02*
X17500000Y-26300000D01*
X11100000Y-25200000D02*
X11100000Y-25400000D01*
X13000000Y-32100000D02*
X14000000Y-31100000D01*
X11200000Y-38900000D02*
X12100000Y-38000000D01*
X8600000Y-38900000D02*
X11200000Y-38900000D01*
X12800000Y-32100000D02*
X13000000Y-32100000D01*
X17500000Y-26300000D02*
X17100000Y-26300000D01*
X16000000Y-25200000D02*
X11100000Y-25200000D01*
X12100000Y-38000000D02*
X12300000Y-38000000D01*
%TO.N,IMU_INT1*%
X25925500Y-30169900D02*
X25925500Y-31794700D01*
X24965900Y-28621600D02*
X24965900Y-29210300D01*
X23997500Y-33722700D02*
X18796000Y-33722700D01*
X18796000Y-33722700D02*
X18650000Y-33576700D01*
X24965900Y-29210300D02*
X25925500Y-30169900D01*
X25337500Y-28250000D02*
X24965900Y-28621600D01*
X18650000Y-33576700D02*
X18650000Y-33000000D01*
X25925500Y-31794700D02*
X23997500Y-33722700D01*
%TO.N,SPI2_MOSI*%
X24421700Y-32940400D02*
X21540200Y-32940400D01*
D47*
X19500000Y-33000000D02*
X18972208Y-32210103D01*
D48*
X24914200Y-32447900D02*
X24421700Y-32940400D01*
X21540200Y-32940400D02*
X21023100Y-32423300D01*
X24463800Y-25984500D02*
X24463800Y-29353800D01*
X21023100Y-32423300D02*
X19500000Y-32423300D01*
X24463800Y-29353800D02*
X24914200Y-29804200D01*
X38000000Y-13500000D02*
X36948300Y-13500000D01*
X24914200Y-29804200D02*
X24914200Y-32447900D01*
X36948300Y-13500000D02*
X24463800Y-25984500D01*
X19500000Y-32423300D02*
X18972208Y-32210103D01*
%TO.N,SPI2_SCK*%
X23500100Y-32271100D02*
X23500100Y-28277200D01*
X20550000Y-31950000D02*
X21126700Y-31950000D01*
X37805800Y-12276700D02*
X38000000Y-12276700D01*
X21861700Y-32685000D02*
X23086200Y-32685000D01*
X24169200Y-25913300D02*
X37805800Y-12276700D01*
X23086200Y-32685000D02*
X23500100Y-32271100D01*
X23500100Y-28277200D02*
X24169200Y-27608100D01*
X38000000Y-12276700D02*
X38000000Y-11500000D01*
X21126700Y-31950000D02*
X21861700Y-32685000D01*
X24169200Y-27608100D02*
X24169200Y-25913300D01*
%TO.N,SPI2_MISO*%
D49*
X14400000Y-31600000D02*
X13900000Y-32100000D01*
X14900000Y-31200000D02*
X14500000Y-31600000D01*
X20550000Y-31100000D02*
X14900000Y-31200000D01*
X14500000Y-31600000D02*
X14400000Y-31600000D01*
%TO.N,LORA_BUSY*%
D48*
X20550000Y-30250000D02*
X21463614Y-30656582D01*
%TO.N,LORA_RST*%
D49*
X14100000Y-29600000D02*
X13100000Y-30600000D01*
X20550000Y-29400000D02*
X20100000Y-29600000D01*
X13000000Y-30600000D02*
X13000000Y-30700000D01*
X20100000Y-29600000D02*
X14100000Y-29600000D01*
X11400000Y-33700000D02*
X12750000Y-33800000D01*
X11600000Y-32200000D02*
X11400000Y-32400000D01*
X11400000Y-32400000D02*
X11400000Y-33700000D01*
X13100000Y-30600000D02*
X13000000Y-30600000D01*
X11600000Y-32100000D02*
X11600000Y-32200000D01*
X13000000Y-30700000D02*
X11600000Y-32100000D01*
%TO.N,LORA_TXEN*%
D48*
X19600000Y-28400000D02*
X19400000Y-28200000D01*
X29500000Y-26000000D02*
X29500000Y-27300000D01*
X28800000Y-26000000D02*
X29500000Y-26000000D01*
X29500000Y-27300000D02*
X29700000Y-27500000D01*
X20550000Y-28550000D02*
X19600000Y-28400000D01*
X28700000Y-25900000D02*
X28800000Y-26000000D01*
%TO.N,GNSS_TXD*%
X20550000Y-27700000D02*
X20431800Y-27700000D01*
X10671200Y-13957000D02*
X11328200Y-13300000D01*
X10671200Y-14722800D02*
X10671200Y-13957000D01*
X20431800Y-27700000D02*
X12323300Y-19591500D01*
X12323300Y-19591500D02*
X12323300Y-16374900D01*
X11328200Y-13300000D02*
X11925000Y-13300000D01*
X12323300Y-16374900D02*
X10671200Y-14722800D01*
%TO.N,LORA_NSS*%
X17500000Y-23200000D02*
X17400000Y-23100000D01*
X17400000Y-23100000D02*
X17100000Y-23100000D01*
X20550000Y-24300000D02*
X19900000Y-24200000D01*
X19900000Y-24200000D02*
X18900000Y-23200000D01*
X18900000Y-23200000D02*
X17500000Y-23200000D01*
%TO.N,OLED_CS*%
X38000000Y-9500000D02*
X36948300Y-9500000D01*
X36948300Y-9500000D02*
X36948300Y-9567200D01*
X24765500Y-21750000D02*
X20550000Y-21750000D01*
X36948300Y-9567200D02*
X24765500Y-21750000D01*
%TO.N,OLED_DC*%
X21126700Y-20900000D02*
X20550000Y-20900000D01*
X37223300Y-8276700D02*
X25499900Y-20000100D01*
X22026600Y-20000100D02*
X21126700Y-20900000D01*
X25499900Y-20000100D02*
X22026600Y-20000100D01*
X38000000Y-8276700D02*
X37223300Y-8276700D01*
X38000000Y-7500000D02*
X38000000Y-8276700D01*
%TO.N,OLED_RST*%
X33693500Y-6276700D02*
X21777100Y-18193100D01*
X19500000Y-18423300D02*
X19500000Y-19000000D01*
X19730200Y-18193100D02*
X19500000Y-18423300D01*
X21777100Y-18193100D02*
X19730200Y-18193100D01*
X38000000Y-5500000D02*
X38000000Y-6276700D01*
X38000000Y-6276700D02*
X33693500Y-6276700D01*
%TO.N,LORA_RXEN*%
X31900000Y-25000000D02*
X32000000Y-25000000D01*
X21400000Y-19600000D02*
X22500000Y-18500000D01*
X32000000Y-25400000D02*
X32300000Y-25700000D01*
X32300000Y-26600000D02*
X32500000Y-26800000D01*
X17800000Y-19000000D02*
X18200000Y-19600000D01*
X32000000Y-25000000D02*
X32000000Y-25400000D01*
X23500000Y-18500000D02*
X24500000Y-19500000D01*
X22500000Y-18500000D02*
X23500000Y-18500000D01*
X18200000Y-19600000D02*
X21400000Y-19600000D01*
X32300000Y-25700000D02*
X32300000Y-26600000D01*
X31500000Y-24600000D02*
X31900000Y-25000000D01*
%TO.N,TP_IO40*%
X32800000Y-25000000D02*
X32900000Y-25100000D01*
X16000000Y-18400000D02*
X16700000Y-17700000D01*
X32500000Y-24300000D02*
X32600000Y-24400000D01*
X21300000Y-17600000D02*
X21400000Y-17500000D01*
X32500000Y-24200000D02*
X32500000Y-24300000D01*
X32900000Y-25100000D02*
X32900000Y-25600000D01*
X32300000Y-24000000D02*
X32500000Y-24200000D01*
X18200000Y-17600000D02*
X21300000Y-17600000D01*
X16700000Y-17700000D02*
X18100000Y-17700000D01*
X32600000Y-24700000D02*
X32800000Y-24900000D01*
X32800000Y-24900000D02*
X32800000Y-25000000D01*
X29900000Y-11000000D02*
X29900000Y-13300000D01*
X32600000Y-24400000D02*
X32600000Y-24700000D01*
X32900000Y-25600000D02*
X33300000Y-26000000D01*
X21400000Y-17500000D02*
X21600000Y-17500000D01*
X29900000Y-13300000D02*
X30600000Y-14000000D01*
X15250000Y-19000000D02*
X15700000Y-18400000D01*
X15700000Y-18400000D02*
X16000000Y-18400000D01*
D47*
X28200000Y-47800000D02*
X29475020Y-48053617D01*
D48*
X32100000Y-23600000D02*
X32300000Y-23800000D01*
X32300000Y-23800000D02*
X32300000Y-24000000D01*
X18100000Y-17700000D02*
X18200000Y-17600000D01*
X29475020Y-48053617D02*
X27900000Y-48500000D01*
X33300000Y-26000000D02*
X33300000Y-29000000D01*
%TO.N,TP_IO42*%
X34900000Y-47800000D02*
X33300000Y-48500000D01*
D47*
X33600000Y-47800000D02*
X34900000Y-47800000D01*
D48*
X13550000Y-19000000D02*
X13800000Y-18600000D01*
%TO.N,CHG_LED_A*%
X24618500Y-40331000D02*
X22179000Y-40331000D01*
X22179000Y-40331000D02*
X21510000Y-41000000D01*
X25287500Y-41000000D02*
X24618500Y-40331000D01*
%TO.N,LDO_EN*%
X3703300Y-43473300D02*
X3059200Y-42829200D01*
X4630000Y-46250000D02*
X3703300Y-46250000D01*
X3703300Y-46250000D02*
X3703300Y-43473300D01*
X3059200Y-42829200D02*
X3059200Y-37753300D01*
X3059200Y-37753300D02*
X3362500Y-37450000D01*
%TD*%
%TA.AperFunction,Conductor*%
%TO.N,GND*%
G36*
X7823232Y-42459600D02*
G01*
X7837890Y-42470970D01*
X8331235Y-42964315D01*
X8462465Y-43040081D01*
X8608831Y-43079299D01*
X8608832Y-43079300D01*
X8608834Y-43079300D01*
X8760367Y-43079300D01*
X8900500Y-43079300D01*
X8952826Y-43100974D01*
X8974500Y-43153300D01*
X8974500Y-43854902D01*
X8952826Y-43907228D01*
X8881919Y-43978134D01*
X8798256Y-44119600D01*
X8752402Y-44277428D01*
X8749500Y-44314306D01*
X8749500Y-45595693D01*
X8752402Y-45632571D01*
X8798256Y-45790400D01*
X8840776Y-45862297D01*
X8848756Y-45918370D01*
X8814750Y-45963661D01*
X8814082Y-45964051D01*
X8787340Y-45979491D01*
X8787339Y-45979491D01*
X8689495Y-46077334D01*
X8620312Y-46197163D01*
X8620310Y-46197168D01*
X8584500Y-46330814D01*
X8584500Y-46469185D01*
X8585133Y-46473994D01*
X8583341Y-46474229D01*
X8576774Y-46524103D01*
X8531840Y-46558579D01*
X8512690Y-46561100D01*
X7688332Y-46561100D01*
X7636006Y-46539426D01*
X7597174Y-46500594D01*
X7575500Y-46448268D01*
X7575500Y-42683884D01*
X7597173Y-42631559D01*
X7691135Y-42537598D01*
X7721870Y-42485625D01*
X7767160Y-42451621D01*
X7823232Y-42459600D01*
G37*
%TD.AperFunction*%
%TA.AperFunction,Conductor*%
G36*
X16414326Y-43436906D02*
G01*
X16436000Y-43489232D01*
X16436000Y-46462000D01*
X16414326Y-46514326D01*
X16362000Y-46536000D01*
X15489500Y-46536000D01*
X15437174Y-46514326D01*
X15415500Y-46462000D01*
X15415500Y-46330815D01*
X15415499Y-46330814D01*
X15414146Y-46325766D01*
X15379688Y-46197164D01*
X15310505Y-46077335D01*
X15212665Y-45979495D01*
X15185917Y-45964052D01*
X15151438Y-45919118D01*
X15158831Y-45862966D01*
X15159168Y-45862388D01*
X15201744Y-45790398D01*
X15247598Y-45632569D01*
X15250500Y-45595694D01*
X15250500Y-44526732D01*
X15272174Y-44474406D01*
X16309674Y-43436906D01*
X16362000Y-43415232D01*
X16414326Y-43436906D01*
G37*
%TD.AperFunction*%
%TA.AperFunction,Conductor*%
G36*
X19745793Y-44372173D02*
G01*
X19824933Y-44451313D01*
X19896794Y-44523174D01*
X19918468Y-44575500D01*
X19896794Y-44627826D01*
X19844468Y-44649500D01*
X18975732Y-44649500D01*
X18923406Y-44627826D01*
X18901732Y-44575500D01*
X18923406Y-44523174D01*
X19074406Y-44372174D01*
X19126732Y-44350500D01*
X19693469Y-44350500D01*
X19745793Y-44372173D01*
G37*
%TD.AperFunction*%
%TA.AperFunction,Conductor*%
G36*
X22752826Y-40928174D02*
G01*
X22774500Y-40980500D01*
X22774500Y-41304174D01*
X22784564Y-41402685D01*
X22837451Y-41562287D01*
X22874072Y-41621658D01*
X22916925Y-41691135D01*
X22925719Y-41705391D01*
X23044609Y-41824281D01*
X23187713Y-41912549D01*
X23347315Y-41965436D01*
X23445826Y-41975500D01*
X23445831Y-41975500D01*
X23979169Y-41975500D01*
X23979174Y-41975500D01*
X24062729Y-41966963D01*
X24116985Y-41983207D01*
X24122574Y-41988254D01*
X25580226Y-43445906D01*
X25601900Y-43498232D01*
X25601900Y-44250500D01*
X25580226Y-44302826D01*
X25527900Y-44324500D01*
X25201663Y-44324500D01*
X25201657Y-44324500D01*
X25201656Y-44324501D01*
X25151974Y-44329576D01*
X25102291Y-44334651D01*
X25102286Y-44334652D01*
X24941304Y-44387996D01*
X24796954Y-44477032D01*
X24793682Y-44480305D01*
X24741354Y-44501975D01*
X24689034Y-44480301D01*
X24577598Y-44368865D01*
X24439394Y-44287131D01*
X24285204Y-44242335D01*
X24285207Y-44242335D01*
X24258186Y-44240208D01*
X24249181Y-44239500D01*
X24249180Y-44239500D01*
X23750820Y-44239500D01*
X23714793Y-44242335D01*
X23560605Y-44287131D01*
X23422401Y-44368865D01*
X23398648Y-44392618D01*
X23346322Y-44414291D01*
X23293997Y-44392617D01*
X22807461Y-43906081D01*
X22785787Y-43853755D01*
X22788725Y-43833109D01*
X22795364Y-43810257D01*
X22797598Y-43802569D01*
X22800500Y-43765694D01*
X22800500Y-43334306D01*
X22797598Y-43297431D01*
X22751744Y-43139602D01*
X22668081Y-42998135D01*
X22551865Y-42881919D01*
X22541581Y-42875837D01*
X22410399Y-42798256D01*
X22252571Y-42752402D01*
X22227985Y-42750467D01*
X22215694Y-42749500D01*
X22215693Y-42749500D01*
X21443400Y-42749500D01*
X21391074Y-42727826D01*
X21369400Y-42675500D01*
X21369400Y-42632231D01*
X21391073Y-42579906D01*
X21522815Y-42448165D01*
X21598581Y-42316935D01*
X21637799Y-42170568D01*
X21637800Y-42170568D01*
X21637800Y-41894453D01*
X21659474Y-41842127D01*
X21707762Y-41821009D01*
X21707731Y-41820613D01*
X21708874Y-41820523D01*
X21708904Y-41820510D01*
X21709174Y-41820499D01*
X21709180Y-41820499D01*
X21745204Y-41817665D01*
X21899393Y-41772869D01*
X22037598Y-41691135D01*
X22151135Y-41577598D01*
X22232869Y-41439393D01*
X22277665Y-41285204D01*
X22280500Y-41249181D01*
X22280499Y-41074031D01*
X22302173Y-41021706D01*
X22395706Y-40928174D01*
X22448032Y-40906500D01*
X22700500Y-40906500D01*
X22752826Y-40928174D01*
G37*
%TD.AperFunction*%
%TA.AperFunction,Conductor*%
G36*
X11636149Y-41324095D02*
G01*
X11671561Y-41368296D01*
X11674500Y-41388942D01*
X11674500Y-41611057D01*
X11652826Y-41663383D01*
X11600500Y-41685057D01*
X11579855Y-41682119D01*
X11555927Y-41675167D01*
X11477571Y-41652402D01*
X11452985Y-41650467D01*
X11440694Y-41649500D01*
X11440693Y-41649500D01*
X10471300Y-41649500D01*
X10418974Y-41627826D01*
X10397300Y-41575500D01*
X10397300Y-41542831D01*
X10418974Y-41490505D01*
X10512305Y-41397174D01*
X10564631Y-41375500D01*
X10575765Y-41375500D01*
X10575766Y-41375500D01*
X10659660Y-41353020D01*
X10678811Y-41350500D01*
X11440693Y-41350500D01*
X11440694Y-41350500D01*
X11477569Y-41347598D01*
X11477571Y-41347597D01*
X11477575Y-41347597D01*
X11560141Y-41323608D01*
X11579854Y-41317881D01*
X11636149Y-41324095D01*
G37*
%TD.AperFunction*%
%TA.AperFunction,Conductor*%
G36*
X7738499Y-39797331D02*
G01*
X7760173Y-39849657D01*
X7750259Y-39886657D01*
X7691021Y-39989260D01*
X7691017Y-39989269D01*
X7651800Y-40135631D01*
X7651800Y-41283012D01*
X7630126Y-41335338D01*
X7577800Y-41357012D01*
X7540131Y-41346707D01*
X7439394Y-41287131D01*
X7285204Y-41242335D01*
X7285207Y-41242335D01*
X7258186Y-41240208D01*
X7249181Y-41239500D01*
X7249180Y-41239500D01*
X6750820Y-41239500D01*
X6714793Y-41242335D01*
X6560605Y-41287131D01*
X6422401Y-41368865D01*
X6308865Y-41482401D01*
X6225753Y-41622935D01*
X6205879Y-41637856D01*
X6187620Y-41654711D01*
X6183643Y-41654551D01*
X6180461Y-41656941D01*
X6155859Y-41653439D01*
X6131029Y-41652446D01*
X6128649Y-41649567D01*
X6124389Y-41648961D01*
X6094147Y-41612669D01*
X6093456Y-41612950D01*
X6093255Y-41612455D01*
X6092999Y-41611692D01*
X6092662Y-41610887D01*
X6092613Y-41610828D01*
X6092434Y-41610342D01*
X6091656Y-41608485D01*
X6091489Y-41608081D01*
X6091481Y-41608068D01*
X6091481Y-41608065D01*
X6063201Y-41559084D01*
X6053543Y-41542355D01*
X6053540Y-41542351D01*
X6021642Y-41487085D01*
X6014258Y-41430934D01*
X6033405Y-41397774D01*
X7633848Y-39797330D01*
X7686173Y-39775657D01*
X7738499Y-39797331D01*
G37*
%TD.AperFunction*%
%TA.AperFunction,Conductor*%
G36*
X14552324Y-37876204D02*
G01*
X15079835Y-38403715D01*
X15079837Y-38403716D01*
X15209218Y-38478415D01*
X15211065Y-38479481D01*
X15211066Y-38479481D01*
X15211068Y-38479482D01*
X15283773Y-38498963D01*
X15357430Y-38518699D01*
X15357431Y-38518700D01*
X15357433Y-38518700D01*
X15357434Y-38518700D01*
X18543268Y-38518700D01*
X18595594Y-38540374D01*
X20152957Y-40097737D01*
X20174631Y-40150063D01*
X20152957Y-40202389D01*
X20121279Y-40221124D01*
X20100607Y-40227130D01*
X19962401Y-40308865D01*
X19848865Y-40422401D01*
X19767131Y-40560605D01*
X19722335Y-40714793D01*
X19719500Y-40750819D01*
X19719500Y-40830500D01*
X19697826Y-40882826D01*
X19645500Y-40904500D01*
X19170956Y-40904500D01*
X19118630Y-40882826D01*
X19065687Y-40829883D01*
X18926396Y-40747506D01*
X18770995Y-40702357D01*
X18746791Y-40700452D01*
X18734690Y-40699500D01*
X18265310Y-40699500D01*
X18256234Y-40700214D01*
X18229004Y-40702357D01*
X18073603Y-40747506D01*
X17934312Y-40829883D01*
X17881370Y-40882826D01*
X17829044Y-40904500D01*
X17376931Y-40904500D01*
X17230568Y-40943717D01*
X17230563Y-40943719D01*
X17099334Y-41019485D01*
X16813417Y-41305402D01*
X16761091Y-41327076D01*
X16708766Y-41305403D01*
X16475589Y-41072235D01*
X14437931Y-39034651D01*
X14390565Y-38987285D01*
X14390560Y-38987282D01*
X14390557Y-38987279D01*
X14333101Y-38954108D01*
X14259335Y-38911519D01*
X14259333Y-38911518D01*
X14259328Y-38911516D01*
X14259325Y-38911515D01*
X14194896Y-38894252D01*
X14194895Y-38894251D01*
X14138929Y-38879256D01*
X14112966Y-38872300D01*
X14112965Y-38872300D01*
X14112961Y-38872299D01*
X14112956Y-38872299D01*
X14037189Y-38872300D01*
X12512920Y-38872300D01*
X12460594Y-38850626D01*
X12438920Y-38798300D01*
X12460594Y-38745974D01*
X12498483Y-38725722D01*
X12506361Y-38724154D01*
X12518913Y-38721658D01*
X12655495Y-38665084D01*
X12778416Y-38582951D01*
X12882951Y-38478416D01*
X12965084Y-38355495D01*
X13021658Y-38218913D01*
X13037532Y-38139113D01*
X13045578Y-38098663D01*
X13077044Y-38051571D01*
X13118156Y-38039100D01*
X14122168Y-38039100D01*
X14122168Y-38039099D01*
X14268535Y-37999881D01*
X14399765Y-37924115D01*
X14447673Y-37876205D01*
X14499998Y-37854531D01*
X14552324Y-37876204D01*
G37*
%TD.AperFunction*%
%TA.AperFunction,Conductor*%
G36*
X6662151Y-38072393D02*
G01*
X6781087Y-38121658D01*
X6926082Y-38150500D01*
X6926084Y-38150500D01*
X7073916Y-38150500D01*
X7073918Y-38150500D01*
X7218913Y-38121658D01*
X7249037Y-38109179D01*
X7305671Y-38109178D01*
X7338884Y-38136434D01*
X7417048Y-38253415D01*
X7431200Y-38267567D01*
X7452874Y-38319893D01*
X7431200Y-38372219D01*
X5223509Y-40579909D01*
X5171183Y-40601583D01*
X5118859Y-40579911D01*
X4697175Y-40158256D01*
X4675499Y-40105931D01*
X4675499Y-39894032D01*
X4697172Y-39841706D01*
X4718715Y-39820165D01*
X4794481Y-39688935D01*
X4833699Y-39542568D01*
X4833700Y-39542568D01*
X4833700Y-38291325D01*
X4855374Y-38238999D01*
X4907700Y-38217325D01*
X4928342Y-38220262D01*
X5022431Y-38247598D01*
X5059306Y-38250500D01*
X5059307Y-38250500D01*
X6215693Y-38250500D01*
X6215694Y-38250500D01*
X6252569Y-38247598D01*
X6410398Y-38201744D01*
X6551865Y-38118081D01*
X6581508Y-38088436D01*
X6633833Y-38066761D01*
X6662151Y-38072393D01*
G37*
%TD.AperFunction*%
%TA.AperFunction,Conductor*%
G36*
X21795045Y-37321004D02*
G01*
X21903571Y-37404279D01*
X22040528Y-37461009D01*
X22150599Y-37475500D01*
X22349400Y-37475499D01*
X22459472Y-37461009D01*
X22459515Y-37460990D01*
X22459540Y-37460990D01*
X22464157Y-37459754D01*
X22464488Y-37460990D01*
X22516151Y-37460985D01*
X22556204Y-37501029D01*
X22556207Y-37501036D01*
X22595721Y-37596429D01*
X22678992Y-37704952D01*
X22693651Y-37759659D01*
X22678992Y-37795048D01*
X22595721Y-37903570D01*
X22538990Y-38040528D01*
X22524500Y-38150600D01*
X22524500Y-38349399D01*
X22538459Y-38455434D01*
X22523799Y-38510141D01*
X22474750Y-38538459D01*
X22455433Y-38538459D01*
X22402746Y-38531522D01*
X22349401Y-38524500D01*
X22349399Y-38524500D01*
X22150600Y-38524500D01*
X22040530Y-38538990D01*
X22040526Y-38538991D01*
X22028316Y-38544049D01*
X21971684Y-38544049D01*
X21959471Y-38538990D01*
X21865914Y-38526674D01*
X21849401Y-38524500D01*
X21849399Y-38524500D01*
X21650600Y-38524500D01*
X21540530Y-38538990D01*
X21540520Y-38538993D01*
X21540468Y-38539015D01*
X21540439Y-38539014D01*
X21535846Y-38540246D01*
X21535515Y-38539014D01*
X21483831Y-38539009D01*
X21443791Y-38498963D01*
X21404279Y-38403571D01*
X21321005Y-38295046D01*
X21306347Y-38240341D01*
X21321004Y-38204954D01*
X21404279Y-38096429D01*
X21461009Y-37959472D01*
X21475500Y-37849401D01*
X21475499Y-37650600D01*
X21461009Y-37540528D01*
X21460990Y-37540484D01*
X21460990Y-37540459D01*
X21459754Y-37535843D01*
X21460990Y-37535511D01*
X21460983Y-37483850D01*
X21501022Y-37443797D01*
X21596429Y-37404279D01*
X21704953Y-37321005D01*
X21723610Y-37316006D01*
X21740341Y-37306347D01*
X21750000Y-37308935D01*
X21759659Y-37306347D01*
X21795045Y-37321004D01*
G37*
%TD.AperFunction*%
%TA.AperFunction,Conductor*%
G36*
X31703582Y-32664949D02*
G01*
X31721584Y-32682951D01*
X31844505Y-32765084D01*
X31981087Y-32821658D01*
X32065647Y-32838478D01*
X32112740Y-32869944D01*
X32123789Y-32925492D01*
X32103537Y-32963382D01*
X28006694Y-37060226D01*
X27954368Y-37081900D01*
X27799500Y-37081900D01*
X27747174Y-37060226D01*
X27725500Y-37007900D01*
X27725499Y-36649999D01*
X27725499Y-36649992D01*
X27718727Y-36583704D01*
X27734971Y-36529449D01*
X27740008Y-36523870D01*
X31598930Y-32664949D01*
X31651256Y-32643275D01*
X31703582Y-32664949D01*
G37*
%TD.AperFunction*%
%TA.AperFunction,Conductor*%
G36*
X10402826Y-34608906D02*
G01*
X10424500Y-34661232D01*
X10424500Y-36330500D01*
X10402826Y-36382826D01*
X10350500Y-36404500D01*
X10170956Y-36404500D01*
X10118630Y-36382826D01*
X10065687Y-36329883D01*
X9926396Y-36247506D01*
X9770995Y-36202357D01*
X9746791Y-36200452D01*
X9734690Y-36199500D01*
X9734689Y-36199500D01*
X9623000Y-36199500D01*
X9570674Y-36177826D01*
X9549000Y-36125500D01*
X9549000Y-35388732D01*
X9570674Y-35336406D01*
X10298174Y-34608906D01*
X10350500Y-34587232D01*
X10402826Y-34608906D01*
G37*
%TD.AperFunction*%
%TA.AperFunction,Conductor*%
G36*
X19609094Y-35735474D02*
G01*
X19882181Y-36008561D01*
X19903855Y-36060887D01*
X19882181Y-36113213D01*
X19858174Y-36129254D01*
X19844505Y-36134915D01*
X19721584Y-36217048D01*
X19721583Y-36217050D01*
X19624307Y-36314326D01*
X19571981Y-36336000D01*
X18764268Y-36336000D01*
X18711942Y-36314326D01*
X18342173Y-35944557D01*
X18320499Y-35892275D01*
X18320499Y-35790820D01*
X18320438Y-35790048D01*
X18320437Y-35787844D01*
X18330750Y-35762903D01*
X18340083Y-35737584D01*
X18341488Y-35736935D01*
X18342080Y-35735505D01*
X18367010Y-35725161D01*
X18391511Y-35713858D01*
X18394390Y-35713800D01*
X19556768Y-35713800D01*
X19609094Y-35735474D01*
G37*
%TD.AperFunction*%
%TA.AperFunction,Conductor*%
G36*
X8392367Y-35029907D02*
G01*
X8398000Y-35058226D01*
X8398000Y-36252735D01*
X8376326Y-36305061D01*
X8324000Y-36326735D01*
X8316483Y-36326352D01*
X8298351Y-36324500D01*
X8298345Y-36324500D01*
X7938000Y-36324500D01*
X7885674Y-36302826D01*
X7864000Y-36250500D01*
X7864000Y-35364268D01*
X7885674Y-35311942D01*
X7900188Y-35297428D01*
X7951313Y-35246304D01*
X8025565Y-35117696D01*
X8029952Y-35101322D01*
X8064429Y-35056390D01*
X8086988Y-35047900D01*
X8218913Y-35021658D01*
X8295683Y-34989859D01*
X8352318Y-34989859D01*
X8392367Y-35029907D01*
G37*
%TD.AperFunction*%
%TA.AperFunction,Conductor*%
G36*
X13437719Y-34278299D02*
G01*
X13496700Y-34337280D01*
X13518374Y-34389606D01*
X13496700Y-34441932D01*
X13417048Y-34521584D01*
X13334915Y-34644505D01*
X13278343Y-34781082D01*
X13278340Y-34781092D01*
X13249500Y-34926083D01*
X13249500Y-35073916D01*
X13278340Y-35218907D01*
X13278343Y-35218917D01*
X13316975Y-35312182D01*
X13316975Y-35368819D01*
X13276926Y-35408867D01*
X13248608Y-35414500D01*
X12944232Y-35414500D01*
X12797869Y-35453717D01*
X12797860Y-35453721D01*
X12666634Y-35529485D01*
X12033836Y-36162282D01*
X11981510Y-36183956D01*
X11944510Y-36174042D01*
X11892339Y-36143921D01*
X11892330Y-36143917D01*
X11745968Y-36104700D01*
X11745966Y-36104700D01*
X11649500Y-36104700D01*
X11597174Y-36083026D01*
X11575500Y-36030700D01*
X11575500Y-34358229D01*
X11597174Y-34305903D01*
X11649500Y-34284229D01*
X11654956Y-34284430D01*
X12187094Y-34323848D01*
X12233952Y-34345319D01*
X12271584Y-34382951D01*
X12394505Y-34465084D01*
X12531087Y-34521658D01*
X12676082Y-34550500D01*
X12676084Y-34550500D01*
X12823916Y-34550500D01*
X12823918Y-34550500D01*
X12968913Y-34521658D01*
X13105495Y-34465084D01*
X13228416Y-34382951D01*
X13332951Y-34278416D01*
X13332953Y-34278412D01*
X13333067Y-34278299D01*
X13385393Y-34256625D01*
X13437719Y-34278299D01*
G37*
%TD.AperFunction*%
%TA.AperFunction,Conductor*%
G36*
X30727826Y-30411105D02*
G01*
X30749500Y-30463431D01*
X30749500Y-30583918D01*
X30759026Y-30631811D01*
X30778340Y-30728907D01*
X30778343Y-30728917D01*
X30834915Y-30865494D01*
X30893106Y-30952582D01*
X30917049Y-30988416D01*
X31021584Y-31092951D01*
X31144505Y-31175084D01*
X31266006Y-31225411D01*
X31306055Y-31265459D01*
X31306055Y-31322096D01*
X31290014Y-31346104D01*
X26708292Y-35927826D01*
X26655966Y-35949500D01*
X25974999Y-35949500D01*
X25974993Y-35949500D01*
X25974992Y-35949501D01*
X25923597Y-35954751D01*
X25872202Y-35960001D01*
X25790668Y-35987019D01*
X25705666Y-36015186D01*
X25631573Y-36060887D01*
X25573948Y-36096430D01*
X25518034Y-36105452D01*
X25472117Y-36072295D01*
X25461100Y-36033447D01*
X25461100Y-35603831D01*
X25482773Y-35551506D01*
X30623174Y-30411104D01*
X30675500Y-30389431D01*
X30727826Y-30411105D01*
G37*
%TD.AperFunction*%
%TA.AperFunction,Conductor*%
G36*
X20806394Y-33020474D02*
G01*
X20806794Y-33020874D01*
X20828468Y-33073200D01*
X20806794Y-33125526D01*
X20754468Y-33147200D01*
X20274500Y-33147200D01*
X20222174Y-33125526D01*
X20200500Y-33073385D01*
X20200499Y-33072985D01*
X20222042Y-33020605D01*
X20274314Y-32998800D01*
X20754068Y-32998800D01*
X20806394Y-33020474D01*
G37*
%TD.AperFunction*%
%TA.AperFunction,Conductor*%
G36*
X22902926Y-31263093D02*
G01*
X22924600Y-31315419D01*
X22924600Y-32002068D01*
X22902926Y-32054394D01*
X22869494Y-32087826D01*
X22817168Y-32109500D01*
X22130732Y-32109500D01*
X22078406Y-32087826D01*
X21804556Y-31813976D01*
X21782882Y-31761650D01*
X21804556Y-31709324D01*
X21816706Y-31697174D01*
X21869032Y-31675500D01*
X21975768Y-31675500D01*
X21975768Y-31675499D01*
X22122135Y-31636281D01*
X22253365Y-31560515D01*
X22344894Y-31468985D01*
X22382776Y-31448737D01*
X22518913Y-31421658D01*
X22655495Y-31365084D01*
X22778416Y-31282951D01*
X22798274Y-31263093D01*
X22850600Y-31241419D01*
X22902926Y-31263093D01*
G37*
%TD.AperFunction*%
%TA.AperFunction,Conductor*%
G36*
X12902794Y-29297174D02*
G01*
X12924468Y-29349500D01*
X12902794Y-29401826D01*
X10329807Y-31974812D01*
X10277481Y-31996486D01*
X10225155Y-31974812D01*
X10209114Y-31950804D01*
X10203098Y-31936281D01*
X10165084Y-31844505D01*
X10082951Y-31721584D01*
X9978416Y-31617049D01*
X9916234Y-31575500D01*
X9855494Y-31534915D01*
X9718917Y-31478343D01*
X9718907Y-31478340D01*
X9621811Y-31459026D01*
X9573918Y-31449500D01*
X9443031Y-31449500D01*
X9390705Y-31427826D01*
X9369031Y-31375500D01*
X9390705Y-31323174D01*
X10324449Y-30389431D01*
X11416706Y-29297174D01*
X11469032Y-29275500D01*
X12850468Y-29275500D01*
X12902794Y-29297174D01*
G37*
%TD.AperFunction*%
%TA.AperFunction,Conductor*%
G36*
X26838452Y-27909278D02*
G01*
X26859493Y-27951945D01*
X26864548Y-27990341D01*
X26864548Y-28009659D01*
X26859171Y-28050500D01*
X26849500Y-28123960D01*
X26849500Y-28376040D01*
X26852647Y-28399940D01*
X26864634Y-28490997D01*
X26864634Y-28490998D01*
X26923883Y-28634038D01*
X26923884Y-28634039D01*
X27018130Y-28756864D01*
X27018135Y-28756869D01*
X27140960Y-28851115D01*
X27140961Y-28851116D01*
X27140962Y-28851116D01*
X27140963Y-28851117D01*
X27284001Y-28910365D01*
X27398960Y-28925500D01*
X27410712Y-28925500D01*
X27463038Y-28947174D01*
X27472241Y-28958388D01*
X27499696Y-28999478D01*
X27604232Y-29104014D01*
X27727153Y-29186147D01*
X27785620Y-29210365D01*
X27863735Y-29242721D01*
X28008730Y-29271563D01*
X28008742Y-29271563D01*
X28009433Y-29271631D01*
X28009646Y-29271744D01*
X28012296Y-29272272D01*
X28012136Y-29273075D01*
X28059387Y-29298322D01*
X28075836Y-29352518D01*
X28054517Y-29397602D01*
X26627326Y-30824794D01*
X26575000Y-30846468D01*
X26522674Y-30824794D01*
X26501000Y-30772468D01*
X26501000Y-30094134D01*
X26500998Y-30094123D01*
X26500923Y-30093850D01*
X26461781Y-29947765D01*
X26458751Y-29942517D01*
X26386015Y-29816535D01*
X26278865Y-29709385D01*
X25921306Y-29351826D01*
X25899632Y-29299500D01*
X25921306Y-29247174D01*
X25973632Y-29225500D01*
X26126038Y-29225500D01*
X26126040Y-29225500D01*
X26240999Y-29210365D01*
X26384037Y-29151117D01*
X26506867Y-29056867D01*
X26601117Y-28934037D01*
X26660365Y-28790999D01*
X26675500Y-28676040D01*
X26675500Y-28148960D01*
X26664277Y-28063718D01*
X26659732Y-28029192D01*
X26661289Y-28028986D01*
X26664290Y-28006670D01*
X26667976Y-27978669D01*
X26668064Y-27978601D01*
X26668079Y-27978491D01*
X26679733Y-27963346D01*
X26733802Y-27909276D01*
X26786126Y-27887604D01*
X26838452Y-27909278D01*
G37*
%TD.AperFunction*%
%TA.AperFunction,Conductor*%
G36*
X39292685Y-12097454D02*
G01*
X39301515Y-12104995D01*
X42088526Y-14892006D01*
X42110200Y-14944332D01*
X42110200Y-20495267D01*
X42088526Y-20547593D01*
X34039469Y-28596649D01*
X34032466Y-28599549D01*
X34028255Y-28605852D01*
X34007084Y-28610062D01*
X33987143Y-28618323D01*
X33980140Y-28615422D01*
X33972706Y-28616901D01*
X33954759Y-28604909D01*
X33934817Y-28596649D01*
X33925618Y-28585440D01*
X33887970Y-28529096D01*
X33875500Y-28487985D01*
X33875500Y-25924233D01*
X33874025Y-25918729D01*
X33874025Y-25918730D01*
X33836281Y-25777865D01*
X33817721Y-25745719D01*
X33760515Y-25646635D01*
X33653365Y-25539485D01*
X33497174Y-25383294D01*
X33475500Y-25330968D01*
X33475500Y-25024233D01*
X33474073Y-25018909D01*
X33474073Y-25018910D01*
X33436281Y-24877865D01*
X33427918Y-24863380D01*
X33418413Y-24846916D01*
X33418346Y-24846801D01*
X33418250Y-24846635D01*
X33360515Y-24746635D01*
X33358905Y-24745025D01*
X33355360Y-24738955D01*
X33354830Y-24735080D01*
X33347782Y-24720790D01*
X33336281Y-24677865D01*
X33308168Y-24629172D01*
X33260516Y-24546636D01*
X33197174Y-24483294D01*
X33175500Y-24430968D01*
X33175500Y-24324234D01*
X33172384Y-24312606D01*
X33166618Y-24291087D01*
X33136281Y-24177865D01*
X33107512Y-24128036D01*
X33060515Y-24046635D01*
X33058926Y-24045046D01*
X33055399Y-24039021D01*
X33054866Y-24035153D01*
X33047782Y-24020790D01*
X33036281Y-23977865D01*
X32976176Y-23873760D01*
X32960516Y-23846636D01*
X32897174Y-23783294D01*
X32877347Y-23747399D01*
X32875500Y-23739288D01*
X32875500Y-23724234D01*
X32852659Y-23638991D01*
X32852347Y-23637618D01*
X32852525Y-23636572D01*
X32850500Y-23621187D01*
X32850500Y-23526083D01*
X32847704Y-23512029D01*
X32821658Y-23381087D01*
X32820086Y-23377293D01*
X32765084Y-23244505D01*
X32682951Y-23121584D01*
X32578415Y-23017048D01*
X32455494Y-22934915D01*
X32318917Y-22878343D01*
X32318907Y-22878340D01*
X32221811Y-22859026D01*
X32173918Y-22849500D01*
X32026082Y-22849500D01*
X31984977Y-22857676D01*
X31881092Y-22878340D01*
X31881082Y-22878343D01*
X31744505Y-22934915D01*
X31621584Y-23017048D01*
X31621583Y-23017050D01*
X31517050Y-23121583D01*
X31517048Y-23121584D01*
X31434915Y-23244505D01*
X31378343Y-23381082D01*
X31378340Y-23381092D01*
X31361663Y-23464937D01*
X31330197Y-23512029D01*
X31289085Y-23524500D01*
X30924233Y-23524500D01*
X30789825Y-23560513D01*
X30789826Y-23560514D01*
X30777865Y-23563719D01*
X30777860Y-23563721D01*
X30646637Y-23639483D01*
X29883294Y-24402826D01*
X29830968Y-24424500D01*
X27016332Y-24424500D01*
X26964006Y-24402826D01*
X26942332Y-24350500D01*
X26964006Y-24298174D01*
X28772484Y-22489696D01*
X34162184Y-17099994D01*
X36624500Y-17099994D01*
X36624500Y-17900000D01*
X36624500Y-17900005D01*
X36624501Y-17900008D01*
X36635001Y-18002797D01*
X36690186Y-18169334D01*
X36782288Y-18318656D01*
X36906344Y-18442712D01*
X37055666Y-18534814D01*
X37222203Y-18589999D01*
X37324991Y-18600500D01*
X38675008Y-18600499D01*
X38777797Y-18589999D01*
X38944334Y-18534814D01*
X39093656Y-18442712D01*
X39217712Y-18318656D01*
X39309814Y-18169334D01*
X39364999Y-18002797D01*
X39375500Y-17900009D01*
X39375499Y-17099992D01*
X39364999Y-16997203D01*
X39309814Y-16830666D01*
X39217712Y-16681344D01*
X39093656Y-16557288D01*
X38944334Y-16465186D01*
X38829492Y-16427131D01*
X38777798Y-16410001D01*
X38760665Y-16408250D01*
X38675009Y-16399500D01*
X38675004Y-16399500D01*
X37324999Y-16399500D01*
X37324993Y-16399500D01*
X37324992Y-16399501D01*
X37273597Y-16404751D01*
X37222202Y-16410001D01*
X37055666Y-16465186D01*
X36906344Y-16557288D01*
X36782288Y-16681344D01*
X36690186Y-16830666D01*
X36635001Y-16997201D01*
X36624500Y-17099994D01*
X34162184Y-17099994D01*
X36913973Y-14348204D01*
X36966298Y-14326531D01*
X37009790Y-14340662D01*
X37148212Y-14441232D01*
X37297186Y-14517137D01*
X37302553Y-14519872D01*
X37302557Y-14519874D01*
X37467288Y-14573399D01*
X37467294Y-14573400D01*
X37467299Y-14573402D01*
X37581359Y-14591467D01*
X37638388Y-14600500D01*
X37638389Y-14600500D01*
X38361612Y-14600500D01*
X38404383Y-14593725D01*
X38532701Y-14573402D01*
X38532708Y-14573399D01*
X38532711Y-14573399D01*
X38697442Y-14519874D01*
X38697442Y-14519873D01*
X38697445Y-14519873D01*
X38851788Y-14441232D01*
X38991928Y-14339414D01*
X39114414Y-14216928D01*
X39216232Y-14076788D01*
X39294873Y-13922445D01*
X39308264Y-13881231D01*
X39348399Y-13757711D01*
X39348399Y-13757708D01*
X39348402Y-13757701D01*
X39375500Y-13586611D01*
X39375500Y-13413389D01*
X39373564Y-13401168D01*
X39354111Y-13278343D01*
X39348402Y-13242299D01*
X39348400Y-13242294D01*
X39348399Y-13242288D01*
X39294874Y-13077557D01*
X39294872Y-13077553D01*
X39216232Y-12923212D01*
X39114417Y-12783076D01*
X39114416Y-12783075D01*
X39114414Y-12783072D01*
X38991928Y-12660586D01*
X38991925Y-12660583D01*
X38991923Y-12660582D01*
X38923669Y-12610993D01*
X38853299Y-12559866D01*
X38823707Y-12511576D01*
X38836929Y-12456504D01*
X38853298Y-12440134D01*
X38991928Y-12339414D01*
X39114414Y-12216928D01*
X39189323Y-12113823D01*
X39237613Y-12084232D01*
X39292685Y-12097454D01*
G37*
%TD.AperFunction*%
%TA.AperFunction,Conductor*%
G36*
X16527826Y-27397174D02*
G01*
X16549500Y-27449500D01*
X16549500Y-27573918D01*
X16558080Y-27617050D01*
X16578340Y-27718907D01*
X16578343Y-27718917D01*
X16634915Y-27855494D01*
X16670926Y-27909388D01*
X16681975Y-27964937D01*
X16650509Y-28012029D01*
X16609397Y-28024500D01*
X13824233Y-28024500D01*
X13708538Y-28055500D01*
X13708537Y-28055499D01*
X13677868Y-28063718D01*
X13677860Y-28063721D01*
X13589761Y-28114586D01*
X13552761Y-28124500D01*
X11704629Y-28124500D01*
X11652303Y-28102826D01*
X11630629Y-28050500D01*
X11635322Y-28026899D01*
X11635025Y-28026820D01*
X11636242Y-28022276D01*
X11636261Y-28022183D01*
X11636279Y-28022138D01*
X11636278Y-28022138D01*
X11636281Y-28022135D01*
X11644655Y-27990884D01*
X11675500Y-27875767D01*
X11675500Y-27724234D01*
X11675500Y-27449500D01*
X11697174Y-27397174D01*
X11749500Y-27375500D01*
X16475500Y-27375500D01*
X16527826Y-27397174D01*
G37*
%TD.AperFunction*%
%TA.AperFunction,Conductor*%
G36*
X43377826Y-21624441D02*
G01*
X43399500Y-21676767D01*
X43399500Y-27665300D01*
X43377826Y-27717626D01*
X43325500Y-27739300D01*
X37490232Y-27739300D01*
X37343869Y-27778517D01*
X37343856Y-27778522D01*
X37298836Y-27804515D01*
X37242684Y-27811907D01*
X37197751Y-27777428D01*
X37190359Y-27721276D01*
X37209509Y-27688105D01*
X43273175Y-21624440D01*
X43325500Y-21602767D01*
X43377826Y-21624441D01*
G37*
%TD.AperFunction*%
%TA.AperFunction,Conductor*%
G36*
X21576825Y-25029970D02*
G01*
X21592866Y-25053977D01*
X21634916Y-25155495D01*
X21714973Y-25275310D01*
X21717049Y-25278416D01*
X21821584Y-25382951D01*
X21944505Y-25465084D01*
X22081087Y-25521658D01*
X22226082Y-25550500D01*
X22226084Y-25550500D01*
X22373916Y-25550500D01*
X22373918Y-25550500D01*
X22518913Y-25521658D01*
X22655495Y-25465084D01*
X22778416Y-25382951D01*
X22800674Y-25360693D01*
X22853000Y-25339019D01*
X22905326Y-25360693D01*
X22927000Y-25413019D01*
X22927000Y-26625500D01*
X22905326Y-26677826D01*
X22853000Y-26699500D01*
X22765310Y-26699500D01*
X22756234Y-26700214D01*
X22729004Y-26702357D01*
X22573603Y-26747506D01*
X22434312Y-26829883D01*
X22319883Y-26944312D01*
X22237506Y-27083603D01*
X22192357Y-27239004D01*
X22189500Y-27275310D01*
X22189500Y-27445968D01*
X22167826Y-27498294D01*
X22154094Y-27512026D01*
X22101768Y-27533700D01*
X21524499Y-27533700D01*
X21472173Y-27512026D01*
X21450499Y-27459700D01*
X21450499Y-27452126D01*
X21445376Y-27404475D01*
X21444091Y-27392517D01*
X21409905Y-27300859D01*
X21409905Y-27249140D01*
X21444091Y-27157483D01*
X21450500Y-27097873D01*
X21450499Y-26602128D01*
X21444091Y-26542517D01*
X21409905Y-26450859D01*
X21409905Y-26399140D01*
X21433643Y-26335495D01*
X21444091Y-26307483D01*
X21450500Y-26247873D01*
X21450499Y-25752128D01*
X21444091Y-25692517D01*
X21409905Y-25600859D01*
X21409905Y-25549140D01*
X21441256Y-25465084D01*
X21444091Y-25457483D01*
X21450500Y-25397873D01*
X21450499Y-25082295D01*
X21472173Y-25029970D01*
X21524499Y-25008296D01*
X21576825Y-25029970D01*
G37*
%TD.AperFunction*%
%TA.AperFunction,Conductor*%
G36*
X48108087Y-22822863D02*
G01*
X48115365Y-22829245D01*
X49598726Y-24312606D01*
X49620400Y-24364932D01*
X49620400Y-26825500D01*
X49598726Y-26877826D01*
X49546400Y-26899500D01*
X44674500Y-26899500D01*
X44622174Y-26877826D01*
X44600500Y-26825500D01*
X44600500Y-25915229D01*
X44604179Y-25906345D01*
X44602825Y-25896824D01*
X44614642Y-25881084D01*
X44622174Y-25862903D01*
X44631057Y-25859223D01*
X44636832Y-25851533D01*
X44656317Y-25848760D01*
X44674500Y-25841229D01*
X44683383Y-25844908D01*
X44692905Y-25843554D01*
X44708644Y-25855371D01*
X44726826Y-25862903D01*
X44738196Y-25877561D01*
X44739196Y-25879252D01*
X44749500Y-25916920D01*
X44749500Y-26053918D01*
X44751721Y-26065084D01*
X44778340Y-26198907D01*
X44778343Y-26198917D01*
X44834915Y-26335494D01*
X44877061Y-26398569D01*
X44917049Y-26458416D01*
X45021584Y-26562951D01*
X45144505Y-26645084D01*
X45281087Y-26701658D01*
X45426082Y-26730500D01*
X45426084Y-26730500D01*
X45573916Y-26730500D01*
X45573918Y-26730500D01*
X45718913Y-26701658D01*
X45855495Y-26645084D01*
X45978416Y-26562951D01*
X46082951Y-26458416D01*
X46165084Y-26335495D01*
X46221658Y-26198913D01*
X46248617Y-26063381D01*
X46280081Y-26016291D01*
X46335630Y-26005242D01*
X46347054Y-26008486D01*
X46367981Y-26016291D01*
X46442517Y-26044091D01*
X46502127Y-26050500D01*
X46800230Y-26050499D01*
X46841339Y-26062968D01*
X46844505Y-26065084D01*
X46844507Y-26065085D01*
X46844509Y-26065086D01*
X46888692Y-26083387D01*
X46981087Y-26121658D01*
X47126082Y-26150500D01*
X47126084Y-26150500D01*
X47273916Y-26150500D01*
X47273918Y-26150500D01*
X47418913Y-26121658D01*
X47555495Y-26065084D01*
X47646990Y-26003948D01*
X47702538Y-25992899D01*
X47713960Y-25996142D01*
X47842517Y-26044091D01*
X47902127Y-26050500D01*
X47960843Y-26050499D01*
X48013169Y-26072172D01*
X48022373Y-26083387D01*
X48047944Y-26121658D01*
X48051170Y-26126485D01*
X48155705Y-26231020D01*
X48278626Y-26313153D01*
X48415208Y-26369727D01*
X48560203Y-26398569D01*
X48560205Y-26398569D01*
X48708037Y-26398569D01*
X48708039Y-26398569D01*
X48853034Y-26369727D01*
X48989616Y-26313153D01*
X49112537Y-26231020D01*
X49217072Y-26126485D01*
X49299205Y-26003564D01*
X49355779Y-25866982D01*
X49384621Y-25721987D01*
X49384621Y-25574151D01*
X49355779Y-25429156D01*
X49299205Y-25292574D01*
X49217072Y-25169653D01*
X49112537Y-25065118D01*
X49109627Y-25063173D01*
X48989615Y-24982984D01*
X48853040Y-24926413D01*
X48853035Y-24926411D01*
X48853034Y-24926411D01*
X48853032Y-24926410D01*
X48850289Y-24925579D01*
X48812530Y-24899112D01*
X48807547Y-24892455D01*
X48788057Y-24877865D01*
X48692331Y-24806204D01*
X48692330Y-24806203D01*
X48692329Y-24806202D01*
X48557487Y-24755910D01*
X48557484Y-24755909D01*
X48557483Y-24755909D01*
X48527678Y-24752704D01*
X48497874Y-24749500D01*
X48497873Y-24749500D01*
X48037134Y-24749500D01*
X47984808Y-24727826D01*
X47963134Y-24675500D01*
X47964556Y-24661064D01*
X47985166Y-24557448D01*
X47985166Y-24524000D01*
X48006840Y-24471674D01*
X48059166Y-24450000D01*
X48250000Y-24450000D01*
X48250000Y-24250000D01*
X47999714Y-24250000D01*
X47947388Y-24228326D01*
X47931347Y-24204318D01*
X47899750Y-24128036D01*
X47817617Y-24005115D01*
X47713081Y-23900579D01*
X47590160Y-23818446D01*
X47453583Y-23761874D01*
X47453573Y-23761871D01*
X47356363Y-23742535D01*
X47308584Y-23733031D01*
X47160748Y-23733031D01*
X47119643Y-23741207D01*
X47015758Y-23761871D01*
X47015748Y-23761874D01*
X46941712Y-23792541D01*
X46939609Y-23792541D01*
X46938044Y-23793948D01*
X46911572Y-23792541D01*
X46885075Y-23792541D01*
X46883587Y-23791053D01*
X46881487Y-23790942D01*
X46871700Y-23779166D01*
X46845027Y-23752492D01*
X46843620Y-23748824D01*
X46842664Y-23746118D01*
X46825565Y-23682304D01*
X46811531Y-23657997D01*
X46809257Y-23651559D01*
X46810425Y-23629576D01*
X46807553Y-23607756D01*
X46811885Y-23602110D01*
X46812263Y-23595002D01*
X46828631Y-23580285D01*
X46842031Y-23562823D01*
X46850611Y-23560523D01*
X46854381Y-23557135D01*
X46861789Y-23557528D01*
X46879031Y-23552909D01*
X46961017Y-23552909D01*
X46961019Y-23552909D01*
X47106014Y-23524067D01*
X47242596Y-23467493D01*
X47365517Y-23385360D01*
X47470052Y-23280825D01*
X47552185Y-23157904D01*
X47580166Y-23090349D01*
X47620212Y-23050302D01*
X47638871Y-23045302D01*
X47709472Y-23036009D01*
X47846429Y-22979279D01*
X47964036Y-22889036D01*
X48004331Y-22836523D01*
X48053380Y-22808204D01*
X48108087Y-22822863D01*
G37*
%TD.AperFunction*%
%TA.AperFunction,Conductor*%
G36*
X25383782Y-25983048D02*
G01*
X25405456Y-26035374D01*
X25399823Y-26063692D01*
X25339635Y-26208998D01*
X25339634Y-26209002D01*
X25324500Y-26323961D01*
X25324500Y-26500500D01*
X25302826Y-26552826D01*
X25250500Y-26574500D01*
X25113300Y-26574500D01*
X25060974Y-26552826D01*
X25039300Y-26500500D01*
X25039300Y-26253531D01*
X25060974Y-26201205D01*
X25164005Y-26098174D01*
X25279131Y-25983047D01*
X25331456Y-25961374D01*
X25383782Y-25983048D01*
G37*
%TD.AperFunction*%
%TA.AperFunction,Conductor*%
G36*
X15783294Y-25797174D02*
G01*
X16084294Y-26098174D01*
X16105968Y-26150500D01*
X16084294Y-26202826D01*
X16031968Y-26224500D01*
X11268031Y-26224500D01*
X11215705Y-26202826D01*
X11194031Y-26150500D01*
X11215705Y-26098174D01*
X11381811Y-25932067D01*
X11453362Y-25860516D01*
X11453365Y-25860515D01*
X11516707Y-25797173D01*
X11538381Y-25788195D01*
X11569032Y-25775500D01*
X15730968Y-25775500D01*
X15783294Y-25797174D01*
G37*
%TD.AperFunction*%
%TA.AperFunction,Conductor*%
G36*
X44711499Y-23384685D02*
G01*
X44782304Y-23425565D01*
X44925748Y-23464000D01*
X45035732Y-23464000D01*
X45088058Y-23485674D01*
X45714326Y-24111942D01*
X45736000Y-24164268D01*
X45736000Y-24625500D01*
X45714326Y-24677826D01*
X45662000Y-24699500D01*
X45265310Y-24699500D01*
X45263163Y-24699669D01*
X45229004Y-24702357D01*
X45073603Y-24747506D01*
X44934312Y-24829883D01*
X44819883Y-24944312D01*
X44738195Y-25082439D01*
X44692903Y-25116445D01*
X44636831Y-25108465D01*
X44602825Y-25063173D01*
X44600500Y-25044770D01*
X44600500Y-23448772D01*
X44607892Y-23430925D01*
X44610414Y-23411772D01*
X44618347Y-23405684D01*
X44622174Y-23396446D01*
X44640021Y-23389053D01*
X44655348Y-23377293D01*
X44665262Y-23378598D01*
X44674500Y-23374772D01*
X44711499Y-23384685D01*
G37*
%TD.AperFunction*%
%TA.AperFunction,Conductor*%
G36*
X25192886Y-22253227D02*
G01*
X25202800Y-22290227D01*
X25202800Y-23089668D01*
X25181126Y-23141994D01*
X24204326Y-24118794D01*
X24152000Y-24140468D01*
X24099674Y-24118794D01*
X24078000Y-24066468D01*
X24078000Y-23416734D01*
X24076264Y-23410257D01*
X24076263Y-23410254D01*
X24038781Y-23270365D01*
X24023851Y-23244505D01*
X24022598Y-23242334D01*
X24022598Y-23242335D01*
X23963017Y-23139138D01*
X23963016Y-23139137D01*
X23963015Y-23139135D01*
X23855865Y-23031985D01*
X23842173Y-23018293D01*
X23820499Y-22965967D01*
X23820499Y-22790820D01*
X23819480Y-22777865D01*
X23817665Y-22754796D01*
X23772869Y-22600607D01*
X23753437Y-22567750D01*
X23743236Y-22550500D01*
X23691135Y-22462402D01*
X23680559Y-22451826D01*
X23658885Y-22399500D01*
X23680559Y-22347174D01*
X23732885Y-22325500D01*
X24841268Y-22325500D01*
X24841268Y-22325499D01*
X24987635Y-22286281D01*
X25091800Y-22226140D01*
X25147952Y-22218748D01*
X25192886Y-22253227D01*
G37*
%TD.AperFunction*%
%TA.AperFunction,Conductor*%
G36*
X36790788Y-12135105D02*
G01*
X36794272Y-12134028D01*
X36816511Y-12145760D01*
X36839745Y-12155384D01*
X36843837Y-12160176D01*
X36844366Y-12160455D01*
X36845888Y-12162289D01*
X36885586Y-12216928D01*
X36918739Y-12250081D01*
X36920934Y-12252726D01*
X36928364Y-12276748D01*
X36937987Y-12299981D01*
X36936591Y-12303350D01*
X36937669Y-12306834D01*
X36916313Y-12352307D01*
X26480126Y-22788494D01*
X26427800Y-22810168D01*
X26375474Y-22788494D01*
X26353800Y-22736168D01*
X26353800Y-22567330D01*
X26375473Y-22515005D01*
X36735094Y-12155383D01*
X36738462Y-12153988D01*
X36740164Y-12150763D01*
X36764186Y-12143332D01*
X36787419Y-12133710D01*
X36790788Y-12135105D01*
G37*
%TD.AperFunction*%
%TA.AperFunction,Conductor*%
G36*
X14000859Y-19859905D02*
G01*
X14019654Y-19866915D01*
X14092517Y-19894091D01*
X14152127Y-19900500D01*
X14647872Y-19900499D01*
X14707483Y-19894091D01*
X14799140Y-19859905D01*
X14850860Y-19859905D01*
X14942517Y-19894091D01*
X15002127Y-19900500D01*
X15497872Y-19900499D01*
X15557483Y-19894091D01*
X15649140Y-19859905D01*
X15700860Y-19859905D01*
X15792517Y-19894091D01*
X15852127Y-19900500D01*
X16347872Y-19900499D01*
X16407483Y-19894091D01*
X16499140Y-19859905D01*
X16550859Y-19859905D01*
X16569654Y-19866915D01*
X16608493Y-19900332D01*
X16633607Y-19945570D01*
X16636494Y-19949467D01*
X16636118Y-19949745D01*
X16636160Y-19949800D01*
X16636532Y-19949516D01*
X16639482Y-19953361D01*
X16639485Y-19953365D01*
X16639488Y-19953368D01*
X16689182Y-20003063D01*
X16690055Y-20003950D01*
X16738938Y-20054506D01*
X16738940Y-20054507D01*
X16738941Y-20054508D01*
X16742738Y-20057525D01*
X16742443Y-20057895D01*
X16749599Y-20063479D01*
X17502826Y-20816706D01*
X17524500Y-20869032D01*
X17524500Y-21275768D01*
X17563717Y-21422130D01*
X17563721Y-21422139D01*
X17607587Y-21498116D01*
X17639485Y-21553365D01*
X18177578Y-22091458D01*
X18584294Y-22498174D01*
X18605968Y-22550500D01*
X18584294Y-22602826D01*
X18531968Y-22624500D01*
X17747239Y-22624500D01*
X17710239Y-22614586D01*
X17637554Y-22572621D01*
X17622228Y-22560861D01*
X17578415Y-22517048D01*
X17455494Y-22434915D01*
X17318917Y-22378343D01*
X17318907Y-22378340D01*
X17221811Y-22359026D01*
X17173918Y-22349500D01*
X17026082Y-22349500D01*
X16984977Y-22357676D01*
X16881092Y-22378340D01*
X16881082Y-22378343D01*
X16744505Y-22434915D01*
X16621584Y-22517048D01*
X16590231Y-22548401D01*
X16537905Y-22570074D01*
X16485580Y-22548400D01*
X13919812Y-19982632D01*
X13913694Y-19967863D01*
X13902803Y-19956164D01*
X13903283Y-19942727D01*
X13898138Y-19930306D01*
X13904255Y-19915538D01*
X13904826Y-19899563D01*
X13914666Y-19890401D01*
X13919812Y-19877980D01*
X13946276Y-19860973D01*
X13949143Y-19859904D01*
X14000859Y-19859905D01*
G37*
%TD.AperFunction*%
%TA.AperFunction,Conductor*%
G36*
X24999694Y-20597274D02*
G01*
X25021368Y-20649600D01*
X24999694Y-20701926D01*
X24548794Y-21152826D01*
X24496468Y-21174500D01*
X23816684Y-21174500D01*
X23764358Y-21152826D01*
X23742684Y-21100500D01*
X23744106Y-21086064D01*
X23750500Y-21053917D01*
X23750500Y-20916919D01*
X23760807Y-20879247D01*
X23762494Y-20876395D01*
X23807643Y-20720993D01*
X23810500Y-20684690D01*
X23810500Y-20649600D01*
X23832174Y-20597274D01*
X23884500Y-20575600D01*
X24947368Y-20575600D01*
X24999694Y-20597274D01*
G37*
%TD.AperFunction*%
%TA.AperFunction,Conductor*%
G36*
X23283294Y-19097174D02*
G01*
X23484394Y-19298274D01*
X23506068Y-19350600D01*
X23484394Y-19402926D01*
X23432068Y-19424600D01*
X22567932Y-19424600D01*
X22515606Y-19402926D01*
X22493932Y-19350600D01*
X22515606Y-19298274D01*
X22716706Y-19097174D01*
X22769032Y-19075500D01*
X23230968Y-19075500D01*
X23283294Y-19097174D01*
G37*
%TD.AperFunction*%
%TA.AperFunction,Conductor*%
G36*
X29302826Y-11585905D02*
G01*
X29324500Y-11638231D01*
X29324500Y-13375768D01*
X29363717Y-13522130D01*
X29363721Y-13522139D01*
X29439483Y-13653362D01*
X29439485Y-13653365D01*
X29664713Y-13878593D01*
X29831011Y-14044891D01*
X29851263Y-14082780D01*
X29878340Y-14218907D01*
X29878343Y-14218917D01*
X29934915Y-14355494D01*
X30017048Y-14478415D01*
X30060050Y-14521417D01*
X30081724Y-14573743D01*
X30060050Y-14626069D01*
X25349976Y-19336143D01*
X25297650Y-19357817D01*
X25245324Y-19336143D01*
X25225072Y-19298254D01*
X25221658Y-19281087D01*
X25165084Y-19144505D01*
X25082951Y-19021584D01*
X24978416Y-18917049D01*
X24899023Y-18864000D01*
X24855494Y-18834915D01*
X24718917Y-18778343D01*
X24718907Y-18778340D01*
X24609365Y-18756551D01*
X24582779Y-18751262D01*
X24544891Y-18731011D01*
X24256589Y-18442709D01*
X23853365Y-18039485D01*
X23853362Y-18039483D01*
X23722139Y-17963721D01*
X23722130Y-17963717D01*
X23575768Y-17924500D01*
X23575766Y-17924500D01*
X23038232Y-17924500D01*
X22985906Y-17902826D01*
X22964232Y-17850500D01*
X22985906Y-17798174D01*
X29198174Y-11585905D01*
X29250500Y-11564231D01*
X29302826Y-11585905D01*
G37*
%TD.AperFunction*%
%TA.AperFunction,Conductor*%
G36*
X21291194Y-18790274D02*
G01*
X21312868Y-18842600D01*
X21291194Y-18894926D01*
X21183294Y-19002826D01*
X21130968Y-19024500D01*
X20274500Y-19024500D01*
X20222174Y-19002826D01*
X20200500Y-18950501D01*
X20200499Y-18842601D01*
X20222173Y-18790275D01*
X20274498Y-18768600D01*
X21238868Y-18768600D01*
X21291194Y-18790274D01*
G37*
%TD.AperFunction*%
%TA.AperFunction,Conductor*%
G36*
X36751519Y-6873874D02*
G01*
X36773193Y-6926200D01*
X36765128Y-6959795D01*
X36705127Y-7077553D01*
X36705125Y-7077557D01*
X36651600Y-7242288D01*
X36651597Y-7242301D01*
X36624500Y-7413388D01*
X36624500Y-7586611D01*
X36651597Y-7757698D01*
X36651600Y-7757711D01*
X36705471Y-7923507D01*
X36701027Y-7979969D01*
X36687419Y-7998700D01*
X31226069Y-13460050D01*
X31173743Y-13481724D01*
X31121417Y-13460050D01*
X31078415Y-13417048D01*
X30955494Y-13334915D01*
X30818917Y-13278343D01*
X30818907Y-13278340D01*
X30709365Y-13256551D01*
X30682779Y-13251262D01*
X30644891Y-13231011D01*
X30497174Y-13083294D01*
X30475500Y-13030968D01*
X30475500Y-11512014D01*
X30487970Y-11470903D01*
X30565084Y-11355495D01*
X30621658Y-11218913D01*
X30650500Y-11073918D01*
X30650500Y-10926082D01*
X30621658Y-10781087D01*
X30565084Y-10644505D01*
X30482951Y-10521584D01*
X30425049Y-10463682D01*
X30403375Y-10411356D01*
X30425049Y-10359030D01*
X33910206Y-6873874D01*
X33962532Y-6852200D01*
X36699193Y-6852200D01*
X36751519Y-6873874D01*
G37*
%TD.AperFunction*%
%TA.AperFunction,Conductor*%
G36*
X15578326Y-321674D02*
G01*
X15600000Y-374000D01*
X15600000Y-8400000D01*
X20400000Y-8400000D01*
X20400000Y-6025311D01*
X22499500Y-6025311D01*
X22499500Y-6574690D01*
X22502357Y-6610996D01*
X22547508Y-6766404D01*
X22549331Y-6770616D01*
X22550218Y-6827246D01*
X22549331Y-6829386D01*
X22547508Y-6833597D01*
X22502357Y-6989005D01*
X22499500Y-7025311D01*
X22499500Y-7574690D01*
X22502357Y-7610996D01*
X22547507Y-7766400D01*
X22549330Y-7770612D01*
X22550219Y-7827242D01*
X22549331Y-7829385D01*
X22547508Y-7833596D01*
X22502357Y-7989004D01*
X22499500Y-8025310D01*
X22499500Y-8574689D01*
X22502357Y-8610995D01*
X22547508Y-8766403D01*
X22549331Y-8770615D01*
X22550218Y-8827245D01*
X22549331Y-8829385D01*
X22547508Y-8833596D01*
X22502357Y-8989004D01*
X22499500Y-9025310D01*
X22499500Y-9574689D01*
X22502357Y-9610995D01*
X22547506Y-9766396D01*
X22582161Y-9824994D01*
X22629883Y-9905687D01*
X22744313Y-10020117D01*
X22883605Y-10102494D01*
X23039007Y-10147643D01*
X23075310Y-10150500D01*
X23075311Y-10150500D01*
X25074689Y-10150500D01*
X25074690Y-10150500D01*
X25110993Y-10147643D01*
X25266395Y-10102494D01*
X25405687Y-10020117D01*
X25405687Y-10020116D01*
X25409694Y-10017747D01*
X25410482Y-10019079D01*
X25459765Y-10005590D01*
X25508965Y-10033645D01*
X25524500Y-10079008D01*
X25524500Y-10548336D01*
X25524501Y-10548342D01*
X25534651Y-10647708D01*
X25534652Y-10647713D01*
X25587996Y-10808695D01*
X25660401Y-10926082D01*
X25677032Y-10953044D01*
X25796956Y-11072968D01*
X25796958Y-11072969D01*
X25800336Y-11075640D01*
X25799486Y-11076713D01*
X25825093Y-11106780D01*
X25834915Y-11130494D01*
X25893998Y-11218917D01*
X25917049Y-11253416D01*
X26021584Y-11357951D01*
X26144505Y-11440084D01*
X26281087Y-11496658D01*
X26426082Y-11525500D01*
X26426084Y-11525500D01*
X26573916Y-11525500D01*
X26573918Y-11525500D01*
X26718913Y-11496658D01*
X26855495Y-11440084D01*
X26978416Y-11357951D01*
X27082951Y-11253416D01*
X27165084Y-11130495D01*
X27174906Y-11106780D01*
X27200511Y-11076715D01*
X27199662Y-11075642D01*
X27203044Y-11072968D01*
X27250702Y-11025310D01*
X27322968Y-10953044D01*
X27412003Y-10808697D01*
X27465349Y-10647708D01*
X27475500Y-10548345D01*
X27475499Y-10001656D01*
X27465349Y-9902292D01*
X27412003Y-9741303D01*
X27322968Y-9596956D01*
X27203044Y-9477032D01*
X27203043Y-9477031D01*
X27058695Y-9387996D01*
X26897710Y-9334651D01*
X26869318Y-9331750D01*
X26798345Y-9324500D01*
X26798340Y-9324500D01*
X26201663Y-9324500D01*
X26201657Y-9324500D01*
X26201656Y-9324501D01*
X26151974Y-9329576D01*
X26102291Y-9334651D01*
X26102286Y-9334652D01*
X25941304Y-9387996D01*
X25796956Y-9477031D01*
X25776826Y-9497162D01*
X25724500Y-9518836D01*
X25672174Y-9497162D01*
X25650500Y-9444836D01*
X25650500Y-9025310D01*
X25650091Y-9020116D01*
X25647643Y-8989007D01*
X25602494Y-8833605D01*
X25602492Y-8833603D01*
X25602492Y-8833600D01*
X25600671Y-8829392D01*
X25599778Y-8772762D01*
X25600671Y-8770608D01*
X25602492Y-8766399D01*
X25602493Y-8766396D01*
X25602494Y-8766395D01*
X25647643Y-8610993D01*
X25650500Y-8574690D01*
X25650500Y-8025310D01*
X25647643Y-7989007D01*
X25645017Y-7979969D01*
X25636353Y-7950145D01*
X25642568Y-7893850D01*
X25686770Y-7858438D01*
X25707415Y-7855500D01*
X25987985Y-7855500D01*
X26029096Y-7867970D01*
X26144505Y-7945084D01*
X26281087Y-8001658D01*
X26426082Y-8030500D01*
X26426084Y-8030500D01*
X26573916Y-8030500D01*
X26573918Y-8030500D01*
X26718913Y-8001658D01*
X26855495Y-7945084D01*
X26978416Y-7862951D01*
X27082951Y-7758416D01*
X27165084Y-7635495D01*
X27221658Y-7498913D01*
X27250500Y-7353918D01*
X27250500Y-7216919D01*
X27260807Y-7179247D01*
X27262494Y-7176395D01*
X27307643Y-7020993D01*
X27310500Y-6984690D01*
X27310500Y-6575310D01*
X27307643Y-6539007D01*
X27262494Y-6383605D01*
X27180117Y-6244313D01*
X27065687Y-6129883D01*
X26982185Y-6080500D01*
X26926396Y-6047506D01*
X26770995Y-6002357D01*
X26738222Y-5999778D01*
X26734690Y-5999500D01*
X26265310Y-5999500D01*
X26261778Y-5999778D01*
X26229004Y-6002357D01*
X26073603Y-6047506D01*
X25934312Y-6129883D01*
X25819885Y-6244310D01*
X25788195Y-6297895D01*
X25742903Y-6331900D01*
X25686830Y-6323920D01*
X25652825Y-6278628D01*
X25650500Y-6260225D01*
X25650500Y-6025311D01*
X25649385Y-6011146D01*
X25647643Y-5989008D01*
X25602494Y-5833606D01*
X25520117Y-5694314D01*
X25405687Y-5579884D01*
X25347050Y-5545206D01*
X25266396Y-5497507D01*
X25110995Y-5452358D01*
X25086791Y-5450453D01*
X25074690Y-5449501D01*
X23075310Y-5449501D01*
X23066234Y-5450215D01*
X23039004Y-5452358D01*
X22883603Y-5497507D01*
X22744312Y-5579884D01*
X22629883Y-5694313D01*
X22547506Y-5833604D01*
X22502357Y-5989005D01*
X22499500Y-6025311D01*
X20400000Y-6025311D01*
X20400000Y-374000D01*
X20421674Y-321674D01*
X20474000Y-300000D01*
X51191127Y-300000D01*
X51229792Y-310905D01*
X51317638Y-364737D01*
X51327032Y-371562D01*
X51485167Y-506621D01*
X51493378Y-514832D01*
X51628437Y-672967D01*
X51635262Y-682361D01*
X51689095Y-770209D01*
X51700000Y-808872D01*
X51700000Y-51191126D01*
X51689095Y-51229791D01*
X51635262Y-51317638D01*
X51628437Y-51327032D01*
X51493378Y-51485167D01*
X51485167Y-51493378D01*
X51327032Y-51628437D01*
X51317638Y-51635262D01*
X51229792Y-51689095D01*
X51191127Y-51700000D01*
X808873Y-51700000D01*
X770208Y-51689095D01*
X682361Y-51635262D01*
X672967Y-51628437D01*
X514832Y-51493378D01*
X506621Y-51485167D01*
X371562Y-51327032D01*
X364743Y-51317648D01*
X310903Y-51229789D01*
X300000Y-51191126D01*
X300000Y-48602126D01*
X869500Y-48602126D01*
X869500Y-49697873D01*
X875909Y-49757485D01*
X926202Y-49892329D01*
X926203Y-49892330D01*
X926204Y-49892331D01*
X1012454Y-50007546D01*
X1127669Y-50093796D01*
X1127670Y-50093797D01*
X1238605Y-50135172D01*
X1262517Y-50144091D01*
X1322127Y-50150500D01*
X2217872Y-50150499D01*
X2277483Y-50144091D01*
X2344907Y-50118943D01*
X2412329Y-50093797D01*
X2412329Y-50093796D01*
X2412331Y-50093796D01*
X2527546Y-50007546D01*
X2613796Y-49892331D01*
X2664091Y-49757483D01*
X2670500Y-49697873D01*
X2670499Y-48602128D01*
X2670499Y-48602126D01*
X3079500Y-48602126D01*
X3079500Y-49697873D01*
X3085909Y-49757485D01*
X3136202Y-49892329D01*
X3136203Y-49892330D01*
X3136204Y-49892331D01*
X3222454Y-50007546D01*
X3337669Y-50093796D01*
X3337670Y-50093797D01*
X3448605Y-50135172D01*
X3472517Y-50144091D01*
X3532127Y-50150500D01*
X4427872Y-50150499D01*
X4487483Y-50144091D01*
X4554907Y-50118943D01*
X4622329Y-50093797D01*
X4622329Y-50093796D01*
X4622331Y-50093796D01*
X4737546Y-50007546D01*
X4823796Y-49892331D01*
X4874091Y-49757483D01*
X4880500Y-49697873D01*
X4880499Y-48602128D01*
X4874091Y-48542517D01*
X4870052Y-48531688D01*
X4823797Y-48407670D01*
X4823796Y-48407669D01*
X4805291Y-48382950D01*
X4737546Y-48292454D01*
X4622331Y-48206204D01*
X4622330Y-48206203D01*
X4622328Y-48206202D01*
X4487487Y-48155910D01*
X4487484Y-48155909D01*
X4487483Y-48155909D01*
X4452297Y-48152126D01*
X17499500Y-48152126D01*
X17499500Y-49247873D01*
X17505909Y-49307485D01*
X17556202Y-49442329D01*
X17556203Y-49442330D01*
X17556204Y-49442331D01*
X17642454Y-49557546D01*
X17757669Y-49643796D01*
X17757670Y-49643797D01*
X17868605Y-49685172D01*
X17892517Y-49694091D01*
X17952127Y-49700500D01*
X18947872Y-49700499D01*
X19007483Y-49694091D01*
X19074907Y-49668943D01*
X19142329Y-49643797D01*
X19142329Y-49643796D01*
X19142331Y-49643796D01*
X19257546Y-49557546D01*
X19343796Y-49442331D01*
X19375442Y-49357485D01*
X19388065Y-49323640D01*
X19426658Y-49282187D01*
X19457399Y-49275500D01*
X19538934Y-49275500D01*
X20424234Y-49275500D01*
X21542601Y-49275500D01*
X21594927Y-49297174D01*
X21611935Y-49323640D01*
X21656202Y-49442329D01*
X21656203Y-49442330D01*
X21656204Y-49442331D01*
X21742454Y-49557546D01*
X21857669Y-49643796D01*
X21857670Y-49643797D01*
X21968605Y-49685172D01*
X21992517Y-49694091D01*
X22052127Y-49700500D01*
X23047872Y-49700499D01*
X23107483Y-49694091D01*
X23174907Y-49668943D01*
X23242329Y-49643797D01*
X23242329Y-49643796D01*
X23242331Y-49643796D01*
X23357546Y-49557546D01*
X23443796Y-49442331D01*
X23494091Y-49307483D01*
X23500500Y-49247873D01*
X23500499Y-48152128D01*
X23500216Y-48149500D01*
X23495199Y-48102826D01*
X23494091Y-48092517D01*
X23494089Y-48092512D01*
X23443797Y-47957670D01*
X23443796Y-47957669D01*
X23430632Y-47940084D01*
X23357546Y-47842454D01*
X23242331Y-47756204D01*
X23242330Y-47756203D01*
X23242329Y-47756202D01*
X23107487Y-47705910D01*
X23107484Y-47705909D01*
X23107483Y-47705909D01*
X23047873Y-47699500D01*
X22052126Y-47699500D01*
X21992514Y-47705909D01*
X21857670Y-47756202D01*
X21857669Y-47756203D01*
X21742454Y-47842454D01*
X21656203Y-47957669D01*
X21656202Y-47957670D01*
X21611935Y-48076360D01*
X21573342Y-48117813D01*
X21542601Y-48124500D01*
X19841271Y-48124500D01*
X19788945Y-48102826D01*
X19779742Y-48091612D01*
X19732951Y-48021584D01*
X19628415Y-47917048D01*
X19505494Y-47834915D01*
X19368917Y-47778343D01*
X19368907Y-47778340D01*
X19257610Y-47756202D01*
X19223918Y-47749500D01*
X19223916Y-47749500D01*
X19137707Y-47749500D01*
X19111847Y-47744834D01*
X19007487Y-47705910D01*
X19007484Y-47705909D01*
X19007483Y-47705909D01*
X18947873Y-47699500D01*
X17952126Y-47699500D01*
X17892514Y-47705909D01*
X17757670Y-47756202D01*
X17757669Y-47756203D01*
X17642454Y-47842454D01*
X17556203Y-47957669D01*
X17556202Y-47957670D01*
X17505910Y-48092512D01*
X17505909Y-48092517D01*
X17499500Y-48152126D01*
X4452297Y-48152126D01*
X4427873Y-48149500D01*
X3532126Y-48149500D01*
X3472514Y-48155909D01*
X3337670Y-48206202D01*
X3337669Y-48206203D01*
X3222454Y-48292454D01*
X3136203Y-48407669D01*
X3136202Y-48407670D01*
X3085910Y-48542512D01*
X3085909Y-48542517D01*
X3079500Y-48602126D01*
X2670499Y-48602126D01*
X2664091Y-48542517D01*
X2660052Y-48531688D01*
X2613797Y-48407670D01*
X2613796Y-48407669D01*
X2595291Y-48382950D01*
X2527546Y-48292454D01*
X2441295Y-48227886D01*
X2412330Y-48206203D01*
X2412329Y-48206202D01*
X2277487Y-48155910D01*
X2277484Y-48155909D01*
X2277483Y-48155909D01*
X2217873Y-48149500D01*
X1322126Y-48149500D01*
X1262514Y-48155909D01*
X1127670Y-48206202D01*
X1127669Y-48206203D01*
X1012454Y-48292454D01*
X926203Y-48407669D01*
X926202Y-48407670D01*
X875910Y-48542512D01*
X875909Y-48542517D01*
X869500Y-48602126D01*
X300000Y-48602126D01*
X300000Y-41302126D01*
X869500Y-41302126D01*
X869500Y-42397873D01*
X875909Y-42457485D01*
X926202Y-42592329D01*
X926203Y-42592330D01*
X926204Y-42592331D01*
X1012454Y-42707546D01*
X1110692Y-42781087D01*
X1127669Y-42793796D01*
X1127670Y-42793797D01*
X1238605Y-42835172D01*
X1262517Y-42844091D01*
X1322127Y-42850500D01*
X2217872Y-42850499D01*
X2277483Y-42844091D01*
X2383841Y-42804422D01*
X2440441Y-42806443D01*
X2479034Y-42847896D01*
X2483700Y-42873756D01*
X2483700Y-42904968D01*
X2522917Y-43051330D01*
X2522921Y-43051339D01*
X2593991Y-43174435D01*
X2598685Y-43182565D01*
X2641682Y-43225562D01*
X2679983Y-43263863D01*
X2701657Y-43316189D01*
X2679983Y-43368515D01*
X2655976Y-43384556D01*
X2561876Y-43423533D01*
X2455331Y-43494723D01*
X2455330Y-43494725D01*
X2364725Y-43585330D01*
X2364723Y-43585331D01*
X2293533Y-43691876D01*
X2244498Y-43810257D01*
X2244497Y-43810260D01*
X2223043Y-43918117D01*
X2219500Y-43935931D01*
X2219500Y-44064069D01*
X2224771Y-44090566D01*
X2244497Y-44189739D01*
X2244498Y-44189742D01*
X2265108Y-44239500D01*
X2293535Y-44308127D01*
X2364724Y-44414669D01*
X2455331Y-44505276D01*
X2561873Y-44576465D01*
X2680256Y-44625501D01*
X2680258Y-44625501D01*
X2680260Y-44625502D01*
X2700636Y-44629555D01*
X2805931Y-44650500D01*
X2805933Y-44650500D01*
X2934067Y-44650500D01*
X2934069Y-44650500D01*
X3039363Y-44629555D01*
X3094912Y-44640604D01*
X3126378Y-44687696D01*
X3127800Y-44702133D01*
X3127800Y-46297866D01*
X3106126Y-46350192D01*
X3053800Y-46371866D01*
X3039364Y-46370444D01*
X2950780Y-46352824D01*
X2934069Y-46349500D01*
X2805931Y-46349500D01*
X2774726Y-46355707D01*
X2680260Y-46374497D01*
X2680257Y-46374498D01*
X2561876Y-46423533D01*
X2455331Y-46494723D01*
X2455330Y-46494725D01*
X2364725Y-46585330D01*
X2364723Y-46585331D01*
X2293533Y-46691876D01*
X2244498Y-46810257D01*
X2244497Y-46810260D01*
X2228323Y-46891574D01*
X2219500Y-46935931D01*
X2219500Y-47064069D01*
X2225472Y-47094089D01*
X2244497Y-47189739D01*
X2244498Y-47189742D01*
X2292737Y-47306202D01*
X2293535Y-47308127D01*
X2364724Y-47414669D01*
X2455331Y-47505276D01*
X2561873Y-47576465D01*
X2680256Y-47625501D01*
X2680258Y-47625501D01*
X2680260Y-47625502D01*
X2722903Y-47633984D01*
X2805931Y-47650500D01*
X2805933Y-47650500D01*
X2934067Y-47650500D01*
X2934069Y-47650500D01*
X3059744Y-47625501D01*
X3178127Y-47576465D01*
X3284669Y-47505276D01*
X3375276Y-47414669D01*
X3446465Y-47308127D01*
X3495501Y-47189744D01*
X3516284Y-47085259D01*
X3547750Y-47038168D01*
X3603298Y-47027119D01*
X3633211Y-47040459D01*
X3637668Y-47043795D01*
X3637670Y-47043797D01*
X3730294Y-47078343D01*
X3772517Y-47094091D01*
X3832127Y-47100500D01*
X5427872Y-47100499D01*
X5487483Y-47094091D01*
X5567982Y-47064067D01*
X5622329Y-47043797D01*
X5622329Y-47043796D01*
X5622331Y-47043796D01*
X5737546Y-46957546D01*
X5823796Y-46842331D01*
X5874091Y-46707483D01*
X5880500Y-46647873D01*
X5880499Y-45852128D01*
X5874091Y-45792517D01*
X5873302Y-45790401D01*
X5823797Y-45657670D01*
X5823796Y-45657669D01*
X5737546Y-45542454D01*
X5651295Y-45477886D01*
X5622330Y-45456203D01*
X5622329Y-45456202D01*
X5487487Y-45405910D01*
X5487484Y-45405909D01*
X5487483Y-45405909D01*
X5457678Y-45402704D01*
X5427874Y-45399500D01*
X5427873Y-45399500D01*
X4352800Y-45399500D01*
X4300474Y-45377826D01*
X4278800Y-45325500D01*
X4278800Y-44174499D01*
X4300474Y-44122173D01*
X4352800Y-44100499D01*
X5427872Y-44100499D01*
X5487483Y-44094091D01*
X5571741Y-44062665D01*
X5622329Y-44043797D01*
X5622329Y-44043796D01*
X5622331Y-44043796D01*
X5737546Y-43957546D01*
X5823796Y-43842331D01*
X5853892Y-43761636D01*
X5886226Y-43723412D01*
X5908565Y-43710515D01*
X6015715Y-43603365D01*
X6091481Y-43472135D01*
X6130699Y-43325768D01*
X6130700Y-43325768D01*
X6130700Y-42506835D01*
X6152374Y-42454509D01*
X6204700Y-42432835D01*
X6257026Y-42454509D01*
X6268393Y-42469163D01*
X6308865Y-42537598D01*
X6402826Y-42631559D01*
X6424500Y-42683884D01*
X6424500Y-46793068D01*
X6463717Y-46939430D01*
X6463721Y-46939439D01*
X6535677Y-47064069D01*
X6539485Y-47070665D01*
X6958785Y-47489965D01*
X7065935Y-47597115D01*
X7197165Y-47672881D01*
X7343531Y-47712099D01*
X7343532Y-47712100D01*
X7343534Y-47712100D01*
X9532968Y-47712100D01*
X9532968Y-47712099D01*
X9679335Y-47672881D01*
X9810565Y-47597115D01*
X9880830Y-47526848D01*
X9933156Y-47505175D01*
X9985482Y-47526849D01*
X10021584Y-47562951D01*
X10144505Y-47645084D01*
X10275879Y-47699501D01*
X10281087Y-47701658D01*
X10426082Y-47730500D01*
X10426084Y-47730500D01*
X10573916Y-47730500D01*
X10573918Y-47730500D01*
X10718913Y-47701658D01*
X10855495Y-47645084D01*
X10978416Y-47562951D01*
X11082951Y-47458416D01*
X11165084Y-47335495D01*
X11221658Y-47198913D01*
X11250500Y-47053918D01*
X11250500Y-46906082D01*
X11221658Y-46761087D01*
X11219101Y-46754915D01*
X11165084Y-46624505D01*
X11082951Y-46501584D01*
X11046849Y-46465482D01*
X11025175Y-46413156D01*
X11046849Y-46360830D01*
X11109814Y-46297866D01*
X11205506Y-46202174D01*
X11257832Y-46180500D01*
X11288290Y-46180500D01*
X11340616Y-46202174D01*
X11362290Y-46254500D01*
X11360869Y-46268927D01*
X11349500Y-46326082D01*
X11349500Y-46473918D01*
X11353639Y-46494724D01*
X11378340Y-46618907D01*
X11378343Y-46618917D01*
X11434915Y-46755494D01*
X11517048Y-46878415D01*
X11621584Y-46982951D01*
X11744505Y-47065084D01*
X11830004Y-47100499D01*
X11881087Y-47121658D01*
X12026082Y-47150500D01*
X12026084Y-47150500D01*
X12175500Y-47150500D01*
X12227826Y-47172174D01*
X12249500Y-47224500D01*
X12249500Y-47348918D01*
X12254976Y-47376445D01*
X12278340Y-47493907D01*
X12278343Y-47493917D01*
X12334915Y-47630494D01*
X12411315Y-47744834D01*
X12417049Y-47753416D01*
X12521584Y-47857951D01*
X12644505Y-47940084D01*
X12781087Y-47996658D01*
X12926082Y-48025500D01*
X12926084Y-48025500D01*
X13073916Y-48025500D01*
X13073918Y-48025500D01*
X13218913Y-47996658D01*
X13355495Y-47940084D01*
X13478416Y-47857951D01*
X13582951Y-47753416D01*
X13665084Y-47630495D01*
X13701137Y-47543453D01*
X13741185Y-47503405D01*
X13797822Y-47503405D01*
X13821826Y-47519443D01*
X13853696Y-47551313D01*
X13853698Y-47551314D01*
X13853699Y-47551315D01*
X13897260Y-47576465D01*
X13933027Y-47597115D01*
X13982303Y-47625565D01*
X14125747Y-47664000D01*
X14125748Y-47664000D01*
X17074251Y-47664000D01*
X17074252Y-47664000D01*
X17217696Y-47625565D01*
X17346304Y-47551313D01*
X17451313Y-47446304D01*
X17525565Y-47317696D01*
X17564000Y-47174252D01*
X17564000Y-43327985D01*
X17580799Y-43281037D01*
X17582939Y-43278427D01*
X17582951Y-43278416D01*
X17665084Y-43155495D01*
X17721658Y-43018913D01*
X17750500Y-42873918D01*
X17750500Y-42726082D01*
X17721658Y-42581087D01*
X17665084Y-42444505D01*
X17582951Y-42321584D01*
X17556299Y-42294932D01*
X17534625Y-42242606D01*
X17556299Y-42190280D01*
X17597891Y-42148689D01*
X17669406Y-42077174D01*
X17721732Y-42055500D01*
X17829044Y-42055500D01*
X17881370Y-42077174D01*
X17934313Y-42130117D01*
X18073605Y-42212494D01*
X18229007Y-42257643D01*
X18265310Y-42260500D01*
X18265311Y-42260500D01*
X18734689Y-42260500D01*
X18734690Y-42260500D01*
X18770993Y-42257643D01*
X18926395Y-42212494D01*
X19065687Y-42130117D01*
X19118630Y-42077174D01*
X19170956Y-42055500D01*
X19552800Y-42055500D01*
X19605126Y-42077174D01*
X19626800Y-42129500D01*
X19626800Y-42675500D01*
X19605126Y-42727826D01*
X19552800Y-42749500D01*
X18784306Y-42749500D01*
X18775087Y-42750225D01*
X18747428Y-42752402D01*
X18589600Y-42798256D01*
X18448134Y-42881919D01*
X18331919Y-42998134D01*
X18248256Y-43139600D01*
X18202402Y-43297428D01*
X18199500Y-43334306D01*
X18199500Y-43588668D01*
X18177826Y-43640994D01*
X17839483Y-43979337D01*
X17763721Y-44110560D01*
X17763717Y-44110569D01*
X17724500Y-44256931D01*
X17724500Y-45601968D01*
X17763717Y-45748330D01*
X17763721Y-45748339D01*
X17830458Y-45863930D01*
X17839485Y-45879565D01*
X18607685Y-46647765D01*
X18714835Y-46754915D01*
X18846065Y-46830681D01*
X18992431Y-46869899D01*
X18992432Y-46869900D01*
X18992434Y-46869900D01*
X25113139Y-46869900D01*
X25165465Y-46891574D01*
X25187139Y-46943900D01*
X25174668Y-46985012D01*
X25134915Y-47044505D01*
X25078342Y-47181084D01*
X25078341Y-47181090D01*
X25076581Y-47189938D01*
X25045114Y-47237030D01*
X25004003Y-47249500D01*
X24402126Y-47249500D01*
X24342514Y-47255909D01*
X24207670Y-47306202D01*
X24207669Y-47306203D01*
X24092454Y-47392454D01*
X24006203Y-47507669D01*
X24006202Y-47507670D01*
X23955910Y-47642512D01*
X23955909Y-47642517D01*
X23949500Y-47702126D01*
X23949500Y-49297873D01*
X23955909Y-49357485D01*
X24006202Y-49492329D01*
X24006203Y-49492330D01*
X24006204Y-49492331D01*
X24092454Y-49607546D01*
X24207669Y-49693796D01*
X24207670Y-49693797D01*
X24318605Y-49735172D01*
X24342517Y-49744091D01*
X24402127Y-49750500D01*
X25997872Y-49750499D01*
X26057483Y-49744091D01*
X26174357Y-49700500D01*
X26192329Y-49693797D01*
X26192329Y-49693796D01*
X26192331Y-49693796D01*
X26307546Y-49607546D01*
X26393796Y-49492331D01*
X26444091Y-49357483D01*
X26450500Y-49297873D01*
X26450499Y-47799769D01*
X26456598Y-47770352D01*
X26459256Y-47764216D01*
X26465084Y-47755495D01*
X26509671Y-47647850D01*
X26509902Y-47647319D01*
X26529852Y-47628001D01*
X26536219Y-47621634D01*
X26619612Y-47621634D01*
X26626538Y-47628786D01*
X26646170Y-47648418D01*
X26646278Y-47649174D01*
X26646618Y-47649525D01*
X26646588Y-47651331D01*
X26651379Y-47684647D01*
X26649500Y-47702125D01*
X26649500Y-49297873D01*
X26655909Y-49357485D01*
X26706202Y-49492329D01*
X26706203Y-49492330D01*
X26706204Y-49492331D01*
X26792454Y-49607546D01*
X26907669Y-49693796D01*
X26907670Y-49693797D01*
X27018605Y-49735172D01*
X27042517Y-49744091D01*
X27102127Y-49750500D01*
X28697872Y-49750499D01*
X28757483Y-49744091D01*
X28874357Y-49700500D01*
X28892329Y-49693797D01*
X28892329Y-49693796D01*
X28892331Y-49693796D01*
X29007546Y-49607546D01*
X29093796Y-49492331D01*
X29144091Y-49357483D01*
X29150500Y-49297873D01*
X29150499Y-48842278D01*
X29172173Y-48789953D01*
X29224499Y-48768279D01*
X29241852Y-48770342D01*
X29247468Y-48771696D01*
X29256107Y-48775275D01*
X29291416Y-48782298D01*
X29292853Y-48782645D01*
X29314630Y-48798503D01*
X29337028Y-48813469D01*
X29337551Y-48815195D01*
X29338637Y-48815986D01*
X29339547Y-48821773D01*
X29349500Y-48854582D01*
X29349500Y-49297872D01*
X29355909Y-49357485D01*
X29406202Y-49492329D01*
X29406203Y-49492330D01*
X29406204Y-49492331D01*
X29492454Y-49607546D01*
X29607669Y-49693796D01*
X29607670Y-49693797D01*
X29718605Y-49735172D01*
X29742517Y-49744091D01*
X29802127Y-49750500D01*
X31397872Y-49750499D01*
X31457483Y-49744091D01*
X31574357Y-49700500D01*
X31592329Y-49693797D01*
X31592329Y-49693796D01*
X31592331Y-49693796D01*
X31707546Y-49607546D01*
X31793796Y-49492331D01*
X31844091Y-49357483D01*
X31850500Y-49297873D01*
X31850499Y-48842278D01*
X31872173Y-48789953D01*
X31924499Y-48768279D01*
X31941852Y-48770342D01*
X31947468Y-48771696D01*
X31956107Y-48775275D01*
X31991416Y-48782298D01*
X31992853Y-48782645D01*
X32014630Y-48798503D01*
X32037028Y-48813469D01*
X32037551Y-48815195D01*
X32038637Y-48815986D01*
X32039547Y-48821773D01*
X32049500Y-48854582D01*
X32049500Y-49297872D01*
X32055909Y-49357485D01*
X32106202Y-49492329D01*
X32106203Y-49492330D01*
X32106204Y-49492331D01*
X32192454Y-49607546D01*
X32307669Y-49693796D01*
X32307670Y-49693797D01*
X32418605Y-49735172D01*
X32442517Y-49744091D01*
X32502127Y-49750500D01*
X34097872Y-49750499D01*
X34157483Y-49744091D01*
X34274357Y-49700500D01*
X34292329Y-49693797D01*
X34292329Y-49693796D01*
X34292331Y-49693796D01*
X34407546Y-49607546D01*
X34493796Y-49492331D01*
X34544091Y-49357483D01*
X34550500Y-49297873D01*
X34550499Y-48629469D01*
X34555863Y-48616519D01*
X34555587Y-48602505D01*
X34566272Y-48591389D01*
X34572173Y-48577144D01*
X34594835Y-48561675D01*
X34663379Y-48531687D01*
X34707473Y-48526906D01*
X34826082Y-48550500D01*
X34826084Y-48550500D01*
X34973916Y-48550500D01*
X34973918Y-48550500D01*
X35118913Y-48521658D01*
X35255495Y-48465084D01*
X35378416Y-48382951D01*
X35482951Y-48278416D01*
X35565084Y-48155495D01*
X35621658Y-48018913D01*
X35650500Y-47873918D01*
X35650500Y-47726082D01*
X35621658Y-47581087D01*
X35565084Y-47444505D01*
X35482951Y-47321584D01*
X35378416Y-47217049D01*
X35361815Y-47205956D01*
X35255494Y-47134915D01*
X35118917Y-47078343D01*
X35118907Y-47078340D01*
X35021811Y-47059026D01*
X34973918Y-47049500D01*
X34826082Y-47049500D01*
X34784977Y-47057676D01*
X34681092Y-47078340D01*
X34681082Y-47078343D01*
X34544509Y-47134913D01*
X34466512Y-47187029D01*
X34425400Y-47199500D01*
X33520941Y-47199500D01*
X33368216Y-47240422D01*
X33363732Y-47242280D01*
X33363320Y-47241287D01*
X33332665Y-47249500D01*
X32502126Y-47249500D01*
X32447363Y-47255388D01*
X32442517Y-47255909D01*
X32328552Y-47298414D01*
X32312326Y-47304467D01*
X32272030Y-47307710D01*
X32248938Y-47303117D01*
X32101102Y-47303117D01*
X32075916Y-47308127D01*
X31956112Y-47331957D01*
X31956102Y-47331960D01*
X31869446Y-47367854D01*
X31826691Y-47372065D01*
X31643808Y-47335687D01*
X31613899Y-47322349D01*
X31592330Y-47306203D01*
X31457487Y-47255910D01*
X31457484Y-47255909D01*
X31457483Y-47255909D01*
X31427678Y-47252704D01*
X31397874Y-47249500D01*
X31397873Y-47249500D01*
X31217800Y-47249500D01*
X31203363Y-47248078D01*
X30939614Y-47195615D01*
X30781838Y-47205956D01*
X30781835Y-47205956D01*
X30781835Y-47205957D01*
X30665126Y-47245573D01*
X30641340Y-47249500D01*
X29802126Y-47249500D01*
X29747363Y-47255388D01*
X29742517Y-47255909D01*
X29628552Y-47298414D01*
X29612326Y-47304467D01*
X29572030Y-47307710D01*
X29548938Y-47303117D01*
X29401102Y-47303117D01*
X29375916Y-47308127D01*
X29256112Y-47331957D01*
X29256102Y-47331960D01*
X29169446Y-47367854D01*
X29126691Y-47372065D01*
X28943808Y-47335687D01*
X28913899Y-47322349D01*
X28892330Y-47306203D01*
X28757487Y-47255910D01*
X28757484Y-47255909D01*
X28757483Y-47255909D01*
X28727678Y-47252704D01*
X28697874Y-47249500D01*
X28697873Y-47249500D01*
X28517800Y-47249500D01*
X28503363Y-47248078D01*
X28239614Y-47195615D01*
X28081838Y-47205956D01*
X28081835Y-47205956D01*
X28081835Y-47205957D01*
X27965126Y-47245573D01*
X27941340Y-47249500D01*
X27102126Y-47249500D01*
X27042514Y-47255909D01*
X26907670Y-47306202D01*
X26907669Y-47306203D01*
X26792454Y-47392454D01*
X26706203Y-47507669D01*
X26679440Y-47579424D01*
X26640846Y-47620876D01*
X26619612Y-47621634D01*
X26536219Y-47621634D01*
X26549484Y-47608370D01*
X26550128Y-47608370D01*
X26550591Y-47607922D01*
X26568471Y-47608210D01*
X26542793Y-47584303D01*
X26537528Y-47539128D01*
X26550500Y-47473918D01*
X26550500Y-47326082D01*
X26521658Y-47181087D01*
X26508988Y-47150500D01*
X26465084Y-47044505D01*
X26382951Y-46921584D01*
X26278415Y-46817048D01*
X26155494Y-46734915D01*
X26075852Y-46701927D01*
X26035803Y-46661879D01*
X26035803Y-46605242D01*
X26051841Y-46581237D01*
X26637915Y-45995165D01*
X26713681Y-45863935D01*
X26752899Y-45717568D01*
X26752900Y-45717568D01*
X26752900Y-43153432D01*
X26752899Y-43153431D01*
X26752331Y-43151313D01*
X26713681Y-43007065D01*
X26637915Y-42875835D01*
X26530765Y-42768685D01*
X25793135Y-42031055D01*
X25771461Y-41978729D01*
X25793135Y-41926403D01*
X25808943Y-41915336D01*
X25808619Y-41914811D01*
X25812285Y-41912549D01*
X25812287Y-41912549D01*
X25955391Y-41824281D01*
X26074281Y-41705391D01*
X26162549Y-41562287D01*
X26215436Y-41402685D01*
X26225500Y-41304174D01*
X26225500Y-40695826D01*
X26215436Y-40597315D01*
X26162549Y-40437713D01*
X26074281Y-40294609D01*
X25955391Y-40175719D01*
X25955390Y-40175718D01*
X25890403Y-40135634D01*
X25812287Y-40087451D01*
X25688102Y-40046300D01*
X25652686Y-40034564D01*
X25632982Y-40032551D01*
X25554174Y-40024500D01*
X25554170Y-40024500D01*
X25156532Y-40024500D01*
X25104206Y-40002826D01*
X25052693Y-39951313D01*
X24991704Y-39890324D01*
X24970031Y-39838000D01*
X24991705Y-39785674D01*
X25044031Y-39764000D01*
X35835731Y-39764000D01*
X35888057Y-39785674D01*
X35948687Y-39846304D01*
X36053696Y-39951313D01*
X36053698Y-39951314D01*
X36053700Y-39951316D01*
X36096744Y-39976167D01*
X36123830Y-40003252D01*
X36148687Y-40046304D01*
X36248687Y-40146304D01*
X36348687Y-40246304D01*
X36448687Y-40346304D01*
X36553696Y-40451313D01*
X36553698Y-40451314D01*
X36553700Y-40451316D01*
X36596744Y-40476167D01*
X36623830Y-40503252D01*
X36648687Y-40546304D01*
X36699696Y-40597313D01*
X36748687Y-40646304D01*
X36751223Y-40648840D01*
X36772897Y-40701166D01*
X36771475Y-40715602D01*
X36749500Y-40826082D01*
X36749500Y-40973918D01*
X36753187Y-40992454D01*
X36778340Y-41118907D01*
X36778343Y-41118917D01*
X36834915Y-41255494D01*
X36917048Y-41378415D01*
X37021584Y-41482951D01*
X37144505Y-41565084D01*
X37278549Y-41620607D01*
X37281087Y-41621658D01*
X37426082Y-41650500D01*
X37426084Y-41650500D01*
X37573916Y-41650500D01*
X37573918Y-41650500D01*
X37718913Y-41621658D01*
X37855495Y-41565084D01*
X37978416Y-41482951D01*
X38029549Y-41431816D01*
X38081875Y-41410143D01*
X38134201Y-41431817D01*
X39546098Y-42843714D01*
X39546103Y-42843720D01*
X39548687Y-42846304D01*
X39653696Y-42951313D01*
X39782304Y-43025565D01*
X39782305Y-43025565D01*
X39782307Y-43025566D01*
X39836467Y-43040078D01*
X39925745Y-43064000D01*
X39925746Y-43064001D01*
X39925748Y-43064001D01*
X39955844Y-43064001D01*
X39992843Y-43073915D01*
X40019810Y-43089484D01*
X40019811Y-43089485D01*
X40072056Y-43119648D01*
X40082303Y-43125565D01*
X40126224Y-43137333D01*
X40144698Y-43145092D01*
X40151479Y-43149096D01*
X40153696Y-43151313D01*
X40222202Y-43190865D01*
X40282303Y-43225565D01*
X40326224Y-43237333D01*
X40344844Y-43245178D01*
X40351529Y-43249146D01*
X40353696Y-43251313D01*
X40407374Y-43282304D01*
X40482303Y-43325565D01*
X40526224Y-43337333D01*
X40544844Y-43345178D01*
X40551529Y-43349146D01*
X40553696Y-43351313D01*
X40607374Y-43382304D01*
X40682303Y-43425565D01*
X40726224Y-43437333D01*
X40744844Y-43445178D01*
X40751529Y-43449146D01*
X40753696Y-43451313D01*
X40807374Y-43482304D01*
X40882303Y-43525565D01*
X40926227Y-43537333D01*
X40944661Y-43545069D01*
X40951463Y-43549080D01*
X40953696Y-43551313D01*
X41027533Y-43593943D01*
X41082303Y-43625565D01*
X41126224Y-43637333D01*
X41144609Y-43645039D01*
X41151447Y-43649064D01*
X41153696Y-43651313D01*
X41235229Y-43698386D01*
X41282303Y-43725565D01*
X41326224Y-43737333D01*
X41344674Y-43745078D01*
X41351471Y-43749088D01*
X41353696Y-43751313D01*
X41425320Y-43792665D01*
X41482303Y-43825565D01*
X41625747Y-43864000D01*
X41625748Y-43864000D01*
X41655842Y-43864000D01*
X41692841Y-43873913D01*
X41707374Y-43882304D01*
X41782303Y-43925565D01*
X41826224Y-43937333D01*
X41844844Y-43945178D01*
X41851529Y-43949146D01*
X41853696Y-43951313D01*
X41907374Y-43982304D01*
X41982303Y-44025565D01*
X42026224Y-44037333D01*
X42044703Y-44045095D01*
X42051481Y-44049098D01*
X42053696Y-44051313D01*
X42121684Y-44090566D01*
X42182303Y-44125565D01*
X42226224Y-44137333D01*
X42244609Y-44145039D01*
X42251447Y-44149064D01*
X42253696Y-44151313D01*
X42335229Y-44198386D01*
X42382303Y-44225565D01*
X42426227Y-44237333D01*
X42444682Y-44245082D01*
X42451472Y-44249089D01*
X42453696Y-44251313D01*
X42524540Y-44292215D01*
X42582303Y-44325565D01*
X42626224Y-44337333D01*
X42644609Y-44345039D01*
X42651447Y-44349064D01*
X42653696Y-44351313D01*
X42735229Y-44398386D01*
X42782303Y-44425565D01*
X42826224Y-44437333D01*
X42844754Y-44445125D01*
X42851499Y-44449116D01*
X42853696Y-44451313D01*
X42915797Y-44487167D01*
X42982303Y-44525565D01*
X43125747Y-44564000D01*
X43125748Y-44564000D01*
X43155842Y-44564000D01*
X43192839Y-44573912D01*
X43232752Y-44596956D01*
X43282303Y-44625565D01*
X43326224Y-44637333D01*
X43344610Y-44645040D01*
X43351448Y-44649065D01*
X43353696Y-44651313D01*
X43435004Y-44698256D01*
X43482303Y-44725565D01*
X43526224Y-44737333D01*
X43544743Y-44745118D01*
X43551493Y-44749110D01*
X43553696Y-44751313D01*
X43617006Y-44787865D01*
X43682303Y-44825565D01*
X43726224Y-44837333D01*
X43744844Y-44845178D01*
X43751529Y-44849146D01*
X43753696Y-44851313D01*
X43807374Y-44882304D01*
X43882303Y-44925565D01*
X43926224Y-44937333D01*
X43944609Y-44945039D01*
X43951447Y-44949064D01*
X43953696Y-44951313D01*
X44035229Y-44998386D01*
X44082303Y-45025565D01*
X44126224Y-45037333D01*
X44144778Y-45045139D01*
X44151507Y-45049124D01*
X44153696Y-45051313D01*
X44213372Y-45085767D01*
X44282303Y-45125565D01*
X44326224Y-45137333D01*
X44344760Y-45145129D01*
X44351502Y-45149119D01*
X44353696Y-45151313D01*
X44415101Y-45186765D01*
X44415404Y-45186940D01*
X44415470Y-45186979D01*
X44454216Y-45209348D01*
X44482303Y-45225565D01*
X44526224Y-45237333D01*
X44544734Y-45245113D01*
X44551491Y-45249108D01*
X44553696Y-45251313D01*
X44617993Y-45288435D01*
X44682303Y-45325565D01*
X44825747Y-45364000D01*
X44825748Y-45364000D01*
X44855843Y-45364000D01*
X44892840Y-45373913D01*
X44909075Y-45383286D01*
X44982303Y-45425565D01*
X45026224Y-45437333D01*
X45045192Y-45445386D01*
X45051651Y-45449268D01*
X45053696Y-45451313D01*
X45088081Y-45471165D01*
X45088622Y-45471490D01*
X45105117Y-45493788D01*
X45121978Y-45515762D01*
X45122109Y-45516759D01*
X45122304Y-45517023D01*
X45122218Y-45517591D01*
X45124500Y-45534915D01*
X45124500Y-45586611D01*
X45151597Y-45757698D01*
X45151600Y-45757711D01*
X45205125Y-45922442D01*
X45205127Y-45922446D01*
X45283767Y-46076787D01*
X45374866Y-46202174D01*
X45385586Y-46216928D01*
X45508072Y-46339414D01*
X45508075Y-46339416D01*
X45508076Y-46339417D01*
X45648212Y-46441232D01*
X45802553Y-46519872D01*
X45802557Y-46519874D01*
X45967288Y-46573399D01*
X45967294Y-46573400D01*
X45967299Y-46573402D01*
X46042616Y-46585331D01*
X46138388Y-46600500D01*
X46138389Y-46600500D01*
X46861612Y-46600500D01*
X46904383Y-46593725D01*
X47032701Y-46573402D01*
X47032708Y-46573399D01*
X47032711Y-46573399D01*
X47197442Y-46519874D01*
X47197442Y-46519873D01*
X47197445Y-46519873D01*
X47351788Y-46441232D01*
X47491928Y-46339414D01*
X47614414Y-46216928D01*
X47716232Y-46076788D01*
X47794873Y-45922445D01*
X47814199Y-45862966D01*
X47848399Y-45757711D01*
X47848399Y-45757708D01*
X47848402Y-45757701D01*
X47875500Y-45586611D01*
X47875500Y-45413389D01*
X47874315Y-45405910D01*
X47861580Y-45325500D01*
X47848402Y-45242299D01*
X47848400Y-45242294D01*
X47848399Y-45242288D01*
X47794874Y-45077557D01*
X47794872Y-45077553D01*
X47716232Y-44923212D01*
X47614417Y-44783076D01*
X47614416Y-44783075D01*
X47614414Y-44783072D01*
X47491928Y-44660586D01*
X47465763Y-44641576D01*
X47436172Y-44593285D01*
X47449394Y-44538213D01*
X47470408Y-44518731D01*
X47593656Y-44442712D01*
X47717712Y-44318656D01*
X47809814Y-44169334D01*
X47864999Y-44002797D01*
X47875500Y-43900009D01*
X47875499Y-43099992D01*
X47864999Y-42997203D01*
X47809814Y-42830666D01*
X47717712Y-42681344D01*
X47593656Y-42557288D01*
X47444334Y-42465186D01*
X47346705Y-42432835D01*
X47277798Y-42410001D01*
X47257239Y-42407900D01*
X47175009Y-42399500D01*
X47175005Y-42399500D01*
X46174601Y-42399500D01*
X46133489Y-42387029D01*
X46055494Y-42334915D01*
X45918917Y-42278343D01*
X45918907Y-42278340D01*
X45815282Y-42257728D01*
X45773918Y-42249500D01*
X45626082Y-42249500D01*
X45585150Y-42257642D01*
X45481092Y-42278340D01*
X45481082Y-42278343D01*
X45344505Y-42334915D01*
X45221584Y-42417048D01*
X45221583Y-42417050D01*
X45117050Y-42521583D01*
X45117048Y-42521584D01*
X45034915Y-42644505D01*
X44978343Y-42781082D01*
X44978340Y-42781092D01*
X44958285Y-42881919D01*
X44949500Y-42926082D01*
X44949500Y-43073918D01*
X44961764Y-43135574D01*
X44978340Y-43218907D01*
X44978343Y-43218917D01*
X45034915Y-43355494D01*
X45047614Y-43374499D01*
X45112029Y-43470903D01*
X45124500Y-43512014D01*
X45124500Y-43900000D01*
X45124500Y-43900005D01*
X45124501Y-43900008D01*
X45135001Y-44002797D01*
X45167376Y-44100499D01*
X45171914Y-44114192D01*
X45171851Y-44115054D01*
X45172402Y-44115720D01*
X45169802Y-44143182D01*
X45167799Y-44170680D01*
X45167145Y-44171244D01*
X45167064Y-44172105D01*
X45145815Y-44189677D01*
X45124947Y-44207713D01*
X45124084Y-44207650D01*
X45123419Y-44208201D01*
X45108540Y-44206517D01*
X45068459Y-44203598D01*
X45067034Y-44202863D01*
X45065833Y-44202227D01*
X45017696Y-44174435D01*
X45017013Y-44174252D01*
X45008925Y-44172085D01*
X45008922Y-44172083D01*
X44973776Y-44162666D01*
X44947886Y-44149900D01*
X44946308Y-44148689D01*
X44817700Y-44074437D01*
X44817691Y-44074433D01*
X44779008Y-44064068D01*
X44779008Y-44064067D01*
X44779003Y-44064067D01*
X44773772Y-44062665D01*
X44747886Y-44049900D01*
X44746308Y-44048689D01*
X44617696Y-43974435D01*
X44617688Y-43974432D01*
X44617011Y-43974251D01*
X44573776Y-43962666D01*
X44547886Y-43949900D01*
X44546308Y-43948689D01*
X44417697Y-43874435D01*
X44414623Y-43873611D01*
X44409299Y-43872185D01*
X44393306Y-43867899D01*
X44373775Y-43862666D01*
X44347886Y-43849900D01*
X44346308Y-43848689D01*
X44217700Y-43774437D01*
X44217697Y-43774436D01*
X44217696Y-43774435D01*
X44217694Y-43774434D01*
X44217693Y-43774434D01*
X44184277Y-43765480D01*
X44184276Y-43765480D01*
X44173775Y-43762666D01*
X44147886Y-43749900D01*
X44146308Y-43748689D01*
X44017700Y-43674437D01*
X44017691Y-43674433D01*
X43982798Y-43665083D01*
X43982793Y-43665083D01*
X43973774Y-43662666D01*
X43947886Y-43649900D01*
X43946308Y-43648689D01*
X43817700Y-43574437D01*
X43817698Y-43574436D01*
X43817696Y-43574435D01*
X43813960Y-43573434D01*
X43789834Y-43566969D01*
X43789833Y-43566969D01*
X43773775Y-43562666D01*
X43747886Y-43549900D01*
X43746308Y-43548689D01*
X43617700Y-43474437D01*
X43617691Y-43474433D01*
X43581248Y-43464668D01*
X43581248Y-43464669D01*
X43474253Y-43436000D01*
X43474252Y-43436000D01*
X43444158Y-43436000D01*
X43407158Y-43426086D01*
X43400046Y-43421980D01*
X43317807Y-43374499D01*
X43317700Y-43374437D01*
X43317697Y-43374436D01*
X43317696Y-43374435D01*
X43317694Y-43374434D01*
X43317693Y-43374434D01*
X43284277Y-43365480D01*
X43284276Y-43365480D01*
X43273775Y-43362666D01*
X43247886Y-43349900D01*
X43246308Y-43348689D01*
X43117700Y-43274437D01*
X43117698Y-43274436D01*
X43117696Y-43274435D01*
X43114932Y-43273694D01*
X43097085Y-43268912D01*
X43097084Y-43268912D01*
X43073775Y-43262666D01*
X43047886Y-43249900D01*
X43046308Y-43248689D01*
X42917697Y-43174435D01*
X42917695Y-43174434D01*
X42915534Y-43173855D01*
X42914953Y-43173700D01*
X42896492Y-43168753D01*
X42873775Y-43162666D01*
X42847886Y-43149900D01*
X42846308Y-43148689D01*
X42717696Y-43074435D01*
X42717688Y-43074432D01*
X42717011Y-43074251D01*
X42673776Y-43062666D01*
X42647886Y-43049900D01*
X42646308Y-43048689D01*
X42517700Y-42974437D01*
X42517691Y-42974433D01*
X42479926Y-42964314D01*
X42479926Y-42964313D01*
X42479921Y-42964313D01*
X42473772Y-42962665D01*
X42447886Y-42949900D01*
X42446308Y-42948689D01*
X42317696Y-42874435D01*
X42317688Y-42874432D01*
X42317011Y-42874251D01*
X42273776Y-42862666D01*
X42247886Y-42849900D01*
X42246308Y-42848689D01*
X42117700Y-42774437D01*
X42117691Y-42774433D01*
X42071287Y-42761999D01*
X42071287Y-42762000D01*
X41974253Y-42736000D01*
X41974252Y-42736000D01*
X41944158Y-42736000D01*
X41907158Y-42726086D01*
X41817696Y-42674435D01*
X41817691Y-42674433D01*
X41773775Y-42662666D01*
X41747880Y-42649896D01*
X41746306Y-42648688D01*
X41617697Y-42574435D01*
X41613802Y-42573391D01*
X41607056Y-42571584D01*
X41592188Y-42567600D01*
X41573775Y-42562666D01*
X41547886Y-42549900D01*
X41546308Y-42548689D01*
X41417696Y-42474435D01*
X41417692Y-42474434D01*
X41403060Y-42470513D01*
X41373776Y-42462666D01*
X41347886Y-42449900D01*
X41346308Y-42448689D01*
X41217700Y-42374437D01*
X41217697Y-42374436D01*
X41217696Y-42374435D01*
X41217694Y-42374434D01*
X41217693Y-42374434D01*
X41188117Y-42366509D01*
X41188116Y-42366509D01*
X41173775Y-42362666D01*
X41147886Y-42349900D01*
X41146308Y-42348689D01*
X41017700Y-42274437D01*
X41017691Y-42274433D01*
X40973775Y-42262666D01*
X40947880Y-42249896D01*
X40946306Y-42248688D01*
X40817697Y-42174435D01*
X40817692Y-42174433D01*
X40773776Y-42162666D01*
X40747886Y-42149900D01*
X40746308Y-42148689D01*
X40617700Y-42074437D01*
X40617698Y-42074436D01*
X40617696Y-42074435D01*
X40615393Y-42073818D01*
X40573774Y-42062665D01*
X40547886Y-42049900D01*
X40546307Y-42048689D01*
X40515764Y-42031055D01*
X40486621Y-42014229D01*
X40417700Y-41974437D01*
X40417691Y-41974433D01*
X40274255Y-41936000D01*
X40274253Y-41936000D01*
X40274252Y-41936000D01*
X40264268Y-41936000D01*
X40211942Y-41914326D01*
X36928942Y-38631326D01*
X36907268Y-38579000D01*
X36928942Y-38526674D01*
X36981268Y-38505000D01*
X38980468Y-38505000D01*
X38980468Y-38504999D01*
X39126835Y-38465781D01*
X39258065Y-38390015D01*
X39365215Y-38282865D01*
X39440981Y-38151635D01*
X39480199Y-38005268D01*
X39480200Y-38005268D01*
X39480200Y-37853732D01*
X39480199Y-37853731D01*
X39444871Y-37721885D01*
X39440981Y-37707365D01*
X39365215Y-37576135D01*
X39258065Y-37468985D01*
X39258062Y-37468983D01*
X39126839Y-37393221D01*
X39126830Y-37393217D01*
X38980468Y-37354000D01*
X38980466Y-37354000D01*
X29519332Y-37354000D01*
X29467006Y-37332326D01*
X29445332Y-37280000D01*
X29467006Y-37227674D01*
X36564330Y-30130349D01*
X36616656Y-30108675D01*
X36668982Y-30130349D01*
X36721584Y-30182951D01*
X36844505Y-30265084D01*
X36981087Y-30321658D01*
X37126082Y-30350500D01*
X37126084Y-30350500D01*
X37273916Y-30350500D01*
X37273918Y-30350500D01*
X37288414Y-30347616D01*
X37342294Y-30358332D01*
X37342434Y-30358090D01*
X37343147Y-30358502D01*
X37343962Y-30358664D01*
X37346172Y-30360248D01*
X37452537Y-30421658D01*
X37452536Y-30421658D01*
X37473706Y-30433880D01*
X37477865Y-30436281D01*
X37520794Y-30447783D01*
X37538943Y-30455352D01*
X37545018Y-30458898D01*
X37546635Y-30460515D01*
X37651363Y-30520980D01*
X37677865Y-30536281D01*
X37720790Y-30547782D01*
X37742268Y-30558376D01*
X37742434Y-30558090D01*
X37852409Y-30621584D01*
X37852408Y-30621584D01*
X37873686Y-30633868D01*
X37877865Y-30636281D01*
X37920790Y-30647782D01*
X37942268Y-30658376D01*
X37942434Y-30658090D01*
X38050793Y-30720651D01*
X38050792Y-30720651D01*
X38065103Y-30728913D01*
X38077865Y-30736281D01*
X38120792Y-30747783D01*
X38138944Y-30755354D01*
X38145022Y-30758902D01*
X38146635Y-30760515D01*
X38250530Y-30820499D01*
X38277865Y-30836281D01*
X38277866Y-30836281D01*
X38277868Y-30836282D01*
X38351049Y-30855890D01*
X38424230Y-30875499D01*
X38424231Y-30875500D01*
X38424233Y-30875500D01*
X38424234Y-30875500D01*
X38452761Y-30875500D01*
X38489761Y-30885414D01*
X38545675Y-30917696D01*
X38577865Y-30936281D01*
X38620790Y-30947782D01*
X38642270Y-30958375D01*
X38642435Y-30958090D01*
X38646634Y-30960514D01*
X38646635Y-30960515D01*
X38664144Y-30970623D01*
X38738012Y-31013272D01*
X38738014Y-31013273D01*
X38742355Y-31015779D01*
X38777865Y-31036281D01*
X38825325Y-31048997D01*
X38829659Y-31050771D01*
X38832441Y-31053529D01*
X38842268Y-31058376D01*
X38842434Y-31058090D01*
X38959619Y-31125747D01*
X38959621Y-31125748D01*
X38977865Y-31136281D01*
X39020790Y-31147782D01*
X39042270Y-31158375D01*
X39042435Y-31158090D01*
X39046634Y-31160514D01*
X39046635Y-31160515D01*
X39168396Y-31230814D01*
X39177865Y-31236281D01*
X39223375Y-31248475D01*
X39225883Y-31249345D01*
X39228282Y-31251477D01*
X39242270Y-31258375D01*
X39242435Y-31258090D01*
X39246634Y-31260514D01*
X39246635Y-31260515D01*
X39347783Y-31318913D01*
X39377865Y-31336281D01*
X39420790Y-31347782D01*
X39442270Y-31358375D01*
X39442435Y-31358090D01*
X39446634Y-31360514D01*
X39446635Y-31360515D01*
X39545677Y-31417697D01*
X39577865Y-31436281D01*
X39625134Y-31448946D01*
X39629305Y-31450628D01*
X39632078Y-31453349D01*
X39642270Y-31458375D01*
X39642435Y-31458090D01*
X39646634Y-31460514D01*
X39646635Y-31460515D01*
X39749063Y-31519652D01*
X39777865Y-31536281D01*
X39777866Y-31536281D01*
X39777868Y-31536282D01*
X39851049Y-31555890D01*
X39924230Y-31575499D01*
X39924231Y-31575500D01*
X39924233Y-31575500D01*
X39924234Y-31575500D01*
X39952761Y-31575500D01*
X39989761Y-31585414D01*
X40052409Y-31621584D01*
X40052408Y-31621584D01*
X40073247Y-31633615D01*
X40077865Y-31636281D01*
X40120792Y-31647783D01*
X40139029Y-31655403D01*
X40145047Y-31658927D01*
X40146635Y-31660515D01*
X40226278Y-31706497D01*
X40277865Y-31736281D01*
X40320792Y-31747783D01*
X40338999Y-31755385D01*
X40345036Y-31758916D01*
X40346635Y-31760515D01*
X40433644Y-31810750D01*
X40477865Y-31836281D01*
X40520792Y-31847783D01*
X40542269Y-31858376D01*
X40542435Y-31858090D01*
X40546634Y-31860514D01*
X40546635Y-31860515D01*
X40677865Y-31936281D01*
X40720792Y-31947783D01*
X40738936Y-31955349D01*
X40745019Y-31958899D01*
X40746635Y-31960515D01*
X40853364Y-32022135D01*
X40863118Y-32027766D01*
X40877859Y-32036278D01*
X40877863Y-32036280D01*
X40877865Y-32036281D01*
X40920790Y-32047782D01*
X40942270Y-32058375D01*
X40942435Y-32058090D01*
X40946634Y-32060514D01*
X40946635Y-32060515D01*
X41059620Y-32125747D01*
X41077865Y-32136281D01*
X41124182Y-32148691D01*
X41127462Y-32149913D01*
X41130118Y-32152383D01*
X41142268Y-32158376D01*
X41142434Y-32158090D01*
X41252537Y-32221658D01*
X41252536Y-32221658D01*
X41273706Y-32233880D01*
X41277865Y-32236281D01*
X41424230Y-32275499D01*
X41424231Y-32275500D01*
X41424233Y-32275500D01*
X41424234Y-32275500D01*
X41552761Y-32275500D01*
X41589761Y-32285414D01*
X41645675Y-32317696D01*
X41677865Y-32336281D01*
X41677866Y-32336281D01*
X41677868Y-32336282D01*
X41700903Y-32342454D01*
X41824230Y-32375499D01*
X41824231Y-32375500D01*
X41824233Y-32375500D01*
X41824234Y-32375500D01*
X43030968Y-32375500D01*
X43083294Y-32397174D01*
X43887337Y-33201217D01*
X43933855Y-33250421D01*
X43940838Y-33254718D01*
X43946635Y-33260515D01*
X43962500Y-33269674D01*
X43996978Y-33314606D01*
X43999500Y-33333760D01*
X43999500Y-33747872D01*
X44005909Y-33807485D01*
X44056202Y-33942329D01*
X44056203Y-33942330D01*
X44056204Y-33942331D01*
X44142454Y-34057546D01*
X44257669Y-34143796D01*
X44257670Y-34143797D01*
X44355799Y-34180396D01*
X44392517Y-34194091D01*
X44452127Y-34200500D01*
X45447872Y-34200499D01*
X45507483Y-34194091D01*
X45599387Y-34159813D01*
X45642329Y-34143797D01*
X45642329Y-34143796D01*
X45642331Y-34143796D01*
X45757546Y-34057546D01*
X45843796Y-33942331D01*
X45849468Y-33927125D01*
X45888065Y-33823640D01*
X45926658Y-33782187D01*
X45957399Y-33775500D01*
X48042601Y-33775500D01*
X48094927Y-33797174D01*
X48111935Y-33823640D01*
X48156202Y-33942329D01*
X48156203Y-33942330D01*
X48156204Y-33942331D01*
X48242454Y-34057546D01*
X48357669Y-34143796D01*
X48357670Y-34143797D01*
X48455799Y-34180396D01*
X48492517Y-34194091D01*
X48552127Y-34200500D01*
X49547872Y-34200499D01*
X49607483Y-34194091D01*
X49699387Y-34159813D01*
X49742329Y-34143797D01*
X49742329Y-34143796D01*
X49742331Y-34143796D01*
X49857546Y-34057546D01*
X49943796Y-33942331D01*
X49949468Y-33927125D01*
X49960561Y-33897381D01*
X49994091Y-33807483D01*
X50000500Y-33747873D01*
X50000499Y-32652128D01*
X49994091Y-32592517D01*
X49980283Y-32555495D01*
X49943797Y-32457670D01*
X49943796Y-32457669D01*
X49914783Y-32418913D01*
X49857546Y-32342454D01*
X49742331Y-32256204D01*
X49742330Y-32256203D01*
X49742329Y-32256202D01*
X49607487Y-32205910D01*
X49607484Y-32205909D01*
X49607483Y-32205909D01*
X49547873Y-32199500D01*
X48552126Y-32199500D01*
X48492514Y-32205909D01*
X48357670Y-32256202D01*
X48357669Y-32256203D01*
X48242454Y-32342454D01*
X48156203Y-32457669D01*
X48156202Y-32457670D01*
X48111935Y-32576360D01*
X48073342Y-32617813D01*
X48042601Y-32624500D01*
X45957399Y-32624500D01*
X45905073Y-32602826D01*
X45888065Y-32576360D01*
X45843797Y-32457670D01*
X45843796Y-32457669D01*
X45814783Y-32418913D01*
X45757546Y-32342454D01*
X45642331Y-32256204D01*
X45642330Y-32256203D01*
X45642329Y-32256202D01*
X45507487Y-32205910D01*
X45507484Y-32205909D01*
X45507483Y-32205909D01*
X45477678Y-32202704D01*
X45447874Y-32199500D01*
X45447873Y-32199500D01*
X44544032Y-32199500D01*
X44491706Y-32177826D01*
X44073760Y-31759880D01*
X43653365Y-31339485D01*
X43647814Y-31336280D01*
X43522139Y-31263721D01*
X43522130Y-31263717D01*
X43375768Y-31224500D01*
X43375766Y-31224500D01*
X42147239Y-31224500D01*
X42110239Y-31214586D01*
X42022139Y-31163721D01*
X42022130Y-31163717D01*
X41875768Y-31124500D01*
X41875766Y-31124500D01*
X41747239Y-31124500D01*
X41710239Y-31114586D01*
X41622136Y-31063719D01*
X41622132Y-31063718D01*
X41579209Y-31052216D01*
X41557730Y-31041623D01*
X41557565Y-31041910D01*
X41547815Y-31036281D01*
X41507963Y-31013272D01*
X41422136Y-30963719D01*
X41422132Y-30963718D01*
X41379209Y-30952216D01*
X41357730Y-30941623D01*
X41357565Y-30941910D01*
X41347815Y-30936281D01*
X41259712Y-30885414D01*
X41222136Y-30863719D01*
X41222132Y-30863718D01*
X41179209Y-30852216D01*
X41157730Y-30841623D01*
X41157565Y-30841910D01*
X41147815Y-30836281D01*
X41120541Y-30820534D01*
X41022136Y-30763719D01*
X41022132Y-30763718D01*
X40979209Y-30752216D01*
X40957730Y-30741623D01*
X40957565Y-30741910D01*
X40947815Y-30736281D01*
X40886247Y-30700734D01*
X40822136Y-30663719D01*
X40822132Y-30663718D01*
X40779209Y-30652216D01*
X40757730Y-30641623D01*
X40757565Y-30641910D01*
X40748513Y-30636684D01*
X40657121Y-30583918D01*
X40622136Y-30563719D01*
X40622132Y-30563718D01*
X40579209Y-30552216D01*
X40557730Y-30541623D01*
X40557565Y-30541910D01*
X40547815Y-30536281D01*
X40503299Y-30510579D01*
X40422139Y-30463721D01*
X40422130Y-30463717D01*
X40275768Y-30424500D01*
X40275766Y-30424500D01*
X40247239Y-30424500D01*
X40210239Y-30414586D01*
X40122136Y-30363719D01*
X40122132Y-30363718D01*
X40079209Y-30352216D01*
X40057730Y-30341623D01*
X40057565Y-30341910D01*
X39922136Y-30263719D01*
X39922132Y-30263718D01*
X39879209Y-30252216D01*
X39857730Y-30241623D01*
X39857565Y-30241910D01*
X39722136Y-30163719D01*
X39722132Y-30163718D01*
X39679209Y-30152216D01*
X39657730Y-30141623D01*
X39657565Y-30141910D01*
X39522136Y-30063719D01*
X39522132Y-30063718D01*
X39479209Y-30052216D01*
X39457730Y-30041623D01*
X39457565Y-30041910D01*
X39322136Y-29963719D01*
X39322132Y-29963718D01*
X39279209Y-29952216D01*
X39257730Y-29941623D01*
X39257565Y-29941910D01*
X39122136Y-29863719D01*
X39122132Y-29863718D01*
X39079209Y-29852216D01*
X39057730Y-29841623D01*
X39057565Y-29841910D01*
X38922139Y-29763721D01*
X38922130Y-29763717D01*
X38775768Y-29724500D01*
X38775766Y-29724500D01*
X38747239Y-29724500D01*
X38710239Y-29714586D01*
X38622136Y-29663719D01*
X38622132Y-29663718D01*
X38579209Y-29652216D01*
X38557730Y-29641623D01*
X38557565Y-29641910D01*
X38422136Y-29563719D01*
X38422132Y-29563718D01*
X38379209Y-29552216D01*
X38357730Y-29541623D01*
X38357565Y-29541910D01*
X38222136Y-29463719D01*
X38222132Y-29463718D01*
X38179209Y-29452216D01*
X38157730Y-29441623D01*
X38157565Y-29441910D01*
X38022136Y-29363719D01*
X38022131Y-29363717D01*
X37979211Y-29352217D01*
X37960684Y-29344427D01*
X37954863Y-29340983D01*
X37953365Y-29339485D01*
X37910516Y-29314746D01*
X37910116Y-29314509D01*
X37908151Y-29311890D01*
X37879430Y-29279140D01*
X37865084Y-29244505D01*
X37782951Y-29121584D01*
X37730349Y-29068982D01*
X37708675Y-29016656D01*
X37709274Y-29015211D01*
X37716855Y-28996908D01*
X37730349Y-28964330D01*
X37730350Y-28964330D01*
X37782707Y-28911974D01*
X37789621Y-28909110D01*
X37835032Y-28890300D01*
X50032168Y-28890300D01*
X50032168Y-28890299D01*
X50178535Y-28851081D01*
X50309765Y-28775315D01*
X50656415Y-28428665D01*
X50732181Y-28297435D01*
X50771399Y-28151069D01*
X50771400Y-28151069D01*
X50771400Y-24020132D01*
X50771399Y-24020131D01*
X50732182Y-23873769D01*
X50732181Y-23873765D01*
X50656415Y-23742535D01*
X50549265Y-23635385D01*
X48885690Y-21971810D01*
X48864016Y-21919484D01*
X48885690Y-21867158D01*
X48938016Y-21845484D01*
X48952448Y-21846905D01*
X49054815Y-21867268D01*
X49054817Y-21867268D01*
X49202649Y-21867268D01*
X49202651Y-21867268D01*
X49347646Y-21838426D01*
X49484228Y-21781852D01*
X49607149Y-21699719D01*
X49711684Y-21595184D01*
X49793817Y-21472263D01*
X49850391Y-21335681D01*
X49879233Y-21190686D01*
X49879233Y-21042850D01*
X49850391Y-20897855D01*
X49844505Y-20883646D01*
X49793817Y-20761273D01*
X49738919Y-20679112D01*
X49727870Y-20623563D01*
X49759336Y-20576471D01*
X49800448Y-20564000D01*
X50274255Y-20564000D01*
X50274255Y-20563999D01*
X50417696Y-20525565D01*
X50459232Y-20501584D01*
X50546304Y-20451313D01*
X50651313Y-20346304D01*
X50751313Y-20246304D01*
X50817036Y-20132469D01*
X50825565Y-20117697D01*
X50864000Y-19974253D01*
X50864000Y-19825748D01*
X50864000Y-18225748D01*
X50825565Y-18082304D01*
X50751313Y-17953696D01*
X50646304Y-17848687D01*
X50557081Y-17797174D01*
X50517700Y-17774437D01*
X50517696Y-17774435D01*
X50374252Y-17736000D01*
X50374251Y-17736000D01*
X43335200Y-17736000D01*
X43282874Y-17714326D01*
X43261200Y-17662000D01*
X43261200Y-15083331D01*
X43282873Y-15031006D01*
X46428941Y-11884937D01*
X46481266Y-11863264D01*
X46496752Y-11864903D01*
X46497194Y-11864997D01*
X46497198Y-11864997D01*
X46497203Y-11864999D01*
X46599991Y-11875500D01*
X47400008Y-11875499D01*
X47502797Y-11864999D01*
X47669334Y-11809814D01*
X47818656Y-11717712D01*
X47942712Y-11593656D01*
X48034814Y-11444334D01*
X48089999Y-11277797D01*
X48100500Y-11175009D01*
X48100499Y-9824992D01*
X48089999Y-9722203D01*
X48034814Y-9555666D01*
X47942712Y-9406344D01*
X47818656Y-9282288D01*
X47669334Y-9190186D01*
X47549570Y-9150500D01*
X47502798Y-9135001D01*
X47485665Y-9133250D01*
X47400009Y-9124500D01*
X47400004Y-9124500D01*
X46599999Y-9124500D01*
X46599993Y-9124500D01*
X46599992Y-9124501D01*
X46548597Y-9129751D01*
X46497202Y-9135001D01*
X46330666Y-9190186D01*
X46181344Y-9282288D01*
X46057288Y-9406344D01*
X45965186Y-9555666D01*
X45910001Y-9722201D01*
X45899500Y-9824994D01*
X45899500Y-10755967D01*
X45877826Y-10808293D01*
X42807525Y-13878593D01*
X42755199Y-13900267D01*
X42702873Y-13878593D01*
X39128298Y-10304018D01*
X39106624Y-10251692D01*
X39120755Y-10208199D01*
X39216232Y-10076788D01*
X39294873Y-9922445D01*
X39301421Y-9902292D01*
X39348399Y-9757711D01*
X39348399Y-9757708D01*
X39348402Y-9757701D01*
X39375500Y-9586611D01*
X39375500Y-9413389D01*
X39348402Y-9242299D01*
X39348400Y-9242294D01*
X39348399Y-9242288D01*
X39294874Y-9077557D01*
X39294872Y-9077553D01*
X39216232Y-8923212D01*
X39114417Y-8783076D01*
X39114416Y-8783075D01*
X39114414Y-8783072D01*
X38991928Y-8660586D01*
X38991925Y-8660583D01*
X38991923Y-8660582D01*
X38923669Y-8610993D01*
X38853299Y-8559866D01*
X38823707Y-8511576D01*
X38836929Y-8456504D01*
X38853298Y-8440134D01*
X38991928Y-8339414D01*
X39114414Y-8216928D01*
X39216232Y-8076788D01*
X39294873Y-7922445D01*
X39345577Y-7766396D01*
X39348399Y-7757711D01*
X39348399Y-7757708D01*
X39348402Y-7757701D01*
X39375500Y-7586611D01*
X39375500Y-7413389D01*
X39348402Y-7242299D01*
X39348400Y-7242294D01*
X39348399Y-7242288D01*
X39294874Y-7077557D01*
X39294872Y-7077553D01*
X39216232Y-6923212D01*
X39114417Y-6783076D01*
X39114416Y-6783075D01*
X39114414Y-6783072D01*
X38991928Y-6660586D01*
X38991925Y-6660583D01*
X38991923Y-6660582D01*
X38873704Y-6574691D01*
X38853299Y-6559866D01*
X38823707Y-6511576D01*
X38836929Y-6456504D01*
X38853298Y-6440134D01*
X38991928Y-6339414D01*
X39114414Y-6216928D01*
X39216232Y-6076788D01*
X39294873Y-5922445D01*
X39323739Y-5833606D01*
X39348399Y-5757711D01*
X39348399Y-5757708D01*
X39348402Y-5757701D01*
X39375500Y-5586611D01*
X39375500Y-5413389D01*
X39348402Y-5242299D01*
X39348400Y-5242294D01*
X39348399Y-5242288D01*
X39294874Y-5077557D01*
X39294872Y-5077553D01*
X39216232Y-4923212D01*
X39114417Y-4783076D01*
X39114416Y-4783075D01*
X39114414Y-4783072D01*
X38991928Y-4660586D01*
X38991925Y-4660583D01*
X38991923Y-4660582D01*
X38923669Y-4610993D01*
X38853299Y-4559866D01*
X38823707Y-4511576D01*
X38836929Y-4456504D01*
X38853298Y-4440134D01*
X38991928Y-4339414D01*
X39114414Y-4216928D01*
X39216232Y-4076788D01*
X39294873Y-3922445D01*
X39323740Y-3833603D01*
X39348399Y-3757711D01*
X39348399Y-3757708D01*
X39348402Y-3757701D01*
X39375500Y-3586611D01*
X39375500Y-3413389D01*
X39368134Y-3366885D01*
X39366467Y-3356359D01*
X39348402Y-3242299D01*
X39348400Y-3242294D01*
X39348399Y-3242288D01*
X39294874Y-3077557D01*
X39294872Y-3077553D01*
X39216232Y-2923212D01*
X39114417Y-2783076D01*
X39114416Y-2783075D01*
X39114414Y-2783072D01*
X38991928Y-2660586D01*
X38991925Y-2660583D01*
X38991923Y-2660582D01*
X38851787Y-2558767D01*
X38697446Y-2480127D01*
X38697442Y-2480125D01*
X38532711Y-2426600D01*
X38532698Y-2426597D01*
X38361612Y-2399500D01*
X38361611Y-2399500D01*
X37638389Y-2399500D01*
X37638388Y-2399500D01*
X37467301Y-2426597D01*
X37467288Y-2426600D01*
X37302557Y-2480125D01*
X37302553Y-2480127D01*
X37148212Y-2558767D01*
X37008076Y-2660582D01*
X36885582Y-2783076D01*
X36783767Y-2923212D01*
X36705127Y-3077553D01*
X36705125Y-3077557D01*
X36651600Y-3242288D01*
X36651597Y-3242301D01*
X36624500Y-3413388D01*
X36624500Y-3586611D01*
X36651597Y-3757698D01*
X36651600Y-3757711D01*
X36705125Y-3922442D01*
X36705127Y-3922446D01*
X36783767Y-4076787D01*
X36783768Y-4076788D01*
X36885586Y-4216928D01*
X37008072Y-4339414D01*
X37008075Y-4339416D01*
X37008076Y-4339417D01*
X37146699Y-4440133D01*
X37176292Y-4488424D01*
X37163070Y-4543496D01*
X37146699Y-4559867D01*
X37008076Y-4660582D01*
X36885582Y-4783076D01*
X36783767Y-4923212D01*
X36705127Y-5077553D01*
X36705125Y-5077557D01*
X36651600Y-5242288D01*
X36651597Y-5242301D01*
X36624500Y-5413388D01*
X36624500Y-5586611D01*
X36629095Y-5615624D01*
X36615873Y-5670696D01*
X36567582Y-5700289D01*
X36556006Y-5701200D01*
X33617733Y-5701200D01*
X33530775Y-5724500D01*
X33530774Y-5724499D01*
X33471369Y-5740417D01*
X33471360Y-5740421D01*
X33340136Y-5816184D01*
X33340133Y-5816186D01*
X33340126Y-5816194D01*
X25776826Y-13379494D01*
X25724500Y-13401168D01*
X25672174Y-13379494D01*
X25650500Y-13327168D01*
X25650500Y-13025310D01*
X25647643Y-12989007D01*
X25602494Y-12833605D01*
X25602492Y-12833603D01*
X25602492Y-12833600D01*
X25600671Y-12829392D01*
X25599778Y-12772762D01*
X25600671Y-12770608D01*
X25602492Y-12766399D01*
X25602492Y-12766397D01*
X25602494Y-12766395D01*
X25647643Y-12610993D01*
X25650500Y-12574690D01*
X25650500Y-12025310D01*
X25647643Y-11989007D01*
X25602494Y-11833605D01*
X25600002Y-11829392D01*
X25562751Y-11766403D01*
X25520117Y-11694313D01*
X25405687Y-11579883D01*
X25379221Y-11564231D01*
X25266396Y-11497506D01*
X25110995Y-11452357D01*
X25086791Y-11450452D01*
X25074690Y-11449500D01*
X23075310Y-11449500D01*
X23066234Y-11450214D01*
X23039004Y-11452357D01*
X22883603Y-11497506D01*
X22744312Y-11579883D01*
X22629883Y-11694312D01*
X22547506Y-11833603D01*
X22502357Y-11989004D01*
X22499500Y-12025310D01*
X22499500Y-12574689D01*
X22502357Y-12610995D01*
X22547508Y-12766403D01*
X22549331Y-12770615D01*
X22550218Y-12827245D01*
X22549331Y-12829385D01*
X22547508Y-12833596D01*
X22502357Y-12989004D01*
X22499500Y-13025310D01*
X22499500Y-13574689D01*
X22502357Y-13610995D01*
X22547508Y-13766403D01*
X22549331Y-13770615D01*
X22550218Y-13827245D01*
X22549331Y-13829385D01*
X22547508Y-13833596D01*
X22502357Y-13989004D01*
X22499500Y-14025310D01*
X22499500Y-14574689D01*
X22502357Y-14610995D01*
X22547506Y-14766396D01*
X22566533Y-14798568D01*
X22629883Y-14905687D01*
X22744313Y-15020117D01*
X22883605Y-15102494D01*
X23039007Y-15147643D01*
X23075310Y-15150500D01*
X23827168Y-15150500D01*
X23879494Y-15172174D01*
X23901168Y-15224500D01*
X23879494Y-15276826D01*
X22211169Y-16945150D01*
X22158843Y-16966824D01*
X22106517Y-16945150D01*
X22078415Y-16917048D01*
X21955494Y-16834915D01*
X21818917Y-16778343D01*
X21818907Y-16778340D01*
X21721811Y-16759026D01*
X21673918Y-16749500D01*
X21526082Y-16749500D01*
X21484977Y-16757676D01*
X21381092Y-16778340D01*
X21381082Y-16778343D01*
X21244505Y-16834915D01*
X21121584Y-16917048D01*
X21121583Y-16917050D01*
X21035807Y-17002826D01*
X20983481Y-17024500D01*
X18124231Y-17024500D01*
X17977868Y-17063717D01*
X17977863Y-17063719D01*
X17889761Y-17114586D01*
X17852761Y-17124500D01*
X16834499Y-17124500D01*
X16782173Y-17102826D01*
X16760499Y-17050500D01*
X16760499Y-16950820D01*
X16757842Y-16917049D01*
X16757665Y-16914796D01*
X16712869Y-16760607D01*
X16706300Y-16749500D01*
X16684223Y-16712169D01*
X16676243Y-16656097D01*
X16710249Y-16610805D01*
X16747918Y-16600500D01*
X17274689Y-16600500D01*
X17274690Y-16600500D01*
X17310993Y-16597643D01*
X17466395Y-16552494D01*
X17466397Y-16552492D01*
X17466399Y-16552492D01*
X17470608Y-16550671D01*
X17527238Y-16549778D01*
X17529392Y-16550671D01*
X17533600Y-16552492D01*
X17533603Y-16552492D01*
X17533605Y-16552494D01*
X17689007Y-16597643D01*
X17725310Y-16600500D01*
X17725311Y-16600500D01*
X18274689Y-16600500D01*
X18274690Y-16600500D01*
X18310993Y-16597643D01*
X18466395Y-16552494D01*
X18466397Y-16552492D01*
X18466399Y-16552492D01*
X18470608Y-16550671D01*
X18527238Y-16549778D01*
X18529392Y-16550671D01*
X18533600Y-16552492D01*
X18533603Y-16552492D01*
X18533605Y-16552494D01*
X18689007Y-16597643D01*
X18725310Y-16600500D01*
X18725311Y-16600500D01*
X19274689Y-16600500D01*
X19274690Y-16600500D01*
X19310993Y-16597643D01*
X19466395Y-16552494D01*
X19605687Y-16470117D01*
X19720117Y-16355687D01*
X19802494Y-16216395D01*
X19847643Y-16060993D01*
X19850500Y-16024690D01*
X19850500Y-14025310D01*
X19847643Y-13989007D01*
X19802494Y-13833605D01*
X19800002Y-13829392D01*
X19762751Y-13766403D01*
X19720117Y-13694313D01*
X19605687Y-13579883D01*
X19596904Y-13574689D01*
X19466396Y-13497506D01*
X19310995Y-13452357D01*
X19286791Y-13450452D01*
X19274690Y-13449500D01*
X18725310Y-13449500D01*
X18716234Y-13450214D01*
X18689004Y-13452357D01*
X18533596Y-13497508D01*
X18529385Y-13499331D01*
X18472755Y-13500218D01*
X18470615Y-13499331D01*
X18466403Y-13497508D01*
X18310995Y-13452357D01*
X18286791Y-13450452D01*
X18274690Y-13449500D01*
X17725310Y-13449500D01*
X17716234Y-13450214D01*
X17689004Y-13452357D01*
X17533596Y-13497508D01*
X17529385Y-13499331D01*
X17472755Y-13500218D01*
X17470615Y-13499331D01*
X17466403Y-13497508D01*
X17310995Y-13452357D01*
X17286791Y-13450452D01*
X17274690Y-13449500D01*
X16725310Y-13449500D01*
X16716234Y-13450214D01*
X16689004Y-13452357D01*
X16533603Y-13497506D01*
X16394312Y-13579883D01*
X16279883Y-13694312D01*
X16197506Y-13833603D01*
X16152357Y-13989004D01*
X16149500Y-14025310D01*
X16149500Y-16024689D01*
X16152357Y-16060995D01*
X16197506Y-16216396D01*
X16227925Y-16267831D01*
X16235905Y-16323903D01*
X16201899Y-16369195D01*
X16164230Y-16379500D01*
X15790820Y-16379500D01*
X15754793Y-16382335D01*
X15600605Y-16427131D01*
X15462401Y-16508865D01*
X15368441Y-16602826D01*
X15316115Y-16624500D01*
X14683885Y-16624500D01*
X14631559Y-16602826D01*
X14607174Y-16578441D01*
X14585500Y-16526115D01*
X14585500Y-16309235D01*
X14582792Y-16299130D01*
X14546281Y-16162865D01*
X14540450Y-16152765D01*
X14470515Y-16031635D01*
X14363365Y-15924485D01*
X14363364Y-15924484D01*
X14360786Y-15921906D01*
X14360775Y-15921896D01*
X13401210Y-14962331D01*
X13379536Y-14910005D01*
X13389841Y-14872336D01*
X13452493Y-14766396D01*
X13452494Y-14766395D01*
X13497643Y-14610993D01*
X13500500Y-14574690D01*
X13500500Y-14025310D01*
X13497643Y-13989007D01*
X13452494Y-13833605D01*
X13452492Y-13833603D01*
X13452492Y-13833600D01*
X13450671Y-13829392D01*
X13449778Y-13772762D01*
X13450671Y-13770608D01*
X13452492Y-13766399D01*
X13452492Y-13766397D01*
X13452494Y-13766395D01*
X13497643Y-13610993D01*
X13500500Y-13574690D01*
X13500500Y-13025310D01*
X13497643Y-12989007D01*
X13452494Y-12833605D01*
X13452492Y-12833603D01*
X13452492Y-12833600D01*
X13450671Y-12829392D01*
X13449778Y-12772762D01*
X13450671Y-12770608D01*
X13452492Y-12766399D01*
X13452492Y-12766397D01*
X13452494Y-12766395D01*
X13497643Y-12610993D01*
X13500500Y-12574690D01*
X13500500Y-12025310D01*
X13497643Y-11989007D01*
X13452494Y-11833605D01*
X13452492Y-11833603D01*
X13452492Y-11833600D01*
X13450671Y-11829392D01*
X13449778Y-11772762D01*
X13450671Y-11770608D01*
X13452492Y-11766399D01*
X13452492Y-11766397D01*
X13452494Y-11766395D01*
X13497643Y-11610993D01*
X13500500Y-11574690D01*
X13500500Y-11025310D01*
X13497643Y-10989007D01*
X13452494Y-10833605D01*
X13437763Y-10808697D01*
X13370116Y-10694312D01*
X13255687Y-10579883D01*
X13116396Y-10497506D01*
X12960995Y-10452357D01*
X12936791Y-10450452D01*
X12924690Y-10449500D01*
X10925310Y-10449500D01*
X10916234Y-10450214D01*
X10889004Y-10452357D01*
X10733603Y-10497506D01*
X10594312Y-10579883D01*
X10479883Y-10694312D01*
X10397506Y-10833603D01*
X10352357Y-10989004D01*
X10349500Y-11025310D01*
X10349500Y-11574689D01*
X10352357Y-11610995D01*
X10397508Y-11766403D01*
X10399331Y-11770615D01*
X10400218Y-11827245D01*
X10399331Y-11829385D01*
X10397508Y-11833596D01*
X10352357Y-11989004D01*
X10349500Y-12025310D01*
X10349500Y-12574689D01*
X10352357Y-12610995D01*
X10397508Y-12766403D01*
X10399331Y-12770615D01*
X10400218Y-12827245D01*
X10399331Y-12829385D01*
X10397508Y-12833596D01*
X10352357Y-12989004D01*
X10349500Y-13025310D01*
X10349500Y-13434168D01*
X10327826Y-13486494D01*
X10210683Y-13603637D01*
X10134921Y-13734860D01*
X10134917Y-13734869D01*
X10095700Y-13881231D01*
X10095700Y-14798568D01*
X10134917Y-14944930D01*
X10134921Y-14944939D01*
X10210682Y-15076161D01*
X10210683Y-15076162D01*
X10210685Y-15076165D01*
X11048904Y-15914383D01*
X11726126Y-16591605D01*
X11747800Y-16643931D01*
X11747800Y-18025500D01*
X11726126Y-18077826D01*
X11673801Y-18099500D01*
X11602127Y-18099500D01*
X11547791Y-18105341D01*
X11542517Y-18105909D01*
X11450859Y-18140094D01*
X11399141Y-18140094D01*
X11307483Y-18105909D01*
X11247873Y-18099500D01*
X10752127Y-18099500D01*
X10692514Y-18105909D01*
X10557670Y-18156202D01*
X10557669Y-18156203D01*
X10442454Y-18242454D01*
X10356203Y-18357669D01*
X10356202Y-18357670D01*
X10305910Y-18492512D01*
X10305909Y-18492517D01*
X10301362Y-18534813D01*
X10299500Y-18552127D01*
X10299500Y-18768600D01*
X10299501Y-18927200D01*
X10277827Y-18979526D01*
X10225501Y-19001200D01*
X9224500Y-19001200D01*
X9172174Y-18979526D01*
X9150500Y-18927200D01*
X9150499Y-18552127D01*
X9148638Y-18534813D01*
X9144091Y-18492517D01*
X9125514Y-18442709D01*
X9093797Y-18357670D01*
X9093796Y-18357669D01*
X9064590Y-18318655D01*
X9007546Y-18242454D01*
X8921295Y-18177886D01*
X8892330Y-18156203D01*
X8892329Y-18156202D01*
X8757487Y-18105910D01*
X8757484Y-18105909D01*
X8757483Y-18105909D01*
X8697873Y-18099500D01*
X8202127Y-18099500D01*
X8147791Y-18105341D01*
X8142517Y-18105909D01*
X8050859Y-18140094D01*
X7999141Y-18140094D01*
X7907483Y-18105909D01*
X7847873Y-18099500D01*
X7352127Y-18099500D01*
X7292514Y-18105909D01*
X7157670Y-18156202D01*
X7157669Y-18156203D01*
X7042454Y-18242454D01*
X6956203Y-18357669D01*
X6956202Y-18357670D01*
X6905910Y-18492512D01*
X6905909Y-18492517D01*
X6899500Y-18552126D01*
X6899500Y-19447873D01*
X6905909Y-19507485D01*
X6956202Y-19642329D01*
X6956203Y-19642330D01*
X7045626Y-19761783D01*
X7045094Y-19762181D01*
X7061521Y-19790633D01*
X7063718Y-19798832D01*
X7063719Y-19798836D01*
X7139483Y-19930062D01*
X7139485Y-19930065D01*
X7246635Y-20037215D01*
X7377865Y-20112981D01*
X7524231Y-20152199D01*
X7524232Y-20152200D01*
X7524234Y-20152200D01*
X11647968Y-20152200D01*
X11700294Y-20173874D01*
X16024594Y-24498174D01*
X16046268Y-24550500D01*
X16024594Y-24602826D01*
X15972268Y-24624500D01*
X11024232Y-24624500D01*
X10877869Y-24663717D01*
X10877860Y-24663721D01*
X10746637Y-24739483D01*
X10639483Y-24846637D01*
X10563721Y-24977860D01*
X10563717Y-24977869D01*
X10524500Y-25124231D01*
X10524500Y-25130968D01*
X10502826Y-25183294D01*
X7355108Y-28331011D01*
X7317219Y-28351263D01*
X7181092Y-28378340D01*
X7181082Y-28378343D01*
X7044505Y-28434915D01*
X6921584Y-28517048D01*
X6921583Y-28517050D01*
X6817050Y-28621583D01*
X6817048Y-28621584D01*
X6734915Y-28744505D01*
X6678343Y-28881082D01*
X6678340Y-28881092D01*
X6655303Y-28996908D01*
X6649500Y-29026082D01*
X6649500Y-29173918D01*
X6651933Y-29186147D01*
X6678340Y-29318907D01*
X6678343Y-29318917D01*
X6734915Y-29455494D01*
X6817048Y-29578415D01*
X6921584Y-29682951D01*
X7044505Y-29765084D01*
X7168716Y-29816534D01*
X7181087Y-29821658D01*
X7326082Y-29850500D01*
X7326084Y-29850500D01*
X7473916Y-29850500D01*
X7473918Y-29850500D01*
X7618913Y-29821658D01*
X7755495Y-29765084D01*
X7878416Y-29682951D01*
X7982951Y-29578416D01*
X8065084Y-29455495D01*
X8121658Y-29318913D01*
X8148737Y-29182776D01*
X8168987Y-29144891D01*
X8650023Y-28663855D01*
X8702348Y-28642182D01*
X8754674Y-28663856D01*
X8774925Y-28701742D01*
X8778339Y-28718902D01*
X8778343Y-28718917D01*
X8834915Y-28855494D01*
X8917048Y-28978415D01*
X8960050Y-29021417D01*
X8981724Y-29073743D01*
X8960050Y-29126069D01*
X7355108Y-30731011D01*
X7317219Y-30751263D01*
X7181092Y-30778340D01*
X7181082Y-30778343D01*
X7044505Y-30834915D01*
X6921584Y-30917048D01*
X6921583Y-30917050D01*
X6817050Y-31021583D01*
X6817048Y-31021584D01*
X6734915Y-31144505D01*
X6678343Y-31281082D01*
X6678340Y-31281092D01*
X6654263Y-31402135D01*
X6649500Y-31426082D01*
X6649500Y-31573918D01*
X6658982Y-31621584D01*
X6678340Y-31718907D01*
X6678343Y-31718917D01*
X6734915Y-31855494D01*
X6817048Y-31978415D01*
X6921585Y-32082952D01*
X6922438Y-32083652D01*
X6922613Y-32083980D01*
X6924155Y-32085522D01*
X6923687Y-32085989D01*
X6949143Y-32133598D01*
X6949500Y-32140860D01*
X6949500Y-32273918D01*
X6949815Y-32275500D01*
X6978340Y-32418907D01*
X6978343Y-32418917D01*
X7034915Y-32555494D01*
X7108051Y-32664949D01*
X7117049Y-32678416D01*
X7221584Y-32782951D01*
X7344505Y-32865084D01*
X7481087Y-32921658D01*
X7626082Y-32950500D01*
X7626084Y-32950500D01*
X7773916Y-32950500D01*
X7773918Y-32950500D01*
X7918913Y-32921658D01*
X8055495Y-32865084D01*
X8178416Y-32782951D01*
X8282951Y-32678416D01*
X8365084Y-32555495D01*
X8421658Y-32418913D01*
X8448737Y-32282778D01*
X8468986Y-32244893D01*
X8623174Y-32090704D01*
X8675500Y-32069031D01*
X8727826Y-32090705D01*
X8749500Y-32143031D01*
X8749500Y-32208411D01*
X8734740Y-32252758D01*
X8656203Y-32357669D01*
X8656202Y-32357670D01*
X8605910Y-32492512D01*
X8605909Y-32492517D01*
X8599500Y-32552126D01*
X8599500Y-32984338D01*
X8587029Y-33025450D01*
X8516916Y-33130381D01*
X8460344Y-33266958D01*
X8460341Y-33266968D01*
X8431501Y-33411959D01*
X8431501Y-33555649D01*
X8409827Y-33607975D01*
X8357501Y-33629649D01*
X8329183Y-33624016D01*
X8218917Y-33578343D01*
X8218907Y-33578340D01*
X8104830Y-33555649D01*
X8073918Y-33549500D01*
X7926082Y-33549500D01*
X7895170Y-33555649D01*
X7781092Y-33578340D01*
X7781082Y-33578343D01*
X7644505Y-33634915D01*
X7521584Y-33717048D01*
X7521583Y-33717050D01*
X7417050Y-33821583D01*
X7417048Y-33821584D01*
X7334915Y-33944505D01*
X7278343Y-34081082D01*
X7278340Y-34081092D01*
X7249499Y-34226084D01*
X7249166Y-34229470D01*
X7227849Y-34274534D01*
X7048687Y-34453695D01*
X6992797Y-34550500D01*
X6974435Y-34582302D01*
X6974434Y-34582306D01*
X6962859Y-34625503D01*
X6943707Y-34658674D01*
X6848687Y-34753695D01*
X6848685Y-34753698D01*
X6795676Y-34845512D01*
X6750742Y-34879991D01*
X6694590Y-34872598D01*
X6670063Y-34849626D01*
X6604215Y-34751077D01*
X6499680Y-34646542D01*
X6496632Y-34644505D01*
X6376758Y-34564408D01*
X6240181Y-34507836D01*
X6240171Y-34507833D01*
X6143075Y-34488519D01*
X6095182Y-34478993D01*
X5947346Y-34478993D01*
X5906241Y-34487169D01*
X5802356Y-34507833D01*
X5802346Y-34507836D01*
X5665769Y-34564408D01*
X5542848Y-34646541D01*
X5542847Y-34646543D01*
X5461564Y-34727826D01*
X5409238Y-34749500D01*
X5059306Y-34749500D01*
X5050087Y-34750225D01*
X5022428Y-34752402D01*
X4864600Y-34798256D01*
X4723134Y-34881919D01*
X4606919Y-34998134D01*
X4563695Y-35071223D01*
X4518403Y-35105229D01*
X4462331Y-35097249D01*
X4436305Y-35071223D01*
X4393080Y-34998134D01*
X4276865Y-34881919D01*
X4135399Y-34798256D01*
X3977571Y-34752402D01*
X3952985Y-34750467D01*
X3940694Y-34749500D01*
X2784306Y-34749500D01*
X2775087Y-34750225D01*
X2747428Y-34752402D01*
X2589600Y-34798256D01*
X2448134Y-34881919D01*
X2331919Y-34998134D01*
X2248256Y-35139600D01*
X2202402Y-35297428D01*
X2199500Y-35334306D01*
X2199500Y-35765693D01*
X2202402Y-35802571D01*
X2248256Y-35960399D01*
X2276739Y-36008561D01*
X2331919Y-36101865D01*
X2448135Y-36218081D01*
X2589602Y-36301744D01*
X2747431Y-36347598D01*
X2784306Y-36350500D01*
X3512768Y-36350500D01*
X3565094Y-36372174D01*
X3661026Y-36468106D01*
X3682700Y-36520432D01*
X3682700Y-36575500D01*
X3661026Y-36627826D01*
X3608700Y-36649500D01*
X2784306Y-36649500D01*
X2775087Y-36650225D01*
X2747428Y-36652402D01*
X2589600Y-36698256D01*
X2448134Y-36781919D01*
X2331919Y-36898134D01*
X2248256Y-37039600D01*
X2202402Y-37197428D01*
X2199500Y-37234306D01*
X2199500Y-37665693D01*
X2202402Y-37702571D01*
X2248256Y-37860399D01*
X2331919Y-38001865D01*
X2448136Y-38118082D01*
X2451814Y-38120935D01*
X2450816Y-38122220D01*
X2481375Y-38162918D01*
X2483700Y-38181323D01*
X2483700Y-40826243D01*
X2462026Y-40878569D01*
X2409700Y-40900243D01*
X2383840Y-40895577D01*
X2277487Y-40855910D01*
X2277484Y-40855909D01*
X2277483Y-40855909D01*
X2217873Y-40849500D01*
X1322126Y-40849500D01*
X1262514Y-40855909D01*
X1127670Y-40906202D01*
X1127669Y-40906203D01*
X1012454Y-40992454D01*
X926203Y-41107669D01*
X926202Y-41107670D01*
X875910Y-41242512D01*
X875909Y-41242517D01*
X869500Y-41302126D01*
X300000Y-41302126D01*
X300000Y-34374000D01*
X321674Y-34321674D01*
X374000Y-34300000D01*
X6000000Y-34300000D01*
X6000000Y-17700000D01*
X374000Y-17700000D01*
X321674Y-17678326D01*
X300000Y-17626000D01*
X300000Y-8025310D01*
X10349500Y-8025310D01*
X10349500Y-8574689D01*
X10352357Y-8610995D01*
X10397506Y-8766396D01*
X10437251Y-8833600D01*
X10479883Y-8905687D01*
X10594313Y-9020117D01*
X10733605Y-9102494D01*
X10889007Y-9147643D01*
X10925310Y-9150500D01*
X10925311Y-9150500D01*
X12924689Y-9150500D01*
X12924690Y-9150500D01*
X12960993Y-9147643D01*
X13116395Y-9102494D01*
X13255687Y-9020117D01*
X13370117Y-8905687D01*
X13452494Y-8766395D01*
X13497643Y-8610993D01*
X13500500Y-8574690D01*
X13500500Y-8025310D01*
X13497643Y-7989007D01*
X13452494Y-7833605D01*
X13370117Y-7694313D01*
X13255687Y-7579883D01*
X13246906Y-7574690D01*
X13116396Y-7497506D01*
X12960995Y-7452357D01*
X12936791Y-7450452D01*
X12924690Y-7449500D01*
X10925310Y-7449500D01*
X10916234Y-7450214D01*
X10889004Y-7452357D01*
X10733603Y-7497506D01*
X10594312Y-7579883D01*
X10479883Y-7694312D01*
X10397506Y-7833603D01*
X10352357Y-7989004D01*
X10349500Y-8025310D01*
X300000Y-8025310D01*
X300000Y-3904631D01*
X8926800Y-3904631D01*
X8926800Y-4888068D01*
X8966017Y-5034430D01*
X8966021Y-5034439D01*
X9041783Y-5165662D01*
X9041785Y-5165665D01*
X9157826Y-5281706D01*
X9179500Y-5334031D01*
X9179500Y-5509179D01*
X9182335Y-5545206D01*
X9227131Y-5699394D01*
X9266756Y-5766396D01*
X9308865Y-5837598D01*
X9422402Y-5951135D01*
X9560607Y-6032869D01*
X9714793Y-6077664D01*
X9714792Y-6077664D01*
X9714796Y-6077665D01*
X9750819Y-6080500D01*
X10249180Y-6080499D01*
X10285204Y-6077665D01*
X10439393Y-6032869D01*
X10495346Y-5999777D01*
X10551418Y-5991797D01*
X10585342Y-6011146D01*
X10594313Y-6020117D01*
X10733605Y-6102494D01*
X10889007Y-6147643D01*
X10925310Y-6150500D01*
X10925311Y-6150500D01*
X12924689Y-6150500D01*
X12924690Y-6150500D01*
X12960993Y-6147643D01*
X13116395Y-6102494D01*
X13255687Y-6020117D01*
X13370117Y-5905687D01*
X13452494Y-5766395D01*
X13497643Y-5610993D01*
X13500500Y-5574690D01*
X13500500Y-5025310D01*
X13497643Y-4989007D01*
X13452494Y-4833605D01*
X13452492Y-4833603D01*
X13452492Y-4833600D01*
X13450671Y-4829392D01*
X13449778Y-4772762D01*
X13450671Y-4770608D01*
X13452492Y-4766399D01*
X13452492Y-4766397D01*
X13452494Y-4766395D01*
X13497643Y-4610993D01*
X13500500Y-4574690D01*
X13500500Y-4025310D01*
X13497643Y-3989007D01*
X13452494Y-3833605D01*
X13370117Y-3694313D01*
X13255687Y-3579883D01*
X13116396Y-3497506D01*
X12960995Y-3452357D01*
X12936791Y-3450452D01*
X12924690Y-3449500D01*
X12924689Y-3449500D01*
X11919032Y-3449500D01*
X11866707Y-3427826D01*
X11805766Y-3366886D01*
X11805765Y-3366885D01*
X11762021Y-3341629D01*
X11674539Y-3291121D01*
X11674530Y-3291117D01*
X11528168Y-3251900D01*
X11528166Y-3251900D01*
X9731067Y-3251900D01*
X9579534Y-3251900D01*
X9579532Y-3251900D01*
X9433169Y-3291117D01*
X9433160Y-3291121D01*
X9301937Y-3366883D01*
X9041783Y-3627037D01*
X8966021Y-3758260D01*
X8966017Y-3758269D01*
X8926800Y-3904631D01*
X300000Y-3904631D01*
X300000Y-808872D01*
X310904Y-770209D01*
X364742Y-682353D01*
X371557Y-672973D01*
X506628Y-514824D01*
X514824Y-506628D01*
X672973Y-371557D01*
X682344Y-364747D01*
X770211Y-310903D01*
X808873Y-300000D01*
X15526000Y-300000D01*
X15578326Y-321674D01*
G37*
%TD.AperFunction*%
%TD*%
M02*
