M48
; DRILL file KiCad 10.0.1 date 2026-07-08T14:20:04
; FORMAT={-:-/ absolute / metric / decimal}
; #@! TF.CreationDate,2026-07-08T14:20:04+02:00
; #@! TF.GenerationSoftware,Kicad,Pcbnew,10.0.1
; #@! TF.FileFunction,Plated,1,4,PTH
FMAT,2
METRIC
; #@! TA.AperFunction,Plated,PTH,ViaDrill
T1C0.300
; #@! TA.AperFunction,Plated,PTH,ComponentDrill
T2C0.600
; #@! TA.AperFunction,Plated,PTH,ComponentDrill
T3C0.750
%
G90
G05
T1
X1.905Y-37.357
X4.898Y-48.172
X5.775Y-40.0
X6.021Y-35.229
X7.0Y-37.4
X7.0Y-40.49
X7.382Y-33.45
X7.4Y-29.1
X7.4Y-31.5
X7.7Y-32.2
X7.975Y-42.852
X8.0Y-34.3
X8.0Y-35.225
X8.0Y-37.775
X8.279Y-33.47
X8.5Y-39.0
X9.0Y-40.49
X9.182Y-18.514
X9.182Y-33.486
X9.5Y-28.5
X9.5Y-32.2
X9.5Y-35.52
X10.09Y-18.504
X10.5Y-27.5
X10.5Y-46.98
X11.772Y-41.539
X11.8Y-40.5
X12.099Y-20.587
X12.1Y-46.4
X12.139Y-23.911
X12.139Y-28.089
X12.3Y-38.0
X12.325Y-34.271
X12.4Y-26.0
X12.569Y-29.675
X12.7Y-43.05
X12.75Y-33.8
X13.0Y-47.275
X13.193Y-1.8
X13.8Y-18.6
X13.9Y-32.1
X13.97Y-24.078
X13.97Y-27.922
X14.0Y-31.1
X14.0Y-35.0
X14.05Y-26.0
X14.298Y-20.26
X14.6Y-18.6
X15.1Y-34.2
X15.665Y-24.167
X15.665Y-27.833
X15.7Y-26.0
X15.901Y-44.165
X17.0Y-26.8
X17.0Y-42.8
X17.1Y-23.1
X17.3Y-27.5
X17.5Y-37.51
X17.51Y-17.2
X17.9Y-28.4
X17.984Y-50.482
X18.5Y-40.02
X18.972Y-32.21
X19.0Y-21.2
X19.0Y-35.92
X19.15Y-48.5
X19.4Y-28.2
X19.9Y-26.1
X20.1Y-25.4
X20.2Y-36.8
X20.25Y-44.696
X20.953Y-18.704
X20.953Y-33.296
X21.464Y-30.657
X21.6Y-17.5
X21.75Y-37.163
X21.81Y-25.408
X22.212Y-32.0
X22.296Y-23.533
X22.3Y-24.8
X22.3Y-30.7
X23.0Y-19.02
X23.0Y-20.98
X23.0Y-24.51
X23.0Y-26.02
X23.016Y-50.482
X23.7Y-36.0
X24.0Y-43.49
X24.007Y-21.119
X24.059Y-22.619
X24.067Y-23.714
X24.137Y-37.75
X24.5Y-19.5
X24.917Y-26.479
X25.5Y-43.225
X25.8Y-47.4
X26.057Y-1.8
X26.092Y-2.99
X26.124Y-4.035
X26.2Y-25.2
X26.5Y-5.32
X26.5Y-7.28
X26.5Y-8.225
X26.5Y-10.775
X26.5Y-29.012
X26.5Y-34.55
X26.704Y-38.377
X26.765Y-29.579
X27.288Y-26.061
X27.288Y-28.939
X28.083Y-28.521
X28.119Y-36.193
X28.7Y-25.9
X28.764Y-42.475
X29.0Y-26.52
X29.0Y-28.48
X29.475Y-48.054
X29.7Y-27.5
X29.9Y-11.0
X30.5Y-12.55
X30.6Y-14.0
X30.717Y-26.323
X30.9Y-29.0
X31.5Y-24.6
X31.5Y-27.01
X31.5Y-30.51
X32.1Y-23.6
X32.175Y-48.054
X32.2Y-32.1
X32.5Y-26.8
X32.8Y-29.7
X33.3Y-29.0
X34.9Y-47.8
X35.1Y-29.3
X37.2Y-29.6
X37.5Y-40.9
X37.59Y-27.603
X44.484Y-34.982
X44.9Y-23.4
X45.5Y-20.52
X45.5Y-22.48
X45.5Y-24.02
X45.5Y-25.98
X45.7Y-43.0
X46.163Y-21.815
X46.45Y-20.954
X46.8Y-23.9
X46.887Y-22.802
X47.2Y-25.4
X47.235Y-24.484
X47.9Y-24.1
X48.113Y-22.802
X48.634Y-24.352
X48.634Y-25.648
X48.837Y-21.815
X49.129Y-21.117
X49.5Y-22.5
X49.516Y-34.982
T3
X38.0Y-3.5
X38.0Y-5.5
X38.0Y-7.5
X38.0Y-9.5
X38.0Y-11.5
X38.0Y-13.5
X38.0Y-15.5
X38.0Y-17.5
X45.0Y-10.5
X46.5Y-43.5
X46.5Y-45.5
X47.0Y-10.5
T2
X7.68Y-45.32G85X7.68Y-46.42
G05
X7.68Y-49.75G85X7.68Y-50.35
G05
X16.32Y-45.32G85X16.32Y-46.42
G05
X16.32Y-49.75G85X16.32Y-50.35
G05
M30
