%TF.GenerationSoftware,KiCad,Pcbnew,10.0.1*%
%TF.CreationDate,2026-07-06T08:21:01+02:00*%
%TF.ProjectId,aurabip_routed,61757261-6269-4705-9f72-6f757465642e,rev?*%
%TF.SameCoordinates,Original*%
%TF.FileFunction,Soldermask,Bot*%
%TF.FilePolarity,Negative*%
%FSLAX46Y46*%
G04 Gerber Fmt 4.6, Leading zero omitted, Abs format (unit mm)*
G04 Created by KiCad (PCBNEW 10.0.1) date 2026-07-06 08:21:01*
%MOMM*%
%LPD*%
G01*
G04 APERTURE LIST*
G04 Aperture macros list*
%AMRoundRect*
0 Rectangle with rounded corners*
0 $1 Rounding radius*
0 $2 $3 $4 $5 $6 $7 $8 $9 X,Y pos of 4 corners*
0 Add a 4 corners polygon primitive as box body*
4,1,4,$2,$3,$4,$5,$6,$7,$8,$9,$2,$3,0*
0 Add four circle primitives for the rounded corners*
1,1,$1+$1,$2,$3*
1,1,$1+$1,$4,$5*
1,1,$1+$1,$6,$7*
1,1,$1+$1,$8,$9*
0 Add four rect primitives between the rounded corners*
20,1,$1+$1,$2,$3,$4,$5,0*
20,1,$1+$1,$4,$5,$6,$7,0*
20,1,$1+$1,$6,$7,$8,$9,0*
20,1,$1+$1,$8,$9,$2,$3,0*%
G04 Aperture macros list end*
%ADD10C,0.650000*%
%ADD11O,1.000000X2.100000*%
%ADD12O,1.000000X1.600000*%
%ADD13RoundRect,0.250000X-0.625000X0.350000X-0.625000X-0.350000X0.625000X-0.350000X0.625000X0.350000X0*%
%ADD14O,1.750000X1.200000*%
%ADD15RoundRect,0.250000X0.350000X0.625000X-0.350000X0.625000X-0.350000X-0.625000X0.350000X-0.625000X0*%
%ADD16O,1.200000X1.750000*%
%ADD17C,0.900000*%
%ADD18RoundRect,0.250000X0.625000X-0.350000X0.625000X0.350000X-0.625000X0.350000X-0.625000X-0.350000X0*%
%ADD19RoundRect,0.225000X0.250000X-0.225000X0.250000X0.225000X-0.250000X0.225000X-0.250000X-0.225000X0*%
%ADD20RoundRect,0.140000X0.170000X-0.140000X0.170000X0.140000X-0.170000X0.140000X-0.170000X-0.140000X0*%
%ADD21RoundRect,0.162000X-0.678000X-0.243000X0.678000X-0.243000X0.678000X0.243000X-0.678000X0.243000X0*%
G04 APERTURE END LIST*
D10*
%TO.C,J1*%
X9110000Y-46400000D03*
X14890000Y-46400000D03*
D11*
X7680000Y-45870000D03*
D12*
X7680000Y-50050000D03*
D11*
X16320000Y-45870000D03*
D12*
X16320000Y-50050000D03*
%TD*%
D13*
%TO.C,J3*%
X46500000Y-43500000D03*
D14*
X46500000Y-45500000D03*
%TD*%
D15*
%TO.C,J2*%
X47000000Y-10500000D03*
D16*
X45000000Y-10500000D03*
%TD*%
D17*
%TO.C,SW1*%
X2870000Y-44000000D03*
X2870000Y-47000000D03*
%TD*%
D18*
%TO.C,J4*%
X38000000Y-17500000D03*
D14*
X38000000Y-15500000D03*
X38000000Y-13500000D03*
X38000000Y-11500000D03*
X38000000Y-9500000D03*
X38000000Y-7500000D03*
X38000000Y-5500000D03*
X38000000Y-3500000D03*
%TD*%
D19*
%TO.C,C15*%
X13000000Y-46775000D03*
X13000000Y-45225000D03*
%TD*%
D20*
%TO.C,C14*%
X10500000Y-46480000D03*
X10500000Y-45520000D03*
%TD*%
D21*
%TO.C,U10*%
X24985000Y-20982001D03*
X24985000Y-22252001D03*
X24985000Y-23522001D03*
X24985000Y-29110001D03*
X24985000Y-30380000D03*
X24985000Y-31650000D03*
X24985000Y-32920000D03*
X24985000Y-34190000D03*
X24985000Y-35460000D03*
X24985000Y-36730000D03*
X24985000Y-38000000D03*
X11015000Y-38000000D03*
X11015000Y-36730000D03*
X11015000Y-35460000D03*
X11015000Y-34190000D03*
X11015000Y-32920000D03*
X11015000Y-31650000D03*
X11015000Y-30380000D03*
X11015000Y-29110001D03*
X11015000Y-23522001D03*
X11015000Y-22252001D03*
X11015000Y-20982001D03*
%TD*%
M02*
