%TF.GenerationSoftware,KiCad,Pcbnew,10.0.1*%
%TF.CreationDate,2026-07-06T00:30:42+02:00*%
%TF.ProjectId,aurabip_routed,61757261-6269-4705-9f72-6f757465642e,rev?*%
%TF.SameCoordinates,Original*%
%TF.FileFunction,Legend,Bot*%
%TF.FilePolarity,Positive*%
%FSLAX46Y46*%
G04 Gerber Fmt 4.6, Leading zero omitted, Abs format (unit mm)*
G04 Created by KiCad (PCBNEW 10.0.1) date 2026-07-06 00:30:42*
%MOMM*%
%LPD*%
G01*
G04 APERTURE LIST*
G04 Aperture macros list*
%AMRoundRect*
0 Rectangle with rounded corners*
0 $1 Rounding radius*
0 $2 $3 $4 $5 $6 $7 $8 $9 X,Y pos of 4 corners*
0 Add a 4 corners polygon primitive as box body*
4,1,4,$2,$3,$4,$5,$6,$7,$8,$9,$2,$3,0*
0 Add four circle primitives for the rounded corners*
1,1,$1+$1,$2,$3*
1,1,$1+$1,$4,$5*
1,1,$1+$1,$6,$7*
1,1,$1+$1,$8,$9*
0 Add four rect primitives between the rounded corners*
20,1,$1+$1,$2,$3,$4,$5,0*
20,1,$1+$1,$4,$5,$6,$7,0*
20,1,$1+$1,$6,$7,$8,$9,0*
20,1,$1+$1,$8,$9,$2,$3,0*%
G04 Aperture macros list end*
%ADD10C,0.150000*%
%ADD11C,0.100000*%
%ADD12C,0.120000*%
%ADD13C,0.650000*%
%ADD14O,1.000000X2.100000*%
%ADD15O,1.000000X1.600000*%
%ADD16RoundRect,0.250000X0.625000X-0.350000X0.625000X0.350000X-0.625000X0.350000X-0.625000X-0.350000X0*%
%ADD17O,1.750000X1.200000*%
%ADD18RoundRect,0.250000X0.350000X0.625000X-0.350000X0.625000X-0.350000X-0.625000X0.350000X-0.625000X0*%
%ADD19O,1.200000X1.750000*%
%ADD20C,0.900000*%
%ADD21RoundRect,0.225000X0.250000X-0.225000X0.250000X0.225000X-0.250000X0.225000X-0.250000X-0.225000X0*%
%ADD22RoundRect,0.250000X-0.275000X-0.250000X0.275000X-0.250000X0.275000X0.250000X-0.275000X0.250000X0*%
%ADD23RoundRect,0.250000X-0.850000X-0.275000X0.850000X-0.275000X0.850000X0.275000X-0.850000X0.275000X0*%
%ADD24RoundRect,0.140000X0.170000X-0.140000X0.170000X0.140000X-0.170000X0.140000X-0.170000X-0.140000X0*%
%ADD25RoundRect,0.162000X-0.678000X-0.243000X0.678000X-0.243000X0.678000X0.243000X-0.678000X0.243000X0*%
G04 APERTURE END LIST*
D10*
X14789580Y-45357142D02*
X14837200Y-45309523D01*
X14837200Y-45309523D02*
X14884819Y-45166666D01*
X14884819Y-45166666D02*
X14884819Y-45071428D01*
X14884819Y-45071428D02*
X14837200Y-44928571D01*
X14837200Y-44928571D02*
X14741961Y-44833333D01*
X14741961Y-44833333D02*
X14646723Y-44785714D01*
X14646723Y-44785714D02*
X14456247Y-44738095D01*
X14456247Y-44738095D02*
X14313390Y-44738095D01*
X14313390Y-44738095D02*
X14122914Y-44785714D01*
X14122914Y-44785714D02*
X14027676Y-44833333D01*
X14027676Y-44833333D02*
X13932438Y-44928571D01*
X13932438Y-44928571D02*
X13884819Y-45071428D01*
X13884819Y-45071428D02*
X13884819Y-45166666D01*
X13884819Y-45166666D02*
X13932438Y-45309523D01*
X13932438Y-45309523D02*
X13980057Y-45357142D01*
X14884819Y-46309523D02*
X14884819Y-45738095D01*
X14884819Y-46023809D02*
X13884819Y-46023809D01*
X13884819Y-46023809D02*
X14027676Y-45928571D01*
X14027676Y-45928571D02*
X14122914Y-45833333D01*
X14122914Y-45833333D02*
X14170533Y-45738095D01*
X13884819Y-47214285D02*
X13884819Y-46738095D01*
X13884819Y-46738095D02*
X14361009Y-46690476D01*
X14361009Y-46690476D02*
X14313390Y-46738095D01*
X14313390Y-46738095D02*
X14265771Y-46833333D01*
X14265771Y-46833333D02*
X14265771Y-47071428D01*
X14265771Y-47071428D02*
X14313390Y-47166666D01*
X14313390Y-47166666D02*
X14361009Y-47214285D01*
X14361009Y-47214285D02*
X14456247Y-47261904D01*
X14456247Y-47261904D02*
X14694342Y-47261904D01*
X14694342Y-47261904D02*
X14789580Y-47214285D01*
X14789580Y-47214285D02*
X14837200Y-47166666D01*
X14837200Y-47166666D02*
X14884819Y-47071428D01*
X14884819Y-47071428D02*
X14884819Y-46833333D01*
X14884819Y-46833333D02*
X14837200Y-46738095D01*
X14837200Y-46738095D02*
X14789580Y-46690476D01*
X22333333Y-50154819D02*
X22333333Y-50869104D01*
X22333333Y-50869104D02*
X22380952Y-51011961D01*
X22380952Y-51011961D02*
X22476190Y-51107200D01*
X22476190Y-51107200D02*
X22619047Y-51154819D01*
X22619047Y-51154819D02*
X22714285Y-51154819D01*
X21380952Y-50154819D02*
X21857142Y-50154819D01*
X21857142Y-50154819D02*
X21904761Y-50631009D01*
X21904761Y-50631009D02*
X21857142Y-50583390D01*
X21857142Y-50583390D02*
X21761904Y-50535771D01*
X21761904Y-50535771D02*
X21523809Y-50535771D01*
X21523809Y-50535771D02*
X21428571Y-50583390D01*
X21428571Y-50583390D02*
X21380952Y-50631009D01*
X21380952Y-50631009D02*
X21333333Y-50726247D01*
X21333333Y-50726247D02*
X21333333Y-50964342D01*
X21333333Y-50964342D02*
X21380952Y-51059580D01*
X21380952Y-51059580D02*
X21428571Y-51107200D01*
X21428571Y-51107200D02*
X21523809Y-51154819D01*
X21523809Y-51154819D02*
X21761904Y-51154819D01*
X21761904Y-51154819D02*
X21857142Y-51107200D01*
X21857142Y-51107200D02*
X21904761Y-51059580D01*
X12019580Y-45357142D02*
X12067200Y-45309523D01*
X12067200Y-45309523D02*
X12114819Y-45166666D01*
X12114819Y-45166666D02*
X12114819Y-45071428D01*
X12114819Y-45071428D02*
X12067200Y-44928571D01*
X12067200Y-44928571D02*
X11971961Y-44833333D01*
X11971961Y-44833333D02*
X11876723Y-44785714D01*
X11876723Y-44785714D02*
X11686247Y-44738095D01*
X11686247Y-44738095D02*
X11543390Y-44738095D01*
X11543390Y-44738095D02*
X11352914Y-44785714D01*
X11352914Y-44785714D02*
X11257676Y-44833333D01*
X11257676Y-44833333D02*
X11162438Y-44928571D01*
X11162438Y-44928571D02*
X11114819Y-45071428D01*
X11114819Y-45071428D02*
X11114819Y-45166666D01*
X11114819Y-45166666D02*
X11162438Y-45309523D01*
X11162438Y-45309523D02*
X11210057Y-45357142D01*
X12114819Y-46309523D02*
X12114819Y-45738095D01*
X12114819Y-46023809D02*
X11114819Y-46023809D01*
X11114819Y-46023809D02*
X11257676Y-45928571D01*
X11257676Y-45928571D02*
X11352914Y-45833333D01*
X11352914Y-45833333D02*
X11400533Y-45738095D01*
X11448152Y-47166666D02*
X12114819Y-47166666D01*
X11067200Y-46928571D02*
X11781485Y-46690476D01*
X11781485Y-46690476D02*
X11781485Y-47309523D01*
D11*
X18990475Y-40664895D02*
X18990475Y-41312514D01*
X18990475Y-41312514D02*
X18952380Y-41388704D01*
X18952380Y-41388704D02*
X18914285Y-41426800D01*
X18914285Y-41426800D02*
X18838094Y-41464895D01*
X18838094Y-41464895D02*
X18685713Y-41464895D01*
X18685713Y-41464895D02*
X18609523Y-41426800D01*
X18609523Y-41426800D02*
X18571428Y-41388704D01*
X18571428Y-41388704D02*
X18533332Y-41312514D01*
X18533332Y-41312514D02*
X18533332Y-40664895D01*
X17733333Y-41464895D02*
X18190476Y-41464895D01*
X17961904Y-41464895D02*
X17961904Y-40664895D01*
X17961904Y-40664895D02*
X18038095Y-40779180D01*
X18038095Y-40779180D02*
X18114285Y-40855371D01*
X18114285Y-40855371D02*
X18190476Y-40893466D01*
X17238094Y-40664895D02*
X17161904Y-40664895D01*
X17161904Y-40664895D02*
X17085713Y-40702990D01*
X17085713Y-40702990D02*
X17047618Y-40741085D01*
X17047618Y-40741085D02*
X17009523Y-40817276D01*
X17009523Y-40817276D02*
X16971428Y-40969657D01*
X16971428Y-40969657D02*
X16971428Y-41160133D01*
X16971428Y-41160133D02*
X17009523Y-41312514D01*
X17009523Y-41312514D02*
X17047618Y-41388704D01*
X17047618Y-41388704D02*
X17085713Y-41426800D01*
X17085713Y-41426800D02*
X17161904Y-41464895D01*
X17161904Y-41464895D02*
X17238094Y-41464895D01*
X17238094Y-41464895D02*
X17314285Y-41426800D01*
X17314285Y-41426800D02*
X17352380Y-41388704D01*
X17352380Y-41388704D02*
X17390475Y-41312514D01*
X17390475Y-41312514D02*
X17428571Y-41160133D01*
X17428571Y-41160133D02*
X17428571Y-40969657D01*
X17428571Y-40969657D02*
X17390475Y-40817276D01*
X17390475Y-40817276D02*
X17352380Y-40741085D01*
X17352380Y-40741085D02*
X17314285Y-40702990D01*
X17314285Y-40702990D02*
X17238094Y-40664895D01*
%TO.C,C15*%
D12*
X12490000Y-46140580D02*
X12490000Y-45859420D01*
X13510000Y-46140580D02*
X13510000Y-45859420D01*
%TO.C,J5*%
X20640000Y-46100000D02*
X20640000Y-46740000D01*
X20640000Y-48260000D02*
X20010000Y-48260000D01*
X20640000Y-48900000D02*
X20640000Y-48260000D01*
X23360000Y-48850000D02*
X23360000Y-46150000D01*
%TO.C,C14*%
X10140000Y-46107836D02*
X10140000Y-45892164D01*
X10860000Y-46107836D02*
X10860000Y-45892164D01*
%TO.C,U10*%
D10*
X26450000Y-20982001D02*
G75*
G02*
X26150000Y-20982001I-150000J0D01*
G01*
X26150000Y-20982001D02*
G75*
G02*
X26450000Y-20982001I150000J0D01*
G01*
%TD*%
%LPC*%
%TO.C,J5*%
G36*
X21010000Y-46560000D02*
G01*
X23100000Y-46560000D01*
X23100000Y-48440000D01*
X21010000Y-48440000D01*
X21010000Y-46560000D01*
G37*
%TD*%
D13*
%TO.C,J1*%
X9110000Y-46400000D03*
X14890000Y-46400000D03*
D14*
X7680000Y-45870000D03*
D15*
X7680000Y-50050000D03*
D14*
X16320000Y-45870000D03*
D15*
X16320000Y-50050000D03*
%TD*%
D16*
%TO.C,J3*%
X46000000Y-43500000D03*
D17*
X46000000Y-41500000D03*
%TD*%
D18*
%TO.C,J2*%
X47000000Y-10500000D03*
D19*
X45000000Y-10500000D03*
%TD*%
D20*
%TO.C,SW1*%
X2870000Y-44000000D03*
X2870000Y-47000000D03*
%TD*%
D16*
%TO.C,J4*%
X38000000Y-17500000D03*
D17*
X38000000Y-15500000D03*
X38000000Y-13500000D03*
X38000000Y-11500000D03*
X38000000Y-9500000D03*
X38000000Y-7500000D03*
X38000000Y-5500000D03*
X38000000Y-3500000D03*
%TD*%
D21*
%TO.C,C15*%
X13000000Y-46775000D03*
X13000000Y-45225000D03*
%TD*%
D22*
%TO.C,J5*%
X20475000Y-47500000D03*
D23*
X22000000Y-46025000D03*
X22000000Y-48975000D03*
%TD*%
D24*
%TO.C,C14*%
X10500000Y-46480000D03*
X10500000Y-45520000D03*
%TD*%
D25*
%TO.C,U10*%
X24985000Y-20982001D03*
X24985000Y-22252001D03*
X24985000Y-23522001D03*
X24985000Y-29110001D03*
X24985000Y-30380000D03*
X24985000Y-31650000D03*
X24985000Y-32920000D03*
X24985000Y-34190000D03*
X24985000Y-35460000D03*
X24985000Y-36730000D03*
X24985000Y-38000000D03*
X11015000Y-38000000D03*
X11015000Y-36730000D03*
X11015000Y-35460000D03*
X11015000Y-34190000D03*
X11015000Y-32920000D03*
X11015000Y-31650000D03*
X11015000Y-30380000D03*
X11015000Y-29110001D03*
X11015000Y-23522001D03*
X11015000Y-22252001D03*
X11015000Y-20982001D03*
%TD*%
%LPD*%
M02*
